<svg xmlns="http://www.w3.org/2000/svg" enable-background="new 0 0 4300 5000" viewBox="0 0 4300 5000" width="550" height="550"><ellipse cx="2158.244" cy="4348.501" fill="#f4dcd3" rx="1035.341" ry="221.934" class="colorf4dcd3 svgShape"></ellipse><path fill="#f4dcd3" d="M3536 2682.618c-6.732 838.285-563.35 1531.045-1338.876 1543.879-53.891-.004-107.848-3.653-161.054-11.001-690.006-104.413-1172.236-748.65-1178.761-1532.873C889.737 652.554 3503.532 651.554 3536 2682.618z" class="colorf4dcd3 svgShape"></path><path fill="#fff7f5" d="M2229.5 1612.395c-3.336-3.337-8.811-5.849-13.603-5.635-10.423.467-19.238 8.453-19.238 19.238v10.848c0 4.933 2.146 10.115 5.635 13.603 3.337 3.337 8.811 5.849 13.604 5.635 10.423-.467 19.238-8.453 19.238-19.238v-10.848c-.002-4.933-2.148-10.114-5.636-13.603zM2272.891 1373.742c-3.667-3.366-8.48-5.864-13.604-5.635-5.103.229-9.921 1.953-13.603 5.635l-5.424 5.424c-3.489 3.489-5.635 8.671-5.635 13.603 0 4.719 2.096 10.355 5.635 13.604 3.666 3.365 8.48 5.864 13.603 5.635 5.103-.229 9.921-1.953 13.603-5.635l5.424-5.424c3.489-3.489 5.635-8.671 5.635-13.604.001-4.719-2.095-10.355-5.634-13.603zM2327.335 1227.085c-24.758 0-24.799 38.476 0 38.476 24.757 0 24.798-38.476 0-38.476zM2906.496 1560.542c-8.754-4.625-21.473-2.687-26.321 6.902-.184.364-.452.75-.708 1.14-.559.156-1.108.36-1.686.474-4.05.678-7.772 2.218-10.814 5.26-3.337 3.337-5.849 8.811-5.635 13.603.44 9.823 8.487 19.988 19.238 19.238 13.531-.944 26.518-7.817 32.827-20.295 4.537-8.972 2.665-21.268-6.901-26.322zM2745.461 2343.482l-5.424-10.848c-2.076-4.151-7.138-7.641-11.497-8.841-4.605-1.268-10.737-.696-14.824 1.939-4.108 2.649-7.724 6.592-8.841 11.497-1.192 5.235-.471 10.004 1.94 14.824l5.424 10.848c2.076 4.151 7.138 7.641 11.498 8.841 4.605 1.268 10.737.696 14.824-1.94 4.108-2.648 7.724-6.592 8.841-11.497 1.191-5.235.469-10.003-1.941-14.823zM2661.023 1994.169c-24.758 0-24.799 38.476 0 38.476 24.758 0 24.799-38.476 0-38.476zM2587.604 1615.107c-3.337-3.337-8.811-5.849-13.604-5.635-4.975.223-10.135 1.857-13.603 5.635-3.455 3.764-5.635 8.391-5.635 13.603v5.424c0 4.933 2.146 10.115 5.635 13.603 3.336 3.337 8.811 5.849 13.603 5.635 4.976-.223 10.136-1.857 13.604-5.635 3.455-3.764 5.635-8.391 5.635-13.603v-5.424c-.001-4.933-2.146-10.114-5.635-13.603zM2609.379 1357.259c-24.758 0-24.799 38.476 0 38.476 24.758 0 24.799-38.476 0-38.476zM1701.598 1543.651c-8.253 0-8.266 12.825 0 12.825 8.252 0 8.266-12.825 0-12.825zM2367.766 1389.068c-8.253 0-8.266 12.825 0 12.825 8.253.001 8.267-12.825 0-12.825zM1628.374 1766.032c-8.252 0-8.266 12.825 0 12.825 8.253 0 8.267-12.825 0-12.825zM1527.142 1502.137c-2.457-2.457-6.612-2.457-9.069 0l-2.712 2.712c-2.449 2.449-2.449 6.62 0 9.069 2.457 2.458 6.612 2.457 9.069 0l2.712-2.712c2.449-2.449 2.449-6.62 0-9.069zM2396.542 1515.16l-2.712-2.712c-3.167-3.167-8.968-3.403-12.092 0-3.133 3.413-3.38 8.712 0 12.092l2.712 2.712c3.167 3.167 8.968 3.403 12.092 0 3.133-3.413 3.38-8.712 0-12.092zM1739.369 1365.235h-2.712c-4.472 0-8.757 3.932-8.55 8.55.207 4.632 3.757 8.55 8.55 8.55h2.712c4.472 0 8.757-3.933 8.55-8.55-.208-4.632-3.757-8.55-8.55-8.55zM2753.736 1774.534c-3.413-3.133-8.712-3.38-12.092 0l-2.712 2.712c-3.167 3.167-3.403 8.968 0 12.092 3.413 3.133 8.712 3.38 12.092 0l2.712-2.712c3.167-3.167 3.402-8.968 0-12.092zM2717.858 1416.762c-11.004 0-11.022 17.1 0 17.1 11.003.001 11.022-17.1 0-17.1zM2582.26 1256.756c-11.003 0-11.021 17.101 0 17.101 11.003 0 11.021-17.101 0-17.101zM3062.278 2257.472c-11.004 0-11.022 17.1 0 17.1 11.003.001 11.022-17.1 0-17.1zM3216.86 2436.462c-4.633.207-8.55 3.757-8.55 8.55v2.712c0 4.472 3.933 8.757 8.55 8.55 4.633-.208 8.55-3.757 8.55-8.55v-2.712c0-4.472-3.932-8.757-8.55-8.55zM3064.99 2439.174c-11.003 0-11.021 17.1 0 17.1 11.003.001 11.021-17.1 0-17.1zM2934.815 2260.184c-11.003 0-11.021 17.101 0 17.101 11.004 0 11.022-17.101 0-17.101zM2862.319 2053.913c-11.003 0-11.022 17.101 0 17.101 11.003-.001 11.021-17.101 0-17.101zM3070.414 1812.71h-2.712c-4.472 0-8.757 3.933-8.55 8.55.208 4.633 3.757 8.55 8.55 8.55h2.712c4.472 0 8.757-3.933 8.55-8.55-.207-4.633-3.757-8.55-8.55-8.55zM2929.391 1763.894c-11.003 0-11.021 17.1 0 17.1 11.004.001 11.022-17.1 0-17.1zM1437.181 2189.673c-4.633.208-8.55 3.757-8.55 8.55v4.068c0 4.472 3.933 8.757 8.55 8.55 4.633-.208 8.55-3.757 8.55-8.55v-4.068c0-4.472-3.933-8.757-8.55-8.55zM1282.599 2108.314c-11.004 0-11.022 17.101 0 17.101 11.003 0 11.021-17.101 0-17.101zM1500.178 1683.684l-4.068-4.068c-3.167-3.167-8.968-3.403-12.092 0-3.133 3.413-3.38 8.712 0 12.092l4.068 4.068c3.167 3.167 8.968 3.403 12.092 0 3.133-3.414 3.38-8.713 0-12.092zM1459.965 1923.226c-5.973-5.483-15.246-5.914-21.161 0l-4.068 4.068c-5.542 5.542-5.955 15.694 0 21.161 5.973 5.484 15.246 5.915 21.161 0l4.068-4.068c5.542-5.542 5.955-15.694 0-21.161zM1406.615 1598.256c-3.413-3.133-8.712-3.38-12.092 0l-4.068 4.068c-3.167 3.167-3.403 8.968 0 12.092 3.413 3.133 8.712 3.38 12.092 0l4.068-4.068c3.167-3.167 3.403-8.968 0-12.092zM1286.667 1819.49c-11.004 0-11.021 17.1 0 17.1 11.003 0 11.021-17.1 0-17.1zM1286.667 1959.523c-19.256 0-19.288 29.926 0 29.926 19.255 0 19.287-29.926 0-29.926zM1172.764 2085.629c-19.256 0-19.288 29.926 0 29.926 19.256 0 19.288-29.926 0-29.926zM3003.081 1998.427c-2.458-2.457-6.612-2.457-9.069 0l-4.068 4.068c-2.449 2.449-2.449 6.62 0 9.069 2.457 2.457 6.612 2.457 9.069 0l4.068-4.068c2.449-2.449 2.449-6.62 0-9.069zM2962.095 2605.053l-5.593-2.85c-4.121-2.1-9.79-1.217-12.11 3.176-2.134 4.039-1.229 9.866 3.175 12.11l5.593 2.85c4.121 2.1 9.789 1.217 12.11-3.175 2.135-4.04 1.23-9.867-3.175-12.111zM1348.384 2478.392c-3.533-3.244-9.019-3.499-12.517 0l-4.211 4.211c-3.278 3.278-3.523 9.284 0 12.517 3.533 3.244 9.019 3.499 12.517 0l4.211-4.211c3.278-3.278 3.523-9.283 0-12.517z" class="colorfff7f5 svgShape"></path><path fill="#eac7b9" d="M2946.38 3783.02c129.161-277.812 221.395-571.846 273.918-873.684 1.463-8.408 14.653-6.676 13.18 1.789a3507.702 3507.702 0 0 1-61.656 283.963c49.301-15.629 92.262-43.984 125.788-83.759 5.507-6.534 16.13 1.473 10.606 8.026-34.859 41.356-79.426 71.465-130.734 87.837l-10.406 5.547c-52.569 197.323-122.223 389.988-208.404 575.353-3.601 7.749-15.909 2.709-12.292-5.072z" class="coloreac7b9 svgShape"></path><circle cx="3226.408" cy="2924.364" r="83.832" fill="#efcfc5" class="colorefcfc5 svgShape"></circle><circle cx="3316.979" cy="3122.324" r="48.098" fill="#efcfc5" class="colorefcfc5 svgShape"></circle><path fill="#f7eae7" d="M3238.336 2898.832a1238.627 1238.627 0 0 1 99.603 8.66c5.658.723 4.482 9.512-1.193 8.787a1237.711 1237.711 0 0 0-99.603-8.66c-5.695-.265-4.48-9.051 1.193-8.787zM3227.231 2920.582l112.974 31.455c5.492 1.529 2.057 9.71-3.382 8.196l-112.974-31.455c-5.491-1.529-2.056-9.71 3.382-8.196zM3214.252 2947.797c31.869 22.759 65.878 41.713 101.982 56.868 5.266 2.21 1.889 10.408-3.382 8.196-36.809-15.451-71.466-34.795-103.951-57.992-4.656-3.326.713-10.384 5.351-7.072zM3190.69 2963.706l37.856 72.434c2.642 5.055-5.56 8.429-8.187 3.404l-37.856-72.434c-2.641-5.056 5.56-8.43 8.187-3.404zM3328.014 3095.446a878.06 878.06 0 0 0 78.925 6.501c5.695.211 4.476 8.997-1.193 8.787a877.664 877.664 0 0 1-78.925-6.501c-5.658-.724-4.482-9.513 1.193-8.787zM3327.412 3110.514a728.666 728.666 0 0 1 67.025 27.935c5.138 2.449 1.782 10.656-3.382 8.196a728.272 728.272 0 0 0-67.025-27.935c-5.381-1.934-1.98-10.123 3.382-8.196zM3326.139 3131.069c12.947 15.863 26.915 30.682 42.046 44.484 4.19 3.822-1.134 10.917-5.351 7.071-15.686-14.309-30.257-29.645-43.684-46.097-3.615-4.429 3.385-9.874 6.989-5.458zM3312.888 3214.202a3423.068 3423.068 0 0 0-10.164-66.061c-.922-5.628 7.876-6.741 8.799-1.106a3430.862 3430.862 0 0 1 10.164 66.061c.811 5.644-7.985 6.766-8.799 1.106z" class="colorf7eae7 svgShape"></path><path fill="#efcfc5" d="M3160.713 3514.048c3.9-9.647-11.64-14.244-15.526-4.631-58.993 145.959-415.372 514.969-547.31 608.25-8.5 6.01 4.569 22.275 12.968 16.336 134.257-94.92 489.849-471.458 549.868-619.955z" class="colorefcfc5 svgShape"></path><path fill="#efcfc5" d="M3129.502 3484.143s-39.582-127.983 19.885-155.182 83.88 54.278 83.88 54.278 108.626-80.366 111.408 17.337c2.782 97.703-198.85 144.403-198.85 144.403l-16.323-60.836zM3083.207 3632.511s107.853-24.32 106.949 17.296c-.903 41.616-147.305 46.483-143.953 25.256l37.004-42.552z" class="colorefcfc5 svgShape"></path><path fill="#f7eae7" d="M3166.467 3354.299c-16.33-.38-16.948 24.998-.591 25.378 16.33.38 16.947-24.998.591-25.378zM3255.778 3438.706c-16.33-.38-16.947 24.997-.591 25.378 16.33.38 16.948-24.997.591-25.378zM3159.35 3506.26l-3.577-.083c-6.637-.155-13.132 5.534-12.985 12.394.148 6.883 5.28 12.819 12.394 12.984l3.578.083c6.637.155 13.132-5.534 12.984-12.394-.148-6.881-5.28-12.818-12.394-12.984zM3182.938 3415.534l-1.789-.042c-6.637-.155-13.132 5.534-12.985 12.394.148 6.881 5.28 12.819 12.394 12.984l1.789.042c6.637.154 13.132-5.534 12.984-12.394-.147-6.883-5.279-12.819-12.393-12.984zM3325.417 3368.737c-16.33-.38-16.947 24.998-.591 25.378 16.33.38 16.948-24.998.591-25.378zM3216.882 3495.072c-6.882.148-12.819 5.28-12.984 12.394l-.042 1.789c-.155 6.637 5.534 13.132 12.394 12.984 6.882-.148 12.819-5.28 12.985-12.394l.042-1.789c.153-6.637-5.535-13.131-12.395-12.984zM3254.033 3359.917c-16.33-.38-16.947 24.998-.591 25.378 16.33.38 16.948-24.997.591-25.378zM3323.585 3447.442c-16.33-.38-16.947 24.998-.591 25.378 16.33.381 16.948-24.997.591-25.378zM3124.99 3444.609c-6.882.149-12.819 5.281-12.984 12.394l-.042 1.79c-.155 6.637 5.534 13.132 12.394 12.984 6.882-.149 12.819-5.28 12.984-12.394l.042-1.79c.154-6.636-5.534-13.131-12.394-12.984zM3210.297 3317.874c-4.958-4.768-12.813-5.316-17.945-.418l-1.83 1.747c-4.81 4.59-5.36 13.192-.418 17.945 4.957 4.768 12.813 5.316 17.945.418l1.83-1.747c4.809-4.59 5.36-13.192.418-17.945zM3127.613 3331.917c-16.33-.38-16.948 24.998-.591 25.378 16.33.381 16.948-24.997.591-25.378z" class="colorf7eae7 svgShape"></path><path fill="#efcfc5" d="M3167.167 3838.262c72.083-12.879 153.223-34.712 192.203-102.768 3.119-5.445-5.705-9.625-8.817-4.191-36.622 63.939-114.554 84.683-182.169 96.882-59.096 10.662-122.346 19.256-173.155 53.784-53.472 36.338-72.492 96.409-95.036 153.723-11.422 29.038-24.453 58.257-45.659 81.604-21.408 23.569-50.265 38.289-81.177 44.939-79.234 17.045-113.35 5.112-183.724-27.226-5.697-2.618-9.919 6.185-4.191 8.817 62.548 28.742 85.788 35.924 156.279 32.304 29.981-1.54 60.006-9.104 85.967-24.459 26.456-15.647 46.176-39.396 60.722-66.174 31.146-57.336 40.713-127.882 88.169-175.583 49.524-49.778 124.705-59.88 190.588-71.652z" class="colorefcfc5 svgShape"></path><path fill="#efcfc5" d="M3334.065 3764.016c-3.672-21.94 143.479 1.124 127.015 37.57-43.063 95.326-109.515-6.29-127.015-37.57zM3350.553 3731.303c2.415-.414 5.906-1.983 10.216-4.371 35.185-19.491 122.563-93.206 130.03-37.556 13.204 98.414-140.246 41.927-140.246 41.927z" class="colorefcfc5 svgShape"></path><path fill="#efcfc5" d="M3359.37 3735.494s-74.437-77.243-12.733-111.856 72.987 93.493 12.733 111.856z" class="colorefcfc5 svgShape"></path><path fill="#efcfc5" d="M3264.78 3793.629s82.908-140.727 24.748-127.421-86.059 103.579-46.987 139.448c13.517 12.408 22.239-12.027 22.239-12.027z" class="colorefcfc5 svgShape"></path><path fill="#efcfc5" d="M3242.541 3805.656s-5.599 87.552 68.938 100.731c74.537 13.18 87.573-25.854 57.035-44.37-30.538-18.516-125.973-56.361-125.973-56.361zM3183.5 3825.324s45.873-135.86-2.044-141.427c-47.917-5.566-77.015 98.261 2.044 141.427zM3183.5 3825.324c-10.296 8.156-9.953 21.224-10.725 34.337-2.781 47.302 29.632 81.851 65.677 93.344 51.325 16.365 71.81-8.044 40.401-35.616-31.41-27.572-79.02-105.003-95.353-92.065zM3091.324 3845.913s37.04-102.94-6.722-117.974c-43.763-15.033-91.779 86.482 6.722 117.974z" class="colorefcfc5 svgShape"></path><path fill="#efcfc5" d="M3091.324 3845.913c-21.55 2.684 22.204 144.612 58.039 131.805 35.835-12.806 27.729-53.2 9.075-72.212l-18.655-19.012-48.459-40.581z" class="colorefcfc5 svgShape"></path><path fill="#eac7b9" d="M3004.257 3871.621c7.737 3.435 9.594-115.115-31.135-118.808-40.729-3.692-41.094 86.743 31.135 118.808z" class="coloreac7b9 svgShape"></path><path fill="#efcfc5" d="M3015.194 3886.483a92.801 92.801 0 0 1 28.085 10.627c27.865 16.087 84.25 53.587 61.04 82.172-49.15 60.534-116.905-98.396-96.209-94.226l7.084 1.427z" class="colorefcfc5 svgShape"></path><path fill="#eac7b9" d="M2962.631 3920.699s3.543-72.859-36.912-107.114c-40.456-34.255-85.123-23.208-64.686 34.716 20.438 57.923 101.598 72.398 101.598 72.398zM2911.25 4027.014s-24.618-162.202-82.837-136.007c-58.219 26.195 14.028 76.381 31.024 98.725 16.996 22.344 40.755 45.961 40.755 45.961l11.058-8.679zM2962.631 3920.699s122.727 73.554 69.437 120.271c-39.812 34.902-79.869-14.772-83.549-51.055-3.68-36.284 14.112-69.216 14.112-69.216z" class="coloreac7b9 svgShape"></path><path fill="#efcfc5" d="M2911.25 4027.014s128.125 49.18 93.487 99.037c-34.638 49.857-80.519-2.307-92.531-46.332-12.014-44.026-.956-52.705-.956-52.705zM2865.727 4105.905s-67.594-123.181-90.592-88.757c-22.998 34.425 5.295 83.506 25.811 91.01 20.516 7.505 64.781-2.253 64.781-2.253z" class="colorefcfc5 svgShape"></path><path fill="#eac7b9" d="M2876.027 4187.207c12.272 21.18 30.156 38.956 54.566 37.12 11.171-.841 22.039-5.157 29.508-16.214 22.407-33.172-116.82-128.456-114.589-96.92 1.251 17.678 8.466 37.958 30.515 76.014z" class="coloreac7b9 svgShape"></path><path fill="#efcfc5" d="M2766.37 3660.782s5.355-60.647 43.311-72.217 71.77-4.638 71.77-4.638-17.914 112.389-115.081 76.855zM2813.276 3261.081s-55.709 114.016-68.891 104.972c-13.183-9.045-29.973-30.617-33.083-37.446-66.934-147.005 33.974-38.535 33.974-38.535l68-28.991z" class="colorefcfc5 svgShape"></path><path fill="#efcfc5" d="M2540.072 4021.642c68.428-89.392 119.573-191.45 149.412-300.053 1.577-5.742 3.021-11.513 4.463-17.284 1.008 1.182 2.629 1.838 4.4.925 30.811-15.875 59.002-35.37 84.778-58.524 3.491-3.136-1.639-8.324-5.131-5.187-25.135 22.579-52.578 41.483-82.565 57.002 12.818-52.944 20.471-106.98 28.926-160.772l5.407-34.401c21.332-5.68 40.221-15.905 56.683-30.614 3.499-3.126-1.631-8.313-5.131-5.187-14.737 13.167-31.44 22.347-50.3 27.829l25.315-161.062c.721-4.587-6.292-6.613-7.021-1.977l-31.415 199.866c-5.39 34.294-10.449 68.703-16.652 102.881-59.428-70.914-97.685-156.679-110.926-248.308-.672-4.649-7.749-2.857-7.083 1.748 13.668 94.583 53.883 182.906 115.979 255.518.11.129.238.168.354.274-4.392 23.313-9.389 46.502-15.519 69.445-29.447 110.218-80.961 213.648-150.267 304.187-2.843 3.717 3.467 7.385 6.293 3.694z" class="colorefcfc5 svgShape"></path><path fill="#efcfc5" d="M2765.379 3476.644s52.535 34.215 77.298.909c15.007-20.185 15.237-37.599 13.088-48.187-1.339-6.601-7.031-11.443-13.765-11.587-21.358-.455-70.134 4.556-76.621 58.865zM2598.974 3439.388s58.984 18.607 83.318-32.218c0 0-50.735-43.996-83.318 32.218zM2507.359 3431.593s21.402 39.943 95.104 14.02c0-.001-71.125-65.1-95.104-14.02z" class="colorefcfc5 svgShape"></path><path fill="#eac7b9" d="M2822.799 3280.671c-3.08 5.642-7.389 10.82-13.069 15.262-11.693 9.235-24.469 18.232-35.684 25.687-9.075 6.056-17.076 11.157-22.65 14.547-5.043 3.19-8.072 4.967-8.072 4.967s-3.067-1.629-7.98-4.762a225.63 225.63 0 0 1-10.461-7.141c-6.212-4.583-13.362-10.41-20.439-17.377a155.073 155.073 0 0 1-9.018-9.631c-6.541-7.636-12.639-16.29-17.406-25.916-7.36-14.863-7.516-30.188-10.584-46.19-3.992-20.817 18.004-52.294 41.625-39.503 3.345 1.827 6.794 4.302 10.25 7.544 6.535 6.02 13.066 14.591 19.204 25.8.546.906 1.046 1.85 1.546 2.793 5.745-6.35 12.185-11.567 19.093-15.12 5.746-2.991 11.882-4.793 18.163-5.093 1.322-.036 2.602-.077 3.835-.08 5.687.108 10.944 1.108 15.745 2.827 4.313 1.5 8.222 3.638 11.747 6.207 4.593 3.356 8.47 7.491 11.571 12.143 2.698 4.016 4.81 8.353 6.215 12.961 4.177 12.928 3.297 27.509-3.631 40.075zM2590.317 3386.776s48.063-18.306 59.586-55.089c6.19-19.758.722-30.716-8.273-36.729-16.225-10.847-38.431-2.016-44.222 16.622l-.463 1.489s-25.245-41.001-44.548-31.277c-19.303 9.724-12.195 96.246 37.92 104.984z" class="coloreac7b9 svgShape"></path><path fill="#efcfc5" d="M3045.926 3195.233c-74.915 330.05-221.733 640.82-428.881 908.447-10.222 13.207-29.624-3.962-19.467-17.085 204.384-264.057 349.082-570.99 422.99-896.606 3.69-16.255 29.056-11.045 25.358 5.244z" class="colorefcfc5 svgShape"></path><circle cx="3017.777" cy="3145.249" r="100.597" fill="#f7eae7" class="colorf7eae7 svgShape"></circle><circle cx="3018.661" cy="3158.008" r="39.63" fill="#efcfc5" class="colorefcfc5 svgShape"></circle><path fill="#eac7b9" d="m3071.861 3089.604-9.248 15.867c-4.183 7.177-15.802 1.454-11.601-5.753l9.248-15.867c4.183-7.177 15.802-1.454 11.601 5.753zM3014.921 3066.067c3.68-1.192 6.649.999 8.152 4.171 3.332 7.031 3.826 15.386 1.401 22.775-1.089 3.319-3.954 5.792-7.65 5.028-3.125-.646-6.125-4.311-5.029-7.651 1.841-5.611 1.48-10.841-1.046-16.171-1.498-3.163 1.156-7.176 4.172-8.152zM2950.752 3099.661c7.259 4.396 13.744 9.605 19.332 16.006 2.317 2.654 3.088 6.237.595 9.138-2.043 2.379-6.841 3.227-9.138.596-4.815-5.516-10.269-10.34-16.542-14.139-7.092-4.294-1.379-15.92 5.753-11.601zM3075.692 3167.34c5.355 2.076 10.218 4.92 14.832 8.332 2.812 2.079 2.766 6.669.596 9.138-2.474 2.814-6.316 2.682-9.138.595-3.693-2.73-7.766-4.806-12.042-6.464-3.262-1.265-4.377-5.745-2.924-8.677 1.671-3.374 5.407-4.191 8.676-2.924zM2975.403 3180.586c2.378 2.042 3.228 6.843.596 9.138-7.027 6.126-14.365 11.639-22.375 16.425-7.132 4.261-14.281-6.536-7.111-10.819 6.964-4.16 13.633-8.812 19.753-14.147 2.654-2.316 6.235-3.09 9.137-.597zM2990.191 3196.114c3.76-.197 6.296 2.653 6.806 6.126.644 4.39-.252 8.885-2.362 12.774-3.972 7.323-15.58 1.582-11.601-5.753 1.175-2.166 1.39-3.899 1.031-6.342-.507-3.459 2.867-6.635 6.126-6.805z" class="coloreac7b9 svgShape"></path><path fill="#f7eae7" d="M2781.779 3206.485c-2.531 5.575-4.592 11.413-6.874 17.117a1515.05 1515.05 0 0 0-19.755 52.862c-5.446 15.369-14.04 41.353-19.929 59.829l.124.08c4.914 3.133 7.98 4.762 7.98 4.762s1.613-.947 4.434-2.691c5.805-18.124 13.763-42.115 18.864-56.571a1528.398 1528.398 0 0 1 16.845-45.344c3.435-8.9 6.468-19.16 11.308-27.939-4.035-1.232-8.372-1.962-12.997-2.105zM2819.432 3226.514c-2.619-3.705-5.741-7.056-9.343-9.912-16.942 35.769-31.493 72.511-43.698 110.067a862.555 862.555 0 0 0 7.656-5.049 645.737 645.737 0 0 0 6.528-4.403 869.124 869.124 0 0 0 3.532-3.45c10.251-29.652 22.059-58.749 35.325-87.253zM2704.444 3311.855a180.756 180.756 0 0 0 9.503 8.691c10.463-30.583 21.544-66.993 31.013-98.756a81.212 81.212 0 0 0-4.9 4.963c-.5-.943-1-1.887-1.546-2.793a136.042 136.042 0 0 0-5.173-8.686c-8.287 27.401-20.761 69.481-29.556 95.922.22.218.439.444.659.659zM2674.329 3267.115c.99 3.085 2.183 6.15 3.691 9.194a111.401 111.401 0 0 0 4.252 7.759c8.072-25.985 20.926-64.727 29.41-91.894a44.358 44.358 0 0 0-2.622-1.557c-3.114-1.686-6.198-2.596-9.2-2.87-7.377 23.463-18.337 56.472-25.531 79.368z" class="colorf7eae7 svgShape"></path><path fill="#efcfc5" d="M1623.869 3462.924s-43.067-44.148-80.259-28.9c-28.51 11.688-48.143 30.346-55.756 38.42a4.906 4.906 0 0 0 .573 7.282c17.711 13.759 88.926 61.64 135.442-16.802zM1398.024 3227.143s49.667 6.014 54.213-9.53c4.546-15.544 5.516-43.863 1.956-50.578-3.56-6.716-51.348-8.459-51.348-8.459l-4.821 68.567z" class="colorefcfc5 svgShape"></path><path fill="#efcfc5" d="M1665.912 3389.681c.06 5.684.043 11.374-.085 17.072-.004.172-.08.285-.102.442 18.386 15.475 37.167 30.465 56.679 44.536 5.661 4.083 11.405 8.039 17.171 11.958-18.998-29.782-45.22-52.035-73.663-74.008zm106.119 152.131c-5.145-16.785-10.89-33.261-17.496-49.325-2.036-5.099-4.402-9.821-6.767-14.542-8.271-5.383-16.554-10.942-24.578-16.608a439.437 439.437 0 0 1-14.586-10.722c-.068 1.603-.937 3.172-2.952 3.576-34.305 7.321-68.925 10.047-103.929 8.448-4.809-.204-4.068-7.535.646-7.414 34.298 1.647 67.845-1.183 101.373-8.184-44.007-33.214-84.674-70.83-125.729-107.62l-26.288-23.417c-20.419 9.123-41.802 13.251-64.065 12.289-4.808-.204-4.162-7.617.647-7.414 19.954.942 38.98-2.581 57.268-10.403-40.96-36.707-82.097-73.404-123.057-110.111-3.412-3.14.702-9.193 4.29-6.065 50.888 45.529 101.775 91.058 152.757 136.668 26.111 23.43 52.164 47.307 78.933 69.98.06-5.598.026-11.279-.102-17.041-2.62-1.952-5.334-3.986-7.966-6.114-36.525-27.688-70.781-58.551-85.38-103.19-2.109-6.16 7.407-9.831 9.339-3.659 14.457 43.85 48.308 72.698 83.453 99.682-3.909-83.019-28.355-163.833-71.441-235.468-2.411-4.097 4.301-7.22 6.618-3.206 44.775 74.271 69.439 158.267 72.505 244.541 4.957 3.656 9.83 7.407 14.704 11.157 37.67 28.853 71.533 64.359 87.172 109.905 4.869 14.05 9.384 28.126 13.723 42.213-3.06.654-6.123 1.308-9.092 2.044z" class="colorefcfc5 svgShape"></path><path fill="#efcfc5" d="M1506.64 3317.828s-19.288 60.51-60.059 50.25c-24.71-6.218-36.05-19.733-41.149-29.416-3.18-6.037-1.818-13.483 3.373-17.911 16.464-14.045 57.94-41.372 97.835-2.923zM1613.313 3181.957s-34.35 52.398-86.012 28.12c0 0 11.606-67.03 86.012-28.12zM1680.191 3117.13s8.807 45.052-65.626 71.947c-.001 0 14.079-96.653 65.626-71.947z" class="colorefcfc5 svgShape"></path><path fill="#f7eae7" d="M1418.897 3191.444c3.333-30.969-36.025-61.111-72.962-66.809-15.893-2.495-31.291-.464-42.671 7.989a75.754 75.754 0 0 0-3.064 2.414c-30.336 25.664-17.999 71.734 14.886 84.896 6.016 2.431 12.733 3.726 20.027 3.607 38.224-.644 81.084-7.128 83.784-32.097z" class="colorf7eae7 svgShape"></path><path fill="#f7e5df" d="M1418.897 3191.444c3.333-30.969-36.025-61.111-72.962-66.809 1.556 6.291 3.956 11.833 7.153 15.51 7.756 8.914 22.007 22.126 18.501 32.908-6.268 19.182-37.101 35.406-56.502 46.881 6.016 2.431 12.733 3.726 20.027 3.607 38.223-.644 81.083-7.128 83.783-32.097z" class="colorf7e5df svgShape"></path><path fill="#f7eae7" d="M1422.472 3199.654c9.154-.371 14.901 9.732 9.849 17.374-24.378 36.876-82.817 114.778-112.005 63.848-33.635-58.689 39.151-78.67 102.156-81.222z" class="colorf7eae7 svgShape"></path><path fill="#f7eae7" d="M1426.083 3200.522c13.282.576 26.298-4.167 35.893-13.37 18.538-17.78 36.274-51.62-8.555-103.469-50.005-57.836-96.678-3.85-30.896 116.685l3.558.154zM1586.387 3135.135s-44.722 12.353-65.991-20.394-8.386-47.703-8.386-47.703l21.94 14.52s-25.237-26.249-3.862-30.99c21.377-4.743 90.016 45.594 56.299 84.567z" class="colorf7eae7 svgShape"></path><circle cx="1406.921" cy="3181.762" r="23.543" fill="#eac7b9" class="coloreac7b9 svgShape"></circle><path fill="#eac7b9" d="M1373.695 3189.604c-4.626 1.111-5.889-6.171-1.279-7.277a154.226 154.226 0 0 1 26.701-3.987c4.692-.286 6.025 6.988 1.279 7.277a154.211 154.211 0 0 0-26.701 3.987zM1409.85 3170.135l1.203-43.191c.132-4.75 7.49-4.042 7.358.701l-1.203 43.191c-.133 4.75-7.49 4.043-7.358-.701zM1389.653 3167.938l-10.544-6.629c-4.034-2.536.222-8.577 4.241-6.05l10.544 6.629c4.035 2.536-.222 8.577-4.241 6.05z" class="coloreac7b9 svgShape"></path><path fill="#efcfc5" d="M1626.439 3510.063s37.879 10.354 47.847-22.966c9.968-33.321-41.883-47.549-47.847 22.966zM1529.932 3239.858s-7.78 38.49 26.136 46.192c33.916 7.701 44.62-44.989-26.136-46.192z" class="colorefcfc5 svgShape"></path><path fill="#f7eae7" d="M1426.809 3194.301s34.437 78.686 7.143 81.913c-27.294 3.227-48.548-26.161-48.548-26.161l41.405-55.752z" class="colorf7eae7 svgShape"></path><path fill="#efcfc5" d="M1594.105 3843.35c-102.895-66.111-193.203-150.747-265.338-249.572-34.135-46.765-64.264-96.495-89.69-148.518-1.66-3.396-3.193-6.853-4.789-10.28.193-.425.39-.845.583-1.268 3.039-1.296 5.525-4.033 5.738-8.148.075-1.445.261-2.854.362-4.29 7.674-14.34 17.366-26.829 33.722-33.359 11.295-4.51 17.912-4.289 21.942-16.631 1.413-4.327-1.822-8.353-5.539-10.044 3.358-5.732 3.745-12.698-1.417-20.944-3.656-5.839-7.811-8.506-12.032-9.083 1.158-7.369 1.406-14.979.677-23.094-.82-9.131-12.078-10.854-16.715-3.615-19.613 30.619-31.398 63.26-36.331 98.375a108.795 108.795 0 0 0-2.627 6.003c-19.121-44.908-35.612-91.045-60.656-133.067-5.855-9.826-20.749-.194-14.908 9.607 33.401 56.046 52.046 119.607 81.25 177.859 27.356 54.568 59.834 106.552 96.738 155.17 72.112 95.003 160.507 176.173 260.807 240.617 9.614 6.178 17.754-9.594 8.223-15.718z" class="colorefcfc5 svgShape"></path><path fill="#eac7b9" d="M1104.032 3139.185s-90.58-40.941-103.315 62.684c-10.047 81.751 164.1 94.104 164.1 94.104s98.951-164.805 20.828-205.887c-49.523-26.042-81.613 49.099-81.613 49.099z" class="coloreac7b9 svgShape"></path><path fill="#e5beb1" d="M1062.323 3128.096c-6.541-15.186-20.534-26.228-37.087-28.189-13.497-1.599-16.997 19.271-3.462 20.874 9.221 1.092 17.125 6.39 20.849 15.038 5.368 12.462 25.107 4.83 19.7-7.723zM1116.301 3113.443c-10.448-10.093-18.008-23.076-21.328-37.256-3.063-13.078-24.14-11.033-21.039 2.209 4.708 20.108 14.173 37.112 29.053 51.486 9.803 9.47 23.048-7.035 13.314-16.439zM1143.405 3060.244c1.719-5.442.349-11.448-5.285-13.996-4.725-2.136-12.266-.191-13.996 5.286-4.138 13.102-2.854 25.359 3.876 37.338 2.798 4.981 10.586 5.352 14.789 2.262 5.061-3.719 5.072-9.788 2.262-14.788-2.602-4.632-3.244-11.043-1.646-16.102z" class="colore5beb1 svgShape"></path><path fill="#efcfc5" d="M1781.209 4107.308a448.841 448.841 0 0 1-15.878 5.729c-47.783-192.266-137.741-424.327-303.171-536.851-8.976-6.07.545-19.936 9.521-13.866 168.4 114.537 260.605 349.096 309.528 544.988z" class="colorefcfc5 svgShape"></path><path fill="#efcfc5" d="M1660 3769.633s-14.639-226.494 40.559-241.187c55.199-14.693 23.029 364.536 1.193 339.937-21.835-24.6-41.752-98.75-41.752-98.75zM1608.184 3713.598c-17.352 4.683-114.001-78.388-190.318-66.219-76.317 12.169 229.515 209.334 231.436 167.979 1.921-41.353-41.118-101.76-41.118-101.76z" class="colorefcfc5 svgShape"></path><path fill="#eac7b9" d="M1471.104 3567.453c-3.612 8.602-10.772 13.972-20.314 16.848-2.564.804-5.38 1.396-8.31 1.837-10.213 1.535-22.26.992-35.085-1.002-2.788-.444-5.625-.923-8.485-1.527-10.425-2.038-21.223-4.955-31.763-8.348a258.402 258.402 0 0 1-8.955-2.947c-9.908-3.464-19.493-7.287-28.196-11.224a218.53 218.53 0 0 1-8.858-4.082 152.298 152.298 0 0 1-6.09-3.032c-30.647-15.77-38.517-75.826-4.71-75.239.257-.004.522.034.78.032 2.512.107 5.172.316 7.923.553 8.24.882 17.379 2.464 27.021 4.687 2.867.644 5.84 1.401 8.82 2.197a341.015 341.015 0 0 1 30.183 9.364c2.53.92 5.067 1.883 7.604 2.846 2.957 1.145 5.872 2.297 8.761 3.541 13.377 5.548 26.034 11.87 36.866 18.564a161.905 161.905 0 0 1 8.874 5.842c9.462 6.725 16.869 13.734 21.18 20.739 4.288 6.88 5.53 13.792 2.754 20.351z" class="coloreac7b9 svgShape"></path><path fill="#eac7b9" d="M1468.349 3547.1c-3.021 17.394-6.204 29.1-6.204 29.1l-12.258-8.888-8.797-6.372-32.765-23.728a250.85 250.85 0 0 0-4.161-2.821c-4.271-2.715-6.974-4.12-8.929-6.391-2.039-2.255-3.304-5.467-4.755-11.869-1.309-5.61-3.38-12.589-5.415-20.562-5.32-20.753-10.403-48.554-1.133-77.817 1.135-3.729 2.569-7.469 4.219-11.204.487-1.119 1.091-2.302 1.736-3.493 5.398-9.911 16.082-20.3 34.067-12.313 2.896 1.286 6.007 3.047 9.264 5.385 6.099 4.277 12.89 10.493 20.373 19.121 27.086 31.112 21.214 94.584 14.758 131.852z" class="coloreac7b9 svgShape"></path><path fill="#f7eae7" d="M1319.041 3479.323a923.599 923.599 0 0 1 10.956 81.768 218.53 218.53 0 0 1-8.858-4.082 927.81 927.81 0 0 0-10.8-78.271c.257-.004.522.034.78.032 2.511.106 5.171.315 7.922.553zM1354.882 3486.206c4.091 29.699 8.133 59.365 12.266 89.055a258.402 258.402 0 0 1-8.955-2.947l-12.131-88.306c2.867.645 5.84 1.402 8.82 2.198zM1389.888 3403.055c3.918 21.563 5.792 43.708 8.152 65.207a1821.504 1821.504 0 0 1 3.391 33.694c1.041 10.818 1.909 21.623 2.734 32.436 1.279 16.922 2.376 33.79 3.231 50.745-2.788-.444-5.625-.923-8.485-1.527a2009.567 2009.567 0 0 0-3.676-55.609 2323.391 2323.391 0 0 0-2.566-29.585 3265.95 3265.95 0 0 0-2.067-20.348c-2.072-19.659-3.646-40.139-6.671-60.315 1.135-3.729 2.569-7.469 4.219-11.204.488-1.12 1.092-2.303 1.738-3.494zM1433.219 3396.127a2139.867 2139.867 0 0 1 13.95 130.234 2179.335 2179.335 0 0 1 2.717 40.951c.329 5.658.616 11.323.904 16.989-2.564.804-5.38 1.396-8.31 1.837-.391-8.397-.874-16.822-1.391-25.198a1830.785 1830.785 0 0 0-2.794-40.421c-3.458-43.396-8.271-86.678-14.34-129.778 2.896 1.287 6.007 3.048 9.264 5.386z" class="colorf7eae7 svgShape"></path><path fill="#efcfc5" d="M1770.777 4082.918c-28.572-14.414-57.978-30.148-81.615-44.798-26.05-16.144-95.813-71.214-169.674-129.516-90.556-71.481-184.192-145.394-223.841-169.235-35.449-21.317-75.771-34.107-118.464-47.648-84.73-26.875-172.349-54.665-234.807-152.948-52.32-82.331-52.449-116.8-52.446-117.124l-5.689-.135c-.034 1.434-.201 36.075 53.331 120.315 63.569 100.028 152.189 128.135 237.889 155.316 42.365 13.438 82.375 26.128 117.251 47.1 39.34 23.656 137.044 100.779 223.248 168.825 73.992 58.408 143.88 113.574 170.202 129.889 24.302 15.062 54.647 31.253 83.947 45.994.264-2.379.462-4.52.668-6.035z" class="colorefcfc5 svgShape"></path><path fill="#efcfc5" d="M887.474 3426.113s-65.291-52.445-34.992-104.165c30.299-51.72 55.897-26.993 56.472 27.438.574 54.431-21.48 76.727-21.48 76.727zM887.474 3426.113s-86.082 74.268-94.826 17.917c-8.745-56.351 94.826-17.917 94.826-17.917z" class="colorefcfc5 svgShape"></path><path fill="#efcfc5" d="M898.037 3405.305c3.362-4.705 72.305-98.501 85.679-56.866 13.375 41.635-48.486 59.569-96.243 77.675l10.564-20.809zM894.119 3451.316c-2.428 1.463-95.758 42.666-83.158 90.337s84.326-24.308 89.228-74.767c0 0 3.223-21.169-6.07-15.57z" class="colorefcfc5 svgShape"></path><path fill="#efcfc5" d="M891.832 3476.903c.385.607 87.016 23.187 120.471-9.14 24.001-23.192 12.152-63.28-41.296-51.786-53.447 11.494-81.877 56.672-79.175 60.926zM939.975 3540.302s-92.466 55.996-68.631 94.419c23.835 38.423 54.554 16.936 62.227-17.62 7.672-34.555 6.404-76.799 6.404-76.799zM1009.762 3628.776c-8.433-.945-108.406 61.44-88.129 85.568s64.949 22.076 80.374-23.683c15.424-45.759 7.755-61.885 7.755-61.885z" class="colorefcfc5 svgShape"></path><path fill="#eac7b9" d="M939.975 3540.302c-15.5 3.591 113.597-120.853 96.008-37.077-12.384 58.983-66.384 30.213-96.008 37.077z" class="coloreac7b9 svgShape"></path><path fill="#efcfc5" d="M1010.891 3629.973s18.031-129.297 68.999-118.796c50.969 10.501 31.328 77.729-68.999 118.796zM1095.988 3666.436s-68.281 21.292-76.873 72.511c-8.592 51.219 34.719 80.288 63.347 17.623 28.629-62.665 13.526-90.134 13.526-90.134zM1164.907 3690.801s-86.988 91.888-59.098 129.349 71.303-.699 79.717-43.518c8.651-44.03-20.619-85.831-20.619-85.831z" class="colorefcfc5 svgShape"></path><path fill="#eac7b9" d="M1095.988 3666.436s-48.281-122.858 44.141-127.853 6.091 82.025-12.5 98.008-31.641 29.845-31.641 29.845z" class="coloreac7b9 svgShape"></path><path fill="#efcfc5" d="M1164.907 3690.801s3.551-125.26 66.906-123.795c45.266 1.047 47.724 61.287 8.245 90.296-26.727 19.638-75.151 33.499-75.151 33.499z" class="colorefcfc5 svgShape"></path><path fill="#eac7b9" d="M1281.752 3737.535c-2.465-9.988-16.291-12.509-49.145 41.083s-31.072 97.549 8.855 89.604c39.926-7.947 52.877-79.695 40.29-130.687z" class="coloreac7b9 svgShape"></path><path fill="#efcfc5" d="M1279.251 3733.323s-18.111-143.796 52.065-114.76c72.176 29.865-24.927 132.271-52.065 114.76zM1338.341 3776.839c2.376 4.51-80.082 61.048-52.568 106.072s62.824 9.815 72.109-17.701c9.285-27.516-8.527-90.885-8.527-90.885l-11.014 2.514zM1413.491 3973.129c9.536-7.283 21.415-41.03 21.038-75.438-.631-57.579-19.366-65.933-19.366-65.933s-52.289 14.49-59.149 75.888c-6.136 54.906 39.821 78.968 57.477 65.483z" class="colorefcfc5 svgShape"></path><path fill="#eac7b9" d="M1346.203 3777.297s3.164-119.145 59.921-110.767c56.756 8.378 29.83 69.606.063 87.213-29.766 17.608-59.984 23.554-59.984 23.554z" class="coloreac7b9 svgShape"></path><path fill="#efcfc5" d="M1415.162 3831.759s10.64-103.468 65.422-105.592c54.782-2.124 62.304 49.612-53.531 116.62 0 0-17.534-.571-11.891-11.028z" class="colorefcfc5 svgShape"></path><path fill="#eac7b9" d="M1523.002 4058.354c9.536-7.283 21.415-41.03 21.038-75.438-.631-57.579-19.366-65.933-19.366-65.933s-52.289 14.49-59.149 75.888c-6.135 54.906 39.822 78.968 57.477 65.483z" class="coloreac7b9 svgShape"></path><path fill="#eac7b9" d="M1524.674 3916.984s10.64-103.468 65.422-105.592c54.782-2.124 62.304 49.612-53.531 116.621 0-.001-17.535-.572-11.891-11.029z" class="coloreac7b9 svgShape"></path><path fill="#efcfc5" d="M1730.4 4172.629c-105.929-11.815-219.155-50.256-311.005-88.571-104.702-43.742-196.836-93.347-250.451-123.929-30.797-17.555-48.892-28.881-49.362-29.192l-2.945 4.778c.47.311 19.589 12.298 52.066 30.755 54.099 30.748 145.162 79.57 248.509 122.707 97.176 40.585 186.022 68.212 264.103 82.2a741.957 741.957 0 0 0 44.083 6.525 69.117 69.117 0 0 1 5.002-5.273z" class="colorefcfc5 svgShape"></path><path fill="#efcfc5" d="M1106.108 3878.779c-1.344 18.733 8.917 62.455 8.917 62.455 12.077 2.412 25.881-14.557 31.354-27.614 6.782-16.178 4.797-35.943-5.889-49.802-2.496-3.237-12.563-16.293-23.345-14.474-13.964 2.357-10.092 16.254-11.037 29.435zM1207.768 3899.067c-33.204 12.807 15.293 81.824 8.189 100.363-7.104 18.539 17.143-5.962 21.813-19.837 4.67-13.875 16.565-98.487-30.002-80.526zM1303.274 4035.601s-30.978-63.857-13.47-96.882c16.603-31.317 74.181-19.997 39.074 64.386-2.979 7.161-6.244 14.209-10.893 20.418l-14.711 12.078zM1395.352 3961.705c-5.778 5.679-8.813 13.583-8.996 21.683-.648 28.691-.983 108.953 16.268 91.991 20.922-20.572 45.18-57.978 29.217-90.3-12.969-26.261-24.205-35.447-36.489-23.374zM1487.753 4011.394c-16.199 64.254 19.562 116.427 29.601 108.201 6.082-4.983 27.904-24.18 20.892-70.394-7.013-46.215-41.8-72.289-50.493-37.807zM1509.494 4163.821c-3.627 6.29-8.222 12.099-13.471 17.245a65.263 65.263 0 0 1-3.094 2.919c-10.443 9.425-22.904 16.325-34.682 19.514a37.507 37.507 0 0 1-3.548.869c-10.035 2.12-19.368 1.345-26.178-3.125a18.236 18.236 0 0 1-2.231-1.636c-2.589-2.183-4.709-4.992-6.249-8.483a27.565 27.565 0 0 1-.974-2.615c-.437-1.234-.768-2.564-1.048-3.961-7.782-39.022 96.646-58.496 99.228-58.867.001 0 14.871-1.118-7.753 38.14z" class="colorefcfc5 svgShape"></path><path fill="#eac7b9" d="M1516.267 4128.577a159.518 159.518 0 0 1-17.057 19.517 6091.808 6091.808 0 0 1-2.583 26.619 577.602 577.602 0 0 1-.604 6.354 65.263 65.263 0 0 1-3.094 2.919c.516-4.046.787-8.137 1.186-12.167.682-6.924 1.325-13.843 2.006-20.767-8.013 7.438-16.703 14.057-25.986 19.741 0 .14 0 .28-.039.425-2.964 11.185-6.906 21.95-11.849 32.281a37.507 37.507 0 0 1-3.548.869c5.016-10.102 9.009-20.656 12.073-31.555a165.535 165.535 0 0 1-29.143 13.329c-2.812 5.155-5.798 10.214-9.108 15.101a18.236 18.236 0 0 1-2.231-1.636c2.662-3.975 5.073-8.034 7.434-12.166a176.462 176.462 0 0 1-13.682 3.682 27.565 27.565 0 0 1-.974-2.615c29.467-6.489 56.474-21.207 77.939-42.135l.034-.044c6.125-5.99 11.843-12.46 16.99-19.427 1.071-1.431 3.308.244 2.236 1.675z" class="coloreac7b9 svgShape"></path><path fill="#efcfc5" d="M1394.689 4077.86c-1.002 19.565-4.934 35.679-10.546 48.581a92.156 92.156 0 0 1-2.215 4.729c-6.31 12.623-14.277 21.772-22.549 27.69a34.056 34.056 0 0 1-2.619 1.774c-8.322 5.287-16.832 7.328-24.125 6.44a23.67 23.67 0 0 1-2.789-.518c-4.879-1.175-9.067-3.787-12.06-7.808a19.771 19.771 0 0 1-1.533-2.335c-1.684-2.972-2.833-6.519-3.244-10.632-4.29-40.84 81.68-67.921 81.68-67.921z" class="colorefcfc5 svgShape"></path><path fill="#eac7b9" d="M1387.357 4084.063c-3.841 5.222-7.642 10.439-11.55 15.612 4.125 8.569 6.932 17.547 8.336 26.766a92.156 92.156 0 0 1-2.215 4.729c-1.053-9.968-3.765-19.679-8.031-28.946-6.916 9.097-14.101 17.994-21.902 26.36.006.039.045.034.05.073 3.182 9.922 6.28 19.956 7.333 30.204a34.056 34.056 0 0 1-2.619 1.774c-.835-10.12-3.81-19.992-6.931-29.763-.659.693-1.279 1.381-1.96 2.058-5.377 5.503-11.039 10.688-16.92 15.604a118.616 118.616 0 0 1 1.686 18.541 23.67 23.67 0 0 1-2.789-.518 116.678 116.678 0 0 0-1.415-15.964 260.573 260.573 0 0 1-10.645 8.156 19.771 19.771 0 0 1-1.533-2.335c10.561-7.625 20.502-16.099 29.642-25.416 14.624-14.916 26.949-31.796 39.224-48.61 1.052-1.448 3.288.227 2.239 1.675z" class="coloreac7b9 svgShape"></path><path fill="#efcfc5" d="M1307.538 4031.558c.857 16.384-.551 30.618-3.554 42.786a77.599 77.599 0 0 1-1.382 5.109c-4.665 15.88-12.087 27.984-20.474 36.714a50.697 50.697 0 0 1-2.658 2.618c-9.42 8.898-19.788 13.701-28.683 14.999-.939.135-1.866.208-2.794.282-5.599.345-10.456-.813-13.889-3.314a14.554 14.554 0 0 1-2.019-1.825c-3.921-4.367-4.63-11.391-.195-20.671 21.864-45.656 62.422-67.611 62.422-67.611l6.25-4.291 2.904-2.014 4.072-2.782z" class="colorefcfc5 svgShape"></path><path fill="#eac7b9" d="M1303.466 4034.338c.52.424.833 1.218.381 1.961-3.214 5.412-6.563 10.723-9.934 16.018 4.258 6.993 7.628 14.333 10.071 22.026a77.599 77.599 0 0 1-1.382 5.109c-2.315-8.61-5.808-16.81-10.374-24.558-6.223 9.617-12.676 19.027-19.436 28.241.185.173.335.391.397.682 1.032 4.961 4.087 9.273 5.672 14.055 1.115 3.313 1.866 6.738 2.4 10.174.427 2.693.697 5.409.867 8.119a50.697 50.697 0 0 1-2.658 2.618c-.188-4.225-.571-8.421-1.346-12.562-1.386-7.286-5.465-13.446-7.303-20.408a594.152 594.152 0 0 1-25.178 31.761c.073.089.162.156.224.307a65.147 65.147 0 0 1 4.919 15.9c-.939.135-1.866.208-2.794.282a64.23 64.23 0 0 0-4.314-14.191c-3.149 3.646-6.337 7.298-9.575 10.876a14.554 14.554 0 0 1-2.019-1.825c21.663-23.991 41.297-49.746 58.766-76.946.067-.509.368-.911.754-1.146a573.274 573.274 0 0 0 8.958-14.481c.357-.57.714-1.14 1.049-1.727.463-.803 1.291-.742 1.855-.285z" class="coloreac7b9 svgShape"></path><path fill="#efcfc5" d="M1226.309 3990.633c2.526 13.549-.611 25.757-6.845 36.133-.726 1.202-1.473 2.387-2.288 3.522-5.224 7.537-12.059 14.008-19.409 19.116a47.578 47.578 0 0 1-2.955 1.942c-7.144 4.599-14.607 7.947-21.406 9.802-.955.297-1.922.516-2.849.729-7.911 1.755-14.618 1.342-18.275-1.606-.76-.57-1.375-1.24-1.829-2.033-.744-1.151-1.142-2.531-1.255-4.151-1.484-25.755 61.126-59.959 61.126-59.959l15.985-3.495z" class="colorefcfc5 svgShape"></path><path fill="#eac7b9" d="M1225.402 3995.154c-3.797 3.44-7.617 6.863-11.453 10.308a126.525 126.525 0 0 1 5.516 21.303c-.726 1.202-1.473 2.387-2.288 3.522-1.073-7.75-2.923-15.348-5.472-22.807l-15.357 13.843c.084.168.146.319.179.553 1.08 8.488 1.545 17.004 1.277 25.565a35.812 35.812 0 0 0-.037 1.961 47.578 47.578 0 0 1-2.955 1.942c.121-1.794.198-3.621.258-5.427.184-7.471-.291-14.948-1.18-22.385-4.663 4.223-9.348 8.429-14.05 12.657-2.189 1.991-4.378 3.982-6.561 6.013.715 6.365.765 12.685.127 18.944-.955.297-1.922.516-2.849.729.655-5.723.684-11.495.148-17.307-5.964 5.448-11.989 10.884-18.423 15.701-.76-.57-1.375-1.24-1.829-2.033 10.544-7.882 20.054-17.412 29.759-26.132 10.18-9.167 20.377-18.356 30.557-27.524-.107-1.022.893-1.705 1.715-1.544 3.747-3.373 7.477-6.723 11.224-10.095 1.322-1.206 3.017 1.005 1.694 2.213z" class="coloreac7b9 svgShape"></path><path fill="#efcfc5" d="M1131.739 3940.626c1.47.787 1.533 9.141.094 20.246-.156 1.14-.322 2.342-.506 3.566-1.596 10.289-4.38 22.306-8.502 32.798a81.615 81.615 0 0 1-1.389 3.393c-3.548 8.095-7.951 14.955-13.285 18.815a16.747 16.747 0 0 1-2.374 1.539c-3.1 1.623-6.458 2.285-10.085 1.629a14.793 14.793 0 0 1-2.772-.68 15.437 15.437 0 0 1-1.179-.429c-33.719-13.519 12.732-95.462 26.357-88.158.218.128.453.234.671.363.928.485 1.795.96 2.594 1.384l10.376 5.534z" class="colorefcfc5 svgShape"></path><path fill="#eac7b9" d="M1121.463 3934.258c-.039.285-.061.548-.1.833a279.298 279.298 0 0 1-2.112 14.615c4.613 3.349 8.818 7.057 12.582 11.167-.156 1.14-.322 2.342-.506 3.566-3.753-4.311-7.959-8.158-12.611-11.641-1.747 9.512-3.93 18.908-6.678 28.125a82.108 82.108 0 0 1 10.787 16.314 81.615 81.615 0 0 1-1.389 3.393c-2.76-5.871-6.245-11.378-10.396-16.51-2.558 8.172-5.452 16.232-8.788 24.137 3.182 3.116 4.526 7.054 5.899 11.188a16.747 16.747 0 0 1-2.374 1.539c-1.104-3.514-2.319-7.252-4.702-9.943-1.696 3.896-3.475 7.765-5.383 11.572a14.793 14.793 0 0 1-2.772-.68c11.17-22.423 19.008-46.364 23.342-71.078-.297-.536-.13-1.179.289-1.598a255.88 255.88 0 0 0 2.151-15.319c.005-.1.016-.162.067-.229.379-1.533 2.888-1.155 2.694.549z" class="coloreac7b9 svgShape"></path><path fill="#efcfc5" d="M1118.098 3933.344s-11.922 3.849-27.751 7.181c-1.335.292-2.716.55-4.112.83-6.565 1.263-13.628 2.397-20.713 3.096-1.537.141-3.096.265-4.655.389-16.54 1.159-32.473-.405-41.192-8.294a18.42 18.42 0 0 1-3.608-4.272c-2.109-3.29-3.269-7.335-3.301-12.28-.339-47.377 96.233-10.113 105.332 13.35z" class="colorefcfc5 svgShape"></path><path fill="#eac7b9" d="M1112.825 3928.873c1.549.915-.148 3.135-1.675 2.237-4.053-2.372-8.916-3.01-13.856-3.079-.022.123-.028.224-.072.33a60.645 60.645 0 0 1-6.875 12.166c-1.335.292-2.716.55-4.112.83 3.232-4.037 5.911-8.454 8.064-13.334-3.621.081-7.259.324-10.584.243-1.341-.027-2.677-.154-4.018-.181-4.231 5.977-8.938 11.424-14.175 16.368-1.537.141-3.096.265-4.655.389 5.746-5.017 10.883-10.665 15.471-16.933-5.286-.258-10.59-.634-15.844-1.217-1.503-.183-2.996-.428-4.482-.634-.056.028-.067.09-.123.117-7.401 4.477-15.199 8.411-23.753 10-4.101.769-8.32.996-12.461.373a18.42 18.42 0 0 1-3.608-4.272c3.84 1.025 7.68 2.05 11.781 1.7 8.494-.761 16.432-4.277 23.765-8.524-12.519-1.834-24.91-4.585-37.056-8.129-1.749-.507-.707-3.112 1.004-2.599 17.165 4.999 34.76 8.4 52.559 9.894 8.891.759 17.766.981 26.656.901 6.501-.057 12.358 0 18.049 3.354zM1566.959 1359.384c.407-.732.845-1.435 1.298-2.122a32.404 32.404 0 0 1-3.189-1.542c-15.463-8.58-21.044-28.071-12.464-43.534 8.58-15.464 28.071-21.044 43.534-12.464a32.157 32.157 0 0 1 5.624 3.967c12.612-9.661 30.248-11.528 45.027-3.328 19.881 11.031 27.057 36.091 16.026 55.972-7.505 13.525-21.502 21.161-35.944 21.194a31.871 31.871 0 0 1-3.913 12.927c-8.579 15.464-28.07 21.044-43.534 12.464-15.464-8.579-21.045-28.07-12.465-43.534zM1809.335 1159.943c.407-.732.845-1.435 1.298-2.122a32.404 32.404 0 0 1-3.189-1.542c-15.463-8.58-21.044-28.071-12.464-43.534 8.58-15.464 28.07-21.044 43.534-12.464a32.12 32.12 0 0 1 5.624 3.967c12.612-9.661 30.248-11.528 45.027-3.328 19.881 11.031 27.057 36.091 16.026 55.972-7.505 13.525-21.501 21.161-35.944 21.194a31.871 31.871 0 0 1-3.913 12.927c-8.58 15.464-28.07 21.044-43.534 12.464-15.464-8.58-21.044-28.07-12.465-43.534zM1488.922 1083.536a45.959 45.959 0 0 1 9.432-2.831c.255-22.733 13.723-44.242 36.005-53.646 29.976-12.651 64.532 1.393 77.184 31.369 8.606 20.392 4.848 42.898-7.866 59.191a45.636 45.636 0 0 1 11.104 15.82c9.84 23.315-1.084 50.192-24.398 60.032-23.315 9.84-50.192-1.084-60.032-24.399a45.93 45.93 0 0 1-1.244-3.336 46.138 46.138 0 0 1-4.552 2.229c-23.315 9.84-50.192-1.084-60.032-24.399-9.839-23.313 1.084-50.19 24.399-60.03z" class="coloreac7b9 svgShape"></path><path fill="#f4dcd3" d="M1480.244 734.072a200.173 200.173 0 0 1-20.488 41.601c25.361 46.42 31.588 103.033 12.453 156.788-31.21 87.679-119.51 138.647-208.212 125.986a157.704 157.704 0 0 1-8.922 44.201c-29.206 82.05-119.398 124.889-201.448 95.682-38.793-13.809-68.812-41.253-86.605-75.02-43.923 9.8-91.044 7.753-136.571-8.453-128.683-45.806-195.868-187.257-150.062-315.94 31.155-87.525 106.562-146.583 192.098-161.005-2.214-26.457 1.041-53.8 10.523-80.44 35.627-100.087 145.645-152.342 245.731-116.715 29.089 10.355 54.128 27.002 74.153 47.854 46.906-23.454 102.926-28.51 156.233-9.534 103.861 36.969 158.087 151.135 121.117 254.995z" class="colorf4dcd3 svgShape"></path><path fill="#eac7b9" d="M878.57 1007.254c38.201 43.872 104.735 48.469 148.607 10.268s48.469-104.735 10.268-148.607-104.735-48.469-148.607-10.268-48.469 104.735-10.268 148.607zm22.135-134.979c36.346-31.648 91.465-27.839 123.112 8.506 31.648 36.346 27.839 91.465-8.506 123.113-36.346 31.648-91.465 27.839-123.112-8.506-31.648-36.346-27.84-91.466 8.506-123.113z" class="coloreac7b9 svgShape"></path><path fill="#e5b9aa" d="m1012.209 807.963 82.138 94.331-26.814 23.348c-8.366 7.284-21.052 6.408-28.337-1.958l-55.759-64.036c-7.284-8.366-6.408-21.053 1.958-28.337l26.814-23.348z" class="colore5b9aa svgShape"></path><path fill="#eac7b9" d="M942.215 697.348c-17.153 20.682 22.237 98.133 90.105 176.075 69.688 80.033 143.002 130.266 163.751 112.199l10.124-8.935-4.672-4.554c1.547-30.542-35.742-97.156-94.064-164.136-58.379-67.046-119.296-113.167-149.73-115.752l-4.982-4.316-7.641 6.825c-.486.322-.958.663-1.398 1.045-.523.455-.997.96-1.444 1.492l-.057.051.008.006z" class="coloreac7b9 svgShape"></path><ellipse cx="1078.928" cy="832.839" fill="#e5b9aa" rx="49.816" ry="192.149" transform="rotate(-41.047 1078.91 832.815)" class="colore5b9aa svgShape"></ellipse><path fill="#eac7b9" d="M1246.285 802.436s-59.061 4.157-122.172 57.402a9.075 9.075 0 0 1-8.97 1.595c-6.785-2.493-19.519-9.418-36.237-28.619-16.712-19.192-21.803-32.732-23.328-39.782a9.07 9.07 0 0 1 2.816-8.653c61.426-55.191 73.667-113.124 73.667-113.124l114.224 131.181z" class="coloreac7b9 svgShape"></path><circle cx="1227.744" cy="703.214" r="100.927" fill="#eac7b9" class="coloreac7b9 svgShape"></circle><path fill="#212851" d="M2423.563 2140.778s192.51-30.537 219.479 199.693c4.759 47.634 16.893 109.927 47.034 173.438s19.037 212.764-96.77 290.566c-115.806 77.802-287.136 68.275-353.765-87.329-66.628-155.604-59.958-294.153-39.66-393.772 17.475-85.755 98.358-195.298 223.682-182.596z" class="color212851 svgShape"></path><path fill="#d48770" d="M2326.098 3253.873s-.682 84.165-9.757 273.221c-9.075 189.056-53.321 500.756-65.227 573.927-11.906 73.17-37.201 81.382-57.823 81.603-20.622.222-40.135-44.029-55.588-153.427-15.453-109.398-72.679-562.918-61.131-817.103-1.569-146.07 236.001-183.555 249.526 41.779z" class="colord48770 svgShape"></path><path fill="#d48770" d="M2201.102 4046.644s35.923-1.546 43.389 45.949c7.466 47.495 15.78 65.972 27.659 92.533 11.879 26.561 10.159 82.277-43.103 88.651-53.261 6.374-142.508 8.493-193.451 14.842-50.943 6.349-148.987 2.895-152.38-47.099-2.755-40.583 82.965-47.306 124.522-63.998 38.627-15.515 90.791-31.23 111.908-51.098 28.693-26.997 39.712-80.492 81.456-79.78z" class="colord48770 svgShape"></path><path fill="#212851" d="M1879.911 4242.55s-.979 13.065 6.763 24.195 52.26 29.518 105.973 29.518c53.712 0 150.007-9.194 194.041-9.678s84.207-5.807 91.46-8.71c0 0 3.392-11.289 0-25.646l-398.237-9.679z" class="color212851 svgShape"></path><path fill="#254368" d="M2256.508 4146.211s-67.885 39.724-131.759 51.821c0 0-21.451-26.009-59.841-42.28 0 0-44.196 17.271-84.359 26.872-38.264 9.147-90.142 19.528-99.985 52.782-1.046 3.532-.84 7.323.647 10.693 5.011 11.357 23.423 36.13 88.692 36.13 84.681 0 176.137-9.678 213.397-14.033s80.819-10.162 94.848-15.969c0 .001 20.598-46.541-21.64-106.016z" class="color254368 svgShape"></path><path fill="#d48770" d="M2289.79 2392.136c-37.949-1.536-72.254 22.535-84.007 58.684-20.273 62.358-64.948 212.172-96.403 408.619-41.865 261.462-81.659 540.555 58.355 563.673 28.3 4.96 115.688-19.775 180.375-189.12s123.658-399.505 155.474-526.37c31.816-126.865-12.862-250.583-104.283-288.148-41.858-17.199-79.239-26.113-109.511-27.338z" class="colord48770 svgShape"></path><path fill="#cc7b69" d="M2399.488 2793.833c25.135 18.376 47.978 36.617 67.324 56.639-29.098 109.379-66.195 239.198-106.07 349.5-11.738-85.467-26.578-195.703-33.979-259.42-13.332-114.771.296-183.022-7.72-204.072-8.016-21.049-34.743-71.291-36.699-129.315 0 0 52.858 139.669 117.144 186.668z" class="colorcc7b69 svgShape"></path><path fill="#212851" d="M2374.578 2392.066s-147.969-91.82-198.969 129.412c-51.204 222.118-104.237 401.795-111.703 610.537-7.537 210.713 2.789 277.802 81.409 307.756s153.878-60.97 206.864-178.557c52.986-117.586 115.408-368 131.377-432.6 15.969-64.6 56.123-203.168 30.239-285.947s-139.217-150.601-139.217-150.601z" class="color212851 svgShape"></path><path fill="#121d3f" d="M2477.417 2853.295c-22.884-19.638-57.681-44.659-77.929-59.462-64.285-46.999-117.144-143.774-117.144-143.774 25.729 70.03 26.253 79.842 34.269 100.892 8.016 21.049-3.183 74.829 10.149 189.601 6.698 57.661 23.175 207.137 34.946 298.371 45.31-111.145 94.939-302.742 115.709-385.628z" class="color121d3f svgShape"></path><path fill="#212851" d="M2193.946 3082.659s-137.879-31.937-132.087 207.59c5.792 239.527 65.955 820.746 65.955 820.746s115.6 11.614 149.659 0c0 0 47.174-435.372 54.383-674.852 7.208-239.481-.001-328.806-137.91-353.484z" class="color212851 svgShape"></path><path fill="#de9681" d="M2555.234 2431.344s161.901-22.691 169.833 244.058-25.471 687.975-82.581 775.304c-57.11 87.329-161.812 85.741-204.644-100.031-42.833-185.772-76.147-447.757-87.251-566.842-11.106-119.083 39.659-360.428 204.643-352.489z" class="colorde9681 svgShape"></path><path fill="#212851" d="M2519.848 2414.524s-129.835 23.68-160.048 202.509c0 0-18.509 74.036-15.243 186.178s71.858 483.409 71.858 483.409 29.396 237.349 139.361 229.728c109.965-7.621 131.741-121.941 145.35-210.13 13.609-88.189 25.585-337.515 34.295-480.143 8.711-142.628 10.889-448.569-215.573-411.551z" class="color212851 svgShape"></path><path fill="#de9681" d="M2127.285 2199.104s-55.9 86.163-132.046 156.026c-76.147 69.863-191.953 165.13-226.854 154.016-34.901-11.115-4.759-68.275 17.45-114.321 22.209-46.046 98.061-168.967 136.429-214.352 52.351-61.924 89.631-132.574 140.395-123.047 50.766 9.527 88.422 59.113 64.626 141.678z" class="colorde9681 svgShape"></path><path fill="#efb575" d="M2091 2054s-67-30-125 47-214 330-214 330 32 48 75 69c0 0 167-117 217-174s198-186 47-272z" class="colorefb575 svgShape"></path><path fill="#de9681" d="M2187.042 1629.886s-48.652 38.109-90.252 150.318c-41.601 112.21-123.392 342.274-126.917 388.852-3.526 46.578 59.228 107.27 123.392 62.809s111.114-173.76 151.596-250.531c53.587-101.624 79.676-244.885 52.882-299.225-26.794-54.34-97.304-61.397-110.701-52.223z" class="colorde9681 svgShape"></path><path fill="#d48770" d="M2128.528 1876.911c1.243-95.695 24.856-166.534 24.856-166.534 64.772-2.944 116.985 51.308 144.751 120.583-10.671 50.635-29.193 104.708-53.274 150.374-30.191 57.254-63.982 143.719-105.825 202.425.744-63.044-11.645-219.279-10.508-306.848z" class="colord48770 svgShape"></path><path fill="#efb575" d="M2164.909 1629.525s-44.636 23.956-118.672 222.11C2033.172 1879.943 1966 2103 1966 2103s-70.438 221.266 98.191 155.326c52.594-20.566 94.356-61.951 116.111-114.064C2233.49 2016.859 2349 1792 2329.463 1690.499c-14.336-74.48-103.586-102.351-164.554-60.974z" class="colorefb575 svgShape"></path><path fill="#de9681" d="M2325.7 1564.177s159.031-31.732 268.856 24.204c109.825 55.936 84.644 252.545 64.631 367.315-20.012 114.77-9.189 212.644-7.663 312.817 1.526 100.173-17.425 198.785-197.21 226.858-179.786 28.073-227.572-83.061-247.997-148.697-20.425-65.636-56.953-269.025-89.441-369.37-32.488-100.345-22.052-289.709 56.747-340.155 94.296-60.367 98.25-60.507 152.077-72.972z" class="colorde9681 svgShape"></path><path fill="#de9681" d="M2393.118 1412.141c9.91 8.715 16.458 20.628 19.131 33.556 4.491 21.716 16.415 70.683 37.64 100.683 27.902 39.438-29.591 108.689-80.327 112.788-54.979 4.441-75.396-12.719-86.204-60.095s-12.894-56.744-19.387-95.046c-10.351-61.057 27.194-95.498 62.267-103.586 31.197-7.195 52.262-1.154 66.88 11.7z" class="colorde9681 svgShape"></path><path fill="#d48770" d="M2326.237 1400.44c31.197-7.195 31.164 1.39 45.781 14.245 9.91 8.715 7.248 154.356-89.29 181.628-10.258-44.976-12.393-54.747-18.758-92.287-10.35-61.056 27.195-95.497 62.267-103.586z" class="colord48770 svgShape"></path><path fill="#ffca83" d="M2449.889 1546.38s-98.678 105.407-165.455 81.37c-15.969-6.448-11.291-35.709-6.095-50.755 0 0-5.79.333-14.454 2.987-15.284 4.682-41.616 16.032-73.326 32.61-56.448 29.51-77.564 83.506-92.1 148.347-14.537 64.842-5.404 256.187 13.105 357.442s37.771 284.033 33.039 333.094-5.81 179.783-3.906 192.53c1.904 12.746 522.923 40.06 615.949-31.626 0-22.99-52.798-206.565-66.952-279.512-14.154-72.947-22.929-304.072-18.986-395.931 3.943-91.858 50.991-302.341-93.157-361.71-38.468-17.193-75.68-24.893-127.662-28.846z" class="colorffca83 svgShape"></path><path fill="#efb575" d="M2298.135 1630.891s2.533-23.107 6.672-34.578c4.138-11.471 112.479-58.596 128.736-80.133 0 0 12.312-11.471 23.464 30.773-.001 0-77.712 92.141-158.872 83.938zM2298.135 1630.891s-.873-31.867-7.764-37.057-10.396-12.743-13.154-21.826c0 0-4.865 9.407-5.708 23.133-.843 13.727-4.493 33.327 26.626 35.75z" class="colorefb575 svgShape"></path><path fill="#efb575" d="M2658.12 2237.142c3.775-11.778 9.167-61.201 14.368-117.511-2.744-71.041-3.564-141.127-1.78-182.694 2.453-57.148 21.585-160.208.987-244.231-34.973-53.948-132.621-118.192-203.059-26.689 0 0-41.415 35.37-53.895 237.879-6.764 86.012 3.876 209.432 8.082 244.061l-140.481 216.602s-36.271-134.737-89.371-159.972c0 0 56.571-72.464 13.711-189.299-42.86-116.836-67.871-168.007-78.229-205.025-9.064-32.394 25.361-128.753 32.772-177.594-35.135 31.022-51.081 76.139-62.768 128.271-14.536 64.842-5.404 256.187 13.105 357.442s37.771 284.033 33.039 333.094-7.451 127-5.547 139.747c.669 4.475 36.37 31.736 121.354 30.636 53.876-42.115 152.336-108.894 202.035-145.137 160.583-117.106 185.878-209.01 195.677-239.58z" class="colorefb575 svgShape"></path><path fill="#efb575" d="M2290.37 1626.509s-11.977 112.88-10.291 192.121c0 0 11.805 4.496 20.514 0 0 0 8.147-176.868 13.205-192.121 0 0-15.384 5.138-23.428 0z" class="colorefb575 svgShape"></path><path fill="#de9681" d="M2145.449 3333.393c51.104 4.198 89.83 47.983 88.909 99.25-1.376 76.511-12.186 201.125-40.141 443.831-38.656 335.604-44.499 355.254-82.583 363.718-31.627 7.028-52.713-96.64-61.498-175.709-8.786-79.069-45.684-318.033-40.413-434.001 5.271-115.968 31.628-289.92 110.697-296.948 8.894-.791 17.234-.782 25.029-.141z" class="colorde9681 svgShape"></path><path fill="#e8e8e8" d="m2376.929 4313.896-.928 24.973a4.058 4.058 0 0 1-1.344 2.882c-5.497 4.951-29.048 22.925-78.092 19.495-56.76-3.969-106.958-14.39-147.732-18.137-38.854-3.571-86.901-5.119-109.885-17.21-1.982-1.042-3.155-3.151-3.039-5.388l2.11-40.661 338.91 34.046z" class="colore8e8e8 svgShape"></path><path fill="#ffffff" d="M2369.332 4304.812s12.408 6.412 5.473 12.85-32.8 24.352-83.259 20.989-67.871-10.24-103.336-16.766c-35.464-6.525-86.791-14.818-111.159-18.917-33.36-5.61-39.968-17.944-39.032-23.116.936-5.173 15.078-5.391 15.078-5.391l316.235 30.351z" class="colorfff svgShape"></path><path fill="#de9681" d="M2070.673 4153.22c13.365-33.063 59.7-35.351 75.587-3.423a61.494 61.494 0 0 1 4.404 11.747c8.902 33.771 102.59 58.022 131.723 70.145s88.682 26.439 90.688 65.793c-.269 14.853-48.063 30.271-97.158 24.944-49.096-5.327-109.684-19.818-147.194-24.573-37.51-4.754-71.392-14.789-80.697-26.281-9.304-11.493 11.849-94.184 20.057-112.245.897-1.976 1.748-4.025 2.59-6.107z" class="colorde9681 svgShape"></path><path fill="#e8e8e8" d="M2373.048 4297.982s-27.668 24.165-106.673 14.905c-76.875-9.01-121.993-20.156-147.14-24.066-25.147-3.911-66.292-16.963-73.416-25.411 0 0-1.601 5.729-2.03 14.039-.039.75.184 1.503.644 2.097 2.485 3.208 12.004 13.491 34.328 17.441 26.605 4.708 79.128 12.612 116.05 19.935 36.23 7.187 126.238 32.13 173.796-2.546 1.915-1.396 3.129-3.537 3.523-5.874.108-.64.212-1.345.302-2.105.424-3.557.616-8.415.616-8.415z" class="colore8e8e8 svgShape"></path><path fill="#e8e8e8" d="M2145.627 4239.217s6.382 8.42.025 19.342c-6.357 10.922-12.576 18.13-3.609 37.061 0 0-40.3-4.748-67.159-14.398 0 0 13.209-15.131 6.36-31.007-6.849-15.876-21.43-23.857-27.343-44.906 0 0-2.168-12.959 8.122-28.736 0 0 19.115 36.444 44.812 45.582 25.697 9.137 32.521 5.671 38.792 17.062zM2139.784 4191.298c9.567-19.771 24.569-20.567 43.288-5.489 10.799 8.699 39.467 22.412 53.015 28.677 15.287 3.138 71.69 15.779 102.735 37.244 1.327.917 1.837 2.628 1.259 4.134-2.468 6.427-21.107 18.44-38.672 21.751-20.812 3.923-27.596 19.355-24.945 36.069.272 1.713-.984 3.275-2.699 3.538-3.885.596-11.169 1.011-21.474-1.339a4.718 4.718 0 0 1-3.478-3.336c-1.277-4.596-3.242-14.549-.495-25.772.735-3.005-1.692-5.893-4.784-5.78-7.766.283-20.256 4.028-23.785 24.341-.518 2.981-2.914 5.293-5.929 5.539-3.46.281-8.341.342-13.807-.594-2.911-.498-5.15-2.861-5.604-5.779-.911-5.858-1.776-16.347 1.125-26.979.364-1.334.761-2.664 1.182-3.988-31.415-12.98-15.348-20.931-18.713-31.379-3.557-11.043-30.923-21.979-30.923-21.979s-17.772-7.231-7.296-28.879z" class="colore8e8e8 svgShape"></path><path fill="#ffffff" d="M2325.226 4249.012c.61.5.594 1.424-.051 1.877-3.664 2.568-15.325 10.07-28.28 11.432-15.683 1.649-23.773 9.159-27.694 14.592-3.921 5.434-24.844-2.039-29.164-5.919-4.319-3.88-25.353-8.381-33.236-6.443-7.883 1.939-21.694-6.757-20.303-14.145s26.622-15.748 40.255-22.308c13.634-6.561 14.859-9.49 18.202-9.366 3.249.122 65.6 18.26 80.271 30.28zM2176.732 4232.934s-23.856 11.388-47.436 15.347c0 0-9.396 2.626-14.362-3.881-4.965-6.508.868-13.358 12.136-16.287 11.267-2.929 16.522-4.221 29.455-11.923s23.993-5.059 27.775 3.264c3.586 7.892-7.568 13.48-7.568 13.48z" class="colorfff svgShape"></path><path fill="#2b4d77" d="M2021.022 3390.118s-28.216 189.378-28.719 297.165c-.503 107.787-.226 471.229-.226 471.229s114.093 28.059 215.348-6.781c0 0 35.846-674.594 30.963-775.841-4.884-101.246-193.587-102.203-217.366 14.228z" class="color2b4d77 svgShape"></path><path fill="#de9681" d="M1992.436 2498.61s160.504-36.03 186.861 169.55c26.356 205.579 94.923 721.019 38.696 814.144-14.057 22.842-113.388 44.509-169.615-59.159-56.227-103.668-119.482-274.106-149.353-374.26-29.87-100.154-135.011-530.947 93.411-550.275z" class="colorde9681 svgShape"></path><path fill="#2b4d77" d="M1958.831 2496.064s-139.509 25.967-116.597 274.437 127.29 502.03 173.623 605.389c0 0 35.824 125.375 80.826 137.192 153.262 40.245 146.258-76.117 146.258-179.961 0 0-1.018-117.106-8.656-289.711-7.637-172.605-42.769-446.532-88.084-504.067s-133.399-56.008-187.37-43.279z" class="color2b4d77 svgShape"></path><path fill="#254368" d="M2050.989 2865.204c60.134-107.932 89.708-221.2 89.708-221.2-32.737-47.258-64.204-82.679-94.285-108.554-25.305-3.315-43.718.365-43.718.365-70.046 5.927-120.918 49.36-156.929 109.624-6.154 33.673-8.164 74.816-3.531 125.062 22.912 248.469 127.29 502.03 173.623 605.389 7.894-51.07 8.646-130.17 10.806-184.148 3.738-93.471 4.469-290.897 24.326-326.538z" class="color254368 svgShape"></path><path fill="#de9681" d="M2104.023 2289.74c28.495 29.073 45.405 67.549 48.517 108.138 3.104 40.488 8.981 120.913 9.943 161.314 1.318 55.345-18.345 104.017-78.962 201.53-60.617 97.513-113.341 195.035-284.648 158.138-171.308-36.897-184.989-179.624-167.443-251.613 13.63-55.923 46.121-127.822 106.738-202.934 11.069-11.991 14.39-44.645 14.482-71.746.154-45.319 20.167-88.496 55.56-116.802 29.885-23.901 74.861-43.376 142.081-43.376 76.114.001 123.973 26.989 153.732 57.351z" class="colorde9681 svgShape"></path><path fill="#2b4d77" d="M1736.501 2451.475s82.316 8.429 144.938 32.879c127.799 49.897 168.394 176.888 319.174 118.739 0 0-17.243 30.954-15.715 58.448 1.527 27.495-102.341 123.726-127.29 154.784-24.949 31.059-40.224 67.718-108.96 98.777-68.736 31.059-239.875 27.208-307.532-107.941-67.656-135.15 57.996-318.58 95.385-355.686z" class="color2b4d77 svgShape"></path><path fill="#254368" d="M1974.109 2672.268c-37.675-39.679-254.072-79.973-319.899 0-16.3 19.802-25.671 46.406-30.549 75.225 2.345 20.468 7.88 40.539 17.456 59.667 40.263 80.428 117.174 114.355 187.342 122.099 52.713-7.142 101.411-15.799 137.912-22.897 30.168-16.251 48.05-33.679 61.917-50.818-13.537-110.72-54.179-183.276-54.179-183.276z" class="color254368 svgShape"></path><path fill="#de9681" d="M1927.139 3474.1s-33.385 196.794-52.713 305.734c-19.328 108.939-50.956 398.859-56.227 462.114-5.271 63.255-40.413 49.199-54.47 43.927s-33.385-26.356-42.17-84.34-31.628-188.009-42.17-282.891c-10.542-94.883-10.061-360.944 36.899-467.386 52.713-119.482 214.365-86.097 210.851 22.842z" class="colorde9681 svgShape"></path><path fill="#e8e8e8" d="m2054.589 4390.448-.987 26.562a4.317 4.317 0 0 1-1.429 3.065c-5.847 5.266-30.897 24.384-83.062 20.736-60.372-4.222-113.764-15.306-157.134-19.292-41.326-3.798-92.431-5.445-116.878-18.305-2.108-1.109-3.356-3.352-3.232-5.73l2.245-43.249 360.477 36.213z" class="colore8e8e8 svgShape"></path><path fill="#ffffff" d="M2046.508 4380.785s13.198 6.82 5.822 13.667c-7.375 6.847-34.887 25.902-88.557 22.325-53.671-3.578-72.191-10.892-109.912-17.833s-92.314-15.761-118.234-20.121c-35.482-5.967-42.511-19.086-41.516-24.587.996-5.502 16.038-5.734 16.038-5.734l336.359 32.283z" class="colorfff svgShape"></path><path fill="#de9681" d="M1728.842 4219.545c14.216-35.167 63.499-37.601 80.397-3.641a65.416 65.416 0 0 1 4.684 12.494c9.468 35.92 109.119 61.715 140.106 74.609 30.987 12.895 94.325 28.122 96.459 69.98-.286 15.798-51.121 32.197-103.341 26.531-52.22-5.666-116.664-21.08-156.562-26.137-39.897-5.057-75.935-15.73-85.832-27.954-9.896-12.224 12.603-100.178 21.334-119.388.955-2.1 1.86-4.279 2.755-6.494z" class="colorde9681 svgShape"></path><path fill="#e8e8e8" d="M2050.46 4373.52s-29.429 25.703-113.461 15.854c-81.767-9.583-129.756-21.439-156.504-25.598-26.747-4.159-70.51-18.042-78.089-27.027 0 0-1.703 6.094-2.159 14.932a3.364 3.364 0 0 0 .686 2.23c2.643 3.411 12.768 14.349 36.512 18.551 28.298 5.008 84.163 13.414 123.435 21.204 38.536 7.644 134.272 34.174 184.856-2.709 2.037-1.485 3.328-3.762 3.747-6.247.115-.68.226-1.431.322-2.239.451-3.783.655-8.951.655-8.951z" class="colore8e8e8 svgShape"></path><path fill="#e8e8e8" d="M1808.567 4311.016s6.788 8.956.027 20.573c-6.762 11.617-13.377 19.284-3.839 39.419 0 0-42.865-5.05-71.433-15.314 0 0 14.049-16.094 6.765-32.98-7.285-16.887-22.794-25.375-29.083-47.764 0 0-2.307-13.784 8.639-30.565 0 0 20.332 38.763 47.664 48.482 27.331 9.718 34.589 6.032 41.26 18.149zM1802.351 4260.047c10.175-21.029 26.132-21.875 46.042-5.838 11.487 9.252 41.978 23.838 56.389 30.501 16.26 3.338 76.253 16.784 109.273 39.614 1.411.976 1.954 2.795 1.339 4.397-2.625 6.836-22.45 19.614-41.133 23.135-22.136 4.173-29.352 20.587-26.533 38.365.289 1.823-1.047 3.484-2.871 3.763-4.132.633-11.88 1.076-22.841-1.424a5.02 5.02 0 0 1-3.7-3.548c-1.358-4.889-3.448-15.475-.527-27.413.782-3.197-1.8-6.269-5.089-6.148-8.26.301-21.545 4.284-25.298 25.89-.551 3.171-3.1 5.631-6.307 5.892-3.68.299-8.871.363-14.686-.632-3.096-.53-5.478-3.043-5.961-6.146-.969-6.23-1.889-17.387 1.196-28.696.387-1.418.81-2.833 1.258-4.241-33.414-13.806-16.324-22.263-19.904-33.376-3.783-11.746-32.89-23.377-32.89-23.377s-18.899-7.692-7.757-30.718z" class="colore8e8e8 svgShape"></path><path fill="#ffffff" d="M1999.595 4321.434c.649.532.632 1.515-.055 1.996-3.897 2.732-16.3 10.711-30.08 12.16-16.681 1.753-25.286 9.742-29.457 15.521-4.171 5.779-26.426-2.169-31.019-6.296-4.594-4.127-26.966-8.915-35.351-6.853-8.385 2.063-23.074-7.187-21.595-15.044 1.479-7.857 28.316-16.75 42.817-23.728s15.804-10.094 19.36-9.962c3.457.128 69.775 19.421 85.38 32.206zM1841.651 4304.333s-25.374 12.112-50.454 16.323c0 0-9.994 2.794-15.276-4.128-5.281-6.922.924-14.208 12.908-17.323s17.574-4.49 31.329-12.682c13.755-8.192 25.52-5.381 29.542 3.472 3.816 8.394-8.049 14.338-8.049 14.338z" class="colorfff svgShape"></path><path fill="#2b4d77" d="M1688.568 3429.634s-33.195 256.924-30.292 458.707c2.903 201.783-13.612 347.755-13.612 347.755s140.273 27.714 252.052 4.435c0 0 28.669-643.977 28.669-757.208s-214.503-283.187-236.817-53.689z" class="color2b4d77 svgShape"></path><path fill="#de9681" d="M1683.989 2669.01c40.922-78.244 141.197-101.703 213.378-50.844 39.421 27.776 80.014 76.721 87.756 161.885 15.814 173.952 3.514 312.762-17.571 453.329s-26.356 198.551-47.441 268.835c-21.085 70.283-73.798 91.369-110.697 84.34-36.899-7.028-91.369-57.984-107.182-161.652-15.814-103.668-40.413-318.033-47.441-423.458-4.76-71.392-23.216-232.217 29.198-332.435z" class="colorde9681 svgShape"></path><path fill="#2b4d77" d="M1772.989 2569.383s-142.904 25.797-137.133 214.525c0 0 7.298 218.769 26.137 404.611 0 0 22.923 225.033 36.67 318.209 0 0 35.102 252.412 212.805 59.315 0 0 79.951-393.308 86.06-569.986 6.109-176.677 34.113-461.806-224.539-426.674z" class="color2b4d77 svgShape"></path><path fill="#de9681" d="M1859.954 1767.369c61.188-11.532 124.572-4.697 181.774 19.898 22.684 9.753 44.423 22.216 57.168 37.388 35.685 42.482 48.429 99.407 76.467 159.731 28.038 60.324 28.038 103.655 22.091 144.438s-25.489 64.572-32.286 84.964c-6.797 20.391-7.361 77.451-10.819 105.598-6.159 50.128-1.817 78.705-8.146 96.231-11.045 30.587-44.969 102.341-159.669 102.341-152.085 0-233.69-85.176-233.91-125.253-.509-92.667 9.606-172.969-9.086-234.992-18.692-62.023-58.413-169.927-60.962-218.356-2.549-48.429 8.507-118.07 115.551-155.483 21.909-7.659 42.807-12.92 61.827-16.505z" class="colorde9681 svgShape"></path><path fill="#de9681" d="M2169.114 2203.807s24.949 30.55 50.407 88.594c51.864 118.249 46.843 248.979-46.333 342.664-93.176 93.685-317.206-8.146-353.356-100.813-36.15-92.667 46.573-307.347 133.399-346.737 104.377-47.352 175.15-37.169 215.883 16.292z" class="colorde9681 svgShape"></path><path fill="#d48770" d="M1922.172 2249.632s43.788-19.348 72.3-31.059c28.513-11.711 86.048-31.059 130.854-29.531 0 0-16.293-18.33-61.099-14.766-44.806 3.564-121.689 41.242-121.689 41.242l-20.366 34.114zM2140.697 2617.561s57.439-40.031 59.985-154.083c0 0 24.192 52.594-24.563 147.731-.001.001-8.341 18.888-35.422 6.352z" class="colord48770 svgShape"></path><path fill="#d48770" d="M2169.196 2203.909c4.921-10.571 11.868-22.45 17.84-37.176l-438.422 11.614c3.64 18.515 5.341 38.423 5.975 59.593 89.033 21.404 142.125-1.037 142.211-.921.086.117.932 20.25-2.632 40.616s10.692 28.513 10.692 28.513c13.747-59.572 50.566-88.317 50.566-88.317l49.229-34.899s70.015-8.77 118.634-2.546c26.806 3.431 46.2 23.887 45.907 23.523zM2204.959 2444.524c-1.089-1.852-3.297-3.392-5.299-1.821-1.75 1.373-2.734 3.96-3.287 6.041-.619 2.327-.794 4.764-.832 7.163-.032 2.032-.505 5.115 1.293 6.548 2.661 2.12 4.431-1.6 5.293-3.58.485-1.112 1.204-2.483.808-3.725-.405-1.271-1.698-1.7-2.85-1.211-1.329.563-.183 2.502 1.136 1.943-.534.226-.477.375-.675.927-.133.371-.278.738-.437 1.099a19.697 19.697 0 0 1-1.189 2.289c-.376.622-.73.804-1.003-.034-.238-.731-.125-1.67-.131-2.429-.023-2.968.039-5.991.887-8.858.408-1.379 1.011-2.778 1.907-3.917 1.229-1.562 2.308.352 2.851 1.514 1.175 2.513 1.575 5.355 1.338 8.106a16.478 16.478 0 0 1-1.051 4.478 14.979 14.979 0 0 1-1.079 2.217c-.182.309-.374.611-.575.906-.054.079-.142.171-.218.265-.34-.106-.727-.047-1.053.289-.694.714-.456 1.802.499 2.124 1.022.344 1.784-.265 2.359-1.041 1.332-1.798 2.287-3.897 2.84-6.063 1.1-4.297.75-9.349-1.532-13.23z" class="colord48770 svgShape"></path><path fill="#fff7f5" d="M2239.541 2318.713c-21.838-64.407-70.427-114.906-70.427-114.906 57.535-60.59 40.224-155.293 31.568-178.715-8.656-23.421-26.476-53.971-61.608-140.018-35.132-86.048-96.74-97.759-96.74-97.759-57.962 17.104-142.222 9.898-181.022 6.163-24.756-2.383-63.374-9.727-119.551 3.341-124.913 30.889-40.563 278.17-20.197 314.83 20.366 36.659 32.467 112.93 32.467 112.93s-6.113 68.002-5.417 135.505c.696 67.503-20.831 117.422-20.831 117.422 172.575 137.019 464.457 144.35 464.457 144.35 89.698-107.577 69.139-238.736 47.301-303.143z" class="colorfff7f5 svgShape"></path><path fill="#e5e5e5" d="M1865.948 2457.332c35.669 39.873 89.197 28.687 115.327 25.058 26.13-3.629 31.937-5.807 39.308 6.452 7.371 12.259 20.324 10.056 20.324 10.056l35.676-55.744s-8.208-37.703-37.994-64.939c-29.786-27.236-84.896-8.33-121.189-22.585-36.292-14.255-129.925-84.459-137.184-101.154s-13.065-84.197-13.065-114.537c0-30.34 1.452-72.236 17.42-117.732 15.968-45.496 29.9-110.328 29.9-110.328l-130.63 81.717c11.128 54.853 29.56 103.363 37.721 118.053 20.366 36.659 32.467 112.93 32.467 112.93s-6.113 68.002-5.417 135.505c.19 18.429-1.278 35.543-3.511 50.693 32.666-.348 94.379 16.967 120.847 46.555z" class="colore5e5e5 svgShape"></path><path fill="#e5e5e5" d="M2169.114 2203.807s-51.912-15.625-77.836-15.625c-39.157 0-67.528 13.065-94.621 26.009 0 0-30.986 13.891-36.847 69.105-6.842 64.449-27.891-20.837-18.37-50.791 5.905-18.575-42.461 16.384-103.743-33.326-1.409-1.143-.296-3.415 1.472-3.005 22.032 5.11 90.379 19.451 120.641 8.412 36.346-13.259 99.555-46.081 139.813-34.785 53.434 14.994 57.361 31.243 69.491 34.006z" class="colore5e5e5 svgShape"></path><path fill="#e5e5e5" d="M2108.781 2149.713c-10.878-12.16-22.539-32.421-27.938-32.421-1.324 45.728-36.661 56.524-36.661 56.524s6.411 11.342 42.06 7.713c35.649-3.629 82.872 22.278 82.872 22.278 14.552-15.324 24.309-32.831 30.636-50.814-19.599 29.152-69.753 20.436-90.969-3.28z" class="colore5e5e5 svgShape"></path><path fill="#fff7f5" d="M1745.103 2410.779s-10.492 29.125-31.862 56.385c-21.37 27.26-80.993 133.033-83.751 166.352 0 0 140.778 41.257 228.449 38.753 87.67-2.504 159.769-7.562 212.233 3.396 52.464 10.959 115.713 32.595 148.088 6.931 0 0-3.219-1.906-7.705-35.39-2.942-21.961-4.774-43.445-2.772-54.376 0 0-178.62-65.531-203.958-79.019-25.339-13.487-230.78-99.849-258.722-103.032z" class="colorfff7f5 svgShape"></path><path fill="#e5e5e5" d="M1974.833 2592.83s94.542 90.461 234.166 41.805c-1.357-12.039-2.197-23.309-2.035-32.023-.002.001-109.057 50.691-232.131-9.782z" class="colore5e5e5 svgShape"></path><path fill="#de9681" d="M1756.023 2364.562s-14.891 1.936-18.333 16.936c-3.442 15.001-25.59 64.381-33.443 69.977s-31.247 19.139-38.197 50.915-13.099 59.372-9.708 72.181 72.103 45.066 115.653 51.84c43.55 6.774 39.332-10.646 40.473-14.033s22.23-2.805 17.976-19.548c0 0 20.425-5.174 8.328-23.782 0 0 15.346-6.766 10.576-22.123-4.77-15.357-81.227-48.953-89.937-61.221s-10.512-32.107-6.949-50.495c3.561-18.387 13.723-71.131 3.561-70.647z" class="colorde9681 svgShape"></path><path fill="#d48770" d="M1838.672 2569.278c-8.008-3.111-15.842-6.621-23.668-10.159a852.875 852.875 0 0 1-23.183-11.243c-7.638-3.922-15.482-7.513-22.722-12.163-7.275-4.579-14.361-9.479-20.95-15.125a.253.253 0 0 1-.027-.357.26.26 0 0 1 .29-.069c4.04 1.608 7.909 3.477 11.761 5.366 1.942.917 3.832 1.921 5.746 2.882l5.685 2.975a242.219 242.219 0 0 1 11.125 6.365c3.625 2.272 7.316 4.428 10.997 6.607a849.089 849.089 0 0 0 22.399 12.526 651.975 651.975 0 0 0 22.746 11.935.25.25 0 0 1 .118.334.256.256 0 0 1-.317.126zM1830.369 2593.069a342.84 342.84 0 0 1-13.283-3.929 573.408 573.408 0 0 1-13.175-4.298 594.11 594.11 0 0 1-25.989-9.709c-4.278-1.769-8.59-3.47-12.844-5.323-4.28-1.793-8.416-3.919-12.498-6.129-4.005-2.37-8.045-4.663-11.836-7.386-3.87-2.575-7.509-5.53-10.992-8.614a.252.252 0 0 1 .269-.419c4.289 1.896 8.328 4.052 12.497 5.997 1.034.497 2.064 1 3.08 1.524 1.016.523 2.074.979 3.108 1.47l6.178 2.991c4.158 1.923 8.212 4.031 12.309 6.091 4.043 2.164 8.194 4.126 12.325 6.131a589.376 589.376 0 0 0 25.276 11.038c8.49 3.557 17.078 6.9 25.724 10.088a.25.25 0 0 1 .153.319.255.255 0 0 1-.302.158zM1812.397 2612.619c-8.121-2.02-16.145-4.377-24.162-6.783a715.695 715.695 0 0 1-23.835-7.914l-11.857-4.193c-3.936-1.449-7.814-3.053-11.599-4.868l-5.637-2.806c-1.852-.995-3.706-1.983-5.524-3.041-3.673-2.038-7.209-4.357-10.647-6.813a.253.253 0 0 1-.059-.353.26.26 0 0 1 .284-.094c8.096 2.468 15.809 5.54 23.579 8.521l5.771 2.356c1.917.802 3.799 1.684 5.706 2.514l5.688 2.574 5.736 2.469a713.253 713.253 0 0 0 23.212 9.283c7.77 3.033 15.613 5.887 23.486 8.667a.25.25 0 0 1 .157.317.257.257 0 0 1-.299.164z" class="colord48770 svgShape"></path><path fill="#ed7666" d="M1856.477 1821.26s46.355 7.967 48.398 90.62c2.043 82.653-12.458 192.241-15.324 236.076s12.247 156.435 20.816 207.674c8.569 51.239-28.892 191.024-31.345 279.133s8.336 177.465 10.529 185.895 52.941-7.648 82.361 8.43 97.629 25.29 120.004 0 7.574-6.744 7.574-6.744-67.342-188.415-58.149-262.527c9.193-74.112-4.831-176.155-20.758-276.52-15.927-100.365-57.21-225.689-59.305-278.301s8.043-143.132-28.692-192.286c-36.734-49.155-76.109 8.55-76.109 8.55z" class="colored7666 svgShape"></path><path fill="#de6454" d="M1977.728 2485.705c27.397-.555 33.467-8.297 40.758 0 6.238 7.098 8.993 28.477 25.755 24.746.11-18.835-.71-38.748-2.236-59.425l-135.081-22.261c-1.728 12.705-3.816 26.195-6.064 40.125.001.002 49.471 17.37 76.868 16.815zM1943.389 1830.99c-22.879-5.131-50.453-8.692-74.733-4.547 8.434 5.174 19.479 15.3 27.16 34.773 19.044 10.243 41.378 20.021 61.893 23.372-2.527-19.228-6.885-37.652-14.32-53.598z" class="colorde6454 svgShape"></path><path fill="#de9681" d="M1757.082 1798.962s-57.05-14.976-97.699 63.469c-40.648 78.444-117.666 253.517-137.991 299.158-20.324 45.64-28.882 96.272 0 120.519 28.882 24.246 92.707-7.844 148.331-101.621 55.624-93.776 140.486-243.177 144.409-295.235s-26.742-78.803-57.05-86.29z" class="colorde9681 svgShape"></path><path fill="#fff7f5" d="M1761.053 1793.661s-57.225-5.426-90.601 42.929c-33.375 48.355-107.558 216.217-137.063 278.965-29.505 62.748-48.875 136.171-21.487 167.741 27.388 31.57 84.43-2.992 107.331-22.381 22.901-19.389 103.51-168.597 129.38-210.746 25.87-42.149 73.877-128.9 69.705-184.614-4.171-55.712-38.1-72.637-57.265-71.894z" class="colorfff7f5 svgShape"></path><path fill="#e5e5e5" d="M1675.327 2176.842c-30.361-1.785-70.392.653-70.392.653l48.845 35.082c6.826-10.995 14.116-23.132 21.547-35.735z" class="colore5e5e5 svgShape"></path><path fill="#de9681" d="M1901.101 2364.312s29.272 12.998 50.665 9.789c21.394-3.209 59.903-5.705 77.375 8.201s43.957 45.454 49.919 54.198c10.697 15.689 7.844 28.525 1.783 30.665 0 0 8.557 20.681-7.488 22.464 0 0-4.279 11.41-22.82-3.922 0 0-.713 10.697-9.627 13.193-8.914 2.496-8.914-12.836-13.906-23.533-4.992-10.697-18.541-5.705-33.874-4.992s-66.321 2.139-88.428-12.836c-22.107-14.976-21.307-27.318-50.41-36.479-29.104-9.161-20.902-43.035-15.911-52.662 4.991-9.63 20.97-21.006 62.722-4.086z" class="colorde9681 svgShape"></path><path fill="#d48770" d="M2050.303 2485.799c-5.016-10.757-9.932-21.585-14.302-32.629-4.778-6.337-14.855-6.828-21.977-9.718-6.425-2.34-13.789-3.873-19.658-7.037 3.414-.553 7.208.149 10.685.431 11.484 1.945 28.053 4.378 34.401 15.227 2.965 10.947 9.044 23.863 10.851 33.726z" class="colord48770 svgShape"></path><path fill="#d48770" d="M2073.126 2489.728c-7.792-15.635-15.244-31.581-23.628-46.91-5.136-7.576-14.204-11.703-21.94-16.404-7.618-4.641-16.504-8.32-23.922-13.196 4.489.307 9.146 2.17 13.52 3.519 13.737 5.059 28.466 11.736 36.177 24.964 6.666 15.376 15.573 33.205 19.793 48.027zM2080.615 2467.269c-7.965-14.434-16.14-29.143-27.444-41.223-11.066-9.521-22.75-18.532-32.737-29.281 12.494 4.731 25.848 16.094 35.819 26.402 10.179 12.81 19.913 29.84 24.362 44.102z" class="colord48770 svgShape"></path><path fill="#de9681" d="M1514.82 2273.581c-30.493-44.29 11-99.699 64.767-98.984 23.96.319 55.225 7.934 92.632 32.631 92.35 60.973 213.226 148.331 237.115 162.237 23.89 13.906 16.402 67.034-43.144 54.554-59.546-12.48-321.555-120.405-343.16-140.786-2.971-2.802-5.728-6.048-8.21-9.652z" class="colorde9681 svgShape"></path><path fill="#fff7f5" d="M1523.275 2189.666s-32.543 35.424-18.8 77.994 109 69.546 129.231 77.133c20.232 7.587 148.811 58.624 175.985 70.829 27.174 12.205 36.447 18.169 43.191 20.877 0 0 14.752-8.25 21.075-27.639s9.694-41.728 15.595-55.216c0 0-27.012-20.008-52.494-40.562s-150.244-106.154-183.12-123.417-102.845-32.472-130.663.001z" class="colorfff7f5 svgShape"></path><path fill="#de9681" d="M2007.995 1709.236s-4.484 35.146 2.244 62.16c6.728 27.014 8.258 56.77-30.9 69.022-39.159 12.252-102.762-19.074-116.341-38.928-13.58-19.853-13.099-30.072-9.866-42.41 3.233-12.338 21.922-39.034 15.501-131.768-2.387-28.862 31.247-53.258 66.644-37.39 24.675 11.063 80.31 26.271 72.718 119.314z" class="colorde9681 svgShape"></path><path fill="#d48770" d="M2010.239 1771.396c-6.728-27.014-2.244-62.16-2.244-62.16 7.591-93.042-48.044-108.251-72.719-119.314-22.313-10.003-43.923-4.003-56.254 9.027.993 7.226 2.336 14.243 4.023 20.968 19.236 76.716 74.668 139.066 129.841 164.329-.663-4.299-1.591-8.608-2.647-12.85z" class="colord48770 svgShape"></path><path fill="#de9681" d="M2023.189 1351.801s148.306 13.021 126.233 175.619c-22.073 162.598-55.281 240.888-120.425 231.681-65.144-9.207-142.891-81.586-166.432-175.47s19.364-244.362 160.624-231.83z" class="colorde9681 svgShape"></path><path fill="#8c4949" d="M2135.913 1554.789a2.498 2.498 0 0 1-2.103-1.144c-8.409-13.02-28.645-6.475-28.849-6.408a2.5 2.5 0 1 1-1.578-4.744c.98-.326 24.137-7.799 34.626 8.439a2.5 2.5 0 0 1-2.096 3.857zM2071.606 1545.431a2.497 2.497 0 0 1-2.032-1.041c-.606-.839-15.15-20.396-41.422-8.024a2.5 2.5 0 1 1-2.13-4.524c30.115-14.181 47.443 9.395 47.615 9.634a2.5 2.5 0 0 1-2.031 3.955z" class="color8c4949 svgShape"></path><path fill="#ce7c6a" d="M2089.522 1648.853c-6.954 0-14.293-1.776-14.707-1.878a2.5 2.5 0 0 1 1.191-4.856c3.45.845 13.59 2.693 19.001 1.121 1.119-.325 1.47-.765 1.65-1.112 1.212-2.33-.996-8.811-3.552-16.315a522.22 522.22 0 0 1-2.236-6.668c-5.33-16.364-2.625-35.12-2.507-35.91a2.5 2.5 0 0 1 4.945.735c-.027.182-2.642 18.404 2.316 33.625.766 2.35 1.516 4.552 2.215 6.604 3.284 9.641 5.454 16.009 3.254 20.235-.913 1.753-2.491 2.966-4.69 3.606-2.031.592-4.432.813-6.88.813z" class="colorce7c6a svgShape"></path><path fill="#ffffff" d="M2100.141 1678.689c-34.001 2.529-79.135-12.673-79.135-12.673s3.32 30.022 35.575 36.812c20.81 4.381 43.56-24.139 43.56-24.139z" class="colorfff svgShape"></path><path fill="#d48770" d="M2029.207 1607.42s-29.995-6.616-33.948 7.098 20.625 21.465 40.131 23.945c19.506 2.479 30.494-2.642 31.609-10.08 1.115-7.44-5.94-15.676-37.792-20.963zM2104.74 1630.416c-3.652 3.606.764 19.03 20.284 23.959 2.346-8.322 4.591-17.131 6.745-26.43-2.481-.12-23.481-1.033-27.029 2.471z" class="colord48770 svgShape"></path><ellipse cx="2047.538" cy="1575.378" fill="#212950" rx="17.828" ry="10.697" transform="rotate(-78.89 2047.498 1575.311)" class="color212950 svgShape"></ellipse><ellipse cx="2050.772" cy="1581.623" fill="#ffffff" rx="6.947" ry="4.168" transform="rotate(-78.89 2050.732 1581.555)" class="colorfff svgShape"></ellipse><ellipse cx="2113.957" cy="1588.598" fill="#212950" rx="16.255" ry="9.753" transform="rotate(-78.89 2113.915 1588.53)" class="color212950 svgShape"></ellipse><ellipse cx="2116.104" cy="1595.142" fill="#ffffff" rx="6.162" ry="3.697" transform="rotate(-76.697 2116.039 1595.09)" class="colorfff svgShape"></ellipse><path fill="#8c4949" d="M2083.53 1427.731s-29.331 51.553-88.966 91.631c0 0-53.803 37.651-73.778 71.225s-41.073 42.357-51.56 97.108c-3.981 20.785-126.776-303.185 56.698-332.656 0 0 41.078-41.039 129.986-16.46 88.908 24.58 126.465 109.608 85.55 240.838 0 .001 14.224-105.398-57.93-151.686z" class="color8c4949 svgShape"></path><path fill="#de9681" d="M1937.285 1588.256s10.871-50.412-19.089-57.375c-29.96-6.963-28.585 50.95-25.756 66.852 3.363 18.915 33.274 43.615 44.845-9.477z" class="colorde9681 svgShape"></path><path fill="#d48770" d="m1914.55 1599.091.053.035a2.214 2.214 0 0 0 3.043-.733c.71-1.159 17.199-28.584.916-44.773a2.22 2.22 0 0 0-3.131.009 2.215 2.215 0 0 0 .009 3.132c13.8 13.721-1.416 39.068-1.571 39.321a2.216 2.216 0 0 0 .681 3.009z" class="colord48770 svgShape"></path><path fill="#d48770" d="M1919.823 1585.105a2.215 2.215 0 0 0 3.344-2.443c-.161-.586-4.089-14.405-15.48-17.591a2.215 2.215 0 0 0-1.193 4.265c9.006 2.517 12.371 14.383 12.404 14.502.149.542.488.982.925 1.267z" class="colord48770 svgShape"></path><path fill="#ed7666" d="M2157.262 1500.294s7.596-108.608-57.771-110.237c-65.367-1.63-103.254 52.173-118.475 101.983-15.222 49.81-21.229 97.225-35.061 130.419-13.832 33.194 7.139 121.717 75.051 135.2 0 0 7.992 1.442 6.082 10.954-1.018 5.072 38.005 14.542 49.496 34.668 0 0-50.805 65.647-143.997 52.16-93.193-13.488-179.513-76.583-230.664-47.888 0 0 40.926-53.288 64.117-78.234 5.844-6.286 13.772-11.663 24.462-15.272 0 0-1.816-22.142 15.952-36.895 0 0-15.952-111.036-9.208-175.855s44.501-183.68 197.591-182.837 176.818 112.46 162.425 181.834z" class="colored7666 svgShape"></path><path fill="#de6454" d="M1790.501 1714.047c-3.947 1.332-7.508 2.911-10.736 4.682 33.013 53.518 86.128 43.192 86.128 43.192-42.15-.513-75.392-47.874-75.392-47.874zM1841.727 1710.263c-16.86-3.837-35.274-33.112-35.274-33.112a42.548 42.548 0 0 0-6.495 6.729c16.45 26.276 41.769 26.383 41.769 26.383zM2038.484 1776.131c-6.902-3.277-11.765-5.685-11.397-7.518 0 0-34.235 16.298-87.88 11.24 0 0 41.431 20.293 99.277-3.722z" class="colorde6454 svgShape"></path><path fill="#de9681" d="M2233.059 1137.368s-144.578 20.854-130.318 139.188c14.929 123.89 67.238 298.453 145.801 295.413 78.562-3.04 167.061-105.011 173.525-229.659 6.464-124.648-79.357-227.94-189.008-204.942z" class="colorde9681 svgShape"></path><path fill="#8c4949" d="M2123.177 1385.007s-17.712-12.3-23.106-36.62c-12.619-56.902 2.67-71.83 2.535-102.064-.057-12.676 5.786-62.741 44.388-83.815 56.964-31.099 81.196-58.698 161.387-28.365 59.386 22.464 62.852 40.828 62.852 40.828s25.695 5.826 39.228 38.958c16.298 39.901 10.863 52.767 16.579 68.282 5.716 15.515 16.322 29.413 12.239 63.709-4.083 34.296-9.253 52.878-7.619 70.842 1.633 17.964 7.445 70.541-7.301 74.831-14.746 4.29-21.679-23.312-36.169-39.17-19.315-21.138-42.042-29.606-57.118-70.305-5.82-15.711-25.889-24.67-40.587-49.167s-27.909-70.214-27.909-70.214-28.008 22.955-54.138 5.807c-26.13-17.148-23.827 3.024-51.59 6.291-27.763 3.266-16.702 12.007-32.217 29.155-15.517 17.147-4.697 48.587-1.454 81.017z" class="color8c4949 svgShape"></path><path fill="#8c4949" d="M2298.135 1343.932s5.612 68.942-6.081 95.917c-11.693 26.975-28.741 29.047-43.727 26.132-25.311-4.923-51.668 1.74-60.638 12.645-7.715 9.378-12.906 17.182-24.424 18.129 0 0 14.799 48.53 52.632 78.622 39.549 31.458 86.291 12.149 100.522-9.051 14.232-21.2 24.523-46.476 23.936-83.584-.609-38.47-32.817-75.301-23.354-118.742s-18.866-20.068-18.866-20.068z" class="color8c4949 svgShape"></path><path fill="#de9681" d="M2213.343 1482.742s-10.187 2.901-16.684 9.298-12.552 10.416-11.275 13.562c5.615 13.827 32.876 29.504 37.291 14.191l10.057-6.183s2.529 9.273 15.595 3.372 18.546-25.909 16.017-34.24c-2.53-8.33-42.907-3.313-51.001 0z" class="colorde9681 svgShape"></path><path fill="#e5e5e5" d="M2189.525 1502.821s30.406-6.103 64.027-18.681c0 0-.657 26.242-25.37 34.786-21.262 5.529-38.657-16.105-38.657-16.105z" class="colore5e5e5 svgShape"></path><path fill="#ce7c6a" d="M2194.705 1462.069c-1.455 0-3.02-.077-4.674-.267-3.062-.351-5.13-1.353-6.509-3.153-2.828-3.691-1.951-9.527-.203-21.154.186-1.237.382-2.54.583-3.912 2.567-17.44-3.638-36.72-3.7-36.913a2.5 2.5 0 0 1 4.752-1.556c.272.831 6.637 20.568 3.896 39.197a1326.42 1326.42 0 0 1-.586 3.926c-1.391 9.252-2.309 15.364-.772 17.37.313.41.978.982 3.11 1.227 7.511.86 13.009-.953 13.063-.972a2.505 2.505 0 0 1 3.169 1.562 2.497 2.497 0 0 1-1.551 3.169c-.214.074-4.381 1.476-10.578 1.476z" class="colorce7c6a svgShape"></path><ellipse cx="2222.674" cy="1387.572" fill="#212950" rx="11.398" ry="18.997" transform="rotate(-10.62 2222.839 1387.647)" class="color212950 svgShape"></ellipse><ellipse cx="2220.296" cy="1395.311" fill="#ffffff" rx="4.459" ry="7.431" transform="rotate(-22.33 2220.232 1395.195)" class="colorfff svgShape"></ellipse><ellipse cx="2157.262" cy="1404.958" fill="#212950" rx="10.464" ry="17.44" transform="rotate(-13.822 2157.615 1405.146)" class="color212950 svgShape"></ellipse><ellipse cx="2155.948" cy="1412.846" fill="#ffffff" rx="3.967" ry="6.611" transform="rotate(-22.33 2155.887 1412.732)" class="colorfff svgShape"></ellipse><path fill="#8c4949" d="M2194.098 1364.054a2.995 2.995 0 0 1-2.478-4.682c.178-.263 18.206-26.096 49.206-12.472a3 3 0 0 1-2.414 5.494c-26.358-11.586-41.216 9.457-41.835 10.358a3.003 3.003 0 0 1-2.479 1.302zM2129.396 1385.05a3 3 0 0 1-2.499-4.656c13.977-21.128 38.43-12.916 38.675-12.831a3 3 0 0 1-1.966 5.668c-.824-.283-20.33-6.724-31.705 10.473a2.996 2.996 0 0 1-2.505 1.346z" class="color8c4949 svgShape"></path><path fill="#d48770" d="M2246.044 1410.896s-30.1 11.476-25.667 25.772c4.433 14.296 30.439 6.936 48.964-2.125s25.206-19.877 21.9-27.039c-3.307-7.162-14.234-10.318-45.197 3.392zM2142.761 1448.849c3.53 9.677 7.256 19.058 11.174 28.037 16.293-8.731 22.105-18.766 18.98-25.537-2.702-5.85-10.511-9.008-30.154-2.5z" class="colord48770 svgShape"></path><path fill="#de9681" d="M2317.089 1380.498s-7.674-40.795 28.904-47.243 39.673 91.995 8.733 97.632c-30.94 5.638-37.637-50.389-37.637-50.389z" class="colorde9681 svgShape"></path><path fill="#d48770" d="M2350.43 1410.753c1.545-.923 2.037-2.872 1.139-4.376-17.025-28.518-3.858-43.036-3.722-43.18a3.175 3.175 0 1 0-4.623-4.352c-.686.728-16.564 18.196 2.892 50.786a3.177 3.177 0 0 0 4.314 1.122z" class="colord48770 svgShape"></path><path fill="#d48770" d="M2345.117 1397.319a3.165 3.165 0 0 0 1.404-1.685c3.863-10.84 13.284-11.653 13.687-11.682 1.732-.131 3.062-1.634 2.946-3.378a3.165 3.165 0 0 0-3.347-2.958c-.563.031-13.96 1.001-19.268 15.889a3.175 3.175 0 0 0 4.578 3.814z" class="colord48770 svgShape"></path><path fill="#de9681" d="M2649.666 1678.885s24.875 68.338 6.876 276.916-25.483 342.031-104.438 348.568c-78.955 6.537-94.976-184.76-106.507-276.317-11.531-91.557-11.959-310.521 39.637-376.221 51.597-65.701 131.922-61.745 164.432 27.054z" class="colorde9681 svgShape"></path><path fill="#ffca83" d="M2541.189 1583.603s-104.877 39.417-108.249 214.215 6.844 345.381 17.753 406.769c10.908 61.387 85.917 138.042 123.307 118.56 37.391-19.482 60.202-75.913 73.613-183.207 13.41-107.294 41.639-299.574 31.167-405.575-10.472-106.002-64.747-168.861-137.591-150.762z" class="colorffca83 svgShape"></path><path fill="#de9681" d="M2303.992 2463.04s-26.012-21.008-70.752 19.109c-29.674 26.607-34.482 19.223-65.172 23.994-30.69 4.771-85.407 5.957-89.244 18.357-3.837 12.4 9.798 10.052 33.781 11.585s40.396 1.051 39.141 6.274c-1.256 5.222-22.088 22.781-38.385 28.609-16.297 5.827-51.789 10.018-68.77 15.86-16.981 5.842-15.52 20.668-4.561 21.115 0 0-8.732 13.098 10.848 16.385 0 0-1.815 10.988 9.842 12.104 0 0 2.26 9.531 22.139 11.153 19.88 1.622 95.042-3.428 109.912-11.962s86.572-78.517 102.676-93.236 37.627-63.554 8.545-79.347z" class="colorde9681 svgShape"></path><path fill="#d48770" d="M2039.994 2606.58c34.226-5.885 71.691-12.523 105.761-18.512-11.958 11.446-35.446 10.73-52.075 13.426-17.371 1.49-37.728 5.288-53.686 5.086zM2049.435 2623.79c37.488-6.579 76.99-10.064 113.826-19.367-13.776 11.923-37.545 12.93-55.956 14.884-18.76 1.315-40.549 4.886-57.87 4.483zM2060.753 2636.049c21.17-2.186 47.593-4.194 68.879-6.202 13.512-1.059 27.449-.184 40.151-5.763-11.929 12.801-36.523 10.768-53.68 11.475-15.754-.177-41.342 2.045-55.35.49z" class="colord48770 svgShape"></path><path fill="#de9681" d="M2592.777 2284.073s-35.549 43.607-138.633 134.844c-103.084 91.236-150.595 117.248-203.533 157.271-41.796 31.599-76.287-13.336-34.535-70.522 41.752-57.186 68.263-92.084 128.717-171.208 57.334-75.041 111.074-147.894 149.243-161.65 53.979-19.454 129.099 59.912 98.741 111.265z" class="colorde9681 svgShape"></path><path fill="#ffca83" d="M2531.569 2139.436s-48.979-3.791-86.449 23.65-210.138 305.471-252.148 322.619c0 0 28.553 58.403 67.752 105.517 0 0 219.377-161.708 261.549-207.23 42.172-45.521 87.33-81.466 100.272-126.691 12.943-45.225-61.48-119.449-90.976-117.865z" class="colorffca83 svgShape"></path><path fill="#de9681" d="M2542.192 4116.413s3.786 70.248-31.78 95.652c-35.566 25.405-174.102 107.321-184.313 130.6-10.211 23.278 37.694 71.91 114.633 47.231 76.939-24.679 135.732-49.357 173.476-60.245 37.744-10.888 66.051-37.744 65.325-68.955-.726-31.211-22.723-62.86-20.797-126.152 1.925-63.292-111.62-84.75-116.544-18.131z" class="colorde9681 svgShape"></path><path fill="#212851" d="M2315.842 4352.152s-7.808 31.554 17.894 52.432c25.702 20.877 91.028 12.511 130.949 0 39.921-12.511 116.86-40.093 153.878-52.432 37.018-12.339 71.858-18.146 64.6-52.986l-367.321 52.986z" class="color212851 svgShape"></path><path fill="#254368" d="M2494.407 4222.897s-18.835 6.903-36.981 17.633-129.925 84.04-137.909 97.831c-7.984 13.791-13.267 81.294 100.428 63.148 33.127-4.808 138.558-40.584 179.507-55.89 46.975-17.558 72.098-29.759 83.711-46.454 0 0 3.078-56.862-14.792-88.676 0 0-51.136 53.127-102.732 69.813-.002.001-19.734-40.766-71.232-57.405z" class="color254368 svgShape"></path><path fill="#de9681" d="M2648.831 3304.629s28.555 57.161 44.419 222.291c15.864 165.13 6.345 330.26-15.864 468.398-22.209 138.138-15.855 217.565-65.042 228.642-63.456 14.29-70.417-110.253-92.01-257.222-23.796-161.955-90.424-558.903-87.251-646.231 3.172-87.328 166.57-109.557 215.748-15.878z" class="colorde9681 svgShape"></path><path fill="#212851" d="M2513.795 3182.825s-105.817 19.219-92.73 132.252c10.392 89.756 95.66 849.277 95.66 849.277s111.779 21.775 156.781 0c0 0 43.044-316.186 37.237-526.191-5.807-210.004-12.99-310.886-12.99-310.886s-24.753-164.776-183.958-144.452z" class="color212851 svgShape"></path></svg>