<svg xmlns="http://www.w3.org/2000/svg" enable-background="new 0 0 5500 4000" viewBox="0 0 5500 4000" width="550" height="550"><path fill="#a1c992" d="M4693.036,1773.59c-418.396-555.85-963.087-357.208-1452.057-302.768
				c-502.262-102.396-1108.805-834.045-2003.708-256.123c-1115.89,720.634-673.957,2403.863,337.502,2403.863
				c0,0,526.866,0,1130.285,0c91.205,0,184.141,0,277.289,0c394.744,0,764.569,0,986.625,0
				C4788.631,3618.561,5156.681,2389.552,4693.036,1773.59z" class="colora1c992 svgShape"></path><path fill="#7eb769" d="M3622.571,2763.635c-214.792,225.233-354.685,607.219-401.153,745.561
						c-9.288,28.478-14.854,46.918-16.179,50.989c0.274,0.54-0.266,0.814-0.266,0.814s13.001,1.54,36.567,3.827
						c160.874,16.005,812.062,55.084,1120.688-308.793c354.023-417.489,499.199-944.046,555.565-1100.312
						c0,0-14.565,7.401-45.629,17.078c-35.656,11.323-92.943,25.5-174.076,35.502
						C4546.365,2226.338,3887.899,2484.218,3622.571,2763.635z" class="color7eb769 svgShape"></path><path fill="#6ca856" d="M3622.571,2763.635c-214.792,225.233-354.685,607.219-401.153,745.561
						c-9.288,28.478-14.854,46.918-16.179,50.989c235.122-89.884,554.985-9.498,931.851-344.205
						c195.181-173.347,273.523-721.076,490.732-866.749c73.297-49.468,146.583-100.289,217.698-152.717
						c6.465-4.644,16.154-13.636,26.645-23.715c-35.656,11.323-92.943,25.5-174.076,35.502
						C4546.365,2226.338,3887.899,2484.218,3622.571,2763.635z" class="color6ca856 svgShape"></path><path fill="#72a659" d="M4750.472,2355.474c-109.346,125.486-231.761,238.603-352.827,351.706
						c-122.688,112.585-247.015,223.276-375.446,327.227c-127.062,106.653-270.517,189.052-414.512,271.726
						c-127.29,71.468-255.955,138.885-386.269,203.064c-10.613,32.548-16.445,51.803-16.445,51.803s13.001,1.54,36.567,3.827
						c131.63-69.604,261.337-142.987,388.592-219.865c141.803-86.988,285.218-176.153,410.624-287.393
						c126.498-109.093,247.826-223.017,366.975-339.894C4525.518,2600.795,4644.66,2483.905,4750.472,2355.474z" class="color72a659 svgShape"></path><path fill="#6ca856" d="M3617.015 3258.184c-6.743-84.178-6.199-169.978 3.288-254.438 10.017-84.105 28.739-169.243 73.433-242.671-47.504 71.696-69.802 156.97-83.081 241.372-12.8 85.025-16.678 170.934-13.049 257.315.225 5.374 4.768 9.548 10.14 9.322 5.376-.226 9.548-4.766 9.324-10.141-.003-.11-.01-.22-.021-.33L3617.015 3258.184zM3852.858 3096.086c-6.743-84.179-6.199-169.978 3.288-254.438 10.016-84.104 28.739-169.243 73.433-242.67-47.504 71.696-69.802 156.97-83.085 241.371-12.796 85.026-16.674 170.934-13.045 257.315.224 5.375 4.764 9.548 10.14 9.323 5.376-.225 9.548-4.766 9.323-10.14-.007-.111-.01-.22-.021-.329L3852.858 3096.086zM4126.272 2903.785c-6.748-84.18-6.204-169.978 3.288-254.439 10.017-84.104 28.739-169.243 73.433-242.67-47.504 71.696-69.802 156.97-83.085 241.371-12.796 85.026-16.674 170.934-13.044 257.315.224 5.375 4.764 9.548 10.14 9.322 5.376-.225 9.548-4.766 9.324-10.14-.007-.111-.014-.221-.021-.329L4126.272 2903.785z" class="color6ca856 svgShape"></path><path fill="#6aa34f" d="M4406.872,2661.173c8.765-69.227,23.692-138.69,45.613-205.499
						c22.292-66.448,51.738-132.29,100.376-184.284c-51.028,49.717-84,114.954-109.546,181.012
						c-25.273,66.672-43.483,135.547-55.758,206.267c-0.916,5.302,2.633,10.344,7.936,11.265c5.298,0.919,10.345-2.631,11.261-7.934
						c0.023-0.135,0.047-0.27,0.062-0.406L4406.872,2661.173z" class="color6aa34f svgShape"></path><path fill="#6ca856" d="M3670.697 3378.251c62.84 19.998 126.637 34.309 191.655 41.932 64.629 7.136 131.733 7.812 193.794-12.71-62.979 17.35-128.985 13.269-192.455 3.066-63.587-10.657-126.379-28.153-186.262-50.56l-.366-.136c-5.037-1.885-10.655.67-12.538 5.71-1.887 5.039.672 10.654 5.709 12.539C3670.378 3378.146 3670.552 3378.205 3670.697 3378.251zM3919.481 3216.174c62.844 19.998 126.637 34.309 191.659 41.932 64.629 7.136 131.729 7.812 193.794-12.71-62.979 17.35-128.985 13.269-192.455 3.066-63.587-10.656-126.379-28.152-186.266-50.561l-.362-.136c-5.041-1.886-10.655.671-12.538 5.711-1.887 5.039.667 10.653 5.708 12.539C3919.167 3216.069 3919.34 3216.128 3919.481 3216.174zM4183.824 3024.743c65.944.584 131.123-4.546 195.502-16.428 63.858-12.233 128.176-31.368 181.436-69.273-55.064 35.144-119.343 50.703-183 59.662-63.903 8.561-129.062 10.354-192.894 6.594l-.386-.023c-5.374-.317-9.981 3.782-10.3 9.153-.314 5.372 3.78 9.982 9.153 10.298C4183.488 3024.735 4183.671 3024.74 4183.824 3024.743zM4448.339 2772.405c52.462-15.817 102.77-35.903 150.855-61.146 47.574-25.38 93.853-56.327 126.672-99.403-35.352 40.961-82.633 68.474-130.964 90.665-48.604 21.928-99.874 38.816-151.249 50.982l-.371.089c-5.238 1.24-8.478 6.491-7.238 11.728 1.239 5.238 6.491 8.478 11.729 7.238C4447.956 2772.515 4448.163 2772.458 4448.339 2772.405z" class="color6ca856 svgShape"></path><path fill="#7eb769" d="M3399.93,2665.22c-150.465,272.444-188.634,677.446-198.4,823.057
						c-1.742,29.903-2.437,49.153-2.683,53.427c0.403,0.453-0.05,0.855-0.05,0.855s12.965-1.817,36.338-5.597
						c159.656-25.426,799.379-153.204,1005.342-583.595c236.235-493.783,242.756-1039.948,257.537-1205.41
						c0,0-12.205,10.861-39.787,28.119c-31.604,20.016-83.405,48.294-159.328,78.596
						C4156.749,1910.693,3585.492,2327.521,3399.93,2665.22z" class="color7eb769 svgShape"></path><path fill="#6ca856" d="M4386.981,1983.688c-73.846,149.165-163.476,289.69-251.805,429.858
							c-90.03,140.08-182.126,278.745-279.905,411.935c-95.768,135.455-213.557,251.622-331.799,368.191
							c-104.935,101.484-212.229,199.4-321.942,294.604c-1.988,34.177-2.733,54.282-2.733,54.282s12.965-1.817,36.338-5.597
							c109.606-100.785,216.391-204.736,319.917-311.443c115.025-120.184,231.054-242.884,324.055-382.354
							c94.602-137.671,182.976-278.701,268.492-422.031C4231.797,2278.144,4317.302,2134.802,4386.981,1983.688z" class="color6ca856 svgShape"></path><path fill="#6ca856" d="M3520.306 3144.928c-27.931-79.698-49.221-162.815-61.517-246.912-11.701-83.887-15.239-170.988 9.318-253.367-27.717 81.418-27.597 169.559-18.982 254.564 9.241 85.484 27.334 169.556 52.806 252.175 1.585 5.141 7.04 8.023 12.18 6.438 5.141-1.585 8.021-7.038 6.436-12.178-.03-.105-.064-.209-.103-.313L3520.306 3144.928zM3707.181 2928.19c-27.927-79.697-49.217-162.815-61.516-246.912-11.697-83.887-15.239-170.988 9.318-253.367-27.713 81.419-27.598 169.56-18.982 254.564 9.246 85.486 27.334 169.556 52.811 252.176 1.585 5.14 7.035 8.022 12.176 6.437 5.141-1.585 8.021-7.038 6.44-12.177-.034-.106-.068-.21-.103-.314L3707.181 2928.19zM3922.713 2672.69c-27.927-79.697-49.217-162.815-61.517-246.912-11.696-83.886-15.239-170.988 9.318-253.366-27.713 81.419-27.597 169.56-18.982 254.564 9.246 85.485 27.334 169.556 52.811 252.176 1.585 5.141 7.035 8.022 12.176 6.438 5.141-1.585 8.026-7.037 6.44-12.177-.034-.106-.068-.21-.103-.313L3922.713 2672.69zM4132.402 2366.705c-9.121-69.181-12.351-140.156-8.136-210.343 4.661-69.933 16.4-141.098 50.221-203.751-36.708 61.058-52.014 132.535-59.924 202.917-7.489 70.907-7.591 142.148-1.475 213.665.455 5.36 5.174 9.335 10.534 8.877 5.36-.458 9.335-5.176 8.876-10.537-.011-.137-.022-.272-.042-.407L4132.402 2366.705zM3602.746 3247.4c65.865 3.363 131.202.982 196.021-8.178 64.323-9.531 129.386-25.94 184.194-61.567-56.494 32.793-121.375 45.629-185.35 51.899-64.206 5.862-129.384 4.907-192.998-1.538l-.388-.039c-5.351-.542-10.13 3.358-10.674 8.711-.544 5.353 3.359 10.133 8.71 10.675C3602.412 3247.378 3602.598 3247.392 3602.746 3247.4z" class="color6ca856 svgShape"></path><path fill="#6ca856" d="M3602.746 3247.4c65.865 3.363 131.202.982 196.021-8.178 64.323-9.531 129.386-25.94 184.194-61.567-56.494 32.793-121.375 45.629-185.35 51.899-64.206 5.862-129.384 4.907-192.998-1.538l-.388-.039c-5.351-.542-10.13 3.358-10.674 8.711-.544 5.353 3.359 10.133 8.71 10.675C3602.412 3247.378 3602.598 3247.392 3602.746 3247.4zM3802.147 3027.392c65.861 3.363 131.198.982 196.021-8.178 64.319-9.532 129.386-25.94 184.194-61.567-56.499 32.792-121.375 45.629-185.35 51.899-64.206 5.862-129.384 4.907-192.998-1.538l-.388-.04c-5.355-.542-10.135 3.358-10.674 8.711-.543 5.353 3.354 10.132 8.71 10.675C3801.813 3027.37 3802 3027.384 3802.147 3027.392zM4009.125 2775.04c63.927-16.202 125.661-37.736 184.9-65.598 58.652-28.068 115.991-62.928 157.86-113.129-44.319 47.99-102.532 79.381-161.813 104.231-59.628 24.528-122.19 42.83-184.879 55.423l-.377.077c-5.277 1.06-8.694 6.196-7.636 11.47 1.062 5.276 6.198 8.693 11.471 7.633C4008.8 2775.118 4008.983 2775.077 4009.125 2775.04zM4200.79 2463.738c46.715-28.636 90.261-60.853 130.35-97.494 39.554-36.642 76.447-78.338 97.234-128.343-23.778 48.603-62.51 87.234-103.609 120.984-41.432 33.567-86.719 62.935-133.311 87.764l-.338.181c-4.754 2.53-6.551 8.433-4.021 13.183 2.531 4.75 8.434 6.548 13.183 4.017C4200.443 2463.942 4200.633 2463.834 4200.79 2463.738z" class="color6ca856 svgShape"></path><g fill="#000000" class="color000 svgShape"><path fill="#edefbc" d="M3832.507 1655.278c-13.162 4.644-26.356 9.939-39.651 17.223-49.345 27.874-88.861 74.512-117.929 116.941-.069 1.32-.101 1.98-1.188 2.147-34.387 51.745-52.796 96.449-52.796 96.449s.506.578 1.559 1.071c2.105.986 6.859 2.876 14.261 5.668 0 0 0 0 .542-.084 6.891 2.209 15.377 4.826 26.003 7.779 43.073 11.049 112.779 17.351 180.945-20.615 89.802-50.444 148.354-164.81 165.346-202.753 2.374-4.287 4.199-8.499 6.027-12.709C4015.626 1666.395 3927.793 1624.273 3832.507 1655.278zM3575.402 1403.14c-5.316 12.905-10.168 26.268-13.606 41.033-12.132 55.36-3.727 115.907 8.508 165.862.938.931 1.408 1.396.808 2.317 15.631 60.13 36.669 103.659 36.669 103.659s.768.008 1.837-.447c2.138-.911 6.718-3.194 13.734-6.848 0 0 0 0 .299-.46 6.241-3.662 13.85-8.241 23.136-14.191 36.956-24.73 88.134-72.475 105.296-148.589 22.291-100.559-23.892-220.456-40.838-258.419-1.612-4.628-3.533-8.796-5.452-12.967C3705.796 1274.09 3615.836 1311.456 3575.402 1403.14zM3924.731 1286.672c-8.209 7.283-16.248 15.049-23.772 24.294-27.674 34.924-42.63 80.6-51.224 120.113.341.981.513 1.472-.229 1.916-9.706 47.875-9.864 85.886-9.864 85.886s.54.271 1.452.318c1.825.094 5.848.061 12.066-.099 0 0 0 0 .37-.222 5.673-.434 12.628-1.043 21.242-2.042 34.643-4.719 87.274-20.789 125.664-68.64 50.448-63.351 59.194-163.991 60.323-196.659.458-3.826.539-7.434.623-11.042C4061.383 1240.497 3984.935 1235.853 3924.731 1286.672z" class="coloredefbc svgShape"></path></g><g fill="#000000" class="color000 svgShape"><path fill="#edefbc" d="M1664.643 3207.413c2.972 13.637 6.587 27.386 12.162 41.484 21.527 52.426 62.894 97.431 101.382 131.545 1.301.232 1.952.346 1.983 1.445 47.072 40.55 89.142 64.371 89.142 64.371s.636-.43 1.256-1.414c1.24-1.966 3.706-6.449 7.396-13.447 0 0 0 0-.016-.549 3.048-6.563 6.699-14.658 10.949-24.835 16.316-41.366 31.229-109.75 2.028-182.104-38.895-95.374-145.1-167.683-180.638-189.257-3.959-2.888-7.911-5.222-11.862-7.56C1698.427 3027.094 1645.718 3109.013 1664.643 3207.413zM1382.514 3431.197c12.145 6.879 24.801 13.354 39.025 18.599 53.423 18.916 114.546 18.1 165.634 12.166 1.041-.815 1.56-1.224 2.399-.514 61.607-8.039 107.412-23.506 107.412-23.506s.104-.761-.216-1.879c-.638-2.235-2.335-7.062-5.089-14.479 0 0 0 0-.419-.354-2.859-6.648-6.456-14.767-11.206-24.72-19.947-39.743-60.962-96.456-134.354-122.942-97.01-34.613-221.716-3.685-261.491 8.412-4.793 1.025-9.167 2.413-13.544 3.799C1270.665 3285.78 1296.564 3379.685 1382.514 3431.197zM1064.592 3160.663c7.706 5.358 15.78 10.478 24.98 14.871 34.601 15.975 75.58 19.213 110.156 18.404.747-.481 1.12-.723 1.639-.196 41.75-1.568 73.38-9.088 73.38-9.088s.116-.503-.028-1.271c-.289-1.536-1.126-4.874-2.511-10.01 0 0 0 0-.259-.263-1.502-4.628-3.409-10.288-5.973-17.247-10.896-27.847-34.848-68.363-82.351-90.644-62.816-29.184-148.235-16.197-175.618-10.56-3.273.389-6.288 1.048-9.304 1.705C998.703 3056.363 1010.23 3120.847 1064.592 3160.663zM1015.526 2906.906c4.874 6.033 10.094 11.961 16.375 17.574 23.752 20.675 55.51 32.723 83.124 40.078.704-.209 1.056-.314 1.345.224 33.481 8.413 60.31 9.764 60.31 9.764s.209-.373.272-1.015c.126-1.285.234-4.126.324-8.521 0 0 0 0-.144-.269-.121-4.019-.324-8.949-.749-15.062-2.202-24.61-11.83-62.289-44.359-90.951-43.078-37.68-113.84-47.136-136.866-48.998-2.686-.448-5.23-.623-7.775-.8C987.384 2808.931 981.613 2862.748 1015.526 2906.906zM1310.353 3070.104c6.206 9.051 12.913 17.992 21.152 26.606 31.215 31.799 74.678 52.314 112.818 65.751 1.016-.217 1.524-.326 1.873.465 46.298 15.58 83.995 20.459 83.995 20.459s.336-.502.496-1.402c.32-1.799.788-5.795 1.401-11.984 0 0 0 0-.174-.395.274-5.683.534-12.66.613-21.331-.378-34.96-9.784-89.18-52.494-133.218-56.592-57.929-155.366-79.112-187.64-84.291-3.739-.93-7.309-1.458-10.879-1.99C1281.515 2928.774 1267.407 3004.053 1310.353 3070.104z" class="coloredefbc svgShape"></path></g><g fill="#000000" class="color000 svgShape"><path fill="#7eb769" d="M1640.637,1219.771c151.601,244.507,62.711,514.615-15.317,562.994
						s-359.49,7.901-511.091-236.607s-57.994-681.232-57.994-681.232S1489.036,975.264,1640.637,1219.771z" class="color7eb769 svgShape"></path><path fill="#6ca856" d="M1139.745 985.707c41.892 59.311 82.004 119.725 121.579 180.472 39.504 60.791 78.309 122.016 116.515 183.612 38.21 61.594 75.794 123.575 112.682 185.989 36.821 62.455 73.093 125.25 107.569 189.158-41.915-59.297-82.033-119.707-121.603-180.457-39.503-60.792-78.309-122.016-116.49-183.627-38.185-61.609-75.771-123.589-112.657-186.004C1210.523 1112.393 1174.244 1049.602 1139.745 985.707zM1212.377 1041.782c19.605-18.629 26.66-48.717 32.717-75.088 1.177 30.31 2.172 61.304-14.337 89.218C1230.756 1055.912 1212.377 1041.782 1212.377 1041.782L1212.377 1041.782zM1302.837 1179.822c10.534-5.029 19.617-16.033 27.508-28.325 24.541-37.36 38.377-80.951 40.364-126.095 2.551 30.185-.28 61.188-8.667 91.016-10.295 30.994-18.992 61.913-47.42 83.37C1314.621 1199.786 1302.837 1179.822 1302.837 1179.822L1302.837 1179.822zM1410.307 1339.934c69.549-39.649 117.167-109.03 124.497-189.921.531 83.961-43.15 160.856-111.653 209.219C1423.153 1359.233 1410.307 1339.934 1410.307 1339.934L1410.307 1339.934zM1529.608 1513.071c56.281-12.847 105.538-63.929 115.118-125.993-.885 31.312-12.17 62.587-31.058 88.781-18.864 26.194-45.557 47.76-77.35 59.402L1529.608 1513.071 1529.608 1513.071zM1165.692 1100.052c-37.493 10.221-75.315-7.102-99.463-34.263 26.766 18.961 62.417 28.116 91.642 12.438C1157.871 1078.228 1165.692 1100.052 1165.692 1100.052L1165.692 1100.052zM1246.694 1238.753c-49.447 32.122-129.741 23.232-179.477-3.336 28.001 10.318 57.835 14.309 86.746 11.824 25.354-2.611 59.144-9.313 77.251-25.744C1231.213 1221.497 1246.694 1238.753 1246.694 1238.753L1246.694 1238.753zM1361.264 1401.921c-72.052 47.06-164.127 56.511-241.174 27.869 79.408 21.29 166.419 2.265 227.617-46.675L1361.264 1401.921 1361.264 1401.921zM1452.546 1586.513c-46.761 55.302-129.136 76.148-194.281 42.453 16.074 6.305 33.234 8.891 50.147 9.148 50.452 1.509 97.793-25.123 126.016-66.067C1434.428 1572.049 1452.546 1586.513 1452.546 1586.513L1452.546 1586.513zM1608.046 1644.998c39.129-3.443 68.523-38.335 82.832-73.921-7.974 41.585-34.761 84.512-78.171 96.63C1612.708 1667.707 1608.046 1644.998 1608.046 1644.998L1608.046 1644.998zM1546.928 1715.982c-29.984 31.791-77.812 34.792-117.764 26.886 37.582-.56 78.685-8.706 100.097-41.898C1529.262 1700.97 1546.928 1715.982 1546.928 1715.982L1546.928 1715.982z" class="color6ca856 svgShape"></path></g><g fill="#000000" class="color000 svgShape"><path fill="#f6af9a" d="M1640.505,2516.818c-0.028-0.032,394.51-566.219,522.486-700.153
					c56.664-65.599,150.222-92.476,236.165-60.334c110.325,41.261,166.314,164.146,125.053,274.472
					c-8.575,22.929-20.686,43.501-35.466,61.351c-3.483,4.206-7.116,8.258-10.884,12.155
					c-69.491,77.429-368.187,393.885-638.835,637.758c-40.306,45.851-106.197,64.533-166.774,41.878
					c-78.296-29.282-118.03-116.491-88.748-194.786C1594.96,2558.518,1615.311,2533.822,1640.505,2516.818z" class="colorf6af9a svgShape"></path><path fill="#ffffff" d="M2514.065,1788.573c0,0-196.885-125.387-315.028-16.067
						c-118.144,109.32-374.802,450.906-438.214,532.158c-63.412,81.251-190.634,265.299-202.923,310.255
						s-0.63,127.798,79.837,174.785c80.468,46.988,152.315,10.915,223.1-45.122c70.785-56.037,585.091-554.022,651.039-638.035
						S2607.123,1859.478,2514.065,1788.573z" class="colorfff svgShape"></path><path fill="#e5e6eb" d="M2572.41 1945.127l-235.114-75.399c0 0-5.676 66.528-66.444 185.169-57.402 112.071-225.8 299.721-159.931 456.084 167.698-161.827 362.11-354.948 400.956-404.435C2544.397 2065.117 2567.991 2004.469 2572.41 1945.127zM1749.924 2318.816l134.059 294.401c72.052-188.307 32.433-421.97 18.064-491.312-63.197 80.874-116.684 151.313-141.225 182.757C1757.372 2309.084 1753.723 2313.825 1749.924 2318.816z" class="colore5e6eb svgShape"></path><path fill="#f6af9a" d="M3457.544,3496.309H2299.161c24.171-93.418,62.621-209.699,122.535-327.475
					c23.611-46.569,16.332-107.603,7.56-163.224c0,0,108.162-166.304,493.404-158.837c339.234,6.626,368.351,43.116,368.351,43.116
					C3311.168,2994.412,3457.544,3323.754,3457.544,3496.309z" class="colorf6af9a svgShape"></path><path fill="#f6af9a" d="M2377.969,2568.717c0,0-98.033-45.355-115.368-140.164
						c-17.335-94.807,79.812-325.403,93.184-472.755c13.372-147.351-109.09-151.505-169.137-166.497
						c0,0,120.893-151.009,485.147-256.68c0,0,145.738-33.257,307.014-29.011c38.992,1.026,81.716-0.463,120.249,6.674
						c161.513,29.914,279.351,81.567,310.769,132.32c31.418,50.752-0.567,243.309-25.974,398.354
						c-28.868,176.169-62.357,371.774-67.733,531.455c-2.597,77.131-13.835,316.467-9.641,496.753c0,0,0.432-94.347-382.562-10.09
						c-382.994,84.257-509.103-45.669-509.103-45.669C2401.671,2865.106,2377.969,2568.717,2377.969,2568.717z" class="colorf6af9a svgShape"></path><path fill="#f6af9a" d="M2605.732,1559.68c0,0,50.059-396.244,50.059-396.244
							c8.161-78.634,67.006-145.857,148.684-161.047c99.428-18.491,195.02,47.122,213.51,146.549
							c2.516,13.53,3.463,26.988,2.991,40.192c0.005,0,5.196,429.477,5.196,429.477c0.103,2.997-0.079,16.589-0.079,16.589
							c-0.976,100.922-72.908,183.168-175.871,202.316c-116.974,21.754-225.965-49.675-247.719-166.649
							C2595.726,1634.416,2600.589,1597.598,2605.732,1559.68z" class="colorf6af9a svgShape"></path><path fill="#ea9a88" d="M2655.791,1163.437c8.161-78.635,67.006-145.858,148.684-161.047
							c99.428-18.491,195.02,47.122,213.51,146.55c2.516,13.531,3.463,26.988,2.991,40.192c0.005,0-89.677,145.713-89.677,145.713
							c-65.973,107.41-176.933,163.318-316.438,152.577L2655.791,1163.437L2655.791,1163.437z" class="colorea9a88 svgShape"></path><path fill="#ffffff" d="M3505.751,3618.561H2095.88c-74.348-110.329-118.962-275.029-92.013-458.915
							s168.966-416.393,356.802-521.56c-18.953-27.274-12.945-54.085-12.945-54.085c-165.107-103.318-113.719-228.67-66.798-389.077
							c46.921-160.408,75.427-246.467,37.829-312.726c-37.674-66.259-126.276-61.328-139.913-90.066
							c127.047-158.404,418.509-236.22,418.509-236.22c-9.17,63.562-4.392,130.283,103.934,149.313
							c215.032,22.497,323.462-204.439,323.462-204.439s34.847-1.153,89.708,8.741c59.26,10.687,176.754,42.284,268.883,74.707
							c80.743,22.112,80.538,78.076,64.666,160.206c-4.853,25.194-10.863,52.083-15.64,80.435
							c-16.872,102.547-62.482,474.906-81.975,626.299c-9.939,77.045-23.191,178.514-10.94,318.967
							c14.638,71.421,27.735,128.511,33.282,149.93C3385.677,2968.841,3491.343,3375.626,3505.751,3618.561z" class="colorfff svgShape"></path><path fill="#e5e6eb" d="M2399.234,3043.23c70.922-16.657,96.272-49.302,112.227-48.106
								c0,0,11.517,167.571,51.041,173.146c144.655-20.485,615.801-52.442,896.194,124.948
								c-58.63-295.538-83.117-334.663-119.247-523.077c-17.407-216.43,18.417-350.045,40.04-549.048l-283.434-292.949
								c0,0,22.222,347.625,31.717,450.761c5.711,62.027-42.811,125.182-151.092,173.943
								c-137.669-9.021-358.158-37.971-377.502-19.12c-20.392,19.87-78.478,178.227-81.454,262.19
								c-25.653-2.216-169.937-13.692-319.204-25.507c-100.694,113.887-177.904,255.681-196.779,406.474
								c25.941-50.921,71.812-99.85,143.91-129.614C2254.84,3050.461,2365.305,3051.199,2399.234,3043.23z" class="colore5e6eb svgShape"></path><path fill="#e5e6eb" d="M2268.622,2513.592c17.69,24.591,43.285,48.022,79.065,70.423
								c0,0,87.431,19.047,163.774-1.307C2511.461,2582.708,2356.035,2572.387,2268.622,2513.592z" class="colore5e6eb svgShape"></path><g fill="#000000" class="color000 svgShape"><path fill="#f6af9a" d="M3104.287,1794.062c0.673-19.648,4.084-39.531,10.507-59.153
						c36.647-111.943,157.103-172.983,269.046-136.336c92.896,30.411,121.689,102.092,146.782,211.621
						c0,0,61.463,388.604,70.485,599.441c9.021,210.836,11.943,478.958,5.168,499.651
						c-26.008,79.444-111.492,122.762-190.936,96.755c-66.934-21.912-108.217-86.045-104.006-153.213
						c-0.004,0-190.244-751.42-206.018-1029.443C3104.301,1813.711,3103.95,1803.917,3104.287,1794.062L3104.287,1794.062z" class="colorf6af9a svgShape"></path><path fill="#ea9a88" d="M3286.618,2752.758c11.505,47.313,19.83,80.636,23.137,93.803l94.018-100.625L3286.618,2752.758
						z" class="colorea9a88 svgShape"></path><path fill="#ffffff" d="M3242.482,1574.421c0,0-219.806,27.585-159.787,379.431
						c60.019,351.846,168.362,756.722,197.159,900.067c28.797,143.345,139.858,202.021,232.962,168.838
						c93.103-33.183,121.34-101.311,119.701-196.495c-1.639-95.184-43.447-851.931-116.297-1098.757
						C3464.6,1532.527,3242.482,1574.421,3242.482,1574.421z" class="colorfff svgShape"></path><path fill="#d7d6db" d="M3213.089,2567.213c9.723,40.876,18.95,79.342,27.39,114.699l163.293,6.633
						C3385.734,2647.393,3289.387,2580.934,3213.089,2567.213z" class="colord7d6db svgShape"></path></g><g fill="#000000" class="color000 svgShape"><path fill="#203f5b" d="M2381.493,717.884c0,0-17.118,49.601-12.958,88.631c4.16,39.028,16.364,52.465,2.502,86.388
						c-13.861,33.923-26.316,54.506-15.894,96.198c10.425,41.693,13.549,79.142-1.246,97.879c0,0,33.63-17.551,49.07-52.507
						c15.438-34.957-7.286-76.48,18.112-113.458c25.4-36.975,66.802-78.809,64.539-126.984
						C2483.359,745.857,2381.493,717.884,2381.493,717.884z" class="color203f5b svgShape"></path><path fill="#f6af9a" d="M2860.117,433.281c0,0,330.182,43.743,285.761,434.982
						c-42.67,375.825-388.023,653.9-651.46,549.21c-83.175-38.813-121.335-240.267-96.456-535.276
						S2568.698,395.292,2860.117,433.281z" class="colorf6af9a svgShape"></path><path fill="#ea9a88" d="M2594.014 1109.576c0 0 16.342-26.846 85.306-16.796 56.059 8.167 97.285 21.927 92.429 56.888C2769.829 1195.595 2555.669 1175.922 2594.014 1109.576zM2472.895 1101.239c-.625 14.946-43.929 27.975-80.539 24.075-1.365-26.023-1.997-53.499-1.878-82.332C2436.82 1051.931 2477.152 1070.605 2472.895 1101.239z" class="colorea9a88 svgShape"></path><path fill="#1f334c" d="M2683.429 1024.537c-2.537 20.314-16.949 35.239-32.19 33.337-15.243-1.905-25.542-19.917-23.007-40.231 2.537-20.316 16.952-35.241 32.194-33.336C2675.668 986.209 2685.967 1004.221 2683.429 1024.537zM2488.621 995.283c-2.442 19.568-16.323 33.943-31.004 32.11-14.681-1.833-24.601-19.181-22.156-38.748 2.444-19.565 16.325-33.94 31.006-32.107C2481.145 958.371 2491.064 975.718 2488.621 995.283z" class="color1f334c svgShape"></path><path fill="#e57e73" d="M2524.858,1245.875c24.153,4.309,47,3.203,61.915,1.516
								c31.57-3.571,32.795-7.642,32.92-11.139l-0.3-2.123c-0.66-4.681-5.079-7.876-9.731-7.035
								c-0.389,0.107-39.498,10.547-81.983,2.966c-42.15-7.521-63.745-23.366-63.958-23.527c-3.545-2.641-8.577-1.934-11.237,1.602
								c-2.659,3.539-1.967,8.553,1.562,11.224C2455.026,1220.101,2478.575,1237.617,2524.858,1245.875z" class="colore57e73 svgShape"></path><path fill="#ea9a88" d="M2531.412,1290.14c-21.943-1.455-37.677-9.943-38.54-10.417
								c-4.222-2.322-5.765-7.627-3.445-11.851c2.32-4.216,7.616-5.761,11.832-3.456c0.412,0.221,23.053,12.18,49.697,7.298
								c4.73-0.869,9.288,2.269,10.158,7.01c0.867,4.74-2.271,9.288-7.011,10.157
								C2546.093,1290.35,2538.435,1290.606,2531.412,1290.14z" class="colorea9a88 svgShape"></path><path fill="#e57e73" d="M2535.327,1162.981c-11.251-1.066-31.558-3.922-42.745-11.173
							c-15.158-9.823-7.983-23.401,0.325-39.125l1.047-1.977c50.068-94.965,47.135-126.351,47.122-126.773
							c-0.134-4.84,3.661-8.915,8.499-9.085c4.856-0.162,8.908,3.566,9.115,8.402c0.077,1.863,3.668,35.499-49.148,135.675
							l-1.051,1.993c-3.232,6.115-6.875,13.007-7.094,15.536c9.167,6.006,30.829,8.93,42.492,9.496
							c4.822,0.243,8.611,4.364,8.376,9.225c-0.232,4.86-4.358,8.609-9.221,8.377
							C2542.118,1163.509,2539.281,1163.355,2535.327,1162.981z" class="colore57e73 svgShape"></path><path fill="#293d5c" d="M2619.237 908.943c0 0-12.856-2.084-13.811 6.512-.953 8.596-.746 27.82 4.549 30.669 5.298 2.847 72.162 6.931 97.911 9.893 25.749 2.962 66.301 13.376 68.594 10.588 2.29-2.786-12.253-20.251-40.789-30.959C2711.438 926.543 2653.502 909.879 2619.237 908.943zM2401.3 912.537c0 0-12.494-.666-12.54-8.491-.057-10.039 42.237-21.647 112.543-10.816 20.462 4.195 15.966 28.469 9.646 39.229C2505.115 942.394 2476.814 919.495 2401.3 912.537zM3189.48 1058.808c0 0 57.255-44.332 112.721-6.232 55.468 38.1 30.069 101.315 30.069 101.315s32.711 9.86 29.784 33.787c0 0 34.352 26.557 15.776 96.301-18.574 69.747-95.037 83.51-95.037 83.51s14.488 58.211-18.762 95.26c-33.253 37.051-122.778-14.257-122.778-14.257s-56.733 27.062-77.736.21c0 0-143.847 47.814-115.847-101.751 27.998-149.568 112.76-144.229 112.76-144.229s-35.145-52.279 8.354-94.357c43.497-42.08 80.01-16.094 80.01-16.094S3143.089 1040.996 3189.48 1058.808z" class="color293d5c svgShape"></path><path fill="#25354e" d="M2952.327,1325.499c31.683-127.572,108.104-122.776,108.104-122.776
						s-35.145-52.279,8.354-94.357c43.497-42.08,80.01-16.094,80.01-16.094s-5.706-51.276,40.685-33.463
						c0,0,49.141-37.998,100.473-13.306c-11.877,5.416-22.732,14.382-24.033,29.183c-3.002,34.133,22.174,80.254-12.26,118.081
						c-34.436,37.827-59.417,44.905-63.692,65.485c-4.275,20.58-9.153,122.813-108.448,118.546c0,0-44.213,6.151-85.627-20.853
						C2985.648,1349.264,2969.844,1338.924,2952.327,1325.499z" class="color25354e svgShape"></path><path fill="#293d5c" d="M2593.995,632.365c0,0-12.099,34.459,13.727,72.536c25.826,38.074,57.224,39.487,67.316,54.871
						c10.095,15.385,2.729,55.769,40.353,91.185c37.623,35.416,75.231,46.293,95.051,73.92c19.816,27.63,22.531,58.86,3.111,83.449
						c-19.418,24.59-46.181,59.923-31.465,87.513c14.716,27.59,32.369,55.792,19.032,80.623c0,0,29.666-29.619,27.6-68.894
						c-2.065-39.275,1.026-59.076,21.553-74.237c20.527-15.158,36.93-30.154,40.39-46.813c0,0-12.824,61.74,4.349,102.107
						c17.17,40.369,39.559,65.465,34.396,100.171c-5.165,34.705-13.994,87.052-1.532,100.885
						c12.461,13.833,7.998,59.929,24.988,71.637c16.993,11.706,73.054,22.329,96.875-13.613c0,0,62.628-1.304,87.226-36.063
						c24.598-34.759,16.322-83.5,16.322-83.5s76.024-60.879,90.86-102.777c14.838-41.897-25.818-92.253-25.818-92.253
						s-9.774-31.677,12.139-48.594c21.913-16.914,31.404-52.767,28.692-83.999c-2.715-31.23-29.596-59.304-44.182-77.667
						s-6.647-56.583,5.708-81.618s13.879-71.741-8.268-102.92c-22.147-31.177-49.143-43.942-52.211-53.778
						c-3.066-9.838-13.537-107.083-105.616-131.32c-35.649-10.47-86.215-47.552-130.519-55.732
						c-44.302-8.18-120.445-10.704-150.607,6.542c0,0-78.272-7.059-136.242,1.347c-57.97,8.405-58.692,26.655-76.242,37.323
						c-17.547,10.666-76.001,31.237-93.83,53.089c-17.828,21.855-11.195,53.899-25.675,74.405
						c-14.482,20.504-56.184,58.865-63.868,115.539c-7.681,56.672,32.313,106.637,32.313,106.637s10.645-62.448,46.538-85.148
						C2487.11,687.83,2566.397,701.257,2593.995,632.365z" class="color293d5c svgShape"></path><path fill="#25354e" d="M2657.524 556.581c-85.346 139.621 55.582 95.295 42.94 160.064 24.347-36.397-32.882-51.362-50.578-71.518C2635.125 618.452 2652.169 584.876 2657.524 556.581zM2751.844 747.251c-30.376 29.213.801 76.645 34.083 87.566 32.633 11.581 61.792 28.368 61.359 67.09C2873.156 810.421 2717.795 836.51 2751.844 747.251zM3200.103 985.264c-40.338 13.611-40.656 61.207-21.354 92.092 13.203 28.19 6.311 70.763-29.282 76.554 42.697 5.851 58.611-49.569 42.427-81.668C3174.57 1043.294 3169.288 1007.972 3200.103 985.264zM3099.367 1191.237c-15.875 16.656-10.495 45.587-21.257 64.552-7.966 19.516-30.842 32.689-49.823 19.574 15.112 26.361 53.897 10.836 62.587-13.56C3103.053 1238.666 3093.494 1214.677 3099.367 1191.237zM3102.046 604.687c9.218-10.773 34.216 24.585 38.35 31.963 28.418 52.763-60.405 121.276 12.03 154.915-53.306-43.22 24.435-88.332 4.19-145.951C3156.305 631.476 3111.97 587.013 3102.046 604.687zM3171.439 845.179c7.874 3.131 5.323 13.765 5.921 20.446.406 23.117-4.208 46.587-25.349 59.746 30.614 2.085 44.423-36.346 36.31-61.215C3186.215 856.427 3181.866 842.386 3171.439 845.179zM2987.703 793.876c7.996 26.957-19.32 51.967-18.384 80.1-2.604 61.838 96.471 56.967 59.829 157.769 20.76-24.684 21.099-63.149 4.186-90.216-12.402-21.641-39.921-31.162-48.959-53.363C2971.464 858.635 3005.19 821.725 2987.703 793.876zM3016.506 1146.306c-17.85-.575-49.001-17.493-43.892-38.359 10.156-50.616 20.875-83.232-36.941-105.916 40.311 33.813 34.528 44.302 25.52 91.717-2.633 13.079-4.655 29.994 7.269 39.592C2982.217 1143.309 3000.192 1152.671 3016.506 1146.306zM2575.508 548.333c-9.222 27.394-11.529 62.279-39.351 76.906-23.39 12.24-80.571-1.875-74.624 40.648C2473.683 608.771 2582.104 699.018 2575.508 548.333zM2772.764 486.868c28.066-21.824 66.119 10.622 77.29 36.878 5.936 27.508-10.843 57.387 5.461 83.56 9.449 20.477 32.927 13.901 49.718 19.217 28.78 14.729 25.741 51.56 20.467 79.028 15.708-31.417 15.575-84.409-26.677-93.681-20.391.194-34.654-4.216-36.573-28.648-2.148-24.269 9.58-51.815-5.904-73.929C2838.686 486.035 2797.307 458.495 2772.764 486.868zM3053.188 643.663c2.427-56.529-13.303-66.489-67.526-59.706-16.15.238-45.086-57.072-13.701-46.99-3.044-6.775-13.198-5.158-17.561-.295-12.354 19.984 6.309 55.804 28.621 60.97C3040.13 595.845 3035.238 586.585 3053.188 643.663zM2798.9 595.75c-23.276 24.995-40.685 58.992-35.617 94.483 3.152 35.521 40.858 69.305 76.539 53.755C2758.217 742.939 2770.363 646.872 2798.9 595.75zM2900.452 772.743c25.885 13.493-10.366 58.917-14.132 79.988C2910.099 840.911 2945.245 775.722 2900.452 772.743zM3074.688 788.491c-61.558 42.837 48.93 92.674-11.001 129.709 33.124.07 36.153-44.754 19.995-65.919C3066.618 830.754 3058.764 813.611 3074.688 788.491zM2999.731 1260.424c-28.076-6.26-33.358-34.269-35.819-59.055C2942 1225.397 2966.157 1277.223 2999.731 1260.424zM3110.885 1105.576c-17.807-8.894-19.787-26.422-29.414-42.151C3068.444 1082.192 3087.222 1118.288 3110.885 1105.576zM3313.472 1198.826c16.485 28.091 3.011 84.283-37.294 76.012C3321.644 1309.164 3355.397 1220.729 3313.472 1198.826zM3234.628 1325.62c-15.929 9.705-14.459 35.163-.805 46.353 3.485 3.65 9.915 3.868 9.146 9.172C3254.095 1379.517 3230.429 1347.462 3234.628 1325.62zM3180.164 1398.742c-15.432 19.32-37.589 7.266-57.839 5.056C3132.953 1428.565 3183.447 1432.19 3180.164 1398.742zM2665.521 426.693c-37.558-13.898-103.76 10.015-83.173 58.418C2584.86 440.883 2631.554 436.269 2665.521 426.693zM2535.629 501.647c-1.09 4.856-7.37 4.48-11.044 6.259-13.409 4.784-26.709 8.827-39.864 15.167 15.349 9.91 36.884 4.505 48.497-8.674C2536.106 511.344 2539.803 505.062 2535.629 501.647zM2435.242 637.953c-32.049 6.749-37.861 47.702-15.226 68.26C2418.585 680.346 2419.183 659.493 2435.242 637.953zM2893.214 432.816c22.434 6.775 47.208-.607 65.724 13.826 26.577 30.692 51.632 67.941 99.026 57.076C2969.156 490.788 3002.673 404.508 2893.214 432.816z" class="color25354e svgShape"></path><path fill="#25354e" d="M2593.995,632.365c8.618-32.253,15.703-65.901,33.564-94.344
							c36.625-49.249,155.43-57.493,145.906-133.995c0.397,18.537-12.424,36.277-26.596,47.17
							c-39.267,23.133-84.43,36.541-119.731,67.277C2599.523,548.48,2596.251,593.507,2593.995,632.365z" class="color25354e svgShape"></path><g fill="#000000" class="color000 svgShape"><path fill="#f6af9a" d="M2859.509,1038.252c0,0,47.409-95.089,101.898-72.067c54.49,23.025,12.086,113.269-7.99,145.222
						c-20.076,31.955-67.053,82.186-106.925,27.422C2822.887,1108.583,2859.509,1038.252,2859.509,1038.252z" class="colorf6af9a svgShape"></path><path fill="#e57e73" d="M2893.653,1083.196c-0.307-1.32-0.326-1.621-0.328-1.923
						c13.32-66.135,61.208-68.757,61.691-68.774c3.234-0.132,5.945,2.383,6.09,5.613c0.145,3.232-2.366,5.975-5.596,6.136
						c-1.345,0.07-28.13,1.901-43.344,35.354c12.953-7.267,26.959-8.189,27.865-8.24c3.241-0.188,6.007,2.291,6.196,5.527
						c0.191,3.239-2.281,6.018-5.519,6.215c-0.252,0.017-23.108,1.585-33.525,16.065c5.077,3.484,11.957,9.706,13.477,18.665
						c1.379,8.107-1.954,16.173-9.909,23.975c-1.455,1.428-3.462,1.944-5.32,1.558c-1.101-0.229-2.148-0.774-2.995-1.639
						c-2.275-2.318-2.239-6.043,0.079-8.319c5.03-4.931,7.235-9.5,6.556-13.578c-1.088-6.539-9.314-11.784-12.375-13.246
						C2893.75,1083.442,2893.696,1083.32,2893.653,1083.196z" class="colore57e73 svgShape"></path></g></g><g fill="#000000" class="color000 svgShape"><path fill="#f1d7b9" d="M1378.535,2393.806c0,282.675,229.152,511.827,511.827,511.827l258.113,0
								c282.674,0,511.827-229.152,511.827-511.826C2660.302,2393.807,1378.535,2393.806,1378.535,2393.806z" class="colorf1d7b9 svgShape"></path><path fill="#e9ceb0" d="M2179.007,2495.049c0,0,192.503,22.733,142.223,58.611
								c-216.784,13.553-274.582,69.053-287.426,182.143c-12.845,113.09-39.989,175.428-218.902,164.281
								c24.628,3.64,49.821,5.55,75.461,5.55l258.113,0c282.674,0,511.827-229.152,511.827-511.826c0,0-77.165,0-193.622,0
								C2312.377,2433.751,2179.007,2495.049,2179.007,2495.049z" class="colore9ceb0 svgShape"></path><ellipse cx="2019.418" cy="2393.807" fill="#e2bd93" rx="640.883" ry="112.867" class="colore2bd93 svgShape"></ellipse><path fill="#809260" d="M1893.033 2370.81c0 0-20.975-22.373-1.398-36.357 19.577-13.983 7.275-25.144 1.54-46.132s-34.892-46.159-11.224-65.736c23.668-19.577 53.033-15.382 58.627-48.942 5.593-33.56 60.129-40.552 82.502-4.195s32.162 40.552 57.332 40.552 61.527 22.374 61.527 41.95c0 19.577 13.983 36.384 33.56 36.37 19.577-.013 48.942 61.527 4.195 116.056L1893.033 2370.81zM2399.233 2244.959c0 0-16.78-62.926-61.527-53.137-44.747 9.788-60.129 64.891-47.544 126.833C2290.163 2318.656 2396.437 2355.428 2399.233 2244.959zM1583.999 2172.245c-22.373 6.991-6.992-40.552-41.95-43.349-34.959-2.796-46.145 26.569-71.315 46.146-25.17 19.577-57.332-12.585-97.884-26.569-40.552-13.983-81.104 12.585-81.104 60.128 0 47.544 40.552 85.299 82.502 128.648 28.607 29.561 39.004 71.469 42.726 95.143 43.912 21.259 123.064 39.537 225.022 52.642-6.939-42.027 4.274-135.079 27.128-174.354 23.597-40.552 19.751-83.901-9.614-127.25C1630.144 2140.083 1606.372 2165.253 1583.999 2172.245z" class="color809260 svgShape"></path><path fill="#8c9e68" d="M1473.53 2451.914c0 0-4.195-36.357-18.178-82.502s-20.975-65.722 9.089-74.112c30.064-8.39 45.446 30.764 45.446 30.764s25.17-23.128 55.934-16.458c30.764 6.67 20.975 58.408 11.187 84.977-9.788 26.569-5.593 79.706-5.593 79.706L1473.53 2451.914zM2024.477 2387.612c23.772-41.929-2.797-43.37-25.17-53.158-22.374-9.788-32.162-15.382-25.17-33.56 6.992-18.178-5.594-26.569-37.755-30.771s-40.552 16.788-55.934 33.568c-15.382 16.78-40.552 8.39-61.527-9.569-20.975-17.959-54.536-43.568-93.689 0-39.154 43.568 1.398 55.714 0 79.318-1.399 23.604-31.325-4.813-49.877-16.733-27.9-17.927-47.479 8.676-47.479 8.676-26.585 35.13 7.856 104.962 13.261 119.541 99.442 12.826 220.66 20.725 352.068 21.656C1999.354 2467.685 2010.027 2413.099 2024.477 2387.612z" class="color8c9e68 svgShape"></path><path fill="#96a96f" d="M1969.687,2424.539c-18.934-5.038-34.664-8.178-34.299-26.61
							c0.364-18.432-35.607-43.242-56.165-27.595c-20.558,15.647-12.482,39.419-6.403,54.205
							c6.079,14.786-23.7,35.141-44.258,22.659c-20.558-12.482-46.256,5.139-41.116,27.089c2.113,9.024,1.866,17.71,0.845,24.817
							c60.556,4.125,125.55,6.68,193.386,7.374c4.018-9.481,8.868-20.556,14.285-32.191
							C2011.381,2441.171,1988.621,2429.577,1969.687,2424.539z" class="color96a96f svgShape"></path><path fill="#8c9e68" d="M2019.418,2506.673c22.019,0,43.778-0.196,65.226-0.577
							c1.689-15.885,4.725-41.644,8.352-59.775c5.593-27.967,27.967-64.324,27.967-89.494c0-25.17,5.593-46.145-30.764-62.706
							c-36.357-16.56-67.12,5.374-68.519,27.747c-1.398,22.374-23.772,27.967-23.772,27.967l-28.222,156.503
							C1986.099,2506.56,2002.683,2506.673,2019.418,2506.673z" class="color8c9e68 svgShape"></path><path fill="#8c9e68" d="M2650.935,2387.271c27.967-20.656,44.747-39.666,39.154-68.615
							c-5.593-28.949-46.145-35.941-43.348-63.908c2.796-27.967-20.975-39.154-55.934-48.942c-34.958-9.788,0-83.9-65.722-88.096
							c0,0-40.552-6.992-78.307,19.577s-55.934,47.544-64.324,86.698c-8.39,39.153-9.789,69.917-33.561,76.909
							c-23.771,6.991-54.535-9.349-81.104-6.772c-26.569,2.577-51.739,24.95-53.137,51.519c-1.398,26.569-39.5,22.657-66.51,5.594
							c-27.01-17.063-90.104-8.39-95.698,47.543c-4.004,40.037,13.485,85.085,23.75,107.459
							c268.504-4.151,489.501-37.461,560.286-81.842C2635.899,2411.101,2634.705,2399.259,2650.935,2387.271z" class="color8c9e68 svgShape"></path><path fill="#809260" d="M2133.548,2442.125c-34.958-9.788-26.489-36.592-89.339-37.749
							c-62.85-1.156-72.869,47.537-110.624,57.326c-37.755,9.788-51.635,38.3-51.635,38.3c1.46,1.478,3.379,2.903,5.665,4.279
							c42.539,1.566,86.624,2.391,131.804,2.391c58.54,0,115.245-1.383,169.124-3.972
							C2195.27,2467.836,2167.771,2451.708,2133.548,2442.125z" class="color809260 svgShape"></path><path fill="#f1d9cf" d="M1784.586 2382.572l8.263 50.489c.728 4.446 4.766 7.574 9.252 7.167l57.33-5.202c5.234-.475 8.818-5.498 7.565-10.602l-11.121-45.287c-.943-3.84-4.386-6.541-8.341-6.541h-54.472C1787.765 2372.596 1783.73 2377.344 1784.586 2382.572zM2387.495 2341.497l8.263 50.489c.728 4.446 4.766 7.574 9.252 7.167l57.33-5.202c5.234-.475 8.818-5.498 7.565-10.602l-11.121-45.287c-.943-3.84-4.386-6.541-8.341-6.541h-54.472C2390.674 2331.521 2386.639 2336.269 2387.495 2341.497zM1602.773 2373.639l8.263 50.489c.728 4.446 4.766 7.573 9.252 7.167l57.33-5.202c5.234-.475 8.818-5.498 7.565-10.602l-11.121-45.287c-.943-3.841-4.387-6.541-8.341-6.541l-54.472 0C1605.952 2363.663 1601.918 2368.412 1602.773 2373.639zM2131.527 2413.17l27.778-51.006c2.305-4.232 7.274-6.253 11.878-4.831l49.4 15.258c5.688 1.757 8.64 8.019 6.374 13.525l-24.457 59.441c-2.176 5.288-8.296 7.726-13.512 5.382l-52.721-23.694C2130.89 2424.829 2128.707 2418.347 2131.527 2413.17z" class="colorf1d9cf svgShape"></path><path fill="#d26856" d="M1929.241,2306.983c0,0-4.038,93.802,79.085,99.116
									c83.123,5.315,101.302-55.229,101.302-55.229S2018.735,2357.768,1929.241,2306.983z" class="colord26856 svgShape"></path><path fill="#e07460" d="M2104.446,2351.1c-19.922,0.552-94.24-0.46-169.059-40.73
									c3.257,14.712,19.26,72.677,70.186,78.626C2067.787,2396.264,2096.966,2361.823,2104.446,2351.1z" class="colore07460 svgShape"></path><path fill="#d26856" d="M1550.439,2354.03c0,0-21.964,68.362,14.804,119.407
									c49.476,8.752,107.053,16.082,170.585,21.612c21.717-20.465,31.354-44.533,31.354-44.533
									S1660.908,2481.279,1550.439,2354.03z" class="colord26856 svgShape"></path><path fill="#e07460" d="M1557.435,2361.862c-2.666,17.355-8.914,78.717,36.109,116.288
									c36.174,5.669,76.02,10.626,118.829,14.75c25.26-11.978,43.249-30.546,48.43-41.023
									C1736.93,2456.006,1649.398,2462.507,1557.435,2361.862z" class="colore07460 svgShape"></path><path fill="#d26856" d="M2302.773,2495.069c45.288-83.227-7.017-124.735-7.017-124.735
									c-14.139,78.408-127.001,126.682-145.146,133.971C2204.076,2502.346,2255.099,2499.215,2302.773,2495.069z" class="colord26856 svgShape"></path><path fill="#e07460" d="M2275.337,2497.315c13.974-16.287,29.221-38.966,29.486-60.64
									c0.374-30.713-7.557-49.661-11.305-56.872c-21.004,72.825-125.529,117.519-142.908,124.502
									C2193.951,2502.717,2235.689,2500.359,2275.337,2497.315z" class="colore07460 svgShape"></path><g fill="#000000" class="color000 svgShape"><path fill="#d26856" d="M2381.151,2486.987c62.349-7.521,116.77-16.932,160.593-27.765
									c72.896-68.788,7.462-157.763,7.462-157.763C2525.235,2419.852,2404.53,2476.951,2381.151,2486.987z" class="colord26856 svgShape"></path><path fill="#e07460" d="M2535.367,2446.543c47.323-51.944,20.011-120.769,12.176-137.663
									c-25.437,105.297-127.438,160.176-160.162,175.322c1.918,0.34,4.337,0.732,7.162,1.125
									c43.557-5.547,82.996-12.035,117.359-19.294C2520.275,2460.805,2528.21,2454.399,2535.367,2446.543z" class="colore07460 svgShape"></path></g><g fill="#000000" class="color000 svgShape"><path fill="#d7d6db" d="M2597.908,2590.452c0,0-74.543,190.341,0.019,367.468c0,0,136.906-71.08,136.906-172.092
					C2734.833,2684.816,2691.161,2619.445,2597.908,2590.452z" class="colord7d6db svgShape"></path><path fill="#f6af9a" d="M2606.407,2684.971c0.014,0.002,260.914,4.592,476.012,3.563
						c238.843-1.143,287.144-4.01,384.181,21.536c13.325,1.937,26.103,5.554,38.102,10.658
						c55.435,23.609,90.051,81.246,88.331,145.22c-2.769,102.931-101.251,153.295-186.683,149.724
						c-274.703-11.482-688.401-151.774-688.401-151.774c-3.148-0.738-143.692-18.416-146.697-19.489
						c-33.414-11.985-57.229-43.807-57.229-81.202C2514.023,2715.595,2598.606,2682.65,2606.407,2684.971z" class="colorf6af9a svgShape"></path><path fill="#f6af9a" d="M2734.833,2774.864c-2.334-32.202-61.682-62.648-90.699-71.823
							c-0.479-0.154-76.191-58.358-132.674-68.504c-2.529-0.455-77.644,1.161-152.691,2.764
							c-49.576,1.059-120.993-21.158-127.567,5.784c-4.092,16.774,57.729,40.747,139.69,54.125
							c29.742,4.854,36.357,24.076,36.277,24.207c-39.683,65.955-68.547,61.317-107.168,71.406
							c-60.54,15.814-210.311-55.875-233.421-49.839c-23.111,6.036-20.637,21.254-11.192,31.233
							c3.136,3.314,9.195,9.497,16.209,16.668c-5.112,10.027-12.179,35.82,28.762,64.221c0,0-15.32,31.601,53.855,55.01
							c0,0,7.729,28.376,42.253,35.566c22.765,4.741,131.681,26.173,156.182,25.694c6.586-0.129,20.756-7.542,37.913-18.266
							c41.503-19.521,105.738-58.246,129.894-67.639c33.08-12.864,79.132-32.489,117.013-31.445
							c19.143,1.411,30.007,4.118,39.219,3.45C2718.854,2854.417,2737.89,2817.029,2734.833,2774.864z" class="colorf6af9a svgShape"></path><path fill="#e57e73" d="M2070.661 2792.821c44.951 15.12 92.321 30.557 137.165 46.364 40.838 11.61 83.554 8.68 125.893 8.234l.206 1.141c-44.47 12.73-94.489 16.299-137.545-3.364-41.322-16.83-79.42-32.344-120.322-49.783L2070.661 2792.821zM2154.215 2910.115c63.35 7.989 126.788 22.771 190.711 25.726l.068 1.157c-31.024 10.81-65.952 6.322-96.857-3.236-27.683-6.641-51.969-12.605-79.165-19.638L2154.215 2910.115zM2110.155 2857.829c75.668 26.339 144.57 36.976 224.455 42.601l.084 1.156c-80.993 16-160.625-16.007-234.333-46.481L2110.155 2857.829z" class="colore57e73 svgShape"></path><path fill="#ffffff" d="M2664.704,2781.287c-1.291,124.978-66.777,176.633-66.777,176.633
					c32.98,17.42,765.089,112.679,898.07,65.106c132.981-47.573,126.465-188.262,81.748-250.259
					c-44.717-61.997-185.452-102.024-260.032-112.46c-74.581-10.436-709.302-74.727-719.785-71
					C2588.339,2592.714,2666.326,2624.29,2664.704,2781.287z" class="colorfff svgShape"></path></g><g fill="#000000" class="color000 svgShape"><path fill="#f6af9a" d="M1384.185,2710.055c0,0-32.263-18.05-30.579-37.57c1.684-19.519,24.145-42.555,60.947-56.619
					c36.802-14.064,120.209-47.412,138.854-25.634c9.27,12.68-2.813,29.685-2.813,29.685s41.426-11.997,49.779,3.687
					c8.353,15.684-14.342,37.334-14.342,37.334s28.534,4.433,34.223,17.006c5.69,12.573-16.985,42.768-16.985,42.768
					s38.805,1.983,45.88,14.321c7.075,12.338-51.528,82.809-78.251,110.127c-26.723,27.319-79.827,33.455-84.791-12.723
					c0,0-60.413-7.587-53.828-52.87C1432.279,2779.568,1370.929,2766.44,1384.185,2710.055z" class="colorf6af9a svgShape"></path><path fill="#e57e73" d="M1550.594 2619.917c0 0-59.262 24.764-86.962 38.055-28.414 13.204-60.039 27.475-79.447 52.083 29.99-9.793 57.637-25.796 84.576-42.373C1468.086 2666.685 1550.594 2619.917 1550.594 2619.917zM1586.031 2660.939c0 0-68.359 44.899-101.266 67.48-36.342 28.866-52.485 51.149-52.485 51.149s23.091-10.279 60.807-40.408c12.208-10.955 42.881-35.869 55.925-46.634C1547.716 2692.436 1586.031 2660.939 1586.031 2660.939zM1603.269 2720.713c-32.446 31.423-74.211 62.14-104.49 95.367-9.155 9.589-12.672 16.358-12.672 16.358s23.57-10.536 49.388-35.527C1558.502 2774.64 1588.889 2745.484 1603.269 2720.713z" class="colore57e73 svgShape"></path></g></g></g></svg>