<svg id="SvgjsSvg1001" width="550" height="550" xmlns="http://www.w3.org/2000/svg" version="1.1" xmlns:xlink="http://www.w3.org/1999/xlink" xmlns:svgjs="http://svgjs.com/svgjs"><defs id="SvgjsDefs1002"></defs><g id="SvgjsG1008"><svg xmlns="http://www.w3.org/2000/svg" enable-background="new 0 0 2920.103 2000" viewBox="0 0 2920.103 2000" width="550" height="550"><rect width="2694.95" height="1760.941" x="112.576" y="119.53" fill="#ffffff" class="colorfff svgShape"></rect><path fill="#e6e7e8" d="M2245.317,1366.345c1.606-1.891,3.063-3.778,4.333-5.599c16.19-23.225,20.432-83.538,21.595-99.513		c4.589-63.08-21.46-84.727-39.019-96.113c-0.996-0.646-1.985-1.209-2.97-1.732c-1.251-2.27-2.493-4.157-3.696-5.555
		c-2.85-3.303-6.779-23.115-11.855-52.597c-0.549-10.007-14.062-109.373-40.356-219.7c-4.972-20.862-19.5-58.451-32.475-87.128
		c-4.592-10.147,1.088-30.1,4.119-40.531c17.715-60.985,45.727-210.615,53.936-249.226c0.187-0.018,0.377-0.035,0.564-0.053
		c19.884-109.708,49.681-248.417,30.856-346.718c-2.831-14.787-6.175-28.906-9.973-42.35h-306.379
		c-17.221,93.713-25.696,238.296,23.802,412.367c0.228,0.977,0.433,1.919,0.671,2.911c19.268,80.391,44.664,197.857,54.805,227.262
		c0.084-0.495,0.171-1.01,0.255-1.512c-0.723,7.661-1.325,14.276-1.777,19.569c-5.27,61.775-23.045,311.888-46.332,456.432
		c-7.277,45.17-51.323,80.93-82.61,102.805c-16.257,10.278-24.562,15.535-39.467,24.969c-30.517,19.316-36.227,39.742,37.946,43.656
		c18.587,0.981,66.505-5.331,89.267-9.192c50.795,1.268,117.045,0.814,189.384,0.814c158.772,0,286.569-1.392,285.719-16.459
		C2424.764,1367.257,2350.773,1366.031,2245.317,1366.345z M2138.765,1366.691c-49.596,0-96.392,0.2-137.274,0.913
		c1.783-15.765,2.429-41.356,1.838-55.952c-0.455-11.231-1.961-21.147-3.737-29.315c2.613-6.738,4.593-12.899,5.635-17.929
		c5.111-24.672,78.487-200.147,87.563-230.327c0.069,0.134,0.135,0.263,0.204,0.397c-1.219,3.899,74.938,151.607,80.806,170.078
		c10.589,33.31,7.6,87.051,10.215,112.242c-0.793,15.464-1.17,37.044,2.02,47.067c0.303,0.953,0.63,1.828,0.953,2.716
		C2171.323,1366.643,2155.219,1366.691,2138.765,1366.691z" class="colore6e7e8 svgShape"></path><path fill="#f1f1f2" d="M345.707,1161.254c-12.721-8.052-19.809-12.538-33.684-21.31
		c-26.702-18.67-64.294-49.19-70.505-87.741c-19.875-123.364-35.045-336.828-39.542-389.551c-0.385-4.518-0.9-10.163-1.517-16.701
		c0.072,0.429,0.146,0.869,0.218,1.291c8.655-25.096,30.33-125.35,46.774-193.961c0.203-0.847,0.378-1.65,0.573-2.484
		C286.79,314.46,283.88,199.369,271.78,119.53H112.576v769.444c0.479,0.276,1.023,0.431,1.59,0.431c0.362,0,0.73-0.06,1.092-0.187
		c1.721-0.604,2.627-2.486,2.023-4.207c-0.043-0.123-0.673-1.949-1.713-5.277c0.059-0.114,0.115-0.225,0.174-0.339
		c7.747,25.758,70.371,175.521,74.733,196.577c0.889,4.293,2.579,9.552,4.809,15.302c-1.515,6.972-2.801,15.434-3.189,25.02
		c-0.504,12.457,0.047,34.298,1.569,47.753c-24.789-0.433-52.157-0.642-81.088-0.728v28.076
		c47.183,0.064,90.056,0.135,124.558-0.727c19.427,3.295,60.323,8.682,76.186,7.845
		C376.626,1195.172,371.752,1177.739,345.707,1161.254z" class="colorf1f1f2 svgShape"></path><path fill="#e6e7e8" d="M1236.653,1503.003c24.06-4.774,37.77-9.246,38.815-10.302c0.137-0.139,0.267-0.311,0.389-0.512
		c0.072-0.118,0.134-0.266,0.199-0.405c0.043-0.093,0.091-0.172,0.131-0.273c0.087-0.218,0.161-0.464,0.232-0.72
		c0.01-0.038,0.023-0.069,0.034-0.108c0.392-1.512,0.467-3.644,0.009-6.149c0-0.001,0-0.003,0-0.004
		c-0.804-4.401-3.273-9.948-8.732-15.36c-10.439-10.349-44.9-17.321-77.185-24.402c-32.284-7.081-72.131-42.048-78.483-46.078
		c-1.919-1.218-5.673-1.54-10.144-1.282c-4.454-7.444-7.997-16.385-10.722-25.133c-5.851-18.623-7.314-36.844-7.314-36.844
		c-0.396-0.142-0.858-0.244-1.303-0.357c-6.76-81.678-34.724-419.379-41.478-497.612c-5.783-67.161,5.016-505.575,10.7-717.933
		H657.5c-2.359,124.504,0.22,311.664-5.018,372.117c-8.765,123.102-41.259,245.768-47.435,289.267
		c-5.263,37.083-160.337,345.141-199.573,424.352c-2.817,5.674-4.524,11.72-5.155,17.843c-3.392,2.588-7.483,5.349-11.926,8.171
		c-2.805,1.786-5.753,3.597-8.743,5.404c0.015-0.37,0.029-0.726,0.043-1.054c-18.369,11.701-33.94,20.096-38.872,25.946
		c-7.326,8.7-2.803,36.974,30.279,150.071c13.042,44.586,26.626,72.262,38.831,89.442c-25.9,2.509-40.552,6.224-41.175,11.692
		c-0.581,5.096,22.813,8.613,63.943,11.036c7.895,4.79,13.866,5.276,16.757,5.276c3.373,0,6.866-1.325,10.226-3.941
		c83.026,3.46,215.328,3.941,364.872,3.941c253.495,0,460.161,2.175,462.186-16.312
		C1287.207,1508.523,1269.061,1505.354,1236.653,1503.003z M976.431,1408.675c-1.003,9.417-2.1,18.034-3.195,25.947
		c-1.006-0.408-1.559-0.641-1.559-0.641c-1.733,12.423-5.903,33.362-8.442,50.312c-0.01,0.067-0.019,0.132-0.029,0.199
		c-0.316,2.116-0.604,4.163-0.86,6.128c-0.036,0.276-0.073,0.555-0.108,0.828c-0.06,0.468-0.115,0.925-0.17,1.382
		c-0.04,0.33-0.08,0.66-0.118,0.985c-0.048,0.416-0.094,0.825-0.139,1.231c-0.039,0.352-0.075,0.699-0.111,1.042
		c-0.022,0.215-0.048,0.441-0.07,0.653c-42.578-0.202-87.727-0.271-134.443-0.271c-142.156,0-268.291-1.367-352.092,1.075
		c3.504-16.095-0.415-34.653-1.802-61.973c-1.493-29.413-0.198-66.926,4.56-98.852c14.095,10.664,27.464,16.763,37.476,14.029
		c27.992-7.656,245.877-401.385,264.494-432.813c32.885-57.94,48.349-125.385,48.349-125.385c-0.413,2.719-0.761,5.459-1.044,8.2
		c0,0.021,0,0.043-0.021,0.065c-1.827,16.791-1.697,33.799-0.761,51.177c0.457,8.874,1.153,17.857,1.87,26.948
		c11.854,147.744,76.232,464.284,88.651,509.197c0.565,2.001,1.087,3.328,1.565,3.937c5.013,6.275,27.915,1.811,60.159-6.797
		C977.964,1393.531,977.232,1401.332,976.431,1408.675z" class="colore6e7e8 svgShape"></path><path fill="#f1f1f2" d="M2807.526 1203.672c-5.554.008-11.116.015-16.75.015-2.426 0-4.843.001-7.256.001-.169-1.279-.396-2.622-.681-4.022-.026-.161-.051-.322-.098-.482-1.712-8.443-5.284-18.856-9.251-29.088-5.785-14.916-12.697-29.309-15.459-36.767-1.114-3.016-2.215-10.132-3.222-19.117-.011-.092-.021-.189-.031-.282.399-.118.622-.258.616-.425-.064-1.763-7.548-92.512-15.801-196.234.169.295.339.592.509.887 9.244 21.302 45.966 66.663 67.425 94.721v-292.32c-39.392-78.739-74.228-148.459-74.228-148.459l-4.062-12.227c0 0 48.197-124.998 78.29-236.756V119.53h-252.55c-10.391 94.075-35.082 336.004-20.333 387.555 3.172 11.086 12.73 33.906 26.564 64.114-.136 4.596-.153 8.709-.025 12.231 2.542 70.359 55.557 498.942 64.751 512.616 2.721 4.046 20.811 8.006 42.645 11.206.008.092.018.194.026.285.624 7.237.865 12.263.556 13.73-.842 3.96-12.225 13.79-27.355 23.922-.216.141-.432.302-.667.442-.962.643-1.944 1.287-2.946 1.93-9.936 6.473-32.932 20.907-43.728 25.852-2.037.925-4.055 1.81-6.055 2.614-3.287 1.367-6.5 2.553-9.601 3.538-25.317 8.003-54.34 18.556-60.811 29.628-25.621 2.22-40.117 5.303-39.691 9.572 1.704 17.087 142.317 15.077 314.837 15.077 4.825 0 9.614-.002 14.384-.004V1203.672zM1630.747 1282.767c-6.87-11.754-37.681-22.958-64.56-31.455-3.291-1.046-6.702-2.305-10.193-3.756-2.124-.854-4.266-1.793-6.429-2.775-11.461-5.25-35.875-20.574-46.424-27.446-1.064-.683-2.106-1.366-3.127-2.049-.251-.149-.48-.32-.708-.47-16.064-10.756-28.148-21.192-29.042-25.397-.328-1.558-.071-6.893.591-14.577.008-.097.018-.205.027-.302 23.18-3.397 42.386-7.601 45.274-11.897 9.761-14.516 66.045-469.526 68.743-544.223.135-3.74.117-8.106-.028-12.986 14.688-32.07 24.836-56.297 28.203-68.067 16.004-55.938-11.734-323.024-22.295-417.839h-283.474c-4.751 21.592-7.697 46.183-8.881 77.711-3.968 105.654 108.059 396.172 108.059 396.172l-4.313 12.981c0 0-186.53 373.316-195.477 390.034-16.747 24.944-30.333 53.716-41.905 68.122-4.874 6.063-9.586 11.457-14.045 16.307.001-.004.002-.008.003-.012-4.523 4.923-8.774 9.265-12.615 13.06-.053.052-.11.109-.163.161-1.271 1.255-2.499 2.451-3.673 3.585-17.688 17.074-24.321 23.476 30.749 93.905 1.667 2.135 3.369 4.235 5.091 6.311.326.393.66.774.988 1.165 1.408 1.679 2.828 3.342 4.268 4.98.4.455.807.901 1.21 1.353 1.394 1.566 2.796 3.117 4.216 4.645.407.438.817.869 1.226 1.304 1.452 1.545 2.914 3.07 4.389 4.574.362.369.725.736 1.089 1.104 1.585 1.601 3.18 3.177 4.787 4.73.242.234.484.469.726.702 4.109 3.947 8.274 7.759 12.478 11.39 22.305 19.235 45.501 33.877 65.056 42.953-148.791-.542-259.143-1.425-260.956 16.164-1.51 14.653 145.866 16.006 329.025 16.006 183.158 0 332.44 2.134 334.25-16.006C1673.339 1288.397 1657.949 1285.124 1630.747 1282.767zM1379.367 1181.63c-.011.098-.022.201-.033.299-1.07 9.54-2.239 17.095-3.422 20.296-2.932 7.918-10.27 23.199-16.411 39.035-4.213 10.863-8.005 21.918-9.823 30.882-.049.171-.076.341-.104.512-.302 1.486-.543 2.912-.722 4.27-2.562-.001-5.128-.001-7.703-.001-7.584 0-15.098-.008-22.549-.02-.55-6.401-4.234-15.854-9.551-27.259-8.422-18.318-20.92-41.45-31.381-64.176-11.584-25.604-20.911-51.809-20.149-72.879.488-13.522 3.235-26.272 6.244-36.502 14.935 15.165 30.426 25.831 43.3 23.697 11.443-1.896 56.911-73.877 87.886-125.996.18-.313.361-.628.54-.942-8.762 110.117-16.708 206.461-16.776 208.333C1378.707 1181.357 1378.944 1181.505 1379.367 1181.63z" class="colorf1f1f2 svgShape"></path><path fill="#dcdddc" d="M1643.95,1539.097c1.726-3.123,3.399-6.3,5.02-9.558c7.554-15.372,14.116-31.257,19.981-47.41
		c11.286-30.988,20.267-63.026,26.615-95.602c3.516-18.199,9.967-41.945,5.144-60.952c-0.203-0.788-0.474-1.599-0.779-2.422
		c-1.535-5.015-5.05-10.711-9.912-16.794c-8.246-10.393-20.25-21.891-32.259-32.957c0.412,1.726,0.762,3.709,1.061,5.865
		c-0.718-0.654-1.438-1.304-2.154-1.965c-15.346-14.175-28.556-26.169-35.97-35.861c-5.847-7.66-16.781-31.508-27.24-52.228
		c-3.593-7.128-9.811-17.56-17.551-29.824c0.318-1.555,0.636-3.108,0.957-4.742c0,0-164.492-283.114-194.458-479.508
		c-33.242-217.861-36.705-331.528-33.334-466.377c1.372-24.431,1.372-56.323-2.878-89.232h-71.11h-221.562h-52.852
		c-27.978,198.339-77.925,477.108-83.329,524.097c-8.643,74.917-53.724,724.818-53.724,724.818s1.308,0.538,3.684,1.506
		c-3.039,36.469-6.668,68.588-10.486,77.767c-2.853,6.863-12.112,16.772-25.1,28.822c-1.563,0.311-3.159,0.823-4.797,1.604
		c-33.47,30.561-111.688,58.079-141.295,70.814c-31.906,13.732-33.937,23.183-31.607,32.796c0.764,3.236,2.021,6.499,2.797,9.942
		c0.011,0.05,0.016,0.101,0.028,0.151c0.072,0.325,0.256,0.644,0.497,0.96c0.034,0.144,0.078,0.285,0.109,0.43
		c0.369,1.682,3.053,3.239,7.581,4.674c-24.259,2.622-37.381,5.959-37.386,10.351c-0.021,15.806,169.863,9.062,587.276,2.034
		c69.955-1.178,464.111-6.234,461.242-18.72c-2.009-8.742-13.582-13.585-58.077-15.323c0.924-1,1.838-2.056,2.738-3.182
		C1629.646,1562.034,1637.237,1551.104,1643.95,1539.097z M1014.798,1586.639c0.367-7.417-0.854-15.511-2.947-24.013
		c-0.074,0.015-0.148,0.03-0.223,0.046c-0.113-0.48-0.211-0.954-0.33-1.436c-3.082-12.547-8.067-25.957-12.622-39.366
		c-0.952,0.208-1.992,0.428-3.069,0.652c-5.606-16.813-9.642-32.942-9.01-47.942c0.413-9.637,3.38-30.335,7.583-55.879
		c38.096,13.417,70.198,22.895,72.167,17.541c3.317-8.943,45.146-431.948,75.031-681.67
		c58.456,212.982,168.262,362.139,184.999,397.56c16.625,35.135,44.093,69.433,61.932,104.118
		c6.799,13.245,13.736,26.468,20.999,39.51c2.887,5.179,5.83,10.333,8.88,15.408c5.29,8.888,9.027,14.817,20.355,16.735
		c2.404,0.397,4.8,0.577,7.217,0.567c23.672,0.062,41.504-15.193,56.756-30.929c1.685,3.215,3.339,6.395,4.954,9.528
		c11.216,21.712,24.039,41.292,29.122,54.764c2.237,5.93,2.623,16.465,3.28,26.286c-0.423,0.623-0.824,1.232-1.184,1.813
		c2.221,23.506,1.452,47.174,0.47,70.572c-0.53,12.924-1.923,25.929-2.049,38.908c-0.136,11.255-4.597,21.432-13.758,27.599
		c-8.863,5.95-19.056,10.259-26.267,18.12c-6.422,7.001-9.99,16.613-9.95,26.414c-0.016,1.625,0.1,3.302,0.296,4.954
		c-32.612,0.645-70.761,1.592-115.38,2.811C1241.881,1582.869,1120.36,1584.881,1014.798,1586.639z" class="colordcdddc svgShape"></path><path fill="#62494b" d="M1954.171,836.194c-8.603-13.766-25.38-93.778-43.878-113.566
			c-18.497-19.788-83.884-44.308-92.487-49.338c-8.604-5.03-22.799-19.055-22.799-19.055l-99.405,13.338
			c-2.583,1.081-5.167,2.161-7.751,3.241c-16.156,6.753-32.311,13.51-48.499,20.189c-8.91,3.676-43.511,17.296-54.61,33.845
			c-9.965,14.858-14.4,32.969-14.926,50.852c-0.306,10.383,0.651,21.148-3.142,30.817c-2.337,5.956-6.371,11.161-8.426,17.219
			c-1.287,3.795-1.645,8.326-0.181,12.13c1.485,3.859,4.19,4.401,1.106,7.438c-1.911,1.882-5.145,2.892-7.245,4.789
			c-2.897,2.617-5.228,5.817-6.851,9.369c-5.592,12.234,0,16.652,0,16.652l16.933,47.331l124.164-16.854l206.795,32.693
			c0,0,56.042-25.81,68.947-42.933C1974.819,877.229,1962.774,849.959,1954.171,836.194z" class="color62494b svgShape"></path><path fill="#422d2f" d="M1905.513 723.686c-18.103 8.4-29.129 25.067-39.415 41.413-1.579 2.509 2.4 4.823 3.967 2.319 9.854-15.744 20.259-31.841 37.589-40.07C1910.124 726.175 1907.969 722.546 1905.513 723.686zM1594.68 764.276c-4.638-12.881-7.42-26.105-7.967-39.8-.112-2.817-4.471-2.841-4.398 0 .36 14.088 7.348 33.315 12.51 46.447C1595.846 773.519 1595.655 766.984 1594.68 764.276z" opacity=".7" class="color422d2f svgShape"></path><path fill="#422d2f" d="M1758.584,737.389c-14.699,13.825-32.462,29.912-54.365,23.674
			c-21.265-6.056-31.389-27.185-31.27-47.975c0.01-1.808-2.612-1.747-2.768,0c-1.962,21.905,9.689,43.957,31.097,51.35
			c23.891,8.251,44.297-8.282,60.431-23.926C1763.755,738.527,1760.653,735.443,1758.584,737.389z" class="color422d2f svgShape"></path><path fill="#7d7590" d="M1970.925,1689.445c0.011-16.168-129.038-15.732-282.671-15.732
					c-153.634,0-210.293-0.462-208.419,13.999c1.182,9.118,58.949,10.672,212.582,10.672S1970.918,1699.745,1970.925,1689.445z" class="color7d7590 svgShape"></path><path fill="#ffffff" d="M1694.886,1639.04c-0.044-0.442-0.089-0.883-0.136-1.324
				c-1.523-14.395-14.526-39.776-12.991-83.383c0.914-25.942,5.99-81.866,5.99-83.863l-87.856-39.935
				c0,0,6.693,121.741,4.859,138.104c-3.406,30.398-15.565,47.431-15.565,47.431s-26.909,19.098-28.199,30.995
				c-0.56,5.155-0.192,11.068,3.725,14.465c3.157,2.738,7.708,3.02,11.886,2.945c10.885-0.197,21.682-1.901,32.538-2.724
				c25.172-1.909,51.125,0.839,75.171-6.844c3.739-1.194,7.697-2.886,9.571-6.334
				C1695.428,1645.721,1695.21,1642.271,1694.886,1639.04z" class="colorfff svgShape"></path><path fill="#b9582e" d="M1609.794,1689.361c10.859-2.727,21.781-5.535,32.604-5.219c8.623,0.252,16.679,3.769,25.338,4.06
				c3.468,0.117,6.913-0.074,10.339-0.449c6.33-1.51,12.931-3.623,17.124-8.412c1.213-2.054,2.224-4.196,3.423-6.219
				c1.56-5.033,1.232-10.901,1.636-16.171c-0.318-3.807-0.689-7.92-1.128-12.246c-0.507-5-1.05-10.321-1.957-15.537
				c-0.771-4.436-1.805-8.795-3.304-12.815c-0.624-1.673-1.67-3.566-3.451-3.695c-4.369-0.316-7.898,5.691-10.667,8.25
				c-4.07,3.762-8.209,7.882-13.124,10.53c-7.575,4.081-16.96,4.089-25.013,1.059c-5.924-2.229-11.171-5.989-15.576-10.498
				c-4.121-4.219-6.135-9.901-10.931-13.552c-1.899-1.446-4.136-2.387-6.415-3.097c-6.607-2.061-13.647-2.279-20.562-1.996
				c-3.936,0.161-7.97,0.504-11.523,2.202c-4.507,2.154-5.168,6.014-8.022,9.368c-3.291,3.866-6.112,8.204-9.553,11.935
				c-3.725,4.037-7.875,7.766-12.775,10.319c-6.846,3.568-14.667,4.634-22.157,6.503c-7.49,1.87-14.305,5.668-19.794,11.096
				c-5.016,4.96-6.932,11.176-7.631,16.101c0.021,0.127,0.076,0.229,0.076,0.369c0.022,7.486,4.283,15.214,11.006,18.774
				c1.339,0.709,2.773,1.212,4.251,1.612c31.919,3.555,71.33,0.333,89.881-1.522
				C1604.417,1689.858,1607.074,1689.606,1609.794,1689.361z" class="colorb9582e svgShape"></path><path fill="#ffffff" d="M1642.398,1684.142c7.459,0.218,14.537,2.899,21.904,3.787c7.634,0.92,14.962,0.142,22.582-0.889
				c2.602-0.352,5.299-0.739,7.5-2.169c2.453-1.594,3.987-4.325,4.729-7.154c1.804-6.878,1.884-14.14,1.058-21.17
				c-4.202,0.072-8.655,1.218-12.838,1.803c-4.177,0.583-8.357,1.147-12.539,1.695c-24.476,3.211-49.015,5.921-73.481,9.213
				c-21.512,2.895-42.809,5.054-64.536,4.392c-21.599-0.659-18.394-1.842-39.995-2.429c-0.01,0.065-0.009,0.121-0.019,0.186
				c0.082,7.436,4.319,15.079,10.995,18.614c1.12,0.593,2.313,1.025,3.534,1.396c18.016,3.59,48.12,4.701,86.482,0.767
				C1612.555,1689.131,1627.569,1683.709,1642.398,1684.142z" class="colorfff svgShape"></path><path fill="#422d2f" d="M1608.533,1625.315c-6.192-4.028-13.438-4.12-20.634-4.306c-9.841-0.254-19.613,0.217-29.39,1.34
				c-4.375,0.502-5.439,5.964-2.888,8.079c-2.915,0.265-5.833,0.615-8.76,1.093c-4.622,0.755-3.598,8.769,1.117,8.251
				c12.494-1.375,24.749-1.127,37.158,0.923c5.724,0.946,8.25-7.739,2.43-8.813c-5.115-0.945-10.214-1.544-15.311-1.806
				c10.986-0.826,22.902-0.963,31.528,3.367C1609.191,1636.157,1613.635,1628.634,1608.533,1625.315z" class="color422d2f svgShape"></path><path fill="#b15e44" d="M1913.27,1619.998c2.41,5.76,2.944,12.146,4.626,18.13c1.722,6.123,3.881,12.112,5.677,18.213
				c0.395,1.341,0.772,2.688,1.123,4.042c0.066,0.256-6.297,1.04-6.855,1.117c-2.26,0.311-4.589,0.28-6.881,0.202
				c-1.141-0.039-2.311-0.113-3.349-0.586c-2.036-0.929-3.11-3.156-3.863-5.263c-1.388-3.888-2.237-7.944-3.069-11.987
				c-0.984-4.779-1.954-9.586-2.171-14.46c-0.178-4.011-0.422-12.351,3.203-15.234
				C1906.099,1610.68,1911.686,1616.214,1913.27,1619.998z" class="colorb15e44 svgShape"></path><path fill="#ffffff" d="M1803.24,1402.582c0,1.997,15.974,113.814,19.967,141.768c0.143,1.002,0.278,2.004,0.407,3.008
				c1.985,15.455,2.715,31.084,3.193,46.649c0.171,5.559,0.943,11.615,0.333,17.154c-1.055,9.573-2.656,19.25-3.836,28.859
				c-0.217,1.772-0.433,3.588-0.033,5.328c0.455,1.976,1.682,3.708,3.168,5.088c4.227,3.927,10.26,5.12,15.985,5.836
				c18.309,2.29,37.016,1.364,55.01-2.722c1.065-0.242,2.421-0.257,3.025-1.199c0.565-0.881,1.208-1.811,1.743-2.723
				c0.545-0.929,0.718-2.026,0.813-3.099c0.462-5.211-0.667-10.411-1.449-15.584c-0.155-1.022-0.296-2.06-0.183-3.088
				c0.043-0.392,0.202-0.861,0.591-0.924c0.208-0.034,0.412,0.067,0.594,0.174c1.126,0.66,2.049,1.645,3.229,2.204
				c1.179,0.559,2.825,0.529,3.54-0.564c0.508-0.777,0.369-1.797,0.172-2.705c-1.366-6.272-4.852-11.702-7.065-17.67
				c-3.141-8.47-3.565-17.544-3.734-26.428c-0.242-12.724-2.036-25.608-2.976-38.302c-1.123-15.158-2.181-30.321-3.139-45.49
				c-1.756-27.811-3.494-55.712-3.494-83.589C1889.099,1354.66,1803.24,1402.582,1803.24,1402.582z" class="colorfff svgShape"></path><path fill="#b9582e" d="M1920.181,1686.609c6.621-5.884,5.43-15.805,5.111-24.163c-0.097-0.423-0.187-0.843-0.291-1.268
				c-3.182-12.985-10.627-20.908-18.773-31.127c-4.425-5.551-7.599-12.094-9.219-19.006c-0.647-2.758-1.099-5.687-2.805-7.948
				c-2.779-3.683-7.923-4.45-12.527-4.753c-14.425-0.95-28.96-0.225-43.218,2.156c-2.982,0.498-6.041,1.103-8.566,2.766
				c-4.884,3.217-6.587,9.493-7.595,15.253c-0.928,5.309-1.834,10.365-4.858,14.926c-2.03,3.062-3.818,7.138-6.612,9.662
				c-3.42,3.09-5.977,9.261-7.598,16.107c0.018,0.12,0.069,0.215,0.069,0.347c-0.068,11.247-0.401,23.103,8.774,31.177
				c1.416,1.246,2.968,2.289,4.592,3.216c24.504,4.877,74.182,0.331,95.497-3.057
				C1915.106,1689.915,1917.902,1688.634,1920.181,1686.609z" class="colorb9582e svgShape"></path><path fill="#ffffff" d="M1920.181,1686.609c6.621-5.884,5.43-15.805,5.111-24.163c-0.097-0.423-0.187-0.843-0.291-1.268
				c-56.857,9.249-110.771,2.77-121.717,1.258c-0.039,10.358,0.393,20.913,8.789,28.303c1.416,1.246,2.968,2.289,4.592,3.216
				c24.504,4.877,74.182,0.331,95.497-3.057C1915.106,1689.915,1917.902,1688.634,1920.181,1686.609z" class="colorfff svgShape"></path><path fill="#422d2f" d="M1885.939,1612.781c-18.974,0.357-38.031,2.593-56.919,4.371c-5.667,0.534-5.833,9.343,0,8.984
				c19.342-1.189,38.891-2.017,58.098-4.646C1892.113,1620.807,1890.844,1612.689,1885.939,1612.781z" class="color422d2f svgShape"></path><path fill="#422d2f" d="M1894.401,1628.287c-19.463-4.992-41.484-3.646-61.329-2.17c-5.714,0.425-5.807,9.319,0,8.984
				c20.255-1.168,40.085,1.487,60.228,1.322C1897.911,1636.385,1898.999,1629.466,1894.401,1628.287z" class="color422d2f svgShape"></path><path fill="#33090e" d="M1883.47,517.991c3.305-6.297,4.392-14.282,1.887-21.107
							c-2.413-6.574-6.958-9.548-12.19-10.443c2.481-5.219,3.106-10.858-0.846-16.514c-2.095-2.998-4.912-5.126-8.073-6.496
							c0.344-2.751-0.035-5.623-1.455-8.616c-1.074-2.263-3.182-3.407-5.382-3.552c-0.494-5.523-2.613-10.686-6.831-14.326
							c-3.988-3.44-7.907-4.452-11.357-3.807c0.065-0.485,0.17-0.934,0.208-1.445c3.899-7.767,6.706-16.284,3.638-24.595
							c-3.035-8.222-8.9-12.476-15.605-13.945c3.15-7.941,2.559-16.367-6.382-23.064c-6.851-5.132-16.288-5.405-24.76-2.54
							c-0.007-0.704-0.042-1.429-0.117-2.187c-0.686-6.908-4.084-13.75-10.905-14.861c-4.807-0.783-8.54,0.862-11.275,3.886
							c-5.045-8.688-15.436-14.871-25.68-14.471c-6.956,0.272-13.527,3.775-18.404,8.95c-7.521-5.26-17.353-4.675-25.551-0.234
							c-6.573,2.236-10.958,7.223-13.239,13.441c-0.142-0.046-0.277-0.118-0.42-0.162c-0.218-0.068-0.441-0.109-0.66-0.172
							c-8.209-5.435-19.719-6.364-28.348-2.902c-6.131,2.459-11.591,7.678-14.262,13.461c-10.147-2.933-21.397-0.627-29.06,8.384
							c-6.689,7.867-9.012,24.255-4.167,34.969c-4.122,1.016-8.214,2.2-11.329,6.736c-5.031,7.324-3.304,16.678,0.647,24.023
							c0.266,0.496,0.558,0.958,0.837,1.438c-3.016,4.951-4.601,10.776-3.694,16.372c1.563,9.64,9.344,17.13,18.004,20.283
							c-3.555,6.661-5.169,13.644-0.042,21.611c4.786,7.435,13.117,10.421,21.291,10.831c1.663,1.963,3.401,3.872,5.022,5.793
							c5.448,6.463,11.004,12.82,16.681,19.047c22.645,24.84,47.283,47.696,74.424,66.565c4.609,3.204,9.286,6.291,14.031,9.25
							c7.683,4.791,16.198,9.93,24.586,6.77c11.313,0.977,21.829-0.477,32.537-2.75c0.108,0.084,0.211,0.176,0.319,0.257
							c11.961,9.008,20.588,4.954,24.687-3.831c2.267,0.917,4.681,1.111,7.154,0.206c4.288-1.57,6.466-5.713,7.198-10.203
							c5.153-1.819,9.326-6.634,11.009-12.347c1.379-4.684,0.958-9.321-0.464-13.745c3.666-1.492,6.868-4.233,8.899-8.388
							c3.411-6.974,1.812-12.324-1.489-17.043c5.064-1.755,9.649-4.787,12.239-8.477c5.896-8.396,4.242-16.371-0.919-21.655
							C1878.744,524.354,1881.367,522,1883.47,517.991z" class="color33090e svgShape"></path><path fill="#ea936d" d="M1791.667,635.461c-1.955-12.011-1.355-30.863-0.852-43.142
					c-1.762-24.745-2.126-40.736-2.126-40.736l-86.463,33.292c3.221,29.191-2.085,57.68-11.962,85.528
					c-4.986,14.058-8.301,28.408-4.793,43.247c1.007,4.26,2.498,8.305,4.296,12.202c4.973,5.85,12.686,10.476,24.588,11.906
					c35.675,4.285,60.374-29.872,99.247-67.159C1803.085,661.233,1794.182,650.911,1791.667,635.461z" class="colorea936d svgShape"></path><path fill="#33090e" d="M1772.981,596.358l-69.822,2.757c0.448,24.235-4.63,47.985-12.894,71.287
					c-0.323,0.911-0.638,1.823-0.946,2.736C1778.795,677.233,1772.981,596.358,1772.981,596.358z" class="color33090e svgShape"></path><path fill="#ea936d" d="M1653.455,648.864c42.912,16.205,120.818-0.471,136.306-53.231
								c0,0,55.876-8.209,26.645-49.707c-13.836-19.642-32.849-5.395-45.807,3.439c-4.001-8.803-4.381-19.174-1.033-28.237
								c-13.416,2.811-27.926-2.869-36.959-13.149c-9.033-10.28-12.786-24.583-11.457-38.17c-6.843,0.094-13.827,0.169-20.346-1.91
								c-6.519-2.079-12.609-6.727-14.568-13.257c-11.147,7.812-25.651,10.696-38.966,7.748
								C1641.663,472.89,1583.016,622.263,1653.455,648.864z" class="colorea936d svgShape"></path><path fill="#0d1216" d="M1700.969 534.079c4.256-.089 8.552 2.078 11.584 4.693 2.371 2.045 5.39 5.862 5.031 9.032-.291 2.566-2.227.675-3.333-.234-1.564-1.287-3.225-2.489-5.058-3.43-1.208-.62-2.533-1.003-3.714-1.626-1.338-.706-2.682-1.309-4.15-1.772-2.432-.768-5.165-.954-7.398-2.268-1.804-1.062-1.075-2.35.483-3.139 1.494-.756 3.94-1.032 5.641-1.201C1700.36 534.103 1700.665 534.085 1700.969 534.079zM1633.324 521.061c1.198-.434 2.433-.77 3.678-1.04 1.468-.319 3.226-.852 4.74-.566 2.366.446 7.374 6.309 2.816 6.714-.988.088-1.95-.286-2.913-.523-3.524-.871-7.276.084-10.53 1.694-1.161.574-2.762.484-2.866-1.082C1628.076 523.637 1631.271 521.805 1633.324 521.061z" class="color0d1216 svgShape"></path><path fill="#d06250" d="M1651.056,570.164c0.875-2.01,3.358-3.011,5.385-2.111c1.994,0.885,3.989,1.771,5.983,2.656
								c2.019,0.897,3.01,3.331,2.126,5.363c-0.875,2.01-3.358,3.011-5.385,2.111c-1.994-0.885-3.988-1.77-5.983-2.656
								C1651.162,574.631,1650.172,572.196,1651.056,570.164z" class="colord06250 svgShape"></path><path fill="#33090e" d="M1699.502 491.432c4.207 3.763 8.964 6.836 12.967 10.831 4.063 4.053 7.603 8.603 11.504 12.806 3.519 3.792-2.106 9.573-5.655 5.749-3.899-4.201-7.428-8.77-11.503-12.807-4.017-3.979-8.761-7.067-12.967-10.831C1689.974 493.716 1695.627 487.964 1699.502 491.432zM1632.493 495.392c3.805-4.011 8.101-5.842 13.091-7.724 5.242-1.977 7.595 5.011 2.299 7.008-3.302 1.246-6.738 2.217-9.284 4.901C1634.694 503.693 1628.574 499.524 1632.493 495.392z" class="color33090e svgShape"></path><path fill="#0d1216" d="M1664.869,590.428c0.675,0.102,1.388,0.261,2.141,0.483
								c10.079,2.972,25.011,10.427,24.983,22.751c-0.016,7.144-7.378,9.194-13.306,9.545c-6.091,0.361-14.756,1.137-19.517-3.452
								c-1.236-1.191-2.11-2.713-2.774-4.298C1652.767,606.799,1652.233,588.521,1664.869,590.428z" class="color0d1216 svgShape"></path><path fill="#a0b6c9" d="M1590.717 510.059c3.523-2.092 8.06-.432 11.308 1.413 1.858 1.055 3.598 2.343 5.144 3.819 1.283 1.224 3.344 3.179 3.299 5.081-1.373.039-2.701-.446-3.988-.926-2.336-.87-4.677-1.746-7.094-2.357-2.847-.719-5.89-1.012-8.604-2.187C1588.518 513.921 1588.667 511.276 1590.717 510.059zM1536.362 543.459c1.142-3.935 5.59-5.823 9.221-6.696 2.078-.499 4.228-.748 6.365-.727 1.773.017 4.614.035 5.88 1.455-.976.967-2.277 1.52-3.544 2.049-2.3.961-4.608 1.921-6.79 3.127-2.569 1.421-4.991 3.286-7.776 4.283C1537.396 547.781 1535.697 545.748 1536.362 543.459z" class="colora0b6c9 svgShape"></path><path fill="#ffffff" d="M1750.088 557.51c-1.546-3.795-6.166-5.209-9.869-5.699-2.118-.28-4.283-.304-6.406-.06-1.762.202-4.585.516-5.697 2.059 1.071.86 2.423 1.274 3.739 1.669 2.388.716 4.783 1.43 7.078 2.403 2.703 1.145 5.306 2.748 8.179 3.449C1749.51 561.916 1750.988 559.717 1750.088 557.51zM1796.038 607.387c.843-4.011-2.194-7.768-4.988-10.247-1.599-1.418-3.379-2.649-5.275-3.636-1.573-.819-4.088-2.139-5.873-1.482.406 1.312 1.294 2.412 2.164 3.475 1.578 1.93 3.162 3.862 4.521 5.953 1.599 2.462 2.859 5.247 4.847 7.437C1793.092 610.715 1795.547 609.72 1796.038 607.387zM1585.232 573.464c-.281-.362-.487-.787-.602-1.218-.659-2.456.286-5.402 1.471-7.538 3.554-6.407 11.081-10.764 17.838-13.026.435-.146 1.07-.185 1.195.256.165.582-3.318 4.117-3.795 4.723-1.303 1.652-2.591 3.315-3.863 4.991-2.544 3.351-5.026 6.75-7.444 10.194-.76 1.082-1.488 2.737-3.049 2.624C1586.26 574.417 1585.659 574.014 1585.232 573.464zM1755.674 617.257c.35-.296.639-.669.84-1.067 1.151-2.268.834-5.345.115-7.68-2.157-7.003-8.624-12.817-14.769-16.423-.395-.232-1.009-.402-1.222.004-.282.536 2.397 4.713 2.74 5.404.935 1.885 1.852 3.779 2.751 5.68 1.799 3.804 3.527 7.641 5.182 11.509.52 1.216.892 2.985 2.442 3.196C1754.471 617.977 1755.143 617.707 1755.674 617.257z" class="colorfff svgShape"></path><path fill="#a0b6c9" d="M1548.547,608.144c1.32-3.375,3.234-6.478,5.398-9.374c1.062-1.421,2.186-2.795,3.334-4.147
				c0.914-1.075,2.078-2.973,3.297-3.68c0.45-0.261,1.136-0.186,1.356,0.286c0.124,0.267,0.071,0.578,0.017,0.867
				c-1.271,6.722-2.135,13.519-2.591,20.344c-0.182,2.726-0.189,5.138-1.907,7.488c-1.679,2.297-4.264,2.602-6.805,1.574
				C1545.387,619.378,1546.952,612.224,1548.547,608.144z" class="colora0b6c9 svgShape"></path><g fill="#000000" class="color000 svgShape"><path fill="#5874b7" d="M1931.112,1548.453c-3.679-22.534-11.957-18.855-11.957-18.855s6.438-211.542-5.059-356.402
				c-11.497-144.86-32.191-198.665-32.191-198.665s-27.593-68.061-29.892-80.18c-2.299-12.119,3.679-125.383,10.577-162.633
				c2.668-14.409,6.884-25.157,11.051-32.937c-5.599-2.963-22.963-10.967-35.085-16.149
				c-22.245,48.596-24.996,153.856-27.815,159.493c-3.219,6.438-166.342,12.106-168.73,4.953
				c-17.694-53-7.407-130.385-3.372-155.784c-10.637,4.254-22.537,9.238-32.839,15.782c-13.974,61.177,7.672,173.744,7.672,173.744
				s-7.492,91.871-13.931,109.806c-6.438,17.935-17.935,163.715-21.614,293.399c-3.679,129.684,3.219,243.273,3.219,243.273
				c-17.475,0.46-17.935,34.49-14.716,40.469c3.219,5.979,13.336,11.037,51.506,12.876c38.17,1.839,78.179-7.818,82.317-10.117
				c4.139-2.299,4.139-9.657,3.219-28.512c-0.92-18.855-8.738-17.475-8.738-17.475s10.117-8.278,13.796-19.315
				c3.679-11.037-3.219-30.352-3.219-30.352c9.198-28.512,33.571-188.548,33.571-188.548
				c7.358,30.352,62.543,242.813,62.543,242.813c-17.475,4.139-5.979,42.768-1.84,49.666c4.139,6.898,17.475,7.358,53.805,9.197
				s65.762-3.219,72.2-5.519C1932.032,1580.185,1934.791,1570.987,1931.112,1548.453z" class="color5874b7 svgShape"></path><path fill="#fde0cf" d="M1748.659,1327.22c-16.04-63.441-28.597-127.185-36.888-192.117c-0.623-4.878-8.325-5.057-7.815,0
				c6.614,65.523,18.348,131.049,35.767,194.581C1741.3,1335.435,1750.124,1333.012,1748.659,1327.22z" class="colorfde0cf svgShape"></path><path fill="#3b60ab" d="M1900.666 1531.546c-15.825-.103-31.583.215-47.401-.669-15.269-.853-33.662-.427-47.787-6.758-4.712-2.112-8.671 4.198-4.123 7.053 11.947 7.498 28.843 7.226 42.448 8.379 18.806 1.594 37.998-.359 56.852-1.578C1906.579 1537.589 1906.714 1531.586 1900.666 1531.546zM1687.605 1522.958c-31.874 4.218-63.196 1.286-95.187 1.95-3.526.073-4.665 5.914-.872 6.441 16.113 2.238 32.613 2.492 48.863 2.715 15.739.216 35.72-1.766 50.764-7.16C1694.842 1525.587 1692.081 1522.365 1687.605 1522.958z" class="color3b60ab svgShape"></path><path fill="#3b60ab" d="M1708.796,1263.458c-17.043,75.633-19.298,154.179-42.565,228.464
				c-0.856,2.731,3.429,3.901,4.278,1.179c23.223-74.338,25.432-152.872,41.96-228.63
				C1712.99,1262.084,1709.337,1261.061,1708.796,1263.458z" opacity=".7" class="color3b60ab svgShape"></path><path fill="#3b60ab" d="M1918.984 1250.67c-11.705-1.206-18.991-14.033-26.097-22.024-7.087-7.969-14.628-15.426-22.575-22.529 3.91-1.015 8.968-1.167 12.755-1.745 9.32-1.422 23.057-4.252 32.347-5.85 3.882-.667 3.03-7.38-.939-6.942-12.498 1.379-29.445 3.918-41.914 5.561-6.391.842-15.086.186-18.392 6.933-3.689 7.527-1.651 19.598-1.553 27.641.156 12.783.649 25.563 1.477 38.32.828 12.757 1.992 25.492 3.491 38.187.93 7.88.255 21.479 4.301 28.242 3.337 5.578 8.139 5.191 14.156 5.412 12.358.455 24.737.588 37.1.882 6.142.146 6.142-9.409 0-9.542-9.275-.202-18.55-.405-27.825-.607-3.409-.074-8.543.941-11.594-.253-4.265-1.669-3.151-1.703-4.375-6.378-4.771-18.234-4.91-39.566-6.112-58.336-1.07-16.706-3.487-35.255-1.423-51.901.333-2.681.665-4.395 1.243-5.588.206.44.497.873.922 1.28 10.632 10.201 20.524 20.964 29.876 32.344 6.953 8.461 13.871 15.048 25.132 16.238C1924.953 1260.647 1924.923 1251.282 1918.984 1250.67zM1888.695 1102.244c-18.891-13.072-33.692-30.498-44.104-50.94-2.431-4.773-9.335-.587-7.12 4.162 10.442 22.391 26.275 40.768 46.408 55.017C1888.886 1114.028 1893.729 1105.728 1888.695 1102.244zM1823.509 1034.494c-.288-37.52-2.734-75.117-4.221-112.607-.14-3.523-5.633-3.541-5.493 0 1.179 29.717 2.365 59.433 3.537 89.15.547 13.847 1.29 27.843.272 41.687-.372 5.066-1.396 7.382-6.899 7.989-3.523.388-7.37-.073-10.914-.108-7.731-.077-15.462-.155-23.193-.234-29.56-.304-59.119-.626-88.679-.967-14.05-.162-28.954 1.062-42.885-.881-9.103-1.27-13.069-6.395-13.919-15.452-.713-7.601-.99-15.273-1.385-22.895-1.742-33.577-2.271-67.205-1.832-100.822.039-2.999-4.566-2.991-4.653 0-.996 34.063-.601 68.15 1.133 102.183.403 7.909.596 15.918 1.478 23.79.6 5.36 2.066 10.514 6.383 14.063 9.327 7.668 25.522 5.154 36.581 5.285 33.652.397 67.305.77 100.958 1.119 8.186.085 16.371.168 24.557.25 4.547.046 9.095.091 13.643.135 2.865.028 6.226.62 9.01-.345 3.619-1.255 5.039-4.71 5.676-8.192C1824.023 1050.199 1823.568 1042.031 1823.509 1034.494z" class="color3b60ab svgShape"></path><path fill="#3b60ab" d="M1791.473,959.466c-0.875-1.98-4.315-1.011-4.116,1.115c0.441,4.726-19.652,2.682-22.327,2.618
				c-7.491-0.178-14.981-0.405-22.469-0.68c-14.976-0.55-29.945-1.291-44.902-2.225c-14.54-0.908-29.071-1.976-43.586-3.228
				c-8.488-0.732-16.535-1.654-17.314-11.852c-0.398-5.208,0.096-10.252-1.462-15.317c-0.792-2.575-4.79-1.499-4.052,1.117
				c1.892,6.709-0.296,13.905,1.91,20.528c1.931,5.793,6.935,8.577,12.677,9.576c18.087,3.148,37.259,3.308,55.565,4.411
				c19.53,1.177,39.079,2.027,58.638,2.549c4.993,0.133,9.988,0.245,14.982,0.335c3.729,0.068,8.133,0.798,11.794-0.21
				C1791.001,967.051,1793.261,963.51,1791.473,959.466z" class="color3b60ab svgShape"></path><path fill="#0d1216" d="M1896.348,1032.892c-7.827-41.129-14.443-58.36-14.443-58.36s-0.857-2.115-2.262-5.615
				l-64.654,13.488C1841.879,999.603,1869.456,1015.713,1896.348,1032.892z" class="color0d1216 svgShape"></path></g><g fill="#000000" class="color000 svgShape"><path fill="#62494b" d="M1616.253,872.161c-3.261,0.161-6.506-0.079-9.589-0.91c-3.833-1.033-6.395-2.813-9.657-5.087
				c-6.89-4.802-13.123-6.605-21.204-7.982c-0.262-0.045-0.456-0.151-0.65-0.254c-4.789-0.39-8.805-0.569-11.383-0.405
				c-13.364,0.848-32.829,17.752-32.829,63.923c0,46.17,41.117,72.822,69.322,72.329c28.205-0.492-10.614-106.429-10.614-106.429
				L1616.253,872.161z" class="color62494b svgShape"></path><path fill="#422d2f" d="M1604.862,877.298c-7.119-12.669-22.986-10.733-34.53-16.328c-2.732-1.324-5.121,2.606-2.408,4.12
				c10.19,5.688,26.368,3.384,32.869,14.587C1602.316,882.3,1606.351,879.947,1604.862,877.298z" class="color422d2f svgShape"></path><path fill="#62494b" d="M1788.342,865.905c0,0,36.134,11.475,72.132,7.875c35.999-3.6,62.548-15.075,62.548-15.075
				s22.499,13.05,30.599,19.575c8.1,6.525,17.324,15.074,16.649,22.499c-0.675,7.425-6.3,15.974-6.3,15.974
				s8.325,6.075,1.575,22.274c-6.75,16.2-31.196,53.941-151.943,49.695L1788.342,865.905z" class="color62494b svgShape"></path><path fill="#0d1216" d="M1572.565 896.297c0 0-15.245 79.818 21.43 95.956 36.676 16.137 27.756-104.907 27.756-104.907L1572.565 896.297zM1799.024 928.426c0 0-4.732 50.772 10.108 59.375 14.84 8.603 19.366-38.003 17.973-57.219C1825.713 911.367 1799.024 928.426 1799.024 928.426z" class="color0d1216 svgShape"></path><path fill="#ea936d" d="M1825.483,909.582c-1.715-12.671-3.312-31.769-15.838-38.547
				c-25.364-5.971-45.689-11.199-47.971-12.34c-6.106-3.053-21.369-27.475-27.475-33.58c-6.105-6.106-25.948-10.684-35.106-16.79
				c-9.158-6.105-15.263-12.211-18.316-3.053c-3.053,9.158,15.264,21.369,18.316,27.474c3.053,6.105-36.633,3.053-48.843,3.053
				c-12.211,0-12.211,9.158-12.211,9.158s-18.316,21.369-33.58,27.475c-7.314,2.926-14.853,5.343-22.404,7.709
				c-12.599,9.972-11.797,32.536-12.464,47.158c-0.594,13.016,0.439,25.457,3.911,37.452c8.755,2.499,19.721-6.249,25.441-11.829
				c2.813-2.744,5.22-5.732,8.014-8.224c1.93-2.068,4.351-3.953,6.66-5.107c6.106-3.053,42.738,12.211,54.949,12.211
				c12.211,0,15.264-6.105,18.316-9.158c3.053-3.053,15.264-3.053,24.422-6.105c9.158-3.053,9.158-15.263,12.211-15.263
				c3.05,0,74.042,27.985,103.145,32.364C1827.498,938.946,1827.468,924.248,1825.483,909.582z" class="colorea936d svgShape"></path><path fill="#d9825f" d="M1635.73,851.256c-0.006-0.171-0.013-0.343-0.021-0.516c-0.06-1.352-0.035-2.924,1.027-3.764
				c5.235-4.137,6.096,11.025,5.87,13.281c-0.22,2.206-0.576,4.66,0.736,6.447c0.646,0.879,1.611,1.456,2.456,2.147
				c1.682,1.375,2.93,3.273,3.525,5.362c0.816,2.861,0.412,5.903,0.305,8.876c-0.107,2.973,0.174,6.179,2.062,8.478
				c1.873,2.281,4.923,3.189,7.258,4.995c1.688,1.305,2.994,3.099,3.719,5.105c1.959,5.42,1.771,11.596,7.553,14.329
				c6.528,3.085,13.963,3.568,20.98,4.013c4.556,0.289,9.124,0.203,13.686,0.251c2.336,0.025,4.671,0.081,7.002,0.24
				c2.215,0.151,3.913,0.96,5.963,1.796c0.228,0.093,0.488,0.224,0.528,0.467c0.037,0.226-0.14,0.428-0.314,0.577
				c-1.142,0.982-2.672,1.356-4.144,1.677c-9.365,2.041-18.927,3.181-28.51,3.397c-5.604,0.127-11.752-0.758-17.016-2.711
				c-5.554-2.06-10.659-6.271-11.902-12.242c-0.611-2.936-0.918-6.103-2.765-8.465c-2.771-3.541-8.137-4.152-10.986-7.63
				c-2.107-2.572-2.385-6.205-1.91-9.495c0.516-3.57,1.731-7.508-0.194-10.558c-2.15-3.406-9.375-4.738-8.353-9.712
				c0.485-2.361,1.824-4.641,2.5-6.973C1635.692,857.506,1635.845,854.469,1635.73,851.256z" class="colord9825f svgShape"></path><path fill="#422d2f" d="M1933.473 848.562c-24.843 3.024-50.543 9.638-72.576 21.876-2.677.227-5.363.421-8.069.547-5.473.257-5.54 8.656 0 8.561 19.154-.33 43.808-6.253 62.138-11.974 5.584-1.743-2.148-6.666-7.862-5.241-9.983 2.49-19.927 4.596-29.97 6.145 18.167-7.161 38.759-14.657 58.597-17.016C1938.858 851.089 1936.628 848.178 1933.473 848.562zM1589.498 873.32c-8.793-1.552-25.206-3.18-34.025-4.57-6.064-.956-8.77 8.222-2.579 9.353 8.789 1.605 23.247-.107 32.064 1.336C1590.943 880.42 1595.569 874.392 1589.498 873.32z" class="color422d2f svgShape"></path></g><path fill="#d0d2d3" d="M932.911 1832.552c.95-4.379 1.297-9.157 1.146-13.107.022-1.481-.128-2.958-.44-4.429-.095-.523-.202-1.013-.324-1.447-4.843-17.305-30.544-33.51-45.376-40.812-20.317-10.003-103.278-45.013-155.764-90.026-9.051-7.762-15.643-12.01-21.296-13.932-.235-.357-.488-.715-.715-1.072-8.155-12.835-10.986-35.651-10.235-64.15 15.126.554 29.096-1.105 40.711-5.871 36.995-15.178 37.497-88.377 24.513-111.434 53.287-76.106 121.251-562.973 124.478-788.831.41-29.089-.923-62.124-3.614-97.672-1.897-25.218-4.46-51.719-7.561-78.962-4.382-38.674-9.841-78.86-15.89-119.174-.153-1.153-.333-2.307-.512-3.46-15.041-99.69-33.73-199.759-49.498-278.643H378.91h-14.753H256.772c16.764 226.553 71.308 546.4 63.955 594.595-5.749 37.731-165.732 301.895-181.584 353.743-7.843 2.347-17.561 8.508-26.568 23.347v58.104 6.385 30.079 139.908 231.627 18.312c13.359 1.954 27.6 1.48 42.232-1.264 12.529-2.334 23.162-13.404 32.203-29.975 42.293-77.622 49.472-276.813 49.472-276.813s-.686-1.31-1.938-3.643c17.219 2.877 32.45 2.323 42.166-2.992 25.664-14.039 48.922-44.63 51.584-75.843 103.558-27.502 239.622-277.58 239.622-277.58s-.005.122-.014.354c-.122.262-.241.525-.363.788.088.705.17 1.367.251 2.018-1.651 41.31-18.831 475.033-13.899 511.46-7.147 2.818-22.373 12.201-29.989 42.195-10.158 40.012 0 60.018 10.158 76.689 1.825 2.995 7.634 7.585 16.276 12.943-4.952 40.888-10.902 82.432-16.276 100.423-3.105 10.395-5.864 21.012-8.223 31.527-1.676-.522-2.933-.536-3.628.149 0 0-17.073 72.815-13.886 110.068.552 11.927 2.221 23.345 4.893 27.536-69.218 1.154-96.753 4.961-95.38 17.456 1.285 11.693 64.112 13.687 231.202 13.687s302.895 1.744 302.902-11.464C951.944 1838.803 945.2 1835.281 932.911 1832.552zM2801.323 1455.146c-4.608-3.747-7.226-3.807-8.564-1.786-1.617-2.04-3.197-4.129-4.724-6.287-1.713-2.421-3.375-4.875-5.004-7.351-.454-.691-.888-1.394-1.337-2.089-1.173-1.812-2.345-3.624-3.491-5.454-2.488-3.083-4.808-6.171-6.941-9.2-.368-.528-.73-1.052-1.089-1.575-.205-.298-.409-.597-.61-.894-11.085-16.417-16.619-30.407-16.619-30.407l-.693-.059c.07-.159.117-.267.117-.267-.146-.409-.351-.877-.555-1.403-1.405-3.403-3.766-8.434-6.963-14.888-.751-1.517-1.55-3.113-2.393-4.786-.838-1.661-1.719-3.398-2.644-5.209-.479-.935-.967-1.89-1.469-2.864-.473-.921-.957-1.859-1.451-2.814-1.967-3.806-4.092-7.88-6.367-12.21-.976-1.856-1.972-3.746-3.001-5.694-16.172-30.591-38.924-72.334-65.294-120.1-2.682-4.857-5.405-9.782-8.157-14.758-.947-1.712-1.899-3.432-2.854-5.158-2.569-4.64-5.164-9.322-7.787-14.052-2.145-3.867-4.307-7.763-6.485-11.685-1.089-1.961-2.181-3.928-3.279-5.903-1.708-3.072-3.426-6.163-5.152-9.264-.983-1.768-1.969-3.541-2.959-5.317-3.963-7.123-7.969-14.313-12.012-21.564-48.096-86.254-101.243-180.615-146.681-261.004.001-.006.002-.011.003-.017 23.078-125.086 44.402-251.688 60.758-367.585 1.784-12.699 3.51-25.249 5.175-37.68 4.699-35.152 9.283-58.255 12.881-90.731 10.418-93.685 22.41-187.648 24.659-255.558h-186.193-155.29-153.681c-22.313 178.926-60.625 521.716-38.316 606.469 12.344 46.875 56.857 134.322 115.392 236.088-35.327 307.878-91.846 576.209-98.889 609.074-.006.025-.01.045-.015.07-.706 1.625-.739 2.949-.723 3.257-.024.099-.05.197-.075.296-2.035 8.059-4.144 15.997-6.287 23.522-2.683 9.418-5.419 18.174-8.133 25.697-6.162-.34-12.205.347-17.628 3.217-7.167 3.777-11.985 10.736-16.862 17.22-30.364 40.149-62.831 69.68-111.545 82.409-30.067 7.852-64.03 10.647-85.89 32.803-7.196 7.286-12.401 16.386-15.285 26.201-2.802 9.347-3.476 19.314-1.814 28.911-36.703 2.525-57.007 5.914-56.452 10.449 2.443 19.941 240.005 17.595 545.744 17.594 252.39 0 464.083-1.015 529.129-10.43v-16.178c-14.153-2.574-35.262-4.433-62.242-5.769 6.531-5.617 12.332-12.036 17.167-18.631 11.772-16.068 28.25-42.005 45.075-69.973v-37.941-23.581V1469.88v-9.065C2805.548 1458.841 2803.512 1456.92 2801.323 1455.146zM2275.223 1807.619c-16.809 0-33.402.007-49.776.022.461-6.194.811-13.314 1.004-21.044.684-27.42-.595-62.305-5.769-89.22-.327-1.844-.952-3.658-2.052-5.174-1.657-2.219-3.936-3.056-6.475-3.042-1.002-10.203-1.769-21.121-2.123-32.884-.002-.072-.003-.146-.005-.218-.032-.012-.063-.023-.095-.036-.001-.019-.002-.038-.003-.057-.571-18.117-.182-38.18 1.76-60.479.003.001.007.001.01.002.238.03.476.089.714.148 26.201 7.078 70.93 18.022 91.569 16.595 13.336-40.351 40.286-149.005 71.851-291.775 82.573 124.076 155.671 225.484 185.609 255.531 2.26 2.267 4.272 4.129 6.026 5.562.352.293.702.556 1.024.819l.001 0c.76.584 1.46 1.08 2.103 1.431.001 0 .001.001.002.001.614.38 1.169.673 1.638.878.204.088.379.146.555.204 5.201 1.61 10.454 2.257 15.731 2.054 3.247-.125 6.501-.607 9.76-1.347 2.38-.541 4.761-1.229 7.142-2.073 2.146-.762 4.291-1.631 6.435-2.624.162-.075.326-.137.488-.214 16.415-7.736 32.675-22.013 47.993-39.394 1.008 3.201 1.967 6.405 2.879 9.608-.004.002-.01.003-.015.005.227.8.476 1.6.697 2.4 1.072 3.868 1.978 7.807 2.763 11.795-.001.001-.002.001-.002.002-6.722 4.699-13.175 10.201-15.465 17.963-2.529 8.744.951 17.933 3.628 26.647 12.249 39.883 5.369 84.515-5.835 123.813-1.405 4.927-3.048 10.054-6.737 13.609-3.084 2.971-7.236 4.493-11.168 6.188-19.201 8.279-36.91 23.698-36.501 45.933 0 .018.001.037.001.056.023 1.166.082 2.346.207 3.55.166 1.589.404 3.091.709 4.512C2505.397 1806.899 2395.031 1807.619 2275.223 1807.619z" class="colord0d2d3 svgShape"></path></svg></g></svg>