<svg id="SvgjsSvg1001" width="550" height="550" xmlns="http://www.w3.org/2000/svg" version="1.1"
     xmlns:xlink="http://www.w3.org/1999/xlink" xmlns:svgjs="http://svgjs.com/svgjs">
    <defs id="SvgjsDefs1002"></defs>
    <g id="SvgjsG1008">
        <svg xmlns="http://www.w3.org/2000/svg" data-name="&amp;lt;Layer&amp;gt;" viewBox="0 0 2000 1828" width="550"
             height="550">
            <g data-name="Ñëîé 2" fill="#000000" class="color000 svgShape">
                <path fill="#ffffff" fill-rule="evenodd"
                      d="M230.76,1197.14c3.81-32.3,10.43-88.9,19-152.42,3-22,9.17-40.28,11.49-64.84,3.73-39.52,7.21-82.26,14.65-112.93,8.77-36.2,15.33-63.08,29.25-91,18.09-36.29,51.64-55.76,78.46-67.43,19.15-8.33,44.42-13.64,69.21-13,32.31.82,60.06,8.68,90.14,14.33,21.31,4,46.91,6.47,62.26,6.47,5.38,0,8-2.5,13.39-1.55,6.89,1.21,8.92,12.7,15.8,15.38C699.85,755.57,816.9,799.3,880,841.52A178.58,178.58,0,0,0,934.35,867c29,7.75,58.51,12.28,84.43,19.84,20.34,5.94,40.66,14.61,42.19,22.32,3,15.24,10.4,39.89,5.12,58-24.07,82.62-88.21,143.78-109.84,190-3.66,7.82-4.46,28.42-5.4,34.5-4.3,27.88-8.58,68.9-7.51,100.14.6,17.73,5.53,30.45-.33,46.26-3.63,9.82-12.39,35-18.94,49.09-12.11,26.19-62.4,157.51-62.4,157.51s-5.52,12.61-9.24,32.45c-3.76,20.1-5,47.66-7.21,75.18-2.82,35.7.47,83.67.47,83.67s-146.31-1.47-308.06-19.69S198.7,1663,198.7,1663s3.19-56.91,5-93.33C210.41,1439,221,1280.1,230.76,1197.14Z"
                      class="colorfff svgShape"></path>
                <path fill="#e58173" fill-rule="evenodd"
                      d="M954.9,1336.86c0-8.39-14.68-27.9-12.92-45.7.84-8.47.82-32.33,2.59-54.54,2.56-32,7.32-64.7,11.12-78.33,19-68.34,85.31-180.21,181.74-186.12,3.68-.23,31.24-18.94,34.94-18.79,7.51.3,7.86,23.58,15.34,27.48,52.93,27.62,208.8-103.59,245.24-136.12,19.16-17.1,61.2-49.23,102.09-54.57,32.63-4.26,64.75,14,82.38,30.66,24.66,23.32,52.15,65,62.8,112.14,9.08,40.2,23,98.69,36.54,135.41,1.43,3.89,5,19.83,11.83,39.81,11.67,33.9,27.51,72.32,28.52,79.11,1.25,8.45-12,14.51-18.47,16.9-81.5,29.87-81.84,125.29-81.84,176.83,0,81.89-7.22,186,12.38,265.71,5.86,23.77,12.72,35.1,12.72,35.1s-143.07,24.87-281.07,38.67S1129.89,1737,1129.89,1737s.55-36.6-9.53-84.78c-12.8-61.16-43.61-117.78-43.61-117.78S954.9,1422.24,954.9,1336.86Z"
                      class="colore58173 svgShape"></path>
                <path fill="#7e4c40" fill-rule="evenodd"
                      d="M1238.58,403.8c-37.16,7.05-71-11.6-71-11.6s-45.14.74-80.58,30.2C1041.78,461.14,1003.62,537,997.72,564c-9.22,37.25-4.86,90.1-10.67,133.29-5.44,38.61-10.78,78.12-1.67,109.62,9.62,36,52.09,49.8,69.75,69.45,7.2,8,8.28,20.48,6.11,28.44-1.58,5.82-5.77,7.92-6.22,10.64-.47,3.68,13.59.23,24-10.94,8-9.07-10.42,29.17-10.42,29.17s-5.4,22.29,1.22,24.32c10.55,3.24,29.47,4.06,44.91,6.93,12.11,2.24,20.81,7.38,30.11,5.07,5.95-1.39,21-13.08,28.57-15.75,4.84-1.72,8.22.73,13.53-1.34,45.34-17.66,230.31-96.93,242.24-104.9s23.53-17.69,37-26.84c18.9-12.81,38.65-23.15,40.54-25.38,3.94-5-8.55-3.52-11.8-15.81-2.65-8.79,5.1-25.29,8.39-37.11,5.85-21.07,10.11-38.7,5.58-52.65-9.58-27.82-36.88-52.26-55-83.61-13.63-23.73-35.15-76.38-49.77-100.91-13.62-23.73-27.56-50.14-50.48-68.26C1314.67,404.87,1275.74,396.75,1238.58,403.8Z"
                      class="color7e4c40 svgShape"></path>
                <path fill="#ffe4ce" fill-rule="evenodd"
                      d="M1362.14,718.58l32.78-29.16a67.07,67.07,0,0,0-27.28-16.71c-22.45-6.42-84.89-14.5-116.73-31.59-55.82-28.76-46.4-48.85-74.25-62.78-13.54-7.46-31.9-9.84-55.58-3.46-27.24,6.8-49,22-49.82,30.24-.75,9.13-2.82,30.17-10.44,50-4.68,14.11-9.75,48.17-9.75,48.17s1.83,7.92,4.59,23.88c4.91,26.56,9.34,56.79,26.17,84.67,14.51,23.63,34,51.2,52.25,68.06,24.23,21.59,48,31.47,48,31.47l41.52-8.46s47.62-28.19,82.26-74.29S1362.14,718.58,1362.14,718.58Z"
                      class="colorffe4ce svgShape"></path>
                <path fill="#e7b890" fill-rule="evenodd"
                      d="M1099.94,423.67c-12.26-37.64-18.34-65.57-43.18-83.05-14.45-10.55-32.57-28.85-81.26-51.66-40.46-18.79-94-25.1-112.33-18.81-20.25,5.62-34.9-10.36-70.11,7.05s-43.29,22-77.84,52.56c-18.56,15.87-29.23,21.7-38.37,44.18-8.17,22.81,5.25,51.22,5.25,51.22s-4.36,9.17-5.7,54.82A574.49,574.49,0,0,0,680,562.79l335.17,52.55s42.62-20.12,64.86-43.26,22.52-35.91,22.52-35.91l32.33,11.59a75,75,0,0,1-19.4-32.7C1107.21,484.21,1105,439.44,1099.94,423.67Z"
                      class="colore7b890 svgShape"></path>
                <path fill="#ffe4ce" fill-rule="evenodd"
                      d="M821,809.67s23.63,14.91,53.33.88c27.12-12.81,69.48-50.19,95.25-74.21s37.19-76.78,42.91-89.75c17.16-38.91,32.94-59,36.22-77.13.42-4.14,4.78-13.31,2.49-39.87-3.23-26.91-9.74-35.68-16.93-42.55-29-29.71-67.55-36-80.46-29.91-11.29,4.54-37.53,20.88-59,23.91a178.94,178.94,0,0,1-49.18-.46s-32.22,12.05-60.7,28.67c-13.25,7-44.28,51.7-44.28,51.7l-13.81-39.27s-14.46-10.55-25.52-15.59c-24.38-9.81-35.68,9.74-40,18.91-21.18,47.12,22.8,80,22.8,80S698.78,671.78,733,722.94,821,809.67,821,809.67Z"
                      class="colorffe4ce svgShape"></path>
                <path fill="#ffe4ce" fill-rule="evenodd"
                      d="M695.51 628.14L876 811.66l-12.12 21 15.36 7.56-3.77 14s-20.36 23.69-25 29c-9.71 11-43.45 21.17-55.09 20.63S749.28 890 742.48 886c-4-2.34-19-10.53-31.67-21.35-9-7.65-16.53-18.55-19.53-21.09-7.24-6.12-32.21-43.68-38.12-55.83-2.53-5.21-11.12-21.6-16.28-34.69a258.94 258.94 0 01-10.25-31.75A283 283 0 00656 699.42c13.07-11.49 24.63-34.71 24.63-34.71zM827.43 1124.45s44.9-60.42 53-73.94 37.36-55.31 45.23-65.64 19.91-20.4 29.74-24.58 39.59-7.87 46-8.6 26.56-1.73 32-1.73 18.44 4.43 32.21 6.64 28.27 3.69 37.12 5.17 20.4 4.18 28 5.89 15.74 4.18 24.83 5.91 10.33 7.62 5.41 11.55-9.83 7.38-9.58 11.8-.74 10.32-8.86 16.22-14.26 10.33-28.27 14-31.71 6.39-42 9.09-22.61 2.21-31 10.08-11.06 10.32-22.37 24.83-29.26 39.58-37.12 50.64-27.54 36.88-34.42 44.25c-2.78 3-10.94 12.7-16.65 16.84-8.38 6.09-14.83 6.58-18.78 8.62-3.37 1.75-16.06 12.07-29.38 26.45-12.9 13.91-26.5 31.93-26.5 31.93a132.39 132.39 0 01-17.14-20.82c-5.38-8.29-9.92-20.18-12.18-23.46-2.57-3.74-10.25-23.42-14.48-37-4.68-15-5.81-23.77-5.81-23.77zM1198.44 911.59l149.64-190.21 13.76-1.5.7 27.76s4.56 32.48 6.74 40.75 12.2 34 15.22 38 16.12 15.51 22.08 18.21 22.77 3.19 22.77 3.19-10.48 31.55-11.38 37.58-13.71 44.52-17.69 52.94-35.29 59.24-39.47 65.88-33.15 34-44.28 40.64-29.29 15-41.23 16.59-35.5-1.8-43.1-5.36-25.47-11.4-32.72-18.86-19.49-22.87-22.52-34.14-5.91-16.36-6.43-25.84a124.58 124.58 0 01.39-17.83s10.72-.9 19.22-8S1207 933.34 1207 933.34zM1662.1 882.86s12-1.32 19.94-2.33 21.22 2.06 27.21 5.58 9.28 3.82 11.16 13.89-.09 16.92 3.56 21.56 6.1 4.19 11.58 8.72 10.8 7 12 15.82 2.37 16.47-.43 22.55-7.78 7.93-4.26 11.9 5.38 1.55 7.86 9.88 4 12.47 1.47 17.79-8.37 8.51-6.59 11.88 4.45 8.9 4.75 13-1.77 12.83-8.95 19-13.58 8.2-21.08 11.45-20.94 6.58-27.15 6.82-12 .38-11.64-4.08-2.79-5-3.92-11.08-.43-14.74-.43-14.74-6.61-6.87-6.55-11.51a24.8 24.8 0 00-3.79-14.11c-2.89-4.32-4.74-20.42-3-30s6-28.44 9.09-36.89a118.94 118.94 0 018.53-17.56zM952.91 1337s12.14 5.47 19.73 5.78 31.29 1.52 37.36 0 21.57-7.9 21.57-7.9-.31 24.6-.31 32.5 4.56 42.82 6.68 52.54 9.67 44.63 16 57.6 17.88 44.5 26.64 63.43 14.37 32.6 20.33 48 11.56 34.69 14.71 43.11 4.56 21.73 4.56 21.73-2.8 13-9.46 23.47-13.67 20.69-22.44 25.59-16.82 9.81-27.33 7.36-32.59-15.07-38.9-20-22.43-30.14-30.14-41.71-24.19-43.8-30.14-55.37-15.78-26.63-23.13-35.39S916 1543 910.77 1540.63s-19.1-7.55-19.1-7.55S882 1539 877 1541.33s-18.15.24-21.22-4.71-6.84-4-11.31-3.07-16 6.37-19.82 5-11.08-8-13.2-11.31-2.83.23-10.61 1.65-17.22.23-21.93-6.61-12-23.58-12.27-34.66-.94-39.39 5-57.07 12.5-35.38 19.33-47.4 16.75-29.95 25.94-41 13.44-18.63 21.93-22.4 11.32-4.25 12.5.7 1.89 9.2 8.73 3.07 10.85-7.55 13.44-5.19 6.13 5.66 5.42 14.15.24 20.51.24 20.51 4-1.88 7.31.24 7.08 7.55 8.73 15.33a58.17 58.17 0 004.95 13.91s0-9 4.24-11.32 13.44 2.83 13.44 2.83a39.11 39.11 0 017.08 11.8c2.83 7.3 4.48 17 8.49 17.21s9.9 2.59 14.15 3.06 4.71-4 4.48-11.08S952.91 1337 952.91 1337zM1542.27 1228.56s57.92 4.9 107.39-1.44 90.47-23.94 90.47-23.94 32 131.8 47.13 202.34c12.38 57.62 12.72 80 12.72 80s2.51 25.59-3.06 44.46-19.2 31-19.2 31-24.89 16.31-56.27 21.73c-47 8.11-115.77 4.74-196.15-10.53-42.28-8-91.63-26.26-131.86-42-87.38-34.09-138.16-56.2-138.16-56.2l-21.67-1.7-21.23-16.77-14.25-28.2-18.5-59.14-22.18-38-16.33-16-3.41-12-.17-6.91-27.76-1.36-23.14-3.54-19-9.44-6.89-13.16 7.6-7-3-7.77 11-7.26 76.71-17.67 30.73-7-20.21-15.7-40.71-18.5L1103 1169.69l-2.28-12.54 13.28-1.74 34.34 14.86 25.22 7.89 25.57 8.16 29.08 17.8 40.11 29.91 16.93 17.81 5.35 20.68 11.85 12.85 1.58 11.43-8.27 21.74-1.34 16.87-5.91 25 2 16.08s52.82 30.91 127.46 42.47 171.1 3.75 171.1 3.75-.15-17.64-11.83-66.19S1542.27 1228.56 1542.27 1228.56z"
                      class="colorffe4ce svgShape"></path>
                <path fill="#ffffff" fill-rule="evenodd"
                      d="M909.24,1304.23l82.76-32.4s29.92-5.26,36.81-7.09,17-3.5,22.34-7S1067,1249,1067,1249s-2.15,5.21-.71,8,.09,4.58-2.62,8.9a9.52,9.52,0,0,0,2.34,12.9c4.19,3.25,18.21,10.86,18.21,10.86s-17.6,3-28.54,6.71-27.53,10.57-32.74,13.35-11.55,7.22-24.34,10.74-75.72,19.19-75.72,19.19-6.51-12.14-7.83-18S909.24,1304.23,909.24,1304.23Z"
                      class="colorfff svgShape"></path>
                <path fill="#5978cb" fill-rule="evenodd"
                      d="M781.77 1350.29l41.35-15.44-26.88 41.41-10-3.49-5.3-14zM872.7 1317.09L912 1302l2.46 19.89 7 17.87L879 1352.48l-1-22.81z"
                      class="color5978cb svgShape"></path>
                <path fill="#f48184" fill-rule="evenodd"
                      d="M1048.3 204.55c-3.28 4.75-29.57-29.08-35.37-13.61-9.27 24.71 39.69 89.56 46.26 88.91 9.07-.91 24.29-84.68 13.61-100.7C1061.22 161.78 1053.85 196.54 1048.3 204.55zM1203.83 113.74c-3.94 2.05-9.62-30.37-19.12-22-15.18 13.44-5.26 75.08-.57 77 6.49 2.65 46.95-48.75 45.46-63.47C1228 89.35 1210.48 110.3 1203.83 113.74zM1208.63 305.55c-2.92 2.89-16.89-24.18-23-14.12-9.69 16.07 16.09 67.78 20.77 68.17 6.45.55 28-56 22.62-68.61C1223.23 277.34 1213.55 300.67 1208.63 305.55z"
                      class="colorf48184 svgShape"></path>
            </g>
            <g data-name="Ñëîé 1" fill="#000000" class="color000 svgShape">
                <path fill="#571519"
                      d="M1190.84 917.35a39.58 39.58 0 01-10.36-1.3c-46.75-13.62-94-80.39-112.75-123.46-6.68-15.1-10.19-33-13.59-50.23-2.39-12.16-4.86-24.74-8.43-36.46a5.71 5.71 0 1110.92-3.34c3.75 12.28 6.28 25.15 8.72 37.6 3.42 17.42 6.66 33.87 12.85 47.84 20.64 47.56 66.78 105.81 105.36 117 24.33 6.56 69.38-22.75 98.84-54.91 21.31-23.06 28.76-41.76 37.71-67.66a5.71 5.71 0 0110.8 3.73c-9.42 27.27-17.3 47-40.11 71.67C1262.19 889.12 1220.76 917.35 1190.84 917.35zM1354.63 729.69a5.71 5.71 0 01-1.9-11.1c16.36-5.79 28.8-17.17 35-32.05A5.71 5.71 0 111398.3 691c-7.49 17.89-22.32 31.53-41.76 38.41A5.77 5.77 0 011354.63 729.69zM1355.19 688a5.53 5.53 0 01-1.94-.35 5.7 5.7 0 01-3.42-7.31 94.59 94.59 0 015.42-12.36 5.71 5.71 0 119.87 5.74 87 87 0 00-4.56 10.51A5.71 5.71 0 011355.19 688z"
                      class="color571519 svgShape"></path>
                <path fill="#571519"
                      d="M1157.57,792.48a5.85,5.85,0,0,1-1.63-.24c-2.37-.7-23.11-7.3-25.14-22.89-1.25-6.47,1.89-11.17,4.41-15,2.85-4.25,5.54-8.27,4.61-16.21-.55-4.73-3.75-14.14-9.48-23.64a5.72,5.72,0,0,1,9.79-5.9c5.84,9.69,10.17,20.76,11,28.22,1.41,12.11-3.13,18.92-6.46,23.88-2.28,3.42-3,4.76-2.68,6.51a3,3,0,0,1,.08.51c.83,7.09,12.93,12.27,17.1,13.52a5.72,5.72,0,0,1-1.64,11.19Z"
                      class="color571519 svgShape"></path>
                <path fill="#571519" fill-rule="evenodd"
                      d="M1219.42,704.49c-2.25-11.5-6.25.73-14.28,1.66s-16.31-8-15,3.56c2.24,11.49,9.54,19.69,17.46,17.85C1216.46,725.63,1221.56,715.09,1219.42,704.49Z"
                      class="color571519 svgShape"></path>
                <path fill="#571519"
                      d="M1194 711.82a46.47 46.47 0 01-11.15-1.3 5.71 5.71 0 012.75-11.09c13.3 3.3 30.32-2.35 40.47-9a5.71 5.71 0 016.27 9.55C1222.45 706.45 1207.89 711.82 1194 711.82zM1164.78 660.5a5.71 5.71 0 01-2.82-10.68c17.41-9.84 39.44-12.44 60.43-7.13a5.72 5.72 0 01-2.81 11.08c-18.17-4.61-37.13-2.42-52 6A5.6 5.6 0 011164.78 660.5z"
                      class="color571519 svgShape"></path>
                <path fill="#571519" fill-rule="evenodd"
                      d="M1107.62,723c-2.14-10.6-5.35.63-12.38,2.35s-15.22-6.36-13.18,3.35c2.14,10.6,10.21,17.8,17.25,16.07S1109.76,733.56,1107.62,723Z"
                      class="color571519 svgShape"></path>
                <path fill="#571519"
                      d="M1087.26 729.54a34.21 34.21 0 01-14.87-3 5.71 5.71 0 115-10.28c8.23 4 23 .92 29.5-2.94a5.71 5.71 0 115.81 9.83C1107.07 726.43 1097.11 729.54 1087.26 729.54zM1059.85 683.61a5.72 5.72 0 01-4.48-9.26c10.22-12.91 27.13-17.32 46.39-12.12a5.71 5.71 0 11-3 11c-8.61-2.33-24.53-4.36-34.45 8.18A5.7 5.7 0 011059.85 683.61zM1056.33 924.58a5.71 5.71 0 01-4.71-8.93c5.17-7.58 7.07-14.47 5.82-21.06-2.75-14.49-20.78-26.72-36.68-37.5-5.74-3.9-11.16-7.58-15.92-11.34C971 818.13 974.4 769.94 980.75 722.93a5.71 5.71 0 0111.32 1.53c-5.92 43.8-9.26 88.55 19.93 112.38 4.36 3.45 9.62 7 15.18 10.79 17.74 12 37.84 25.68 41.48 44.82 1.82 9.59-.73 19.57-7.61 29.64A5.71 5.71 0 011056.33 924.58zM1101.85 418a5.72 5.72 0 01-3.33-10.36c54.84-39.41 91.81-12.72 93.36-11.56a5.71 5.71 0 01-6.81 9.17c-1.33-1-32.18-22.61-79.89 11.67A5.65 5.65 0 011101.85 418zM1503.65 799.36A5.68 5.68 0 011500 798c-15.54-12.93-9.53-31.92-3.17-52 3.69-11.66 7.51-23.72 7.86-35.89.68-23.28-14-43.54-31.07-67-8.45-11.64-17.19-23.67-25-37.3-17.18-30.32-26.67-51.38-35-70-10.77-23.9-19.28-42.78-39.74-69.89-49.24-66.59-129-63.71-157.89-52.18a5.71 5.71 0 11-4.24-10.61c31.41-12.54 118.16-15.9 171.28 55.95 21.2 28.09 29.94 47.48 41 72 8.28 18.35 17.65 39.15 34.55 69 7.5 13.07 16.06 24.85 24.33 36.24 17.51 24.11 34 46.87 33.25 74.05-.4 13.77-4.64 27.18-8.39 39-6.23 19.7-9.58 32.16-.41 39.78a5.72 5.72 0 01-3.66 10.11zM1113.36 497.91a5.65 5.65 0 01-3.37-1.11 5.71 5.71 0 01-1.23-8c22.59-30.79 60-42.59 95.36-30.07a5.71 5.71 0 01-3.81 10.77c-30.48-10.8-62.8-.56-82.34 26.07A5.71 5.71 0 011113.36 497.91zM1425 735.94a5.7 5.7 0 01-5.58-4.53c-9.31-44-58.29-55.09-74.39-58.74-7-1.41-14-2.67-20.87-3.91-41.62-7.5-80.94-14.58-120.59-53.79-4.8-4.84-9.5-9.7-14.11-14.47-16.9-17.49-32.87-34-46.12-40.83a5.71 5.71 0 115.23-10.15c14.92 7.68 31.53 24.86 49.11 43.05 4.57 4.73 9.23 9.55 14 14.31 37.1 36.69 74.71 43.46 114.54 50.63 7 1.26 14 2.53 21.14 4 48.15 10.92 76.09 33.64 83.27 67.57a5.71 5.71 0 01-4.41 6.77A5.91 5.91 0 011425 735.94zM1104.39 592.5a5.61 5.61 0 01-1.51-.21 5.71 5.71 0 01-4-7c3.51-12.84 7.67-22.29 12.73-28.87a5.71 5.71 0 119.06 7c-4.08 5.31-7.7 13.69-10.76 24.92A5.73 5.73 0 011104.39 592.5z"
                      class="color571519 svgShape"></path>
                <path fill="#571519"
                      d="M1031.83 799.93a5.72 5.72 0 01-5.41-3.89c-6.59-19.55.16-38 8.71-61.26 5.38-14.65 11.47-31.25 16.21-52.37 3.82-16.92 5.67-30.73 7.15-41.82 3-22.39 5-37.19 19.28-50.78a5.71 5.71 0 117.87 8.28c-11.39 10.82-13 22.61-15.83 44-1.51 11.32-3.4 25.41-7.32 42.82-4.9 21.84-11.13 38.82-16.63 53.8-8.38 22.84-13.93 37.93-8.62 53.67a5.71 5.71 0 01-3.58 7.24A5.89 5.89 0 011031.83 799.93zM849.19 823.77a38.93 38.93 0 01-7.34-.65c-16.75-2.86-57.22-23-102-80.33-24.71-31.85-34.47-73.74-34.88-75.51a5.71 5.71 0 0111.14-2.54c.1.41 9.64 41.23 32.76 71 42.7 54.63 80.81 73.67 95 76.1 17.41 3.32 50.37-11.08 80.29-35 23.08-18.69 46.35-45.72 59.25-68.82 7.31-12.66 12.89-28.23 18.8-44.71 2.94-8.2 6-16.69 9.3-24.92 4.16-11.63 11.7-25.16 18.36-37.1 2.69-4.81 5.21-9.33 7.25-13.29 11.21-22.15 22.32-68.77-7.32-102.72a5.71 5.71 0 018.6-7.52c41.42 47.45 12.34 108.63 8.89 115.45-2.11 4.09-4.69 8.71-7.44 13.65-6.44 11.55-13.75 24.64-17.67 35.59-3.31 8.23-6.31 16.61-9.21 24.72-6.09 17-11.84 33-19.63 46.49-13.51 24.2-37.87 52.52-62 72.09C901.57 809.57 870.46 823.77 849.19 823.77z"
                      class="color571519 svgShape"></path>
                <path fill="#571519"
                      d="M900 690.06a5.71 5.71 0 01-.67-11.38c5.26-.65 19.58-4.12 22.49-12.26 1-2.81.14-5-1.75-9.45-2.61-6.05-6.17-14.33-2.3-27.1 2.39-6.7 8-15.52 17.85-28a5.71 5.71 0 019 7.06c-8.91 11.34-14.14 19.36-16 24.53-2.57 8.51-.37 13.61 2 19 2.15 5 4.59 10.65 2 17.83-5.8 16.16-29.24 19.42-31.89 19.74A5.32 5.32 0 01900 690.06zM1026.3 583a5.71 5.71 0 01-4.67-2.42c-.5-.68-12.88-17.33-39.08-14.58a5.72 5.72 0 01-1.19-11.37c33.07-3.48 48.94 18.42 49.6 19.35a5.71 5.71 0 01-4.66 9zM995.86 657a5.67 5.67 0 01-4.82-2.65c-5.41-8.51-16.45-12.21-32.78-11a5.72 5.72 0 01-.85-11.4c20.89-1.55 35.44 3.93 43.27 16.27a5.7 5.7 0 01-1.76 7.88A5.63 5.63 0 01995.86 657zM911 539.54a5.7 5.7 0 01-4.59-2.31c-15.17-20.42-58.75-15.52-59.19-15.47a5.71 5.71 0 01-1.35-11.34c2-.24 50.59-5.74 69.71 20a5.72 5.72 0 01-4.58 9.12zM876.08 614.06a5.7 5.7 0 01-4.92-2.82c-6.43-10.92-28.27-13.69-36.76-10.9a5.71 5.71 0 11-3.56-10.85c13.77-4.52 40.89.2 50.17 16a5.72 5.72 0 01-4.93 8.61zM691.05 615.38a5.7 5.7 0 01-3-.85c-28.57-17.73-35.5-48.85-32.46-72.07C658.14 522.1 668.67 507 683.72 502c15.28-5.05 32.74 1.16 47.9 17a5.71 5.71 0 11-8.25 7.9c-12-12.55-25.15-17.66-36.07-14.07-10.76 3.55-18.39 15.17-20.39 31.07-2.58 19.71 3.2 46 27.16 60.9a5.71 5.71 0 01-3 10.56z"
                      class="color571519 svgShape"></path>
                <path fill="#571519"
                      d="M698.92 563.5a5.73 5.73 0 01-5.6-4.59c-.49-2.42-2.79-9.89-6.79-12.55a5.71 5.71 0 016.35-9.5c8.64 5.77 11.37 18.39 11.65 19.81a5.72 5.72 0 01-4.49 6.72A6.16 6.16 0 01698.92 563.5zM895.85 747.12c-25.5 0-56.71-13.79-70.67-38.88a5.71 5.71 0 0110-5.56c14.88 26.74 51.06 36 70.42 32.12a5.71 5.71 0 012.23 11.2A61.47 61.47 0 01895.85 747.12zM1135.07 554.93c-8.26 0-22.71-1.73-35.8-12a5.71 5.71 0 117.06-9 44.19 44.19 0 0016.73 8.08c-8.42-9.78-17.51-26.79-20-55.67-4.54-48.37-11.23-98.2-38.12-128.89-33.22-38.13-120.39-84.94-171.12-83.21-13.92.47-23.88 4.54-29.58 12.07a5.71 5.71 0 01-9.11-6.9c7.88-10.41 20.77-16 38.3-16.59 54.41-1.93 144.59 46.34 180.11 87.11 29.13 33.25 36.18 85.11 40.9 135.38 4.14 48.29 27.44 57.81 28.43 58.19a5.76 5.76 0 013.66 5.93 5.69 5.69 0 01-4.72 5.07A45 45 0 011135.07 554.93z"
                      class="color571519 svgShape"></path>
                <path fill="#571519"
                      d="M875.73 489.81c-.82 0-1.64 0-2.47 0-38.67-.54-77.3-28.12-78.93-29.29a5.71 5.71 0 015.46-9.94c.49.19 50.22 19.24 94.41-14.86a5.71 5.71 0 117 9 108.67 108.67 0 01-70.74 22.87c12.69 5.61 28 10.54 43 10.75 29.53.6 50.41-12.39 71-27 2.82-1.78 5.44-3.53 8.09-5.32 12.82-8.59 27.35-18.33 40.15-13.44 8.16 3.11 13.84 11.35 17.38 25.19a5.71 5.71 0 11-11.06 2.83c-1.74-6.77-4.94-15.27-10.39-17.35-7.29-2.77-19.2 5.21-29.72 12.26-2.76 1.85-5.48 3.68-8.12 5.33C929.41 476.06 907.31 489.81 875.73 489.81zM1026.89 624.2a5.72 5.72 0 01-4.61-9.08c7.44-10.2 18-17 29.16-24.21 21.61-13.92 44-28.32 43.49-70.37a5.71 5.71 0 015.65-5.78h.06a5.71 5.71 0 015.71 5.65c.53 48.36-25.63 65.23-48.72 80.11-10.25 6.61-19.93 12.85-26.12 21.33A5.72 5.72 0 011026.89 624.2z"
                      class="color571519 svgShape"></path>
                <path fill="#571519"
                      d="M754.15,508.19a5.71,5.71,0,0,1-2.77-10.71c14.35-7.93,27.09-8,39.41-8,15.06,0,30.65-.07,52.89-13.47a5.72,5.72,0,0,1,5.9,9.79c-25,15-42.92,15.07-58.77,15.1-11.87,0-22.12.05-33.9,6.56A5.7,5.7,0,0,1,754.15,508.19Z"
                      class="color571519 svgShape"></path>
                <path fill="#571519"
                      d="M744.77 570.27a5.7 5.7 0 01-3.79-1.43c-.94-.84-23-20.83-12.71-56a5.71 5.71 0 0111 3.2c-4.92 16.89-.69 29.33 3.54 36.63 4.78-12.12 14.77-32 32.13-44.15a5.72 5.72 0 016.55 9.37c-22.28 15.58-31.08 47.77-31.17 48.1a5.71 5.71 0 01-3.87 4A5.83 5.83 0 01744.77 570.27zM1024.39 436.64a5.73 5.73 0 01-5.69-5.19c0-.41-4.08-40.88-30-43.87-9.89-1-23.27 5.35-38.72 12.69C919.25 414.9 881 433.09 839.6 407.09a5.71 5.71 0 016.08-9.67c36 22.66 69.72 6.65 99.43-7.47 17-8.07 31.71-15.06 44.85-13.73 35.2 4.07 39.94 52.15 40.12 54.19a5.71 5.71 0 01-5.17 6.2zM1054.12 449.44a5.71 5.71 0 01-4.3-9.46c7-8 9.72-16.43 8.41-25.78-2.89-20.76-25-40.23-37.63-48.46a5.71 5.71 0 016.24-9.57c3.92 2.56 38.45 25.88 42.71 56.46 1.76 12.63-2 24.36-11.11 34.85A5.7 5.7 0 011054.12 449.44zM678.67 512.25a5.71 5.71 0 01-5.62-4.71c-4.15-23.46-3.1-65.41 5-88.11a5.72 5.72 0 1110.76 3.86c-7.32 20.4-8.43 60.25-4.54 82.26a5.67 5.67 0 01-5.63 6.7z"
                      class="color571519 svgShape"></path>
                <path fill="#571519"
                      d="M688.8 445.08a5.7 5.7 0 01-4.78-2.6c-.35-.52-33.83-53.13 1.87-91.31 56-61.4 101.71-89.33 139.84-85.32a5.72 5.72 0 01-1.2 11.37c-34.25-3.61-76.87 23.11-130.25 81.7-18.2 19.46-14.74 43.52-9.08 59.6 3-16.15 10.48-37.85 28.61-50.87a5.71 5.71 0 116.66 9.28c-26.09 18.73-26 61.94-26 62.38a5.71 5.71 0 01-4.06 5.52A5.62 5.62 0 01688.8 445.08zM1426.36 853.58c-38.58 0-63-36.7-68.74-103.57-.1-1.24-.18-2.12-.24-2.57a5.71 5.71 0 1111.31-1.6c.08.56.18 1.65.31 3.19 3 34.91 14.49 93.12 57.41 93.12h1.16a5.71 5.71 0 01.28 11.42zM1213.23 968.39a5.71 5.71 0 01-5.7-5.6c-.54-26.6-12.59-44.79-14-46.78a5.71 5.71 0 119.4-6.49c7.08 10.25 15.52 30.3 16 53a5.72 5.72 0 01-5.6 5.83zM951.77 1409.85a5.49 5.49 0 01-.8-.06 5.71 5.71 0 01-4.86-6.45c1.56-11.13 1.74-43.1 1.74-66.18a5.71 5.71 0 1111.42 0c0 37.73-.57 58.63-1.85 67.77A5.72 5.72 0 01951.77 1409.85zM942.53 1294a5.71 5.71 0 01-5.71-5.68c-.29-45.21 7.59-95 11-116.26.54-3.41 1-6.15 1.25-8.08a5.71 5.71 0 1111.31 1.61c-.28 2-.72 4.77-1.28 8.26-3.32 21-11.1 70.12-10.81 114.4a5.73 5.73 0 01-5.68 5.75zM1141.22 976.36a5.71 5.71 0 01-2-11.06c5.27-2 12.91-6.28 19.65-10.07 4.74-2.66 9.21-5.18 12.72-6.83a5.71 5.71 0 014.86 10.34c-3.13 1.47-7.42 3.89-12 6.45-7.45 4.19-15.15 8.52-21.24 10.81A5.65 5.65 0 011141.22 976.36zM1649.28 1593.06c-125.8 0-257.56-55.6-396.6-114.27a5.71 5.71 0 114.44-10.52c146.34 61.74 284.54 120 414.68 112.74 57.71-3.25 97-13.81 107.83-29 27.69-38.75 11.72-103.55-1.1-155.61-2.37-9.61-4.61-18.68-6.43-27.06-12-55.28-25.71-111.15-37.52-158.5a5.72 5.72 0 0111.09-2.77c11.82 47.44 25.54 103.41 37.6 158.84 1.78 8.22 4 17.22 6.35 26.76 13.39 54.33 30.05 122-.69 165-16.7 23.39-72.57 31.25-116.49 33.73Q1660.91 1593.06 1649.28 1593.06zM1677.89 932.66a5.72 5.72 0 01-5.55-4.38c-12-49.75-48.67-111.25-101-128.69-46.63-15.54-90.51 16.89-132.94 48.26l-3.61-4.44-3.18-4.75c44.78-33.1 91.08-67.33 143.35-49.91 56.45 18.82 95.8 84.14 108.48 136.87a5.73 5.73 0 01-4.22 6.89A6.18 6.18 0 011677.89 932.66zM1434.8 843.41h0z"
                      class="color571519 svgShape"></path>
                <path fill="#571519"
                      d="M1714.18,1446.45a5.69,5.69,0,0,1-3.17-1c-35.15-23.43-78.13-20.53-132.52-16.84-75,5.06-168.25,11.38-288.9-46.59a5.71,5.71,0,0,1,5-10.3c117.94,56.68,209.57,50.48,283.17,45.49,56.57-3.83,101.26-6.85,139.64,18.73a5.72,5.72,0,0,1-3.17,10.47Z"
                      class="color571519 svgShape"></path>
                <path fill="#571519"
                      d="M1588.83 1424.18a5.71 5.71 0 01-5.72-5.71c0-27.17-18.74-92.41-40.44-168l-4.53-15.79a5.71 5.71 0 0111-3.15l4.53 15.79c21.94 76.38 40.89 142.35 40.89 171.12A5.71 5.71 0 011588.83 1424.18zM1231.1 1463a5.72 5.72 0 01-4.56-2.26c-12.1-15.91-18.06-37.32-16.8-60.3a87.34 87.34 0 012-12.12c1.75-8.41 3.93-18.87.26-23.69-7-9.17-19.43-13.8-32.63-18.72-11.35-4.22-23.09-8.59-31.83-16.3-13.26-11.71-18.17-22.74-14.59-32.78a11 11 0 016.68-6.83c9.16-3.44 23.81 4.06 38 12 2.12 1.18 3.81 2.15 4.87 2.64 7.38 3.45 15.91 5.88 24.93 8.45 13.21 3.76 26.88 7.65 37.62 15.21 10.33 7.26 16.63 19.76 22.71 31.86a143.72 143.72 0 009 16.2 5.71 5.71 0 11-9.42 6.47 149.93 149.93 0 01-9.78-17.54c-5.46-10.83-11.09-22-19.08-27.65-9.16-6.43-21.88-10.06-34.18-13.56-9.06-2.59-18.43-5.25-26.64-9.09-1.22-.57-3.18-1.66-5.62-3-21-11.78-26.86-12.13-28.47-11.27-2.2 6.43 5 14.61 11.51 20.32 7.15 6.31 17.4 10.13 28.25 14.17 14.14 5.26 28.77 10.7 37.74 22.5 6.82 9 4.06 22.26 1.84 32.93a78.91 78.91 0 00-1.74 10.42c-1.11 20.28 4 39 14.49 52.77a5.72 5.72 0 01-4.54 9.17z"
                      class="color571519 svgShape"></path>
                <path fill="#571519"
                      d="M1211.47 1323.07a5.71 5.71 0 01-3.85-1.49c-24.08-21.93-50.79-22-81.72-22.11-5.43 0-10.93 0-16.5-.17-10.79-.27-43.51-5.25-52.06-24a12.3 12.3 0 01.28-10.81c2.68-5.33 8.63-8.78 13-9.72 9.8-2.11 19.8-2.37 29.46-2.63 4.84-.13 9.84-.26 14.64-.63 6.28-.48 12.69-1.12 19.17-1.77 19.48-1.92 39.64-3.91 58.74-2.09 7.64.73 15.68 6.3 22.15 10.78 1.09.75 2.12 1.46 3 2.08 17.14 11.38 35.74 23.39 55.66 34.12a5.71 5.71 0 11-5.42 10.06c-20.33-11-39.2-23.13-56.56-34.66-1-.66-2.08-1.41-3.23-2.21-4.81-3.33-12.07-8.35-16.73-8.8-18-1.72-37.6.21-56.53 2.1-6.57.65-13.06 1.29-19.42 1.78-5.08.39-10.23.53-15.22.66-9.56.26-18.59.49-27.36 2.38-1.78.38-4.39 2-5.21 3.68-.27.54-.19.73-.09 1 4.83 10.62 27.87 17 41.94 17.33 5.49.14 10.91.16 16.26.17 31.9.11 62 .2 89.38 25.1a5.71 5.71 0 01-3.85 9.93zM1290.23 1383a5.72 5.72 0 01-5.33-3.66c-4.29-11.13-1.59-22.21.8-32 3.4-13.93 5-22.91-4.64-31.68a5.71 5.71 0 117.69-8.45c15.13 13.79 11.37 29.22 8 42.83-2.18 8.94-4.24 17.39-1.24 25.18a5.7 5.7 0 01-3.27 7.38A5.53 5.53 0 011290.23 1383z"
                      class="color571519 svgShape"></path>
                <path fill="#571519"
                      d="M1295.38,1329.9a5.72,5.72,0,0,1-5.7-5.45c-.32-6.83,2.42-12.58,4.85-17.65s4.53-9.51,3.6-14.42c-1.78-9.29-17.31-17.78-27.59-23.39-2.55-1.4-4.87-2.67-6.78-3.82-4.81-2.89-9.85-6.23-15.2-9.78-18-12-38.44-25.49-57-26.3-12.65-.57-26.08,2.54-39.08,5.54l-.91.21c-7.63,1.75-15.35,3.37-23.08,5-14.41,3-29.31,6.13-43.42,10.19l-1.57.44c-8,2.18-10.87,3.75-11.76,4.76A5.72,5.72,0,0,1,1061,1259a10.37,10.37,0,0,1,.37-8.62c3.08-6.09,11.51-8.83,19.17-10.92l1.42-.39c14.52-4.18,29.63-7.34,44.24-10.4,7.65-1.6,15.3-3.19,22.86-4.94l.91-.2c13.1-3,27.91-6.43,42.14-5.83,21.71,1,43.53,15.43,62.79,28.2,5.23,3.47,10.18,6.75,14.77,9.51,1.79,1.08,4,2.27,6.37,3.58,12.89,7,30.54,16.69,33.33,31.28,1.63,8.59-1.63,15.43-4.51,21.47-2.11,4.42-3.93,8.24-3.74,12.2a5.72,5.72,0,0,1-5.45,6Z"
                      class="color571519 svgShape"></path>
                <path fill="#571519"
                      d="M1290.44 1278.44a5.71 5.71 0 01-5.7-5.44c-.87-18.56-10.27-25.92-24.5-37.06-2.14-1.67-4.35-3.39-6.62-5.23-30.88-25-51.85-38.64-87.55-48.71-10.29-2.91-20.08-6.91-29.54-10.79-7.12-2.91-14.48-5.92-21.87-8.37a30.78 30.78 0 00-8.57-1.63c1.41 7.62 10 13.59 17 18.45l.41.28c8.43 5.85 17.59 9.9 27.29 14.19 12.66 5.6 25.75 11.39 36.79 21.45a5.71 5.71 0 01-7.69 8.45c-9.67-8.81-21.36-14-33.72-19.45-9.76-4.32-19.85-8.78-29.18-15.25l-.41-.28c-9.06-6.28-21.46-14.88-22.12-28.91a9.21 9.21 0 013.61-8c5.41-4.11 14.94-1.83 20.16-.1 7.76 2.57 15.3 5.65 22.59 8.64 9.17 3.75 18.66 7.63 28.33 10.36 37.39 10.56 60.2 25.4 91.63 50.83 2.22 1.79 4.38 3.48 6.46 5.12 14.91 11.65 27.77 21.72 28.88 45.51a5.71 5.71 0 01-5.44 6zM1251.52 1480.41l-.39 0c-46.16-3.14-56.28-40.8-65.2-74-2.63-9.79-5.12-19-8.4-27.41a180.53 180.53 0 00-23.63-42.39 5.71 5.71 0 119.16-6.83 191.44 191.44 0 0125.1 45c3.52 9 6.21 19 8.8 28.63 8.7 32.39 16.93 63 54.94 65.59a5.71 5.71 0 01-.38 11.41zM920.35 1534.65c-6.56 0-12.75-2.8-18.42-8.35-28.49-27.89-22.18-65.4-16.6-98.49 1-5.86 1.95-11.62 2.7-17.18l.14-1.06c3.47-27 8.45-40.93 16.12-45.15a10.72 10.72 0 0110-.25c11.64 5.44 16.4 20.16 19 30.77a113.76 113.76 0 012.68 41.06c-.42 3.65-1 7.14-1.66 10.52-2.31 12.74-4 21.94 5.81 31a5.71 5.71 0 11-7.74 8.4c-14.4-13.29-11.7-28.23-9.31-41.41.57-3.19 1.17-6.5 1.55-9.79a102.58 102.58 0 00-2.44-37.07c-3.08-12.74-7.31-20.49-12.57-23-1.14.88-6.21 6.4-10.07 36.45l-.15 1.13c-.76 5.68-1.75 11.55-2.76 17.54-5.36 31.82-10.89 64.71 13.33 88.43 3.93 3.84 7.79 5.45 11.86 5 13.34-1.55 27.81-24.38 35.59-36.65 1.39-2.2 2.65-4.18 3.75-5.84l1.44-2.22c4.06-6.32 9.62-15 17.76-16.94A5.71 5.71 0 01983 1472.6c-3.69.89-8.15 7.85-10.82 12-.55.85-1.07 1.66-1.55 2.38-1.06 1.59-2.27 3.5-3.61 5.62-10 15.81-25.17 39.7-43.93 41.88A23 23 0 01920.35 1534.65z"
                      class="color571519 svgShape"></path>
                <path fill="#571519"
                      d="M869.69,1549.77a20.79,20.79,0,0,1-7.86-1.58c-10.73-4.32-15.59-20-18.8-30.34-.45-1.45-.86-2.77-1.24-3.9-.81-2.4-1.7-4.88-2.6-7.43-3.8-10.65-8.11-22.72-8.56-34-.85-21.27,7.46-43.72,14.8-63.52,1.74-4.7,3.44-9.29,5-13.74.6-1.76,1.19-3.54,1.77-5.31s1.15-3.51,1.74-5.25c1.32-3.84,13.29-37.59,28.77-38.09,6-.27,10.75,3.88,14.18,12.13a73.59,73.59,0,0,1,3.63,11.38l.8,3.17a76.27,76.27,0,0,1,2.37,11.87,5.71,5.71,0,0,1-11.37,1.09,66,66,0,0,0-2.07-10.12c-.28-1.11-.56-2.22-.83-3.33a63.13,63.13,0,0,0-3.08-9.68c-1.88-4.51-3.31-5.1-3.32-5.1-3.76.1-13.35,16-18.27,30.38-.58,1.69-1.14,3.4-1.69,5.11s-1.21,3.66-1.83,5.48c-1.56,4.52-3.29,9.2-5.07,14-7,18.8-14.85,40.11-14.1,59.09.39,9.6,4.38,20.79,7.91,30.67.93,2.62,1.84,5.17,2.67,7.63.41,1.21.84,2.62,1.32,4.15,2.26,7.29,6.46,20.84,12.15,23.14,6.23,2.49,12.25-2,20.71-9.22,5.24-4.46,10.19-8.66,15.77-10a5.71,5.71,0,1,1,2.68,11.1c-2.93.71-7.06,4.22-11,7.61C887.4,1542.86,879.29,1549.77,869.69,1549.77Z"
                      class="color571519 svgShape"></path>
                <path fill="#571519"
                      d="M826.56,1544a21,21,0,0,1-10.84-2.85c-12.59-7.43-15.24-26.61-16.88-45.63-.32-3.72-.77-7.62-1.23-11.61-1.48-12.81-3.15-27.33-1-40,4.75-27.84,18.94-56.16,31.45-81.14,1.82-3.64,3.62-7.23,5.36-10.75a58.21,58.21,0,0,1,2.94-5.14c.71-1.13,1.41-2.25,2-3.42,1.81-3.38,18.1-33,32.85-31,4,.51,9.18,3.32,11.62,13.77a58.67,58.67,0,0,1,1.73,11.36,71.58,71.58,0,0,1-1.2,15.2,5.71,5.71,0,0,1-11.26-1.93,58.75,58.75,0,0,0,1-12.78,47.75,47.75,0,0,0-1.43-9.25c-1-4.25-2.16-5.1-2.17-5.11-3.51.1-14.61,13-21.1,25.17-.74,1.38-1.57,2.72-2.4,4s-1.7,2.73-2.4,4.17q-2.64,5.32-5.39,10.81c-12.16,24.27-25.94,51.78-30.41,78-1.9,11.12-.4,24.18,1.06,36.82.47,4.11.93,8.12,1.26,11.94,1,11.09,2.74,31.72,11.3,36.77,3.49,2.06,8.61,1.6,15.23-1.34a43.2,43.2,0,0,1,5.38-1.89,19.58,19.58,0,0,0,5.64-2.31,5.71,5.71,0,0,1,6.6,9.32,29.09,29.09,0,0,1-9,3.93,34.9,34.9,0,0,0-4,1.38A36.88,36.88,0,0,1,826.56,1544Z"
                      class="color571519 svgShape"></path>
                <path fill="#571519"
                      d="M793.55 1536.68a20.46 20.46 0 01-8.8-2c-16.19-7.6-22.45-35.71-23.5-49.51-4.21-55.53 19.12-96.48 45.5-137 11.89-18.25 28.69-39.43 41.41-36.71 5.83 1.26 9.49 6.45 10.87 15.43a5.71 5.71 0 01-11.29 1.74c-.78-5-2.06-6-2.08-6-3.2-.49-15.26 10.2-29.34 31.81-25.26 38.8-47.62 77.92-43.67 129.88 1 13.81 7 35.36 17 40.05 1.44.67 5.84 2.74 14.18-3.17a5.71 5.71 0 116.61 9.32C803.9 1535.14 798.23 1536.68 793.55 1536.68zM1074.23 1540.2a5.64 5.64 0 01-2.81-.75c-16.54-9.38-71-42.1-77.83-69.35l-.42-1.67c-4.73-19.11-14.55-58.8-62-58.8h-.66a5.72 5.72 0 010-11.43h.73c56.37 0 68.07 47.25 73.07 67.47l.41 1.65c3.68 14.72 32.78 39.71 72.39 62.19a5.71 5.71 0 01-2.83 10.68zM1066.32 1715.55a51.74 51.74 0 01-10.29-1c-40-8.15-62.84-50.49-87-95.31-9.87-18.35-20.08-37.31-31.66-54.12-8-11.64-20.83-16.07-32.14-20-5.45-1.88-10.6-3.66-14.91-6.12a5.71 5.71 0 115.65-9.92c3.39 1.93 8.06 3.54 13 5.25 12.32 4.25 27.67 9.56 37.81 24.29 11.93 17.32 22.29 36.57 32.31 55.18 22.83 42.4 44.39 82.45 79.2 89.54 26 5.28 46.73-14.13 55.3-52a5.71 5.71 0 0111.14 2.52C1112.73 1707 1083.7 1715.55 1066.32 1715.55z"
                      class="color571519 svgShape"></path>
                <path fill="#571519"
                      d="M1129.49 1737.4a5.71 5.71 0 01-5.7-5.45c-1.72-37-5.62-80.43-21.57-121.51-7-18-15-36.57-22.69-54.54-23.14-53.88-47.07-109.59-53.08-167.14-2.85-27.28-.47-54.79 2.53-80.47a5.71 5.71 0 1111.35 1.33c-2.92 25-5.25 51.78-2.52 78 5.83 55.82 29.42 110.72 52.22 163.82 7.76 18.06 15.78 36.74 22.84 54.91 16.54 42.62 20.57 87.16 22.33 125.12a5.71 5.71 0 01-5.44 6zM1040.87 1262.2l-.57 0a5.72 5.72 0 01-5.12-6.25 368.1 368.1 0 002.09-46.89c-.08-3-.11-6.07-.15-9.24-.22-18.13-.47-38.67-9.43-52.71a5.71 5.71 0 019.63-6.15c10.71 16.79 11 39.06 11.22 58.72 0 3.11.08 6.14.16 9.06a381.43 381.43 0 01-2.15 48.33A5.71 5.71 0 011040.87 1262.2zM1680.19 1684.27a5.72 5.72 0 01-5.28-3.53c-13.2-31.92-20.6-64.14-21.39-93.19a5.71 5.71 0 1111.42-.31c.76 27.66 7.85 58.49 20.53 89.14a5.72 5.72 0 01-3.1 7.46A5.84 5.84 0 011680.19 1684.27zM1670.48 1021.63c-.3 0-.61 0-.91 0a11.22 11.22 0 01-8.07-4.58c-6.91-9.13-3.67-31.38-2-40.52a145.92 145.92 0 018.36-28.92l16.58-40.52a5.71 5.71 0 1110.58 4.32l-16.59 40.53a135 135 0 00-7.7 26.69c-3.33 17.81-2.12 30 0 31.69.2-.19 6-2 20.78-29.1 11-20.24 33.89-62.37 23.55-82.42-3.39-6.58-10.36-10.41-21.3-11.74-9.89-1.21-17.65-.48-24.47 2.26a5.71 5.71 0 01-4.27-10.59c8.68-3.5 18.24-4.45 30.12-3 14.77 1.79 24.89 7.79 30.08 17.85 13.11 25.42-10.82 69.45-23.67 93.11C1688.3 1011 1678.92 1021.63 1670.48 1021.63z"
                      class="color571519 svgShape"></path>
                <path fill="#571519"
                      d="M1680.72,1046.22a14.27,14.27,0,0,1-8.79-3c-7.45-5.74-9.31-17.71-4.51-29.12a5.71,5.71,0,1,1,10.53,4.43c-3.27,7.76-1.41,13.81,1,15.63,2,1.51,4.68,0,6.62-1.45,19-14.69,42.64-39.27,52.69-61.08,5-10.89,5.78-21,2.14-28.34-3-6.11-9-10.35-17.32-12.25a5.72,5.72,0,1,1,2.56-11.14c11.79,2.7,20.44,9,25,18.34,5.18,10.54,4.46,24.09-2,38.17-11.6,25.18-37.46,50.94-56.09,65.34A19.45,19.45,0,0,1,1680.72,1046.22Z"
                      class="color571519 svgShape"></path>
                <path fill="#571519"
                      d="M1681.82,1063.72A11.38,11.38,0,0,1,1674,1061c-6.31-5.53-3-16.16-1.87-19.65a5.71,5.71,0,0,1,10.9,3.42c-1.42,4.51-1.42,6.68-1.31,7.54,3.08.17,11.13-3.52,13.9-4.81,1-.46,1.9-.88,2.71-1.24,12-5.29,44-23.42,48-43.45,1.42-7-.9-13.63-7.1-20.19a5.72,5.72,0,1,1,8.31-7.85c8.8,9.32,12.16,19.52,10,30.3-6,29.87-52.62,50.77-54.6,51.64l-2.53,1.16C1694.84,1060.49,1687.85,1063.72,1681.82,1063.72Z"
                      class="color571519 svgShape"></path>
                <path fill="#571519"
                      d="M1690.33 1076.07c-4.81 0-10.09-.9-13.21-4.71-1.72-2.09-3.39-5.78-1.59-11.5a5.71 5.71 0 1110.9 3.43 6.25 6.25 0 00-.22.9c1.09.44 3.75.72 10 0l1.6-.17c6.1-.53 26.88-3.31 38.43-16.69l1-1.14c6.65-7.65 9.62-11.65 4.4-19a5.71 5.71 0 119.31-6.61c10.66 15 1.18 25.9-5.09 33.11l-1 1.11c-14.36 16.63-38.9 20-46.08 20.6l-1.34.14A62.84 62.84 0 011690.33 1076.07zM629.21 725.8a5.71 5.71 0 01-2.69-10.75c37.06-19.8 59.55-71.69 61.84-88.07a5.71 5.71 0 1111.31 1.58c-2.59 18.57-26.57 74.56-67.77 96.56A5.68 5.68 0 01629.21 725.8zM858.91 863.47a5.71 5.71 0 01-5.55-4.4c-5.05-21.19 16.83-48.39 17-48.66a5.71 5.71 0 018.86 7.21c-6.07 7.46-17.67 26.75-14.8 38.81a5.72 5.72 0 01-4.23 6.88A6.19 6.19 0 01858.91 863.47zM1263.22 1066.68c-36.12 0-70.89-20.46-87.25-53.18-7.82-15.64-11.48-30.54-10.85-44.27l0-.6c.39-12.19 1.75-17 5.37-19.2a6.75 6.75 0 016.44-.21 5.72 5.72 0 01.45 10 64.54 64.54 0 00-.84 9.8l0 .75c-.54 11.77 2.71 24.77 9.65 38.65 17 34 56.53 53 94 45.11 67.4-14.1 111.7-100.88 127.24-149.94 1.86-5.86 3.9-13.27 6.06-21.12 8.6-31.26 11.68-40.05 17-42.36a5.71 5.71 0 015.43 10c-2.74 3.74-8 22.74-11.45 35.4-2.18 7.95-4.25 15.47-6.18 21.55-20.24 63.86-67.95 143.47-135.79 157.67A94.6 94.6 0 011263.22 1066.68zM857.34 1253.91a5.72 5.72 0 01-4.5-9.22c24.88-32.07 48.48-52.42 53.43-56.11a5.71 5.71 0 116.83 9.16c-4.41 3.29-27.38 23.22-51.24 54A5.71 5.71 0 01857.34 1253.91z"
                      class="color571519 svgShape"></path>
                <path fill="#571519"
                      d="M381.81 1576.42c-5.47 0-10.06-.7-13.56-2.21-27.33-11.81-75.91-84.23-91.54-148.78-20.31-83.92-29.08-200.81-24.69-329.15q.58-17 1.07-32.91c3.38-107.52 5.82-185.2 40.62-274.5 33.9-87 135.3-112.46 213.51-92.26 33.8 8.73 69.94 13.74 99.13 13.74a5.72 5.72 0 110 11.43h0c-30.12 0-67.29-5.15-102-14.11-73.44-19-168.5 4.49-200 85.35-34.08 87.47-36.5 164.33-39.84 270.71q-.51 16-1.07 32.94c-4.35 127.33 4.3 243.13 24.38 326.07 15.56 64.29 62.54 131.3 85 141 21.4 9.28 118-27 182-63.06 109.66-61.83 279.29-201.94 317.32-242.29a5.72 5.72 0 018.32 7.84c-38.39 40.72-209.5 182.08-320 244.4C513.76 1536.91 423 1576.41 381.81 1576.42zM1059.28 913.63a5.71 5.71 0 01-4.77-2.57c-5.88-8.93-23.44-14.57-35.06-18.3-2.1-.68-4.08-1.32-5.87-1.92-11.28-3.84-25.76-7-41.09-10.3-33.22-7.2-70.87-15.36-93.79-34.26a5.72 5.72 0 017.27-8.82c20.78 17.14 57 25 88.94 31.91 15.66 3.4 30.45 6.6 42.35 10.65 1.73.59 3.65 1.2 5.69 1.86 13.93 4.48 33 10.6 41.1 22.89a5.71 5.71 0 01-4.77 8.86zM908.63 1197.41a5.71 5.71 0 01-.31-11.42c16.35-.91 32.34-19.54 40-28.5 13.8-16.11 25.89-34.27 37.57-51.83 12.8-19.24 26-39.12 41.69-56.62 13.59-15.19 36.48-18.62 58.61-21.93 24.59-3.69 47.88-7.17 58.21-25.22-3.45-.7-11.67-1.42-30.1.26l-.77.07c-8.79.79-18.47 0-27.83-.74-13.79-1.1-28-2.23-39.18 1.58-10.8 3.69-21.75 10.51-32.35 17.12-6.7 4.17-13.63 8.48-20.47 12a5.71 5.71 0 11-5.19-10.17c6.41-3.27 12.83-7.27 19.62-11.5 11.14-6.94 22.65-14.12 34.69-18.23 13.39-4.59 28.84-3.36 43.79-2.15 9.3.74 18.09 1.44 25.9.74l.75-.07c32.19-2.94 39.34.54 42.3 4.74a8.26 8.26 0 01.61 8.46c-12.07 26-40.65 30.3-68.29 34.44-21.05 3.15-40.94 6.13-51.78 18.24-15.12 16.9-28.12 36.44-40.7 55.34-11.87 17.84-24.15 36.3-38.41 52.93-8.71 10.16-26.83 31.3-48.06 32.48z"
                      class="color571519 svgShape"></path>
                <path fill="#571519"
                      d="M963.72,1011.89a5.71,5.71,0,0,1-2.93-10.62c3.53-2.11,7.05-4.25,10.56-6.39,17.1-10.43,34.78-21.23,54.67-27.21,15.65-4.7,34.4-3.08,52.54-1.5,8.16.71,15.86,1.38,22.74,1.4,2,0,5.08-.12,8.9-.26,37.43-1.42,57-.22,60.09,10.28,2.44,8.24-6.73,15-16,20.53a5.71,5.71,0,0,1-5.85-9.81c6.31-3.76,9-6.21,10.11-7.5-5.11-2.39-21.16-3.1-47.9-2.08-4,.15-7.24.27-9.37.27-7.36,0-15.29-.72-23.68-1.45-17.07-1.47-34.73-3-48.27,1.06-18.48,5.56-34.77,15.5-52,26-3.55,2.17-7.1,4.33-10.66,6.45A5.68,5.68,0,0,1,963.72,1011.89Z"
                      class="color571519 svgShape"></path>
                <path fill="#571519"
                      d="M928.47,1008.37a5.72,5.72,0,0,1-2.93-10.63c8.77-5.21,17.61-11.8,27-18.77,17.11-12.74,34.8-25.91,54.32-32.35,16.55-5.44,35.4-.85,52,3.22,5.17,1.26,10,2.45,14.6,3.28,7.43,1.37,15.37,2.4,23,3.39,11.82,1.54,24,3.12,35.51,6a5.71,5.71,0,0,1-2.81,11.07c-10.79-2.74-22.68-4.28-34.17-5.77-7.82-1-15.9-2.06-23.64-3.48-4.87-.89-9.91-2.12-15.24-3.43-15.89-3.87-32.33-7.89-45.75-3.45-17.77,5.85-34.7,18.46-51.07,30.65-9.61,7.16-18.68,13.91-28,19.43A5.62,5.62,0,0,1,928.47,1008.37Z"
                      class="color571519 svgShape"></path>
                <path fill="#571519"
                      d="M808.8 1149.51a5.71 5.71 0 01-3.94-9.84c28.54-27.27 65.18-81.75 91.93-121.53 20.92-31.11 32.11-47.53 37.9-51.46 19.16-13 49.2-20.45 69-21.08a5.63 5.63 0 015.89 5.53A5.71 5.71 0 011004 957c-20.78.66-47.82 8.88-62.9 19.11-4.23 2.88-19.79 26-34.84 48.38-27 40.22-64.09 95.29-93.52 123.42A5.72 5.72 0 01808.8 1149.51zM467.06 1319.15a5.72 5.72 0 01-5.5-4.19c-32.36-116.71 13-399.19 31.3-424.27a5.71 5.71 0 019.23 6.73c-12.34 16.93-62.54 295.37-29.52 414.49a5.71 5.71 0 01-4 7A5.81 5.81 0 01467.06 1319.15zM844.53 1737.62a5.72 5.72 0 01-5.69-5.3c-4.24-58.23 3.73-163.92 17.7-192.21a5.71 5.71 0 1110.24 5.06c-13 26.38-20.6 130.63-16.54 186.32a5.72 5.72 0 01-5.29 6.11zM199.39 1663.68h-.26a5.71 5.71 0 01-5.45-6c4.92-111.25 24-488.94 62-677.88a5.71 5.71 0 1111.2 2.26C229 1170.22 210 1547.17 205.09 1658.22A5.71 5.71 0 01199.39 1663.68z"
                      class="color571519 svgShape"></path>
                <path fill="#571519"
                      d="M381.86 1401.55a5.72 5.72 0 01-4.82-8.77c21-33.25 45.75-57.2 73.48-71.21 89.06-45 300.57-156.66 349-195.67a5.71 5.71 0 117.17 8.89c-49.09 39.59-261.57 151.85-351 197-25.86 13.06-49.07 35.64-69 67.12A5.71 5.71 0 01381.86 1401.55zM1065.69 958.35a5.73 5.73 0 01-5.64-4.83c-2.17-13.9 5.93-29.89 13.08-44 3.35-6.61 6.52-12.86 7.93-17.63a5.71 5.71 0 0111 3.24c-1.7 5.77-5.09 12.46-8.69 19.55-6.36 12.57-13.59 26.81-12 37.07a5.73 5.73 0 01-4.77 6.53A6.67 6.67 0 011065.69 958.35zM881.84 1357.12a5.72 5.72 0 01-1.5-11.23l118.23-32.15c4.93-1.21 11.78-4.44 19.72-8.17 14.81-7 33.24-15.65 54.08-19 1.1-.18 2.06-.31 3-.44 1.5-.2 3.06-.4 5.42-.85a5.71 5.71 0 112.12 11.22c-2.62.5-4.36.73-6 1-.88.13-1.75.24-2.75.4-19.23 3.09-36.86 11.39-51 18.05-8.48 4-15.81 7.44-21.71 8.9l-118.1 32.12A5.53 5.53 0 01881.84 1357.12zM876.47 1321.28a5.72 5.72 0 01-2-11.08L989 1268a5.18 5.18 0 01.56-.17c2.48-.64 6.27-1.4 10.9-2.33 14.31-2.86 38.27-7.65 52.44-15.27a30.46 30.46 0 003.28-2 46.25 46.25 0 014.89-3.05 5.71 5.71 0 115.46 10 36.94 36.94 0 00-3.83 2.39 43.33 43.33 0 01-4.39 2.74c-15.67 8.42-39.71 13.23-55.61 16.41-4.2.84-7.69 1.53-10 2.11l-114.22 42.11A5.57 5.57 0 01876.47 1321.28zM792.67 1380.52a5.12 5.12 0 01-.67 0 16 16 0 01-13.7-11.32l-2-6.85a16.2 16.2 0 0111.15-20l29.87-11a5.71 5.71 0 113.95 10.72L791 1353.16a4.9 4.9 0 00-3.69 6l2 6.84a4.66 4.66 0 004.05 3.14 5.71 5.71 0 01-.66 11.38z"
                      class="color571519 svgShape"></path>
                <path fill="#571519"
                      d="M921.93,1345.87a5.69,5.69,0,0,1-5.2-3.35,173.12,173.12,0,0,1-7.39-19.73,120.54,120.54,0,0,1-3.8-18.7,5.71,5.71,0,1,1,11.35-1.24,112.14,112.14,0,0,0,3.41,16.74,162.45,162.45,0,0,0,6.84,18.22,5.71,5.71,0,0,1-5.21,8.06Z"
                      class="color571519 svgShape"></path>
                <path fill="#ffffff" fill-rule="evenodd"
                      d="M1135,825.41s13.62-3.42,33.44-8.8c27.29-7.4,47.55-11.22,47.55-11.22s-3.83,40-31.23,47S1135,825.41,1135,825.41Z"
                      class="colorfff svgShape"></path>
                <path fill="#571519"
                      d="M1177.17 859c-26.51 0-46.07-29.08-47-30.45a5.72 5.72 0 013.37-8.69c.14 0 13.8-3.47 33.34-8.77 27.18-7.38 47.78-11.29 48-11.33a5.72 5.72 0 016.75 6.16c-.17 1.8-4.58 44.14-35.52 52A36.57 36.57 0 011177.17 859zm-32.32-30.24c7.49 8.59 22.31 22.12 38.46 18 16.34-4.13 23-23.18 25.56-34.14-8.34 1.78-22.4 5-39 9.46C1159.53 824.94 1150.8 827.23 1144.85 828.77zM1597.71 1236.66c-42.28 0-88.67-4.85-91.5-16.7-3.11-13.06-6.3-26.09-9.48-39.06-20.27-82.63-39.42-160.68-34.72-235.55a5.71 5.71 0 0111.4.72c-4.59 73.12 14.35 150.34 34.41 232.1 3.09 12.59 6.19 25.23 9.21 37.9 8.69 5.34 65.08 13.09 122.25 7.35 54.29-5.45 103.88-25.56 111.72-31.33-.51-6.26-8.64-28.07-15.25-45.8-10.08-27.07-21.51-57.76-25-78.21a5.71 5.71 0 1111.25-1.94c3.35 19.4 14.58 49.56 24.49 76.17 14.92 40 18.07 50 14.8 55.43-6 10-66.72 31.62-120.84 37C1628.34 1236 1613.31 1236.66 1597.71 1236.66zm-80.38-19.35h0zM1751 1193zM1174.33 964.84A5.71 5.71 0 011172 953.9c15.23-6.65 23-11.25 28.85-24.68a5.71 5.71 0 0110.49 4.53c-7.66 17.71-18.74 23.62-34.77 30.62A5.78 5.78 0 011174.33 964.84zM988.22 1349c-14.16 0-27.87-2.46-36.87-8.55a5.71 5.71 0 116.39-9.47c16.1 10.89 55 7 71.82-1.29a5.71 5.71 0 115 10.24C1023.8 1345.22 1005.67 1349 988.22 1349zM799.49 909.79A72.34 72.34 0 01783 907.88c-62.64-14.61-115.66-67.57-149.29-149.15-1.83-4.42-3.31-9.39-4.75-14.2-6-20-9.57-26.24-18.73-23.73a5.71 5.71 0 01-3-11c21.49-5.87 28 15.71 32.68 31.48 1.42 4.74 2.76 9.22 4.37 13.11C676.47 832.44 726.66 883 785.61 896.75c26.29 6.14 47.72-6.26 61.07-17.73 17.2-14.78 26-32.15 26.27-36.89a9.09 9.09 0 00-2.66-.72 19.86 19.86 0 01-6.37-2.09 5.71 5.71 0 115.65-9.92 11.33 11.33 0 002.92.8c3.1.61 8.28 1.63 11 7.28 4.9 10.24-12.38 32.22-14.37 34.69C861.38 881.79 835.73 909.79 799.49 909.79zM873.74 1266.57l-1 0c-23.7-1.4-59.46-56-74.92-135a5.71 5.71 0 1111.21-2.19c15.86 81 50.34 125 64.38 125.79.92 0 2.66.16 4-4.15l.6-1.79c1.88-5.52 5-14.75 1.17-29a5.71 5.71 0 1111-3c4.78 17.59.78 29.34-1.38 35.65l-.53 1.59C885.89 1262.21 880.59 1266.57 873.74 1266.57z"
                      class="color571519 svgShape"></path>
                <path fill="#571519"
                      d="M927,1389.64a5.8,5.8,0,0,1-1.86-.31,5.73,5.73,0,0,1-3.54-7.27c6-17.34,10.81-31.39,15.9-46.66a5.71,5.71,0,0,1,10.84,3.61c-5.1,15.31-9.94,29.4-15.94,46.78A5.7,5.7,0,0,1,927,1389.64Z"
                      class="color571519 svgShape"></path>
                <path fill="#c3ccde" fill-rule="evenodd"
                      d="M938.2,1302l41.73-11.79a10.46,10.46,0,0,1,12.91,7.22l.34,1.19a10.46,10.46,0,0,1-7.22,12.9l-41.73,11.79a10.44,10.44,0,0,1-12.9-7.21l-.34-1.19A10.46,10.46,0,0,1,938.2,1302Z"
                      class="colorc3ccde svgShape"></path>
                <path fill="#c85140" fill-rule="evenodd"
                      d="M952.57 1300.15h0a3.22 3.22 0 014 2.22l3.29 11.64a3.23 3.23 0 01-2.23 4h0a3.22 3.22 0 01-4-2.22l-3.29-11.64A3.22 3.22 0 01952.57 1300.15zM967.1 1296h0a3.22 3.22 0 014 2.22l3.29 11.64a3.22 3.22 0 01-2.23 4h0a3.23 3.23 0 01-4-2.22L964.87 1300A3.22 3.22 0 01967.1 1296z"
                      class="colorc85140 svgShape"></path>
            </g>
        </svg>
    </g>
</svg>