<svg xmlns="http://www.w3.org/2000/svg" id="Layer_1" x="0" y="0" enable-background="new 0 0 950 950" version="1.1" viewBox="0 0 950 950" xml:space="preserve" width="550" height="550"><path fill="#ffe8ef" d="M784.32,617.144c-31.835,30.166-73.809,46.51-124.637,39.122c-13.028-1.885-26.642-5.344-40.819-10.523
			c-10.754-6.016-20.027-8.493-28.484-8.291c-33.481,0.773-54.165,43.383-103.325,73.339c-1.618,0.982-3.264,1.957-4.947,2.91
			c-17.304,9.872-47.333,16.43-82.483,17.188c-25.616,0.556-53.956-1.979-82.064-8.551c-24.483-5.727-48.799-14.523-70.985-27.032
			c-34.16-19.24-63.294-47.268-80.294-86.404c-3.286-7.561-6.117-15.535-8.443-23.941c-3.264-11.772-5.539-24.389-6.68-37.894
			c-0.101-3.589-0.311-7.114-0.614-10.58c-0.542-6.139-1.379-12.09-2.455-17.867c-2.326-12.415-5.778-24.064-9.822-35.128
			c-21.254-58.115-59.004-100.306-36.363-154.053c30.116-71.368,49.146-16.993,109.377-27.198c0,0,172.324-95.186,183.244-33.943
			c10.949,61.141,76.589-71.469,123.099,6.767c27.364,37.403,123.597-113.913,251.643-30.607
			C884.049,319.142,878.221,528.198,784.32,617.144z" class="colorffe8ef svgShape"></path><path fill="#251f12" d="M215.026,454.244c-0.213-6.718-9.095-12.162-5.841-19.742c3.355-7.814,26.915-22.175,23.498-59.964
			c-2.441-27-25.797-41.27-37.038-34.024c-2.385-11.469-22.912-9.054-33.968-3.666c-30.96,15.088-26.743,54.376-30.387,63.146
			c-3.089,7.433-8.268,12.336-13.752,18.058c-10.491,10.947-20.827,20.898-19.888,38.662c0.889,16.822,11.152,29.815,25.119,38.15
			c24.858,14.835,61.448,14.917,77.802-4.419C208.189,481.438,215.574,471.495,215.026,454.244z" class="color251f12 svgShape"></path><path fill="#ea6ea1" d="M182.157,418.43c-1.365,8.717-2.925,18.712-3.979,25.371c-0.441,0.31-0.831,0.628-1.184,0.939
			c-13.375,9.8-37.554,37.417-37.554,37.417c-0.39,0.448-0.78,0.896-1.17,1.336c-5.857,6.666-12.133,13.007-17.174,20.33
			c-3.098,4.507-10.999,16.488-8.558,22.403c1.011,2.441,26.953,38.674,45.304,58.737c4.348,4.752,8.276,8.601,11.339,10.869
			c-0.859,4.6-1.827,8.991-2.896,13.072c17.001,39.136,46.134,67.165,80.294,86.404c-0.007-2.066-0.014-3.344-0.022-3.467
			c-2.549-41.924-13.491-97.338-13.491-110.822c0-10.927,2.867-39.54,3.958-50.027c0.014-0.123,0.029-0.231,0.043-0.354
			c0.231-2.239,0.376-3.575,0.376-3.575c0.484-0.289,0.953-0.592,1.401-0.895c0.152-0.101,0.289-0.202,0.433-0.303
			c0.303-0.209,0.599-0.426,0.881-0.65c0.159-0.115,0.311-0.238,0.462-0.361c0.267-0.217,0.527-0.441,0.787-0.665
			c0.13-0.115,0.274-0.231,0.404-0.354c0.347-0.318,0.693-0.65,1.011-0.982c0.123-0.123,0.224-0.253,0.339-0.376
			c0.217-0.231,0.426-0.462,0.628-0.701c0.144-0.173,0.289-0.354,0.426-0.534c0.152-0.181,0.296-0.368,0.433-0.556
			c0.144-0.202,0.289-0.397,0.426-0.599c0.116-0.166,0.224-0.332,0.332-0.498c0.137-0.224,0.282-0.441,0.419-0.672
			c0-0.007,0.007-0.014,0.014-0.029c0.354-0.607,0.672-1.228,0.961-1.856c0.036-0.094,0.087-0.188,0.123-0.282
			c0.13-0.289,0.246-0.578,0.354-0.874c0.036-0.094,0.072-0.188,0.108-0.282c0.116-0.31,0.224-0.621,0.318-0.932
			c0.014-0.043,0.022-0.079,0.036-0.115c0.325-1.076,0.563-2.181,0.715-3.293c0-0.007,0-0.007,0-0.014
			c0.137-1.018,0.202-2.051,0.202-3.091c0-8.515-4.514-17.593-11.584-24.461c-8.536-8.305-20.157-24.468-30.953-34.55
			c-2.152-5.091-4.037-10.847-4.037-15.39c0-10.573,2.188-18.228,2.188-18.228 M172.537,572.981
			c-5.835-8.623-15.34-24.887-21.991-36.493c-4.42-7.699-7.583-13.346-7.583-13.346l5.128-4.521l22.208-19.586l4.499-2.34
			c0.318,3.625,0.563,7.525,0.672,11.779C175.91,525.461,175.144,549.929,172.537,572.981z" class="colorea6ea1 svgShape"></path><path fill="#ffffff" d="M231.352,639.669c-3.02,6.373-9.109,9.813-13.599,7.685c-4.49-2.128-5.681-9.019-2.66-15.392
				s9.109-9.813,13.599-7.685C233.181,626.405,234.372,633.297,231.352,639.669z" class="colorfff svgShape"></path><path fill="#ffd8cf" d="M223.008 639.31c-.199.45-.56.807-.94 1.12-.786.648-1.689 1.153-2.652 1.483-.012.224-.024.448-.036.672 1.535.519 3.243.509 4.772-.028.476-.167.941-.387 1.32-.72.896-.788 1.443-2.245 2.636-2.244-.345-.818.605-1.552.975-2.359.23-.501.231-1.073.229-1.624-.006-1.265-.015-2.551-.379-3.763-.364-1.212-1.14-2.361-2.297-2.874-1.175-.521-2.552-.315-3.756.136-.959.36-1.889.892-2.495 1.717-.606.825-.827 1.986-.35 2.893.401.762 1.223 1.23 2.064 1.41.842.18 1.714.111 2.572.042-.001.513-.002 1.027-.002 1.541-.557-.134-1.07.392-1.253.935C223.232 638.187 223.24 638.787 223.008 639.31zM161.989 389.775c3.199.871 6.762 8.073 6.762 8.073 4.001-4.723-1.298-8.913 3.103-12.854 22.973-5.277 28.837-26.791 28.837-26.791 11.686 1.212 13.469 13.41 13.469 13.41 11.309 35.752-5.393 54.46-10.956 55.773-11.091 2.618-22.425-2.78-34.984-20.104-4.256.917-10.249-1.437-12.437-6.039C153.685 396.835 155.839 389.494 161.989 389.775z" class="colorffd8cf svgShape"></path><path fill="#ffd8cf" d="M178.177 443.801c1.054-6.659 2.614-16.654 3.979-25.371l22.114-2.91c0 0-2.188 7.655-2.188 18.228C197.414 445.5 188.741 447.058 178.177 443.801zM170.437 594.5c.97 1.107 2 2.161 3.106 3.136 1.385 1.22 2.889 2.309 4.51 3.195 1.762.964 3.652 1.672 5.588 2.199 1.985.541 4.014.899 6.051 1.178 2.141.294 4.294.524 6.449.69 2.185.168 4.377.258 6.568.23 1.06-.013 2.12-.054 3.177-.127.949-.065 1.912-.138 2.823-.43 1.712-.55 2.801-1.967 3.711-3.439.908-1.469 1.944-3.081 1.974-4.855.468-.573.917-1.197 1.075-1.911.101-.452.035-1.122-.331-1.411.168-.164.333-.331.495-.5.284-.297.574-.63.672-1.04.081-.341.01-.74-.245-.993-.274-.272-.665-.25-.999-.109-.514.216-.979.59-1.445.891-.51.33-1.019.661-1.53.989-.918.587-1.871 1.163-2.924 1.474-1.166.345-2.297.222-3.425-.2-1.043-.39-2.031-.927-3.125-1.172-1.687-.378-4.184-.203-5.378-1.662.213-.22.444-.424.694-.606.703-.513 1.526-.857 2.382-1.009.945-.167 1.868-.043 2.794.171 1.413.327 3.078.832 4.427.014.958-.581 1.518-1.944.735-2.892-1.006-1.218-2.89-.837-4.267-.895-1.692-.071-3.366-.355-5.031-.651-3.284-.584-6.653-1.226-9.955-.394-2.035.513-4.074 1.498-6.172 1.812-3.27-2.515-6.502-5.078-9.692-7.692" class="colorffd8cf svgShape"></path><g fill="#000000" class="color000 svgShape"><path fill="#251f12" d="M366.19,460.195c-0.213-6.718-9.095-12.162-5.841-19.742c3.355-7.814,26.915-22.175,23.498-59.964
			c-2.441-27-25.797-41.27-37.038-34.024c-2.385-11.469-22.912-9.054-33.968-3.666c-30.96,15.088-26.743,54.376-30.387,63.146
			c-3.089,7.433-8.268,12.336-13.752,18.058c-10.491,10.947-20.827,20.898-19.888,38.662c0.889,16.822,11.152,29.815,25.119,38.15
			c24.858,14.835,61.448,14.917,77.802-4.419C359.353,487.389,366.737,477.446,366.19,460.195z" class="color251f12 svgShape"></path><path fill="#ea6ea1" d="M333.125,425.609c-1.285,8.197-2.744,17.521-3.784,24.143c-12.169,6.839-40.84,39.584-40.84,39.584
			c-6.182,7.157-12.964,13.859-18.337,21.666c-3.105,4.506-11.006,16.488-8.565,22.403c1.242,2.997,39.916,56.736,56.194,69.273
			c-1.769,7.453-3.51,13.852-4.976,18.69c-8.753,28.801,4.738,63.799,4.738,78.012c0,0.166,0,9.952,0.007,22.959
			c28.108,6.572,56.447,9.107,82.064,8.551c-0.014-17.145-0.036-31.575-0.051-31.871c-1.069-17.542-1.054-23.349-3.647-41.555
			c0,0,16.95-14.22,18.589-47.03c1.647-32.81-24.056-76.185-24.056-76.185c17.131-10.212,12.761-30.621-0.361-43.383
			c-9.389-9.121-22.497-27.754-34.146-37.359c-1.639-4.319-2.91-8.854-2.91-12.581c0-10.573,2.188-18.228,2.188-18.228
			 M322.329,581.229c-9.396-13.563-30.303-50.908-30.303-50.908l27.335-24.107l8.284-4.304c0.397,4.174,0.715,8.71,0.845,13.743
			C329.052,537.24,326.106,560.928,322.329,581.229z" class="colorea6ea1 svgShape"></path><ellipse cx="387.811" cy="632.607" fill="#ffffff" rx="23.671" ry="16.677" transform="rotate(-64.639 387.825 632.63)" class="colorfff svgShape"></ellipse><path fill="#ffd8cf" d="M386.137,632.009c0.003,0.016,0.007,0.032,0.011,0.049c-1.973-0.623-4.299-0.598-6.185,0.355
				c-8.428,4.261-0.258,19.421,8.14,12.811c0,0,1.512-0.839,2.987-3.31c0,0,3.222,0.339,5.257-1.805
				c4.298-4.529,9.156-17.109,1.477-20.964C390.265,615.35,384.84,625.995,386.137,632.009z" class="colorffd8cf svgShape"></path><path fill="#ffd8cf" d="M384.853 624.977c1.227 3.959 2.037 6.575-1.251 12.343l1.761 1.004c3.724-6.532 2.659-9.969 1.427-13.947-.316-1.019-.643-2.074-.919-3.255-.792-3.388-.171-7.196.439-9.673-.789.34-1.573.741-2.346 1.197-.49 2.567-.786 5.861-.067 8.937C384.19 622.835 384.527 623.924 384.853 624.977zM313.153 395.726c3.199.871 6.762 8.073 6.762 8.073 4.001-4.723-1.298-8.913 3.103-12.854 22.973-5.277 28.837-26.791 28.837-26.791 11.686 1.212 13.469 13.41 13.469 13.41 11.309 35.752-5.393 54.46-10.956 55.773-11.091 2.618-22.425-2.78-34.984-20.104-4.256.917-10.249-1.437-12.437-6.039C304.849 402.786 307.002 395.445 313.153 395.726z" class="colorffd8cf svgShape"></path><g fill="#000000" class="color000 svgShape"><path fill="#ffd8cf" d="M329.341,449.752c1.054-6.659,2.614-16.654,3.979-25.371l22.114-2.91c0,0-2.188,7.655-2.188,18.228
				C348.578,451.451,339.905,453.009,329.341,449.752z" class="colorffd8cf svgShape"></path></g><path fill="#ffd8cf" d="M321.601,600.451c0.97,1.107,2,2.161,3.106,3.136c1.385,1.22,2.889,2.309,4.51,3.195
			c1.762,0.964,3.652,1.672,5.588,2.199c1.985,0.541,4.014,0.899,6.051,1.178c2.141,0.294,4.294,0.524,6.449,0.69
			c2.185,0.168,4.377,0.258,6.568,0.23c1.06-0.013,2.12-0.054,3.177-0.127c0.949-0.065,1.912-0.138,2.823-0.43
			c1.712-0.55,2.801-1.967,3.711-3.439c0.908-1.469,1.944-3.08,1.974-4.855c0.468-0.573,0.917-1.197,1.075-1.911
			c0.101-0.452,0.035-1.122-0.331-1.411c0.167-0.164,0.333-0.331,0.495-0.5c0.284-0.297,0.574-0.63,0.672-1.04
			c0.081-0.341,0.01-0.74-0.245-0.993c-0.274-0.272-0.665-0.25-0.999-0.109c-0.514,0.216-0.979,0.591-1.445,0.892
			c-0.51,0.33-1.019,0.661-1.53,0.988c-0.918,0.587-1.871,1.163-2.924,1.474c-1.166,0.345-2.297,0.222-3.425-0.2
			c-1.043-0.39-2.031-0.927-3.125-1.172c-1.687-0.378-4.184-0.203-5.378-1.662c0.213-0.22,0.444-0.424,0.694-0.606
			c0.703-0.513,1.526-0.857,2.382-1.009c0.945-0.167,1.868-0.043,2.794,0.171c1.413,0.327,3.078,0.832,4.427,0.014
			c0.958-0.581,1.518-1.944,0.735-2.892c-1.006-1.218-2.89-0.837-4.267-0.895c-1.692-0.071-3.366-0.355-5.031-0.651
			c-3.284-0.584-6.653-1.226-9.955-0.394c-2.035,0.513-4.074,1.498-6.172,1.812c-3.27-2.515-6.502-5.078-9.692-7.692" class="colorffd8cf svgShape"></path></g><g fill="#000000" class="color000 svgShape"><path fill="#251f12" d="M538.218,437.785c-0.213-6.718-9.095-12.162-5.841-19.742c3.355-7.814,26.915-22.175,23.498-59.964
			c-2.441-27-25.797-41.27-37.038-34.024c-2.385-11.469-22.912-9.054-33.968-3.666c-30.96,15.088-26.743,54.376-30.387,63.146
			c-3.089,7.433-8.268,12.336-13.752,18.058c-10.491,10.947-20.827,20.898-19.888,38.662c0.889,16.823,11.152,29.815,25.119,38.15
			c24.858,14.835,61.448,14.917,77.802-4.419C531.381,464.979,538.766,455.036,538.218,437.785z" class="color251f12 svgShape"></path><path fill="#ea6ea1" d="M505.031,403.986c-1.228,7.872-2.629,16.798-3.662,23.356c-10.97,4.384-42.473,40.371-42.473,40.371
			c-6.189,7.157-12.964,13.852-18.344,21.666c-3.098,4.507-10.999,16.488-8.558,22.403c1.213,2.947,38.753,55.118,55.443,68.674
			c-1.827,7.713-3.618,14.314-5.128,19.29c-8.753,28.801,4.738,63.799,4.738,78.012c0,0.267,0,17.253,0.007,33.033
			c49.16-29.957,69.844-72.567,103.325-73.339c2.716-7.374,9.807-28.808,11.129-55.205c1.43-28.541-24.454-68.392-31.206-78.265
			c-0.043-0.058-0.079-0.116-0.116-0.173c-0.007-0.007-0.014-0.014-0.022-0.029c-0.217-0.318-0.412-0.599-0.585-0.852
			c-0.029-0.043-0.058-0.072-0.08-0.116c-0.152-0.209-0.282-0.397-0.383-0.549c-0.043-0.051-0.065-0.087-0.101-0.13
			c-0.072-0.108-0.137-0.195-0.181-0.267c-0.043-0.051-0.058-0.072-0.072-0.101c-0.036-0.043-0.058-0.08-0.058-0.08
			c0.491-0.296,0.968-0.599,1.43-0.917c0.159-0.108,0.311-0.217,0.462-0.325c0.296-0.209,0.585-0.426,0.867-0.643
			c0.173-0.13,0.339-0.267,0.513-0.404c0.238-0.202,0.484-0.397,0.715-0.607c0.166-0.144,0.339-0.296,0.498-0.448
			c0.217-0.202,0.419-0.404,0.621-0.599c0.159-0.166,0.325-0.325,0.477-0.491c0.188-0.202,0.368-0.404,0.542-0.607
			c0.152-0.173,0.303-0.339,0.448-0.513c0.166-0.209,0.318-0.419,0.477-0.628c0.289-0.376,0.563-0.766,0.816-1.156
			c0.094-0.145,0.195-0.282,0.282-0.426c0.159-0.253,0.303-0.513,0.448-0.773c0.079-0.13,0.152-0.267,0.224-0.404
			c0.144-0.267,0.282-0.542,0.412-0.823c0.058-0.115,0.108-0.231,0.159-0.347c0.137-0.303,0.267-0.599,0.383-0.903
			c0.029-0.072,0.058-0.144,0.087-0.217c3.922-10.349-0.968-23.154-10.226-32.152c-9.41-9.143-27.061-22.222-41.274-28.628
			c-1.235-3.625-2.109-7.28-2.109-10.371c0-10.573,2.188-18.228,2.188-18.228 M492.017,558.573
			c-9.699-14.328-29.603-49.875-29.603-49.875l27.335-24.107l7.431-3.857c0.376,4.052,0.679,8.442,0.802,13.296
			C498.538,515.249,495.7,538.503,492.017,558.573z" class="colorea6ea1 svgShape"></path><ellipse cx="563.477" cy="601.136" fill="#ffffff" rx="41.384" ry="29.157" transform="rotate(-64.639 563.5 601.157)" class="colorfff svgShape"></ellipse><path fill="#ffd8cf" d="M567.43,603.892c0,0-5.702-0.036-9.482,3.59c-11.168,10.714,8.897,30.56,18.892,16.178
				c0,0,1.969-2.039,3.096-6.617c0,0,5.213-1.012,7.374-5.347s6.278-17.684,0.153-27.077c-6.124-9.392-11.33-12.609-19.424-4.531
				c0,0-2.252-10.134-8.414-6.098c-6.162,4.035-5.449,9.391-2.861,9.812c2.589,0.421,2.917-1.205,2.917-1.205
				s-2.944,12.056,7.502,10.023C567.184,592.62,563.887,599.149,567.43,603.892z" class="colorffd8cf svgShape"></path><path fill="#ffd8cf" d="M570.377 561.762c-.452 4.8-.639 10.559.1 15.963.346 2.519.746 4.728 1.134 6.863 1.479 8.144 2.546 14.027-1.564 26.336l2.308.77c4.309-12.9 3.136-19.36 1.652-27.54-.384-2.11-.78-4.293-1.117-6.76-.718-5.246-.507-10.944-.048-15.671C572.026 561.692 571.203 561.708 570.377 561.762zM485.181 373.316c3.199.871 6.762 8.073 6.762 8.073 4.001-4.723-1.298-8.913 3.103-12.854 22.973-5.277 28.837-26.791 28.837-26.791 11.686 1.212 13.469 13.41 13.469 13.41 11.309 35.752-5.393 54.46-10.956 55.773-11.091 2.618-22.425-2.78-34.984-20.104-4.256.917-10.249-1.437-12.437-6.038C476.877 380.376 479.031 373.035 485.181 373.316z" class="colorffd8cf svgShape"></path><g fill="#000000" class="color000 svgShape"><path fill="#ffd8cf" d="M501.369,427.342c1.054-6.659,2.614-16.654,3.979-25.371l22.114-2.91c0,0-2.188,7.655-2.188,18.228
				C520.606,429.041,511.933,430.599,501.369,427.342z" class="colorffd8cf svgShape"></path></g><path fill="#ffd8cf" d="M493.629,578.041c0.97,1.107,2,2.161,3.106,3.136c1.385,1.22,2.889,2.309,4.51,3.195
			c1.762,0.964,3.652,1.672,5.588,2.199c1.985,0.541,4.014,0.899,6.051,1.178c2.141,0.294,4.294,0.524,6.449,0.69
			c2.185,0.168,4.377,0.258,6.568,0.23c1.06-0.013,2.12-0.054,3.177-0.127c0.949-0.065,1.912-0.138,2.823-0.43
			c1.712-0.549,2.801-1.967,3.711-3.439c0.908-1.469,1.944-3.081,1.974-4.855c0.468-0.573,0.917-1.197,1.076-1.911
			c0.101-0.452,0.034-1.122-0.331-1.411c0.167-0.164,0.333-0.331,0.495-0.5c0.284-0.297,0.574-0.63,0.672-1.04
			c0.081-0.341,0.01-0.74-0.245-0.993c-0.274-0.272-0.665-0.249-0.999-0.109c-0.514,0.216-0.979,0.59-1.445,0.891
			c-0.51,0.33-1.019,0.661-1.53,0.989c-0.918,0.587-1.871,1.163-2.924,1.474c-1.166,0.345-2.297,0.222-3.425-0.2
			c-1.043-0.39-2.031-0.927-3.125-1.172c-1.687-0.378-4.184-0.203-5.378-1.662c0.213-0.22,0.444-0.424,0.694-0.606
			c0.703-0.513,1.526-0.857,2.382-1.009c0.945-0.167,1.868-0.043,2.794,0.171c1.413,0.327,3.078,0.832,4.427,0.014
			c0.958-0.581,1.518-1.944,0.735-2.892c-1.006-1.218-2.89-0.837-4.267-0.895c-1.692-0.071-3.366-0.355-5.031-0.651
			c-3.284-0.584-6.653-1.226-9.955-0.394c-2.035,0.513-4.074,1.498-6.172,1.812c-3.27-2.515-6.502-5.078-9.692-7.692" class="colorffd8cf svgShape"></path></g><g fill="#000000" class="color000 svgShape"><path fill="#251f12" d="M712.94,439.454c-0.213-6.718-9.095-12.162-5.841-19.742c3.355-7.814,26.915-22.175,23.498-59.964
			c-2.441-27-25.797-41.27-37.038-34.024c-2.385-11.469-22.912-9.054-33.968-3.666c-30.96,15.088-26.743,54.376-30.387,63.146
			c-3.089,7.433-8.268,12.336-13.752,18.058c-10.491,10.947-20.827,20.898-19.888,38.662c0.889,16.822,11.152,29.815,25.119,38.15
			c24.858,14.835,61.448,14.917,77.802-4.419C706.103,466.647,713.487,456.705,712.94,439.454z" class="color251f12 svgShape"></path><path fill="#ea6ea1" d="M680.013,403.986c-1.336,8.565-2.874,18.373-3.922,25.024c-12.848,8.377-39.396,38.703-39.396,38.703
			c-6.182,7.157-12.964,13.852-18.337,21.666c-3.105,4.507-11.006,16.488-8.565,22.403c1.184,2.867,36.695,52.251,54.006,67.454
			c-1.921,8.233-3.82,15.282-5.409,20.51c-5.676,18.69-1.993,39.988,1.293,56.519c50.828,7.388,92.803-8.955,124.637-39.122
			c4.015-9.981,6.565-23.017,5.482-39.815c-3.459-53.587-45.022-75.643-45.022-75.643c0.498-0.296,0.975-0.599,1.437-0.917
			c0.159-0.108,0.311-0.224,0.469-0.332c0.289-0.209,0.578-0.412,0.852-0.628c0.181-0.137,0.354-0.282,0.527-0.419
			c0.238-0.195,0.469-0.39,0.693-0.592c0.181-0.152,0.354-0.31,0.52-0.462c0.202-0.195,0.404-0.39,0.599-0.585
			c0.166-0.166,0.339-0.332,0.498-0.506c0.173-0.188,0.339-0.383,0.506-0.571c0.166-0.181,0.325-0.361,0.477-0.549
			c0.094-0.116,0.181-0.238,0.274-0.354c0.376-0.477,0.722-0.968,1.047-1.459c0.079-0.13,0.166-0.253,0.246-0.383
			c0.166-0.26,0.311-0.527,0.462-0.794c0.072-0.123,0.144-0.253,0.209-0.383c0.152-0.275,0.289-0.556,0.419-0.838
			c0.058-0.108,0.108-0.224,0.159-0.332c0.137-0.303,0.267-0.607,0.383-0.917c0.029-0.065,0.058-0.137,0.079-0.209
			c0.715-1.878,1.134-3.828,1.293-5.828c0-0.014,0.007-0.036,0.007-0.058c0.043-0.592,0.065-1.185,0.065-1.777
			c0-8.522-4.514-17.622-11.584-24.49c-23.016-11.786-33.799-21.854-41.982-27.53c-1.437-3.979-2.499-8.067-2.499-11.469
			c0-10.573,2.188-18.228,2.188-18.228 M668.465,556.53c-10.082-15.39-28.245-47.831-28.245-47.831l27.335-24.107l5.778-3.004
			c0.339,3.813,0.614,7.93,0.729,12.443C674.596,514.534,671.96,536.936,668.465,556.53z" class="colorea6ea1 svgShape"></path><ellipse cx="737.212" cy="590.494" fill="#ffffff" rx="59.465" ry="41.896" transform="rotate(-64.639 737.237 590.514)" class="colorfff svgShape"></ellipse><path fill="#ffd8cf" d="M747.127,533.918c-0.649,6.898-0.919,15.172,0.144,22.937c0.497,3.62,1.072,6.794,1.629,9.862
				c2.126,11.702,3.659,20.156-2.247,37.842l3.316,1.106c6.191-18.535,4.506-27.818,2.373-39.572
				c-0.551-3.032-1.12-6.169-1.605-9.713c-1.032-7.537-0.728-15.725-0.069-22.518C749.495,533.817,748.314,533.841,747.127,533.918z
				" class="colorffd8cf svgShape"></path><path fill="#ffd8cf" d="M728.185 634.262c-4.898-1.896-8.954-5.535-10.438-10.777-2.241-7.914 1.83-15.358 6.12-18.517 4.29-3.159 5.866-3.044 7.03-4.933 1.165-1.889.568-2.525 1.27-2.973.702-.449 2.126-.403 3.312.125 0 0 1.674-2.174 2.785-.713 0 0 1.068-1.347 2.875.672 0 0 2.369-1.617 3.475.023 1.106 1.64 3.616 5.329 4.145 5.525 0 0-4.154-9.401-4.459-13.778 0 0-10.438 1.759-11.756 2.563-1.318.804-2.619 2.456-3.414 3.633-.795 1.177-1.187 1.343-1.568 1.182-.381-.161-.366-1.096-.077-1.77.289-.674-.272-.781-.763-.752-.491.029-4.963.999-5.157.117-.195-.883.735-1.15 1.709-1.43.974-.281-.234-1.047-.604-1.074-.37-.027-2.468-.391-2.097-1.285.37-.894 2.054-.602 2.415-.739.361-.137.727-.422.29-.704s-1.585-.125-1.847-.772c-.261-.647.526-1.127 1.606-.988 1.08.139 1.179-.185.691-.706-.488-.521-1.188-.469-.879-1.305.309-.837 1.396-.445 2.347-.014.952.432 1.974 1.43 4.79.689 2.816-.741 11.927-5.112 11.927-5.112s-5.793.943-7.544-5.589c-1.751-6.532-2.008-13.313-2.008-13.313s-.043-.506-1.135-1.21c-1.091-.703-5.103-3.417-9.405-4.045 0 0-3.001-.898-.678-2.472 2.323-1.574 14.746-1.309 15.992.113 1.247 1.421-.037 3.92.584 5.41.62 1.49 3.734 7.205 3.941 7.701 0 0 8.364-7.93 12.166-9.768 3.802-1.838 12.338-4.797 18.004 4.376 5.666 9.172 5.182 22.836 3.076 31.546-2.107 8.71-5.412 13.45-10.373 16.549-4.962 3.099-7.747 7.955-8.829 9.747-1.082 1.792-1.332 6.774-5.842 11.263C744.538 636.054 735.439 637.07 728.185 634.262zM659.903 374.984c3.2.871 6.762 8.073 6.762 8.073 4.001-4.723-1.298-8.913 3.103-12.854 22.973-5.277 28.838-26.791 28.838-26.791 11.686 1.212 13.469 13.41 13.469 13.41 11.309 35.752-5.393 54.46-10.956 55.773-11.091 2.618-22.425-2.78-34.984-20.104-4.256.917-10.249-1.437-12.437-6.039C651.599 382.044 653.753 374.704 659.903 374.984z" class="colorffd8cf svgShape"></path><g fill="#000000" class="color000 svgShape"><path fill="#ffd8cf" d="M676.091,429.011c1.054-6.659,2.614-16.654,3.979-25.371l22.114-2.91c0,0-2.188,7.655-2.188,18.228
				C695.328,430.709,686.655,432.267,676.091,429.011z" class="colorffd8cf svgShape"></path></g><path fill="#ffd8cf" d="M668.351,579.71c0.97,1.107,2,2.161,3.106,3.136c1.385,1.22,2.889,2.309,4.51,3.195
			c1.762,0.964,3.652,1.672,5.588,2.199c1.985,0.541,4.014,0.899,6.051,1.178c2.141,0.294,4.294,0.524,6.449,0.69
			c2.185,0.168,4.377,0.258,6.568,0.23c1.06-0.013,2.12-0.054,3.177-0.127c0.949-0.065,1.912-0.138,2.823-0.43
			c1.712-0.55,2.801-1.967,3.711-3.439c0.908-1.469,1.944-3.081,1.974-4.855c0.468-0.573,0.917-1.197,1.076-1.911
			c0.101-0.452,0.034-1.122-0.331-1.411c0.167-0.164,0.333-0.331,0.495-0.5c0.284-0.297,0.574-0.63,0.672-1.04
			c0.081-0.341,0.01-0.74-0.245-0.993c-0.274-0.272-0.665-0.25-0.999-0.109c-0.514,0.216-0.979,0.59-1.445,0.891
			c-0.51,0.33-1.019,0.661-1.53,0.989c-0.918,0.587-1.871,1.163-2.924,1.474c-1.166,0.345-2.297,0.222-3.425-0.2
			c-1.043-0.39-2.031-0.927-3.125-1.172c-1.687-0.378-4.184-0.203-5.378-1.662c0.213-0.22,0.444-0.424,0.694-0.606
			c0.703-0.513,1.526-0.857,2.382-1.009c0.945-0.167,1.868-0.043,2.794,0.171c1.413,0.327,3.078,0.832,4.427,0.014
			c0.958-0.581,1.518-1.944,0.735-2.892c-1.006-1.218-2.89-0.837-4.267-0.895c-1.692-0.071-3.366-0.355-5.031-0.651
			c-3.284-0.584-6.653-1.226-9.955-0.394c-2.035,0.513-4.074,1.498-6.172,1.812c-3.269-2.515-6.502-5.078-9.692-7.692" class="colorffd8cf svgShape"></path></g></svg>