<svg id="SvgjsSvg1661" width="550" height="550" xmlns="http://www.w3.org/2000/svg" version="1.1" xmlns:xlink="http://www.w3.org/1999/xlink" xmlns:svgjs="http://svgjs.com/svgjs"><defs id="SvgjsDefs1662"></defs><g id="SvgjsG1663"><svg xmlns="http://www.w3.org/2000/svg" enable-background="new 0 0 2500 2500" viewBox="0 0 2500 2500" width="550" height="550"><path fill="#ffffff" d="M1968.49,1544.46H699.17c-12.46,0-22.56-10.1-22.56-22.56V471.38c0-12.46,10.1-22.56,22.56-22.56h1269.32
						c12.46,0,22.56,10.1,22.56,22.56V1521.9C1991.05,1534.36,1980.95,1544.46,1968.49,1544.46z" class="colorfff svgShape"></path><path fill="#030047" d="M1882,1548.09H785.65c-62.13,0-112.67-50.54-112.67-112.67V557.86c0-62.12,50.54-112.67,112.67-112.67
						H1882c62.13,0,112.67,50.54,112.67,112.67v877.55C1994.67,1497.54,1944.13,1548.09,1882,1548.09z M785.65,452.45
						c-58.13,0-105.42,47.29-105.42,105.42v877.55c0,58.13,47.29,105.42,105.42,105.42H1882c58.13,0,105.42-47.29,105.42-105.42
						V557.86c0-58.13-47.29-105.42-105.42-105.42H785.65z" class="color030047 svgShape"></path><path fill="#605efd" d="M1843.99,1344.33H796.28c-5.42,0-9.81-4.39-9.81-9.81V671.94c0-5.42,4.39-9.81,9.81-9.81h1047.71
						c5.42,0,9.81,4.39,9.81,9.81v662.58C1853.8,1339.93,1849.41,1344.33,1843.99,1344.33z" class="color605efd svgShape"></path><path fill="#e6f3fc" d="M1991.05,574.51v-16.65c0-60.22-48.82-109.05-109.05-109.05H785.65c-60.22,0-109.04,48.82-109.04,109.05
						v16.65H1991.05z" class="colore6f3fc svgShape"></path><path fill="#030047" d="M1991.05,578.14H676.6c-2,0-3.62-1.62-3.62-3.62v-16.65c0-62.12,50.54-112.67,112.67-112.67H1882
						c62.13,0,112.67,50.54,112.67,112.67v16.65C1994.67,576.52,1993.05,578.14,1991.05,578.14z M680.23,570.89h1307.2v-13.03
						c0-58.13-47.29-105.42-105.42-105.42H785.65c-58.13,0-105.42,47.29-105.42,105.42V570.89z" class="color030047 svgShape"></path><circle cx="778.41" cy="521.35" r="17.08" fill="#030047" class="color030047 svgShape"></circle><circle cx="829.13" cy="521.35" r="17.08" fill="#030047" class="color030047 svgShape"></circle><circle cx="879.84" cy="521.35" r="17.08" fill="#030047" class="color030047 svgShape"></circle><path fill="#ffffff" d="M1679.21,1220.84l-705.93-3.89c0,0,97.59-329.21,203.32-328.63c67.23,0.37,108.87,202.86,175.92,207.62
						c40.87,2.9,67.24-117.73,108.22-117.51C1544.46,978.88,1679.21,1220.84,1679.21,1220.84z" class="colorfff svgShape"></path><circle cx="1358.19" cy="903.32" r="57.34" fill="#ffffff" class="colorfff svgShape"></circle><path fill="#ffffff" d="M1109.03,1693.82c0,0,42.45-14.58,84.3-51.87c41.89-37.33-10.9-125.12-10.9-125.12
										s22.75,5.47,28.21-2.32c5.47-7.78,9.99-57.27-62.35-73.67c-72.34-16.37-116.01,77.81-116.01,77.81
										c-45.04,3.19-46.6,98.94-46.6,98.94" class="colorfff svgShape"></path><path fill="#030047" d="M1109.04,1697.45c-1.5,0-2.91-0.94-3.43-2.44c-0.65-1.89,0.36-3.96,2.25-4.61
										c0.42-0.15,42.3-14.83,83.07-51.15c39.16-34.9-11.08-119.7-11.59-120.55c-0.75-1.26-0.68-2.83,0.18-4.01
										c0.86-1.18,2.35-1.72,3.77-1.38c8.21,1.97,21.65,3.03,24.4-0.88c1.78-2.53,4.03-13.86-0.97-26.84
										c-5.35-13.89-19.97-32.31-59.22-41.21c-68.62-15.51-111.5,74.89-111.92,75.8c-0.55,1.2-1.72,2-3.03,2.09
										c-41.25,2.93-43.22,94.47-43.24,95.39c-0.03,2-1.67,3.52-3.68,3.56c-2-0.03-3.6-1.68-3.57-3.69
										c0.07-3.98,2.11-96.3,47.87-102.29c6.81-13.41,50.67-93.44,119.17-77.94c42.37,9.61,58.39,30.14,64.38,45.68
										c5.74,14.9,3.48,28.87,0.14,33.61c-4.54,6.47-16.15,6.26-24.24,5.2c11.7,21.87,43.47,89.81,6.37,122.87
										c-41.91,37.35-83.77,51.99-85.54,52.6C1109.82,1697.39,1109.43,1697.45,1109.04,1697.45z" class="color030047 svgShape"></path><path fill="#ffcc3d" d="M848.12,1897.82l123.69-292.55l198.67,73.24c0,0-121.33,357.35-125.57,357.69
									C1040.67,2036.52,848.12,1897.82,848.12,1897.82z" class="colorffcc3d svgShape"></path><path fill="#ffffff" d="M1130.41,1799.41c-0.37,0-0.74-0.06-1.11-0.17c-16.48-5.27-27.56-20.47-27.56-37.81
									c0-21.85,17.78-39.63,39.63-39.63c4.72,0,9.32,0.83,13.65,2.45c1.87,0.7,2.82,2.79,2.12,4.67c-0.7,1.88-2.79,2.82-4.67,2.12
									c-3.51-1.32-7.25-1.99-11.1-1.99c-17.86,0-32.38,14.52-32.38,32.38c0,14.18,9.05,26.6,22.51,30.91
									c1.91,0.61,2.96,2.65,2.35,4.55C1133.37,1798.43,1131.95,1799.41,1130.41,1799.41z" opacity=".4" class="colorfff svgShape"></path><path fill="#030047" d="M848.12 1901.44c-.47 0-.95-.09-1.41-.29-1.84-.78-2.71-2.9-1.93-4.75l123.69-292.55c.75-1.78 2.77-2.65 4.59-1.99l198.67 73.24c1.84.68 2.81 2.71 2.18 4.57-.39 1.14-39.1 115.14-73.16 213.3-.66 1.89-2.73 2.87-4.61 2.24-1.89-.66-2.89-2.72-2.24-4.62 30.78-88.7 65.36-190.34 72.01-209.91l-192.11-70.82-122.34 289.37C850.87 1900.61 849.53 1901.44 848.12 1901.44zM622.4 1398.46c0 0 14.81-67.87 102.42-52.65 87.61 15.22 90.08 117.22 35.78 147.66L622.4 1398.46z" class="color030047 svgShape"></path><polygon fill="#ffffff" points="859.09 1788.78 692.6 1830.34 622.43 1629.82 775.1 1629.82" class="colorfff svgShape"></polygon><path fill="#030047" d="M692.6,1833.97c-1.51,0-2.9-0.94-3.42-2.43L619,1631.02c-0.39-1.11-0.21-2.34,0.47-3.29
									c0.68-0.96,1.78-1.53,2.96-1.53H775.1c1.34,0,2.58,0.74,3.2,1.93l84,158.95c0.52,0.99,0.56,2.16,0.1,3.17
									c-0.45,1.02-1.35,1.77-2.43,2.04l-166.49,41.57C693.18,1833.93,692.89,1833.97,692.6,1833.97z M627.53,1633.45l67.39,192.57
									l158.8-39.64l-80.81-152.93H627.53z" class="color030047 svgShape"></path><path fill="#ffcc3d" d="M497.62,2158.48h497.49l-50.65-343.45c-4.1-27.78-30.28-46.71-57.94-41.85
									c-80.03,14.07-236.54,41.55-330.02,57.8c-43.14,7.5-73.84,46.06-71.51,89.79L497.62,2158.48z" class="colorffcc3d svgShape"></path><path fill="#ffcc3d" d="M1190.27,2158.48l-206.61-350.31c-16.66-28.25-49.07-43.23-81.38-37.63l-54.27,9.41l-55.9,9.82
									l149.75,368.71H1190.27z" class="colorffcc3d svgShape"></path><path fill="#030047" d="M941.86,2162.1c-1.43,0-2.79-0.85-3.36-2.26l-58.71-144.56c-0.75-1.85,0.14-3.97,1.99-4.72
									c1.86-0.74,3.97,0.14,4.72,2l58.71,144.56c0.75,1.85-0.14,3.97-1.99,4.72C942.77,2162.02,942.31,2162.1,941.86,2162.1z" class="color030047 svgShape"></path><path fill="#ffffff" d="M1087.45,2045.31c-24.62,0-44.66-20.03-44.66-44.66c0-19.12,12.17-36.12,30.29-42.29
									c1.9-0.63,3.95,0.37,4.6,2.26c0.65,1.9-0.37,3.96-2.26,4.6c-15.18,5.17-25.38,19.41-25.38,35.43
									c0,20.62,16.78,37.41,37.41,37.41c9.35,0,18.3-3.47,25.2-9.78c1.48-1.35,3.77-1.25,5.12,0.23c1.35,1.48,1.25,3.77-0.23,5.12
									C1109.29,2041.16,1098.61,2045.31,1087.45,2045.31z" opacity=".4" class="colorfff svgShape"></path><path fill="#030047" d="M1084.25,1982.35c-1.24,0-2.45-0.64-3.13-1.78l-100.59-170.56c-15.8-26.78-47-41.21-77.64-35.9
									l-54.27,9.41c-1.97,0.3-3.85-0.98-4.19-2.95c-0.34-1.97,0.98-3.85,2.95-4.19l54.27-9.41c33.59-5.82,67.8,9.99,85.12,39.36
									l100.59,170.56c1.02,1.72,0.44,3.95-1.28,4.97C1085.51,1982.19,1084.88,1982.35,1084.25,1982.35z" class="color030047 svgShape"></path><path fill="#ffffff" d="M653.38,1671.78c-8.45-5.35-16.33-11.78-23.39-19.37c-56.15-60.38-81.3-158.48-30.83-205.42
									c50.47-46.94,159.62-22.58,215.77,37.8c56.15,60.38,56.41,139.94,17.85,177.14c-19.37,18.68-56.03,31.4-94.87,31.89" class="colorfff svgShape"></path><path fill="#030047" d="M737.92,1697.45c-1.98,0-3.6-1.59-3.62-3.58c-0.03-2,1.58-3.64,3.58-3.67
									c37.18-0.48,73.45-12.6,92.4-30.88c36.15-34.88,37.55-112.34-17.99-172.06c-26.48-28.47-66.87-50.18-108.04-58.06
									c-42.5-8.12-79.9-0.67-102.61,20.44c-22.5,20.93-30.84,54.44-23.48,94.35c6.92,37.54,26.78,76.15,54.49,105.94
									c6.63,7.13,14.26,13.44,22.67,18.77c1.69,1.07,2.19,3.31,1.12,5c-1.07,1.69-3.31,2.2-5,1.12
									c-8.94-5.66-17.05-12.37-24.1-19.96c-28.62-30.78-49.14-70.71-56.31-109.56c-7.83-42.44,1.29-78.31,25.67-100.98
									c24.42-22.72,64.11-30.81,108.91-22.25c42.63,8.16,84.5,30.67,111.99,60.24c58.44,62.84,56.34,144.95,17.71,182.21
									c-20.21,19.49-58.41,32.41-97.34,32.91C737.96,1697.45,737.94,1697.45,737.92,1697.45z" class="color030047 svgShape"></path><path fill="#ffffff" d="M1243.85,1743.17l50.71-103.76c3.51-7.18,12.09-10.25,19.32-6.91l1.66,0.77
									c12.32,5.71,18.77,19.47,15.31,32.66l-22.85,85.13" class="colorfff svgShape"></path><path fill="#030047" d="M1307.99,1754.7c-0.31,0-0.63-0.04-0.94-0.12c-1.93-0.52-3.08-2.51-2.56-4.44l22.85-85.14
									c3.02-11.49-2.59-23.45-13.33-28.43l-1.66-0.77c-5.39-2.5-11.91-0.17-14.54,5.21l-50.71,103.76
									c-0.88,1.8-3.05,2.55-4.85,1.67c-1.8-0.88-2.54-3.05-1.66-4.85l50.71-103.76c4.34-8.89,15.15-12.75,24.1-8.6l1.66,0.77
									c13.93,6.45,21.2,21.96,17.29,36.86l-22.85,85.16C1311.06,1753.63,1309.59,1754.7,1307.99,1754.7z" class="color030047 svgShape"></path><path fill="#030047" d="M1508.61,1727.75h-416.94c-7.53,0-13.64-6.1-13.64-13.64V1306.6c0-7.53,6.1-13.64,13.64-13.64h416.94
									c7.53,0,13.64,6.1,13.64,13.64v407.51C1522.24,1721.64,1516.14,1727.75,1508.61,1727.75z" class="color030047 svgShape"></path><path fill="#030047" d="M1456.34,1731.37h-312.41c-38.34,0-69.52-31.19-69.52-69.52v-302.99c0-38.34,31.19-69.52,69.52-69.52
									h312.41c38.34,0,69.52,31.19,69.52,69.52v302.99C1525.87,1700.19,1494.68,1731.37,1456.34,1731.37z M1143.94,1296.59
									c-34.34,0-62.27,27.94-62.27,62.28v302.99c0,34.34,27.94,62.28,62.27,62.28h312.41c34.34,0,62.28-27.94,62.28-62.28v-302.99
									c0-34.34-27.94-62.28-62.28-62.28H1143.94z" class="color030047 svgShape"></path><path fill="#ffcc3d" d="M1321.78 1377.31l28.52 57.79c3.52 7.12 10.31 12.06 18.17 13.2l63.77 9.27c19.8 2.88 27.7 27.2 13.38 41.17l-46.15 44.98c-5.69 5.54-8.28 13.53-6.94 21.36l10.89 63.52c3.38 19.72-17.31 34.75-35.02 25.44l-57.04-29.99c-7.03-3.7-15.43-3.7-22.46 0l-57.04 29.99c-17.71 9.31-38.4-5.73-35.02-25.44l10.89-63.52c1.34-7.83-1.25-15.82-6.94-21.36l-46.15-44.98c-14.32-13.96-6.42-38.29 13.38-41.17l63.77-9.27c7.86-1.14 14.66-6.08 18.17-13.2l28.52-57.79C1287.35 1359.37 1312.93 1359.37 1321.78 1377.31zM2193.65 1046.22l5.28 35.76c.81 5.47 4.25 10.19 9.22 12.62l32.45 15.92c12.5 6.13 12.54 23.93.07 30.12l-32.37 16.07c-4.95 2.46-8.37 7.19-9.16 12.67l-5.11 35.78c-1.97 13.78-18.88 19.32-28.62 9.38l-25.29-25.82c-3.87-3.95-9.43-5.74-14.88-4.79l-35.61 6.2c-13.71 2.39-24.21-11.99-17.76-24.32l16.74-32.03c2.56-4.9 2.55-10.74-.04-15.63l-16.9-31.95c-6.51-12.3 3.92-26.73 17.64-24.41l35.64 6.02c5.45.92 11-.9 14.85-4.87l25.17-25.94C2174.67 1026.99 2191.61 1032.45 2193.65 1046.22z" class="colorffcc3d svgShape"></path><path fill="#605efd" d="M477.25,508.1l27.98,22.88c4.28,3.5,10.01,4.67,15.31,3.13l34.71-10.08
									c13.37-3.88,25.38,9.25,20.33,22.22l-13.11,33.68c-2,5.15-1.35,10.96,1.76,15.53l20.31,29.9c7.82,11.51-0.95,27-14.85,26.2
									l-36.09-2.06c-5.52-0.32-10.84,2.11-14.23,6.47l-22.16,28.56c-8.53,11-25.97,7.44-29.51-6.02l-9.19-34.96
									c-1.41-5.35-5.35-9.66-10.55-11.53l-34.01-12.25c-13.1-4.72-15.1-22.4-3.39-29.93l30.41-19.54c4.65-2.99,7.53-8.07,7.7-13.6
									l1.14-36.13C450.28,506.66,466.48,499.29,477.25,508.1z" class="color605efd svgShape"></path><path fill="#ffffff" d="M1307.99,1751.07l88.98-75.98l20.92-60.38c3.32-9.59,9.56-18.12,18.26-23.31
									c5.03-3,10.78-4.81,16.28-2.92c14.67,5.05,6.15,37.61,6.15,37.61s13.75-14.98,24.51-9.71c17.59,8.62,0.84,54.72,0.84,54.72
									s15.12-17.87,26.59-3.48c6.88,8.63-6.92,40.91-6.92,40.91l20.94-11.25c8.84-4.75,20.12-2.94,26.22,5.02
									c3.84,5,5.29,11.64-1.03,19.7c-15.18,19.33-160.41,159.91-160.41,159.91l-150.12-63.71l0.08-55.32
									c0.01-6.83,1.57-13.56,4.57-19.7" class="colorfff svgShape"></path><path fill="#030047" d="M1389.32,1885.53c-0.48,0-0.96-0.09-1.41-0.29l-150.12-63.71c-1.34-0.57-2.21-1.88-2.21-3.34
									l0.08-55.32c0.01-7.33,1.72-14.7,4.94-21.29c0.88-1.8,3.05-2.53,4.85-1.67c1.8,0.88,2.54,3.05,1.66,4.85
									c-2.74,5.61-4.19,11.87-4.2,18.11l-0.07,52.92l145.7,61.83c16.43-15.92,144.39-140.08,158.35-157.87
									c4.39-5.59,4.71-10.44,1.01-15.25c-4.85-6.32-14.15-8.05-21.63-4.04l-20.94,11.25c-1.36,0.74-3.03,0.52-4.16-0.51
									c-1.14-1.04-1.49-2.69-0.89-4.1c6.22-14.57,10.83-32.95,7.42-37.23c-2.24-2.81-4.65-4.2-7.36-4.24c-0.04,0-0.09,0-0.14,0
									c-5.6,0-11.63,5.62-13.49,7.8c-1.14,1.34-3.07,1.67-4.58,0.78c-1.52-0.88-2.18-2.72-1.59-4.37
									c4.05-11.17,12.93-44.37,0.98-50.23c-6.79-3.34-16.92,5.3-20.25,8.91c-1.13,1.22-2.94,1.53-4.4,0.72
									c-1.46-0.8-2.19-2.48-1.77-4.09c1.98-7.61,5.53-30.05-3.82-33.26c-3.74-1.29-8.19-0.42-13.24,2.61
									c-7.54,4.5-13.47,12.09-16.69,21.38l-20.92,60.38c-0.21,0.61-0.58,1.15-1.07,1.57l-88.98,75.99
									c-1.52,1.31-3.81,1.13-5.11-0.4c-1.3-1.52-1.12-3.81,0.4-5.11l88.23-75.35l20.6-59.44c3.78-10.9,10.82-19.86,19.83-25.24
									c6.97-4.16,13.47-5.25,19.32-3.23c11.89,4.09,11.92,20.55,10.45,31.69c5.67-3.82,13.46-7.14,20.63-3.62
									c14.51,7.11,10.27,32.57,6.18,47.84c2.83-1.51,6.09-2.63,9.54-2.57c4.96,0.07,9.31,2.42,12.94,6.97
									c5.66,7.1,1.07,24.22-2.84,35.35l12.31-6.61c10.58-5.69,23.82-3.11,30.81,6c5.7,7.43,5.33,16-1.06,24.14
									c-15.16,19.3-154.8,154.53-160.74,160.27C1391.15,1885.18,1390.24,1885.53,1389.32,1885.53z" class="color030047 svgShape"></path><path fill="#ffffff" d="M1459.26,1626.34l-10.74,61.35c-1.3,7.44-4.71,14.34-9.82,19.9l-16.42,17.85" class="colorfff svgShape"></path><path fill="#030047" d="M1422.27,1729.06c-0.88,0-1.76-0.32-2.45-0.96c-1.47-1.35-1.57-3.65-0.21-5.12l16.42-17.85
									c4.65-5.05,7.74-11.3,8.92-18.07l10.74-61.35c0.35-1.97,2.23-3.3,4.2-2.95c1.97,0.34,3.29,2.22,2.95,4.19l-10.74,61.35
									c-1.43,8.14-5.13,15.65-10.73,21.73l-16.42,17.85C1424.23,1728.67,1423.25,1729.06,1422.27,1729.06z" class="color030047 svgShape"></path><line x1="1483.93" x2="1452.94" y1="1671.1" y2="1746.04" fill="#fff"></line><path fill="#030047" d="M1452.94,1749.67c-0.46,0-0.93-0.09-1.38-0.27c-1.85-0.76-2.73-2.89-1.96-4.73l30.99-74.94
									c0.77-1.85,2.89-2.72,4.73-1.97c1.85,0.76,2.73,2.89,1.96,4.73l-30.99,74.94
									C1455.71,1748.82,1454.36,1749.67,1452.94,1749.67z" class="color030047 svgShape"></path><line x1="1503.6" x2="1484.78" y1="1708.54" y2="1753.86" fill="#fff"></line><path fill="#030047" d="M1484.78 1757.48c-.46 0-.93-.09-1.39-.28-1.85-.76-2.73-2.89-1.96-4.74l18.82-45.32c.77-1.85 2.89-2.72 4.74-1.95 1.85.76 2.73 2.89 1.96 4.74l-18.82 45.32C1487.55 1756.64 1486.2 1757.48 1484.78 1757.48zM645.66 1577.26c0 0 1.11-.68 21.27 8.78 0 0 15.63-34.14-21.8-53.47 0 0 87.5-113.14 8.12-148.1s-180.56 34.96-207.71 98.3c-27.15 63.34 5.35 212.65 5.35 212.65s-80.62 6.58-68.28 90.49c0 0-74.04 55.12-41.13 152.18 32.9 97.07 166.17 64.16 166.17 64.16s94.6 39 165.35-31.5 12.92-162.37 12.92-162.37l137.69-24.15c0 0 .76-27.12-54.36-33.7-55.12-6.58-90.9-20.57-104.47-53.88C651.19 1663.34 645.66 1577.26 645.66 1577.26z" class="color030047 svgShape"></path><path fill="#ffffff" d="M657.02,1579.47c0,0-66.16-15.58-84.05,6.69s40.68,97.61,72.54,88.35s47.09-33.56,47.09-33.56" class="colorfff svgShape"></path><path fill="#030047" d="M639.78,1678.92c-19.5,0-43.71-21.07-59.24-44.35c-14.52-21.76-18.4-40.71-10.39-50.68
										c19.1-23.77,84.91-8.6,87.71-7.95c1.95,0.46,3.16,2.41,2.7,4.36c-0.46,1.95-2.42,3.13-4.36,2.7
										c-17.79-4.19-66.91-11.36-80.39,5.43c-5.75,7.16-1.52,23.69,10.77,42.12c15.74,23.59,41.71,45.19,57.93,40.48
										c30.07-8.73,44.88-31.78,45.03-32.01c1.07-1.69,3.3-2.19,5-1.14c1.69,1.07,2.21,3.3,1.14,4.99
										c-0.65,1.04-16.33,25.59-49.15,35.12C644.35,1678.62,642.1,1678.92,639.78,1678.92z" class="color030047 svgShape"></path><path fill="#030047" d="M615.63,1636.19c-0.76,0-1.53-0.24-2.18-0.73c-6.97-5.27-12.57-12.26-16.18-20.21
									c-0.86-1.9-1.66-3.97-1.72-6.36c-0.08-3.16,1.28-6,3.62-7.6c2.18-1.48,4.67-1.55,6.33-1.6l24.98-0.69
									c1.95,0.11,3.67,1.52,3.72,3.53c0.06,2-1.52,3.67-3.52,3.72l-24.97,0.69c-0.76,0.02-2.03,0.06-2.45,0.34
									c-0.19,0.13-0.47,0.68-0.46,1.44c0.03,1.09,0.53,2.34,1.07,3.53c3.12,6.86,7.94,12.88,13.95,17.42
									c1.6,1.21,1.91,3.48,0.71,5.08C617.81,1635.69,616.73,1636.19,615.63,1636.19z" class="color030047 svgShape"></path><polygon fill="#ffcc3d" points="1357.68 2158.48 1408.73 1888.15 1221.12 1810.52 1132.53 2158.48" class="colorffcc3d svgShape"></polygon><path fill="#030047" d="M1141.51,2122.7c-0.3,0-0.6-0.04-0.91-0.11c-1.94-0.5-3.1-2.48-2.61-4.42l79.61-308.56
									c0.26-1.01,0.95-1.86,1.88-2.33c0.93-0.48,2.03-0.51,3-0.12l187.61,76.6c1.6,0.65,2.51,2.34,2.19,4.04l-33.1,172.94
									c-0.38,1.97-2.27,3.27-4.24,2.88c-1.97-0.37-3.26-2.27-2.88-4.24l32.54-170.02l-181.02-73.91l-78.58,304.54
									C1144.59,2121.62,1143.12,2122.7,1141.51,2122.7z" class="color030047 svgShape"></path><path fill="#ffffff" d="M733.85,1499.79c-0.26-11.23,6.97-21.77,18.33-26.74" class="colorfff svgShape"></path><path fill="#030047" d="M733.85 1503.41c-1.96 0-3.58-1.57-3.62-3.54-.29-12.74 7.75-24.57 20.5-30.14 1.84-.78 3.97.04 4.77 1.87.8 1.84-.04 3.97-1.87 4.78-10.04 4.39-16.38 13.55-16.16 23.33.05 2-1.54 3.66-3.54 3.71C733.91 1503.41 733.88 1503.41 733.85 1503.41zM771.05 1492.61c7.85 3.78 12.15 11.09 9.63 16.39-2.5 5.26-10.92 6.46-18.79 2.73-7.85-3.78-12.2-11.1-9.63-16.39C754.76 1490.07 763.18 1488.88 771.05 1492.61z" class="color030047 svgShape"></path><path fill="#ffffff" d="M778.34,1454.67c15.99,12.01,34.61,20.49,54.17,24.69c6.43,1.38,13.96,3.04,16.66,9.03
									c1.24,2.75,1.15,5.88,1.03,8.89c-0.35,9.27-6.48,30.34-6.83,39.61" class="colorfff svgShape"></path><path fill="#030047" d="M843.38 1540.52c-.05 0-.09 0-.14 0-2-.08-3.56-1.76-3.49-3.76.19-4.95 1.79-12.47 3.49-20.43 1.56-7.31 3.17-14.86 3.34-19.18.1-2.58.2-5.24-.72-7.26-1.97-4.38-8.43-5.76-14.12-6.98-20-4.29-39.22-13.05-55.58-25.33-1.6-1.2-1.92-3.47-.72-5.07 1.2-1.6 3.48-1.93 5.07-.72 15.53 11.66 33.77 19.97 52.75 24.04 6.64 1.42 15.73 3.37 19.21 11.09 1.61 3.58 1.47 7.43 1.35 10.52-.19 4.95-1.79 12.46-3.49 20.42-1.56 7.31-3.18 14.87-3.34 19.19C846.93 1538.98 845.32 1540.52 843.38 1540.52zM794.56 1602.03c-1.87 0-3.46-1.44-3.61-3.35-.15-2 1.34-3.74 3.33-3.89 6.3-.49 12.52-3.65 16.62-8.46 4.11-4.8 6.26-11.44 5.76-17.74-.16-2 1.33-3.74 3.32-3.9 1.99-.1 3.74 1.33 3.9 3.33.66 8.3-2.06 16.69-7.47 23.03-5.41 6.33-13.27 10.33-21.58 10.98C794.75 1602.03 794.65 1602.03 794.56 1602.03z" class="color030047 svgShape"></path><path fill="#ffffff" d="M926.26 1898.76c-12.89 0-23.37-10.48-23.37-23.37 0-12.88 10.48-23.37 23.37-23.37 12.88 0 23.37 10.48 23.37 23.37C949.63 1888.28 939.14 1898.76 926.26 1898.76zM926.26 1859.28c-8.89 0-16.12 7.23-16.12 16.12 0 8.89 7.23 16.12 16.12 16.12 8.89 0 16.12-7.23 16.12-16.12C942.38 1866.51 935.15 1859.28 926.26 1859.28zM815.5 2017.54c-11.7 0-21.22-9.52-21.22-21.22 0-11.7 9.52-21.22 21.22-21.22s21.22 9.52 21.22 21.22C836.72 2008.02 827.2 2017.54 815.5 2017.54zM815.5 1982.35c-7.7 0-13.97 6.27-13.97 13.97 0 7.7 6.27 13.97 13.97 13.97s13.97-6.27 13.97-13.97C829.47 1988.62 823.21 1982.35 815.5 1982.35zM723.38 2133.21c-24.17 0-43.83-19.66-43.83-43.83 0-24.16 19.66-43.83 43.83-43.83s43.83 19.66 43.83 43.83C767.21 2113.55 747.55 2133.21 723.38 2133.21zM723.38 2052.8c-20.17 0-36.58 16.41-36.58 36.58 0 20.17 16.41 36.58 36.58 36.58 20.17 0 36.58-16.41 36.58-36.58C759.96 2069.21 743.55 2052.8 723.38 2052.8zM784.36 1888.89c-15.61 0-28.3-12.7-28.3-28.3 0-15.61 12.7-28.3 28.3-28.3 15.61 0 28.3 12.7 28.3 28.3C812.66 1876.2 799.96 1888.89 784.36 1888.89zM784.36 1839.54c-11.61 0-21.05 9.44-21.05 21.05 0 11.61 9.44 21.05 21.05 21.05s21.05-9.44 21.05-21.05C805.41 1848.98 795.97 1839.54 784.36 1839.54zM961.62 2039.81c-12.99 0-23.56-10.57-23.56-23.56 0-12.99 10.57-23.56 23.56-23.56s23.56 10.57 23.56 23.56C985.17 2029.25 974.61 2039.81 961.62 2039.81zM961.62 1999.95c-8.99 0-16.31 7.32-16.31 16.31 0 9 7.32 16.31 16.31 16.31s16.31-7.32 16.31-16.31C977.93 2007.26 970.61 1999.95 961.62 1999.95zM1234.74 2082c-17.99 0-32.62-14.64-32.62-32.62 0-17.99 14.63-32.62 32.62-32.62 17.99 0 32.62 14.64 32.62 32.62C1267.36 2067.37 1252.73 2082 1234.74 2082zM1234.74 2024.01c-13.99 0-25.37 11.38-25.37 25.37 0 13.99 11.38 25.37 25.37 25.37 13.99 0 25.37-11.38 25.37-25.37C1260.11 2035.39 1248.73 2024.01 1234.74 2024.01zM1300.14 1940.72c-8.8 0-15.96-7.16-15.96-15.97 0-8.8 7.16-15.96 15.96-15.96 8.8 0 15.96 7.16 15.96 15.96C1316.1 1933.56 1308.94 1940.72 1300.14 1940.72zM1300.14 1916.04c-4.81 0-8.71 3.91-8.71 8.71s3.91 8.72 8.71 8.72c4.81 0 8.71-3.91 8.71-8.72S1304.95 1916.04 1300.14 1916.04zM1304.15 2157.48c-1.36 0-2.67-.77-3.28-2.09-2.89-6.16-4.36-12.72-4.36-19.52 0-25.13 20.44-45.57 45.57-45.57 10.07 0 19.62 3.21 27.62 9.29 1.59 1.21 1.9 3.48.69 5.08-1.21 1.6-3.49 1.91-5.08.69-6.72-5.11-14.75-7.81-23.23-7.81-21.13 0-38.32 17.19-38.32 38.32 0 5.72 1.23 11.25 3.67 16.44.85 1.81.07 3.97-1.74 4.82C1305.19 2157.37 1304.67 2157.48 1304.15 2157.48zM562.46 2112.75c-20.6 0-37.35-16.76-37.35-37.36s16.76-37.35 37.35-37.35c20.6 0 37.35 16.75 37.35 37.35S583.05 2112.75 562.46 2112.75zM562.46 2045.29c-16.6 0-30.1 13.5-30.1 30.1s13.5 30.11 30.1 30.11c16.6 0 30.1-13.51 30.1-30.11S579.06 2045.29 562.46 2045.29zM1023.25 1741.06c-14.77 0-26.79-12.02-26.79-26.78 0-14.77 12.02-26.79 26.79-26.79 14.77 0 26.79 12.02 26.79 26.79C1050.04 1729.05 1038.02 1741.06 1023.25 1741.06zM1023.25 1694.74c-10.77 0-19.54 8.76-19.54 19.54 0 10.77 8.76 19.53 19.54 19.53 10.77 0 19.54-8.76 19.54-19.53C1042.79 1703.5 1034.03 1694.74 1023.25 1694.74z" opacity=".4" class="colorfff svgShape"></path><path fill="#ffffff" d="M1032.3,1518.65c0,0,92.72-25.2,103.87,9.7s-60.6,42.18-60.6,42.18s18.59,35.14-16.48,39.27" class="colorfff svgShape"></path><path fill="#030047" d="M1059.09,1613.43c-1.81,0-3.38-1.35-3.6-3.2c-0.23-1.99,1.19-3.79,3.18-4.03
					c8.37-0.98,13.9-3.93,16.44-8.75c5.2-9.88-2.66-25.07-2.74-25.23c-0.56-1.07-0.56-2.34,0.01-3.4c0.57-1.06,1.63-1.77,2.82-1.89
					c0.44-0.05,44.06-4.68,55.79-22.58c2.93-4.47,3.49-9.34,1.72-14.88c-8.28-25.92-74.61-14.06-99.46-7.32
					c-1.93,0.51-3.92-0.61-4.45-2.55c-0.53-1.93,0.61-3.92,2.55-4.45c3.92-1.07,96.21-25.67,108.27,12.1
					c2.45,7.66,1.58,14.74-2.57,21.07c-11.15,17.01-43.71,23.34-56.21,25.18c2.44,6.36,5.59,17.98,0.69,27.29
					c-3.72,7.08-11.13,11.32-22.02,12.6C1059.37,1613.42,1059.23,1613.43,1059.09,1613.43z" class="color030047 svgShape"></path><rect width="32.9" height="96.51" x="1279.97" y="1466.78" fill="#ffffff" class="colorfff svgShape"></rect><rect width="32.9" height="96.51" x="1279.97" y="1466.78" fill="#ffffff" transform="rotate(-90 1296.42 1515.037)" class="colorfff svgShape"></rect><path fill="#605efd" d="M1850.47,1926.94l-29.41-68.81c-2.89-6.77-10.13-10.57-17.35-9.12l-74.9,15.09
					c-21.45,4.32-38.33-18.15-28.21-37.55l109.79-210.45c6.65-12.74,22.37-17.68,35.11-11.04l150.52,78.53
					c12.74,6.65,17.68,22.37,11.04,35.11l-109.59,210.05C1887.32,1948.22,1859.1,1947.13,1850.47,1926.94z" class="color605efd svgShape"></path><path fill="#030047" d="M1874.45,1946.36c-0.39,0-0.79,0-1.19-0.02c-11.57-0.45-21.57-7.33-26.12-17.98l0,0l-29.41-68.81
					c-2.21-5.16-7.8-8.1-13.3-6.99l-74.9,15.09c-11.31,2.27-22.63-2.04-29.56-11.26c-6.93-9.22-7.91-21.29-2.58-31.52l109.79-210.45
					c7.56-14.49,25.5-20.13,40-12.58l150.52,78.53c14.5,7.57,20.14,25.51,12.57,40l-109.58,210.05
					C1895.52,1940.34,1885.54,1946.36,1874.45,1946.36z M1853.8,1925.51c3.44,8.04,11,13.24,19.74,13.58
					c8.73,0.3,16.68-4.27,20.72-12.02l109.58-210.05c5.71-10.95,1.45-24.51-9.5-30.22l-150.52-78.53
					c-10.95-5.72-24.51-1.44-30.22,9.5l-109.79,210.45c-4.09,7.84-3.36,16.75,1.95,23.82c5.31,7.07,13.67,10.26,22.33,8.5
					l74.9-15.09c8.85-1.78,17.85,2.95,21.4,11.25L1853.8,1925.51z" class="color030047 svgShape"></path><circle cx="442.55" cy="1029.51" r="179.83" fill="#ffcc3d" class="colorffcc3d svgShape"></circle><path fill="#030047" d="M554.21,1174.13c-1.07,0-2.13-0.47-2.85-1.38c-1.24-1.57-0.97-3.85,0.6-5.09
				c25.75-20.35,45.26-47.52,56.41-78.57c15.92-44.29,13.63-92.13-6.44-134.7c-20.07-42.58-55.51-74.79-99.8-90.7
				c-91.44-32.85-192.55,14.81-225.41,106.24c-16.81,46.77-13.01,98.76,10.42,142.64c0.94,1.77,0.28,3.96-1.49,4.9
				c-1.77,0.95-3.96,0.28-4.9-1.49c-24.39-45.68-28.35-99.81-10.85-148.51c34.21-95.2,139.48-144.83,234.68-110.61
				c46.12,16.57,83.02,50.11,103.91,94.43c20.89,44.33,23.27,94.13,6.7,140.25c-11.61,32.32-31.93,60.61-58.74,81.81
				C555.79,1173.88,554.99,1174.13,554.21,1174.13z" class="color030047 svgShape"></path><path fill="#ffcc3d" d="M468.82,1198.22l65.55,28.27c10.61,4.58,22.55-2.79,23.22-14.33l4.13-71.27L468.82,1198.22z" class="colorffcc3d svgShape"></path><path fill="#030047" d="M540.95,1231.48c-2.72,0-5.46-0.55-8.03-1.66c-1.84-0.79-2.69-2.93-1.89-4.76c0.79-1.85,2.93-2.7,4.76-1.89
				c3.95,1.7,8.33,1.39,12-0.88c3.67-2.26,5.92-6.03,6.17-10.34l4.13-71.26c0.12-2,1.83-3.58,3.83-3.41c2,0.12,3.52,1.83,3.41,3.83
				l-4.13,71.27c-0.38,6.6-3.97,12.62-9.6,16.08C548.36,1230.47,544.66,1231.48,540.95,1231.48z" class="color030047 svgShape"></path><path fill="#ffffff" d="M526.68,995.08c15.03,67.23-68.6,134.58-68.6,134.58s-104.36-25.31-119.39-92.54
				c-7.35-32.86,13.31-65.48,46.17-72.83c12.85-2.87,25.71-1.45,36.98,3.31c8.17-9.1,19.15-15.86,32-18.73
				C486.7,941.52,519.33,962.22,526.68,995.08z" class="colorfff svgShape"></path><path fill="#030047" d="M2153.47 2159.87H359.44c-2 0-3.62-1.62-3.62-3.62 0-2 1.62-3.62 3.62-3.62h1794.03c2 0 3.62 1.62 3.62 3.62C2157.1 2158.24 2155.48 2159.87 2153.47 2159.87zM2137.13 1742.42c-.25 0-.5-.02-.76-.08-33.66-7.15-65.65-19.8-95.09-37.62-1.71-1.04-2.26-3.27-1.22-4.98 1.04-1.71 3.27-2.26 4.98-1.22 28.74 17.4 59.97 29.76 92.84 36.74 1.96.42 3.21 2.34 2.79 4.29C2140.31 1741.25 2138.81 1742.42 2137.13 1742.42z" class="color030047 svgShape"></path><g fill="#000000" class="color000 svgShape"><path fill="#030047" d="M2040.23,1666.78c-1.19,0-2.35-0.58-3.05-1.65c-1.09-1.68-0.61-3.93,1.07-5.01l106.27-68.87
				c1.68-1.1,3.92-0.62,5.01,1.07c1.09,1.68,0.61,3.93-1.07,5.01l-106.27,68.87C2041.59,1666.59,2040.9,1666.78,2040.23,1666.78z" class="color030047 svgShape"></path></g><g fill="#000000" class="color000 svgShape"><path fill="#030047" d="M2010.91,1654.83c-1.64,0-3.12-1.12-3.52-2.78l-16.63-69.58c-0.46-1.95,0.74-3.9,2.68-4.37
				c1.95-0.43,3.9,0.74,4.37,2.68l16.63,69.58c0.46,1.95-0.74,3.9-2.68,4.37C2011.47,1654.79,2011.19,1654.83,2010.91,1654.83z" class="color030047 svgShape"></path></g><g fill="#000000" class="color000 svgShape"><path fill="#ffcc3d" d="M313.16,1544.17l-19.97,12.57c-9.37,5.84-21.69,3.04-27.55-6.27l-12.57-19.97
			c-5.86-9.31-3.06-21.63,6.25-27.49l19.99-12.64c9.31-5.86,21.63-3.06,27.55,6.27l12.56,20.04
			C325.27,1526,322.47,1538.31,313.16,1544.17z" class="colorffcc3d svgShape"></path></g><g fill="#000000" class="color000 svgShape"><path fill="#ffcc3d" d="M2120.28,870.25l-19.97,12.57c-9.37,5.84-21.69,3.04-27.55-6.27l-12.57-19.97
			c-5.86-9.31-3.06-21.63,6.25-27.49l19.99-12.64c9.31-5.86,21.63-3.06,27.55,6.27l12.56,20.04
			C2132.39,852.07,2129.59,864.39,2120.28,870.25z" class="colorffcc3d svgShape"></path></g><g fill="#000000" class="color000 svgShape"><path fill="#ffcc3d" d="M323.04,765.34l-18.38,11.57c-8.63,5.38-19.97,2.8-25.36-5.77l-11.57-18.38c-5.39-8.57-2.81-19.91,5.75-25.3
			l18.4-11.63c8.57-5.39,19.91-2.81,25.36,5.77l11.56,18.44C334.19,748.61,331.61,759.94,323.04,765.34z" class="colorffcc3d svgShape"></path></g><g fill="#000000" class="color000 svgShape"><path fill="#ffcc3d" d="M1337.26,390.23l-18.38,11.57c-8.63,5.38-19.97,2.8-25.36-5.77l-11.57-18.38c-5.39-8.57-2.81-19.91,5.75-25.3
			l18.4-11.63c8.57-5.39,19.91-2.81,25.36,5.77l11.56,18.44C1348.41,373.49,1345.83,384.83,1337.26,390.23z" class="colorffcc3d svgShape"></path></g></svg></g></svg>