<svg xmlns="http://www.w3.org/2000/svg" width="107" height="55" viewBox="0 0 107 55" fill="none">
    <path d="M86.703 16.9087C88.0024 15.3293 87.9096 13.8429 86.3317 12.1706C85.5891 11.4273 84.7538 10.777 83.9184 10.2195C82.3404 9.29049 81.1338 9.3834 79.9271 10.777C78.7205 12.1706 77.6066 13.657 76.5856 15.1435C72.3159 20.8108 68.139 26.5709 63.8693 32.331C63.6837 32.6097 63.4052 32.9814 63.2196 33.2601C61.8273 35.3969 62.477 37.0692 64.7975 38.8344C65.5401 39.3918 66.2826 39.1131 66.9324 38.7415C68.4175 37.7195 69.8098 36.7905 71.1093 35.5827C75.0077 32.0523 78.1636 27.7787 81.4122 23.6908C83.2686 21.554 84.9394 19.2314 86.703 16.9087Z" fill="#FFD400"/>
    <path d="M105.824 41.5286C105.267 40.0421 104.339 38.7414 102.947 37.8124C102.297 37.3479 101.647 37.1621 101.09 37.4408C99.6052 38.2769 98.12 39.0202 96.7277 39.8563C92.458 42.5506 88.1883 45.2448 83.9186 47.9391C83.1761 48.4036 82.4335 49.0539 81.9694 49.3327C80.4843 50.9121 80.8556 53.1418 82.5263 54.4425C82.8976 54.7212 83.6402 54.907 84.0115 54.8141C85.4038 54.5354 86.8889 54.3496 88.0955 53.6992C90.7873 52.3985 93.2934 50.9121 95.7996 49.5185C98.3057 48.1249 100.719 46.8242 103.225 45.4306C103.968 44.9661 104.71 44.4087 105.36 43.8512C106.103 43.4796 106.195 42.5506 105.824 41.5286Z" fill="#FFD400"/>
    <path d="M60.5282 2.13686C58.9503 0.836185 57.1867 0.185847 55.2375 0.278752C54.2165 0.371658 53.4739 0.743279 53.1026 1.67233C49.8539 9.01186 45.9555 16.0727 44.1919 23.9696C43.8207 25.549 43.7278 27.2213 43.635 28.8936C43.5422 29.8227 44.0991 30.473 45.1201 30.9375C47.3478 31.6808 48.9257 31.3092 49.9467 29.544C50.1324 29.1723 50.318 28.8936 50.5965 28.3362C53.8452 21.1825 57.2795 13.9358 60.621 6.59632C60.9923 5.85308 61.0851 4.92402 61.2707 4.18078C61.5492 3.34463 61.1779 2.69429 60.5282 2.13686Z" fill="#FFD400"/>
    <path d="M33.1468 0.836232V0.650421C32.1258 0.464611 31.1047 0.0929889 30.1766 8.34884e-05C28.9699 -0.0928219 28.2273 0.2788 27.9489 1.30076C25.9069 7.71123 24.9787 14.4004 24.7002 21.2754C24.7002 21.9258 24.793 22.5761 24.793 23.3193C24.793 23.691 25.0715 23.9697 25.5356 24.1555C27.8561 24.8987 29.0627 24.4342 29.6196 22.4832C30.3622 19.8818 31.1047 17.2805 31.8473 14.6791C32.7755 11.2416 33.7037 7.80414 34.7247 4.45954C34.8175 4.27373 34.8175 4.08792 34.9104 3.80921C35.096 2.32272 34.7247 1.67238 33.1468 0.836232Z" fill="#FFD400"/>
    <path d="M8.6422 12.4493C8.27093 9.56923 7.80683 6.68916 7.43555 3.8091C7.43555 3.62328 7.34273 3.43747 7.34273 3.25166C7.06427 2.1368 6.50735 1.67227 4.65096 1.48646V1.39355C3.62994 1.48646 2.51611 1.48646 1.58791 1.67227C0.474077 1.95099 -0.0828406 2.41551 0.00997905 3.34457C0.474077 8.82599 2.23765 14.2145 4.46532 19.603C4.65096 20.1604 5.02224 20.625 5.3007 21.0895C5.57916 21.3682 5.85762 21.4611 6.41453 21.4611C8.82784 21.3682 9.75604 20.7179 9.5704 19.1385C9.29194 16.9088 9.01348 14.679 8.6422 12.4493Z" fill="#FFD400"/>
</svg>