<svg id="Layer_1" data-name="Layer 1" xmlns="http://www.w3.org/2000/svg" viewBox="0 0 476.422 456.051"><defs><style>.cls-1{fill:#7895a4}.cls-2{fill:#008c9b}.cls-3{fill:#335c64}.cls-5{fill:#de8f26}.cls-6{fill:#f2aa1e}</style></defs><path class="cls-1" d="M123.695 31.598h13.076V110.2h-13.076zM339.651 31.598h13.076V110.2h-13.076z"/><path class="cls-2" d="M161.79 118.646a38.42 38.42 0 0 0 37.682 31.6h401.057a38.421 38.421 0 0 0 37.683-31.6z" transform="translate(-161.79 -118.646)"/><path class="cls-3" d="M118.811 46.551h22.481v74.958h-22.481zM335.13 46.551h22.48v74.958h-22.48z"/><path class="cls-2" d="M608.594 546.44h-57.612a78.144 78.144 0 0 0 6.049-17.44c2.14-8.907 8.494-15.481 18.377-19.011a46.571 46.571 0 0 1 14.183-2.637h47.26c-.008-.107-.011-.215-.019-.321C632.5 326.393 528.135 181.843 400 181.843s-232.5 144.55-236.831 325.183c-.007.106-.011.214-.018.321h47.259a46.571 46.571 0 0 1 14.183 2.637c9.883 3.53 16.237 10.1 18.377 19.011a78.194 78.194 0 0 0 6.049 17.445h-57.612a28.339 28.339 0 0 0-28.256 28.26h473.7a28.34 28.34 0 0 0-28.257-28.26z" transform="translate(-161.79 -118.646)"/><circle cx="400.001" cy="371.485" r="152.321" transform="rotate(-45 175.888 507.46)" fill="#fff"/><path class="cls-1" d="M275.07 440.356l-.585-1.072 8.65-4.727.586 1.073zM272.085 434.665l-.536-1.1 8.861-4.332.536 1.1zM269.382 428.882l-.487-1.12 9.045-3.937.488 1.121zM266.948 423.006l-.437-1.143 9.217-3.528.437 1.143zM264.78 417l-.385-1.159 9.361-3.109.386 1.161zM262.871 410.861l-.331-1.177 9.493-2.673.331 1.178zM261.238 404.68l-.279-1.191 9.612-2.252.279 1.192zM259.9 398.439l-.226-1.2 9.7-1.817.225 1.2zM258.848 392.145l-.17-1.211 9.77-1.369.169 1.21zM258.067 385.779l-.116-1.218 9.823-.935.115 1.217zM257.582 379.442l-.061-1.22 9.848-.5.062 1.221zM257.379 373.126l-.02-1.222 9.862-.158.02 1.222zM257.437 366.661l.046-1.222 9.862.369-.046 1.222zM257.79 360.3l.1-1.218 9.835.8-.1 1.219zM258.436 353.917l.155-1.213 9.783 1.251-.155 1.213zM259.361 347.577l.209-1.2 9.716 1.686-.209 1.2zM260.554 341.323l.263-1.195 9.638 2.12-.263 1.194zM262.039 335.111l.316-1.181 9.533 2.554-.316 1.181zM263.813 328.965l.369-1.165 9.4 2.976-.369 1.165zM265.856 322.9l.42-1.147 9.257 3.4-.421 1.147zM268.164 316.934l.474-1.127 9.1 3.818-.473 1.128zM270.748 311.078l.524-1.1 8.914 4.226-.524 1.105zM273.58 305.367l.572-1.08 8.716 4.621-.572 1.081zM276.676 299.762l.62-1.054 8.5 5-.62 1.054zM280.024 294.3l.667-1.025 8.269 5.384-.668 1.025zM283.6 289.026l.711-.994 8.019 5.741-.711.994zM287.4 283.909l.756-.962 7.754 6.1-.755.961zM291.442 278.95l.8-.927 7.478 6.438-.8.927zM295.691 274.18l.839-.891 7.189 6.768-.839.89zM300.176 269.6l.877-.851 6.873 7.071-.877.851zM304.813 265.247l.914-.813 6.557 7.374-.914.813zM309.674 261.083l.95-.77 6.214 7.663-.949.77zM314.705 257.147l.983-.728 5.872 7.926-.983.728zM319.9 253.435l1.015-.684 5.517 8.189-1.015.684zM325.271 249.963l1.044-.636 5.135 8.427-1.044.636zM330.8 246.737l1.071-.588 4.753 8.637-1.071.589zM336.434 243.763l1.1-.54 4.358 8.848-1.1.54zM342.229 241.033l1.12-.492 3.963 9.033-1.12.491zM348.135 238.575l1.141-.438 3.542 9.2-1.141.439zM354.125 236.379l1.16-.389 3.134 9.362-1.161.388zM360.255 234.455l1.176-.335 2.7 9.494-1.177.334zM366.4 232.827l1.189-.283 2.278 9.6-1.189.282zM372.664 231.464l1.2-.229 1.844 9.691-1.2.228zM378.953 230.386l1.211-.173 1.4 9.77-1.211.172zM385.314 229.589l1.217-.119.961 9.822-1.217.119zM391.673 229.086l1.221-.065.526 9.849-1.22.065zM397.984 228.865l1.223-.019.158 9.862-1.222.019zM404.426 228.91l1.222.042-.343 9.862-1.222-.043zM410.792 229.247l1.219.1-.776 9.835-1.22-.1zM417.18 229.863l1.214.152-1.224 9.8-1.214-.152zM423.5 230.767l1.206.206-1.66 9.73-1.205-.206zM429.784 231.963l1.194.26-2.094 9.638-1.194-.26zM436 233.432l1.18.314-2.528 9.532-1.18-.313zM442.154 235.177l1.167.366-2.949 9.414-1.167-.365zM448.2 237.2l1.148.418-3.37 9.269-1.149-.417zM454.2 239.5l1.13.47-3.792 9.111-1.13-.47zM460.039 242.061l1.106.52-4.2 8.927-1.107-.521zM465.782 244.888l1.082.57-4.595 8.729-1.083-.57zM471.373 247.957l1.056.617-4.976 8.519-1.056-.617zM476.841 251.292l1.025.664-5.358 8.282-1.027-.665zM482.141 254.856l1 .71-5.727 8.032-1-.71zM487.276 258.66l.962.753-6.069 7.768-.963-.752zM492.225 262.669l.928.8-6.413 7.491-.928-.8zM497.022 266.924l.892.836-6.741 7.2-.892-.835zM501.592 271.351l.855.874-7.057 6.9-.854-.875zM505.993 276.026l.814.912-7.36 6.569-.814-.912zM510.141 280.842l.774.946-7.637 6.241-.773-.946zM514.1 285.877l.73.981-7.914 5.885-.728-.98zM517.827 291.078l.686 1.012-8.163 5.53-.686-1.012zM521.326 296.43l.64 1.043-8.414 5.162-.639-1.043zM524.552 301.924l.593 1.069-8.624 4.779-.593-1.068zM527.553 307.576l.544 1.095-8.835 4.385-.543-1.095zM530.287 313.341l.493 1.118-9.018 3.989-.494-1.117zM532.77 319.262l.441 1.139-9.19 3.568-.442-1.139zM534.978 325.244l.392 1.159-9.348 3.16-.391-1.159zM536.911 331.343l.337 1.175-9.48 2.725-.338-1.175zM538.574 337.51l.286 1.19-9.6 2.3-.285-1.19zM539.951 343.765l.232 1.2-9.691 1.87-.231-1.2zM541.035 350.035l.178 1.209-9.757 1.435-.178-1.209zM541.857 356.405l.124 1.217-9.823.988-.122-1.218zM542.377 362.759l.069 1.221-9.848.552-.069-1.22zM542.617 369.092l.019 1.222-9.862.158-.019-1.222zM542.586 375.509l-.039 1.222-9.862-.316.04-1.222zM542.264 381.906l-.092 1.219-9.836-.751.093-1.219zM541.666 388.271l-.148 1.214-9.8-1.2.148-1.214zM540.777 394.6l-.2 1.206-9.729-1.633.2-1.206zM539.615 400.862l-.256 1.2-9.651-2.067.256-1.2zM538.155 407.11l-.309 1.183-9.546-2.5.31-1.183zM536.435 413.245l-.362 1.169-9.427-2.924.361-1.167zM534.421 419.319l-.415 1.15-9.282-3.343.414-1.152zM532.142 425.3l-.468 1.131-9.123-3.766.466-1.131zM529.6 431.152l-.517 1.108-8.94-4.174.517-1.108zM526.783 436.9l-.566 1.084-8.742-4.57.566-1.083zM523.729 442.5l-.613 1.057-8.532-4.95.613-1.058zM520.41 447.98l-.661 1.028-8.3-5.333.661-1.028zM516.871 453.292l-.706 1-8.058-5.7.706-1zM513.08 458.45l-.751.966-7.794-6.056.75-.966zM509.066 463.429l-.793.932-7.518-6.4.794-.931zM504.846 468.2l-.835.894-7.215-6.727.834-.895zM500.4 472.816l-.873.857-6.913-7.044.874-.857zM495.784 477.182l-.909.818-6.6-7.335.909-.818zM490.925 481.387l-.945.775-6.254-7.623.946-.775zM485.933 485.345l-.979.734-5.911-7.9.979-.733zM480.743 489.085l-1.011.689-5.556-8.15 1.01-.689zM475.4 492.584l-1.039.643-5.187-8.387 1.039-.644zM469.916 495.837l-1.067.6-4.806-8.612 1.067-.6zM464.25 498.863l-1.093.547-4.411-8.821 1.093-.547zM458.492 501.624l-1.118.5-4.015-9.019 1.118-.5zM452.6 504.112l-1.138.445-3.595-9.19 1.139-.446zM446.606 506.336l-1.157.394-3.187-9.335 1.157-.395zM440.538 508.271l-1.173.341-2.752-9.466 1.174-.342zM434.378 509.951l-1.188.289-2.33-9.586 1.188-.288zM428.129 511.346l-1.2.236-1.9-9.678 1.2-.235zM421.839 512.462l-1.209.182-1.461-9.757 1.209-.181zM415.474 513.291l-1.215.125-1.014-9.809 1.216-.126zM409.123 513.836l-1.22.073-.58-9.849 1.221-.072zM402.768 514.1l-1.223.019-.158-9.861 1.222-.019zM396.376 514.08l-1.222-.036.29-9.861 1.222.035zM389.976 513.772l-1.22-.089.725-9.835 1.219.089zM383.619 513.191l-1.214-.144 1.159-9.8 1.214.144zM377.275 512.319l-1.206-.2 1.607-9.73 1.206.2zM371 511.173l-1.2-.252 2.041-9.652 1.2.253zM364.751 509.73l-1.183-.307 2.475-9.546 1.183.307zM358.609 508.021l-1.168-.358 2.9-9.428 1.168.359zM352.527 506.024l-1.15-.412 3.318-9.283 1.151.412zM346.56 503.766l-1.131-.463 3.739-9.124 1.131.463zM340.68 501.241l-1.11-.514 4.148-8.953 1.11.514zM334.942 498.455l-1.084-.564 4.542-8.755 1.085.563zM329.3 495.4l-1.059-.612 4.938-8.544 1.059.611zM323.828 492.092l-1.03-.657 5.306-8.308 1.03.657zM318.506 488.567l-1-.7 5.675-8.071 1 .7zM313.357 484.8l-.967-.748 6.03-7.807.968.748zM308.369 480.8l-.934-.79 6.373-7.532.934.791zM303.566 476.591l-.9-.831 6.7-7.241.9.83zM298.957 472.17l-.86-.869 7.018-6.939.86.87zM294.551 467.535l-.819-.907 7.32-6.61.82.908zM290.35 462.722l-.778-.943 7.61-6.281.778.944zM286.363 457.72l-.736-.978 7.887-5.937.736.977zM282.625 452.56l-.692-1.009 8.137-5.583.692 1.009zM279.112 447.229l-.646-1.039 8.374-5.214.646 1.039z" transform="translate(-161.79 -118.646)"/><path class="cls-5" d="M224.267 286.892l13.944-34.671 13.944 34.671h-27.888z"/><path class="cls-5" d="M236.135 123.255l-4.896 131.128h6.972V123.255h-2.076z"/><path class="cls-6" d="M240.287 123.505h-2.076v131.128h6.972l-4.896-131.128z"/><circle class="cls-5" cx="238.211" cy="254.347" r="14.875"/><circle class="cls-6" cx="238.211" cy="254.347" r="10.944"/></svg>