<svg id="SvgjsSvg1462" width="550" height="550" xmlns="http://www.w3.org/2000/svg" version="1.1" xmlns:xlink="http://www.w3.org/1999/xlink" xmlns:svgjs="http://svgjs.com/svgjs"><defs id="SvgjsDefs1463"></defs><g id="SvgjsG1464"><svg xmlns="http://www.w3.org/2000/svg" enable-background="new 0 0 500 500" viewBox="0 0 500 500" width="550" height="550"><path fill="none" stroke="#89B2F9" stroke-miterlimit="10" stroke-width=".867" d="M426.38,133.35h-89.23				c-1.63,0-2.95-1.32-2.95-2.95v-30.05c0-1.63,1.32-2.95,2.95-2.95h89.23c1.63,0,2.95,1.32,2.95,2.95v30.05
				C429.33,132.03,428,133.35,426.38,133.35z" class="colorStroke89B2F9 svgStroke"></path><rect width="43.69" height="3.66" x="376.15" y="108.3" fill="none" stroke="#89B2F9" stroke-miterlimit="10" stroke-width=".867" class="colorStroke89B2F9 svgStroke"></rect><rect width="43.69" height="3.66" x="376.15" y="118.79" fill="none" stroke="#89B2F9" stroke-miterlimit="10" stroke-width=".867" class="colorStroke89B2F9 svgStroke"></rect><rect width="16.04" height="16.04" x="344.81" y="107.35" fill="none" stroke="#89B2F9" stroke-miterlimit="10" stroke-width=".867" class="colorStroke89B2F9 svgStroke"></rect><g fill="#000000" class="color000 svgShape"><path fill="#89b2f9" d="M73.14,103.46v158.6c0,6.73,5.45,12.2,12.18,12.2h211.2c6.73,0,12.18-5.47,12.18-12.2v-158.6
				c0-6.73-5.45-12.18-12.18-12.18H85.33C78.6,91.27,73.14,96.72,73.14,103.46z" class="color89B2F9 svgShape"></path><path fill="#163687" d="M73.14,103.46v26.72h235.57v-26.72c0-6.73-5.45-12.18-12.18-12.18H85.33
				C78.6,91.27,73.14,96.72,73.14,103.46z" class="color163687 svgShape"></path><path fill="#d0e0f4" d="M77.02,97.02v163.72c0,5.33,4.32,9.64,9.64,9.64h216.3c5.32,0,9.63-4.31,9.63-9.62V97.02
				c0-5.32-4.31-9.62-9.62-9.62H86.65C81.33,87.39,77.02,91.7,77.02,97.02z" class="colorD0E0F4 svgShape"></path><path fill="none" stroke="#D0E0F4" stroke-linecap="round" stroke-miterlimit="10" stroke-width="5.821" d="M244.76 84.93c0 11.27 9.13 20.4 20.4 20.4M116.56 84.93c0 11.27 9.13 20.4 20.4 20.4M182.31 84.93c0 11.27 9.13 20.4 20.4 20.4" class="colorStrokeD0E0F4 svgStroke"></path><path fill="#dd4e6a" d="M77.02,97.02v29.28h235.57V97.02c0-5.32-4.31-9.62-9.62-9.62H86.65C81.33,87.39,77.02,91.7,77.02,97.02z" class="colorDD4E6A svgShape"></path><circle cx="135.74" cy="104.07" r="9.03" fill="#163687" class="color163687 svgShape"></circle><circle cx="200.39" cy="104.07" r="9.03" fill="#163687" class="color163687 svgShape"></circle><circle cx="263.66" cy="104.07" r="9.03" fill="#163687" class="color163687 svgShape"></circle><rect width="36.9" height="36.9" x="237.35" y="148.75" fill="#fbfcfe" transform="rotate(180 255.801 167.205)" class="colorFBFCFE svgShape"></rect><rect width="36.9" height="36.9" x="176.36" y="148.75" fill="#fbfcfe" transform="rotate(180 194.808 167.205)" class="colorFBFCFE svgShape"></rect><rect width="36.9" height="36.9" x="115.36" y="148.75" fill="#fbfcfe" transform="rotate(180 133.816 167.205)" class="colorFBFCFE svgShape"></rect><rect width="36.9" height="36.9" x="237.35" y="204.44" fill="#fbfcfe" transform="rotate(180 255.801 222.893)" class="colorFBFCFE svgShape"></rect><rect width="36.9" height="36.9" x="176.36" y="204.44" fill="#fbfcfe" transform="rotate(180 194.808 222.893)" class="colorFBFCFE svgShape"></rect><rect width="36.9" height="36.9" x="115.36" y="204.44" fill="#fbfcfe" transform="rotate(180 133.816 222.893)" class="colorFBFCFE svgShape"></rect><path fill="none" stroke="#D0E0F4" stroke-linecap="round" stroke-miterlimit="10" stroke-width="5.821" d="M265.16 103.39c11.27 0 20.4-9.13 20.4-20.4s-9.13-20.4-20.4-20.4c-11.27 0-20.4 9.13-20.4 20.4M202.7 103.39c11.27 0 20.4-9.13 20.4-20.4s-9.13-20.4-20.4-20.4c-11.27 0-20.4 9.13-20.4 20.4M136.96 103.39c11.27 0 20.4-9.13 20.4-20.4s-9.13-20.4-20.4-20.4-20.4 9.13-20.4 20.4" class="colorStrokeD0E0F4 svgStroke"></path><g fill="#000000" class="color000 svgShape"><circle cx="73.24" cy="160.73" r="9.27" fill="#eda93b" class="colorEDA93B svgShape"></circle><path fill="#eda93b" d="M125.38,227.72l-7.87-9.45c-2.41-2.89-3.93-6.41-4.39-10.14l-2.33-18.78
					c-2.29-18.49-19.14-31.62-37.63-29.33l0,0c-18.49,2.29-31.62,19.14-29.33,37.63l2.33,18.78c0.46,3.73-0.16,7.51-1.78,10.9
					l-5.32,11.08L125.38,227.72z" class="colorEDA93B svgShape"></path><ellipse cx="82.21" cy="233.07" fill="#eda93b" rx="43.52" ry="9.9" transform="rotate(-7.068 82.207 233.104)" class="colorEDA93B svgShape"></ellipse><path fill="#4b6fdd" d="M121.75,228.18c0.49,3.95-16.81,9.35-38.65,12.07c-21.84,2.7-39.94,1.69-40.43-2.27
					c-0.41-3.31,11.66-7.64,28.43-10.55c3.25-0.56,6.68-1.08,10.22-1.52c3.86-0.48,7.62-0.84,11.17-1.09
					C109.01,223.66,121.35,224.91,121.75,228.18z" class="color4B6FDD svgShape"></path><path fill="#163687" d="M92.49,224.82v0.11c0,5.99-4.85,10.84-10.84,10.84c-5.13,0-9.42-3.56-10.55-8.34
					c3.25-0.56,6.68-1.08,10.22-1.52C85.19,225.43,88.94,225.07,92.49,224.82z" class="color163687 svgShape"></path><g fill="#000000" class="color000 svgShape"><circle cx="105.84" cy="183.78" r="14.92" fill="#dd4e6a" class="colorDD4E6A svgShape"></circle></g><g fill="#000000" class="color000 svgShape"><path fill="#ffffff" d="M104.95,179.43h-1.8v-2.88h5.02v13.23h-3.23V179.43z" class="colorFFF svgShape"></path></g></g><g fill="#000000" class="color000 svgShape"><polygon fill="#4b6fdd" points="407.01 189 405.24 195.64 399.57 226.19 403.85 224.47" class="color4B6FDD svgShape"></polygon><circle cx="398.74" cy="219.44" r="14.78" fill="#4b6fdd" class="color4B6FDD svgShape"></circle><path fill="#4b6fdd" d="M408.24,182.08c0,0-3.4,28.91,0.97,39.28c4.38,10.37,13.05,19.06,5.68,32.83
					c-7.37,13.77-40.25-1.01-40.84-1.34c-0.59-0.33,5.06-39.03,6.21-40.55C381.42,210.77,408.24,182.08,408.24,182.08z" class="color4B6FDD svgShape"></path><path fill="#163687" d="M356.77,161.54c0,0-20.5,50.07,4.54,76.78c18.91,20.18,27.72-69.89,27.72-69.89L356.77,161.54z" class="color163687 svgShape"></path><path fill="#163687" d="M410.95,173.72c0,0-1.76,17.89,4.79,25.96c6.55,8.06,11.59,12.1,9.32,22.93
					c-2.27,10.84,6.05,11.84,13.1,21.17c6.59,8.71-0.25,50.15-33.52,22.43s-22.18-65.78-22.18-65.78L410.95,173.72z" class="color163687 svgShape"></path><path fill="#f2b1af" d="M387.92,228.2c0,0,1.7,19.69,2.77,22.77c1.07,3.08-24.52-1.26-29.79-3.36c-5.27-2.1-6.79-6.53-6.79-6.53
					s9.44-23.17,8.04-31.53C360.75,201.19,387.92,228.2,387.92,228.2z" class="colorF2B1AF svgShape"></path><polygon fill="#f2b1af" points="397.26 237.98 387.56 234.08 358.58 229.54 350.69 228.93 346.48 258.14 371.93 269.86 399.91 261.55 398.52 247.05" class="colorF2B1AF svgShape"></polygon><path fill="#f2b1af" d="M382.17,231.51c-11.16-0.55-18.25-13.74-20.37-25.56s0.92-52.36,25.36-49.34s21.59,29.43,19.74,41.27
							C405.04,209.72,397.28,232.26,382.17,231.51z" class="colorF2B1AF svgShape"></path><path fill="none" stroke="#163687" stroke-linecap="round" stroke-linejoin="round" stroke-miterlimit="10" stroke-width=".47" d="
							M387.23,230.85c-1.59,0.51-3.27,0.75-5.07,0.66c-5.53-0.27-10.57-3.89-14.51-8.91" class="colorStroke163687 svgStroke"></path><path fill="#163687" d="M365.23,195.89c1.7-2.06,2.31-9.74,10.84-10.36c15.51-1.14,17.68-9.92,17.68-9.92
							s9.76,0.58,14.09,15.65c0,0,12.09-32.42-11.64-34.04c0,0-7.91-7.11-21.82-6.34c-25.24,1.39-23.25,34.6-15.69,43.2
							C359.93,195.48,365.23,195.89,365.23,195.89z" class="color163687 svgShape"></path><path fill="#f2b1af" d="M363.46,195.72c0,0-7.16-3.41-8.36,2.92c-1.2,6.33,8.13,13.12,8.13,13.12L363.46,195.72z" class="colorF2B1AF svgShape"></path><path fill="#163687" d="M360.81,199.06c0,0-4.51-0.03-0.6,5.72L360.81,199.06z" class="color163687 svgShape"></path><ellipse cx="397.22" cy="201.83" fill="#163687" rx="2.73" ry="1.71" transform="rotate(-73.87 397.226 201.836)" class="color163687 svgShape"></ellipse><ellipse cx="379.5" cy="197.91" fill="#163687" rx="2.73" ry="1.71" transform="rotate(-73.87 379.507 197.923)" class="color163687 svgShape"></ellipse><path fill="#ffffff" d="M382.54,217.27l6.52,1.2c0,0-0.96,2.05-4.12,1.61C382.38,219.71,382.54,217.27,382.54,217.27z" class="colorFFF svgShape"></path><path fill="none" stroke="#163687" stroke-linecap="round" stroke-linejoin="round" stroke-miterlimit="10" stroke-width=".742" d="
									M389.3,207.8l0.2,2.69c0.09,1.18-0.93,2.14-2.1,1.98l-0.55-0.07" class="colorStroke163687 svgStroke"></path><path fill="#163687" d="M383.58 192.07c0 0-5.01-2.24-9 .31L383.58 192.07zM395.51 193.98c0 0 4.22-1.1 7.92 2.46L395.51 193.98z" class="color163687 svgShape"></path><path fill="#dd4e6a" d="M397.26,237.98c0,0,12.66,4.99,20.92,11.34c0,0-3.13,12.84-6.09,28.09s-1.06,23.5-3.81,34.51
				c-2.75,11.01-8.47,18.84-11.01,32.61c-2.54,13.76-1.27,20.33-3.6,22.23c-2.33,1.91-42.77-6.14-51.03-13.34
				c-8.26-7.2-16.09-22.44-24.77-22.87c0,0,3.39-30.7,3.39-44.04c0-13.34-1.06-22.65,0.64-31.33c1.69-8.68,5.14-26.14,5.14-26.14
				s17.94-0.54,23.66-0.11c0,0,1.68,17.47,21.37,20.65C391.75,252.75,397.26,237.98,397.26,237.98z" class="colorDD4E6A svgShape"></path><path fill="#d0e0f4" d="M294.83,405.51c0,0,1.26,10.11,1.14,11.12c-0.77,6.13-20.72,10.36-19.33,15.41
				c1.9,6.92,12.51,5.81,24,4.04c11.5-1.77,21.22-0.51,23.37-8.34s-6.64-16.73-6.38-24.94c0.25-8.21-23.43-5-23.43-5L294.83,405.51z
				" class="colorD0E0F4 svgShape"></path><path fill="#f2b1af" d="M317.72,403.53c-15.17-7.48-22.89,1.98-22.89,1.98s-12.23-28.03-13.95-36.24
				c3.55-3.11,14.48-10.32,33.6-3.36C314.47,365.91,314.78,391.14,317.72,403.53z" class="colorF2B1AF svgShape"></path><path fill="#4b6fdd" d="M396,424.14c-24.99,1.89-50.82-12.92-50.82-12.92c-11,3.39-26.88-2.71-26.88-2.71
				c-0.05-0.02-0.52-4.97-0.57-4.99c-2.95-12.39-3.25-37.61-3.25-37.61c-19.12-6.96-30.04,0.25-33.6,3.36
				c-3.25-14.5-6.32-29.88-7.46-40.2c-2.77-24.97,6.14-41.29,22.44-45.09c16.3-3.82,21.17,12.07,29.22,32.81
				c8.03,20.76,27.99,41.2,27.99,41.2c9.21,2.64,40.59,8.76,40.59,8.76l0.37,1.71c0,0,40.27-11.23,51.71,10.78
				C457.18,401.28,420.97,422.23,396,424.14z" class="color4B6FDD svgShape"></path><path fill="#4b6fdd" d="M280.07,366.13c0,0,13.23-13.1,34.27-3.15l-0.13,4.79c0,0-9.48-4.96-17.89-3.53
				c-10.71,1.83-14.99,7.31-14.99,7.31S279.07,369.41,280.07,366.13z" class="color4B6FDD svgShape"></path><path fill="#163687" d="M280.07,366.13c0,0,13.23-13.1,34.27-3.15l-0.13,4.79c0,0-9.48-4.96-17.89-3.53
				c-10.71,1.83-14.99,7.31-14.99,7.31S279.07,369.41,280.07,366.13z" class="color163687 svgShape"></path><path fill="#d0e0f4" d="M328.24,404.45l-14.19,0.85l-4.45,21.49c0,0,17.47,1.27,23.08,0.74
				C338.3,426.99,328.24,404.45,328.24,404.45z" class="colorD0E0F4 svgShape"></path><path fill="none" stroke="#D0E0F4" stroke-miterlimit="10" stroke-width=".601" d="M314.35,362.98
				c0-20.75,0.98-33.91-2.62-47.46" class="colorStrokeD0E0F4 svgStroke"></path><path fill="#f2b1af" d="M376.06,426.82c-20.8,2.05-43.37,0.7-43.37,0.7c-8.23-6.84-4.83-21.19-4.49-22.93
				c4.59-0.66,9.44-1.77,14.12-3.02c2.12-0.52,4.39-1.12,6.68-1.79c2.46-0.73,5.28-1.7,8.28-2.82c0.27-0.11,0.55-0.2,0.82-0.3
				c5.23-1.8,8.66-3.2,8.66-3.2S366.76,417.66,376.06,426.82z" class="colorF2B1AF svgShape"></path><path fill="#4b6fdd" d="M405.94,422.45c-6.36,1.71-17.87,3.2-29.88,4.37c-9.3-9.16-9.3-33.35-9.3-33.35s-3.43,1.39-8.66,3.2
				c9.87-3.75,21.42-8.85,28.58-11.5c12.07-4.45,23.3-4.66,23.3-4.66s24.97-4.87,28.58,10.8
				C442.14,406.99,423.31,417.79,405.94,422.45z" class="color4B6FDD svgShape"></path><path fill="#4b6fdd" d="M371.05,391.54c0,0-0.5,12.26,2.18,20.33s7.39,14.78,7.39,14.78s-5.38,2.27-7.56,0.5
				c0,0-4.7-7.64-6.47-16.63c-1.76-8.99-1.68-16.8-1.68-16.8L371.05,391.54z" class="color4B6FDD svgShape"></path><path fill="#163687" d="M371.05,391.54c0,0-0.5,12.26,2.18,20.33s7.39,14.78,7.39,14.78s-5.38,2.27-7.56,0.5
				c0,0-4.7-7.64-6.47-16.63c-1.76-8.99-1.68-16.8-1.68-16.8L371.05,391.54z" class="color163687 svgShape"></path><path fill="none" stroke="#D0E0F4" stroke-miterlimit="10" stroke-width=".601" d="M409.97 380.52c0 0-11.22.21-23.29 4.66-9.55 3.52-26.89 11.43-37.69 14.61-10.8 3.18-20.75 4.66-20.75 4.66M358.2 365.45c0 0-3.39 10.8-10.06 17.47" class="colorStrokeD0E0F4 svgStroke"></path><g fill="#000000" class="color000 svgShape"><path fill="#f2b1af" d="M304.86,278.74c0,0,7.61-3.61,13.82-3.96c6.21-0.36,13.45-0.1,15.53,0.29s8.19,2.56,9.37,4.12
					c1.19,1.56,0.51,5.55-1.01,6.4c0,0,0.3,3.58-1.59,4.65c0,0,0.88,1.72,1.85,3.34c0.97,1.62,0.69,3.12,0.69,3.12
					s1.77,0.69,1.16,2.22s-7.11,0.07-11.04-0.53c-3.93-0.61-12.12-1.72-15.05-1.65c-2.92,0.07-13.56,1.1-13.56,1.1l-4.11-8.53
					L304.86,278.74z" class="colorF2B1AF svgShape"></path><path fill="none" stroke="#163687" stroke-linecap="round" stroke-linejoin="round" stroke-miterlimit="10" stroke-width=".497" d="M342.57 285.59c0 0-.86-2.29-2.72-3.08-1.86-.79-10.35-3.25-10.35-3.25M340.97 290.24c0 0-2.57-1.67-4.61-2.35-2.04-.68-8.07-2.84-8.07-2.84M343.51 296.7c0 0-1.87-1.06-5.49-1.7-3.61-.64-11.85-3.87-11.85-3.87" class="colorStroke163687 svgStroke"></path></g><g fill="#000000" class="color000 svgShape"><path fill="#dd4e6a" d="M327.03,229.04c0,0-14.74,0.25-32.24,14.07c-12.98,10.25-25.41,15.67-33.88,23.92
					c-8.47,8.26-30.06,33.24-17.78,42.34s45.52-3.6,47.85-6.14s14.88-5.53,14.88-5.53s-3.66-15.53-0.17-19.35l-10,0.95
					c0,0,24.62-3.03,28.74-16.99c2.16-7.31,5.08-26.36,5.08-26.36L327.03,229.04z" class="colorDD4E6A svgShape"></path><line x1="320.98" x2="321.89" y1="268.23" y2="255.18" fill="none" stroke="#163687" stroke-linecap="round" stroke-linejoin="round" stroke-miterlimit="10" stroke-width=".47" class="colorStroke163687 svgStroke"></line><path fill="none" stroke="#163687" stroke-linecap="round" stroke-linejoin="round" stroke-miterlimit="10" stroke-width=".47" d="
					M295.69,279.32c0,0-26.36-0.79-35.57,2.86" class="colorStroke163687 svgStroke"></path></g><g fill="#000000" class="color000 svgShape"><path fill="#f2b1af" d="M389.57,337.1c0,0-1.71-4.39-5.34-5.49s-10.79-3.22-11.46-1.11c-0.67,2.11,0.93,3.19,4.48,4.76
					s3.73,2.52,3.73,2.52s-10.33,0.56-14.02-2.46s-7.06-10.65-8.41-10.65c-1.35-0.01-1.95,1.55-1.95,1.55s-1.81-1.9-3.44-1.27
					s0.88,6.85,0.88,6.85s-1.58-1.67-3.34-0.97c-1.75,0.7,1.14,5.67,3.03,8.68c1.89,3.01,11.01,10.6,14.46,12.18
					c3.46,1.58,17.96-2.65,17.96-2.65L389.57,337.1z" class="colorF2B1AF svgShape"></path><polygon fill="#f2b1af" points="389.57 337.1 401.37 341.66 400.73 359.75 379.04 348.34" class="colorF2B1AF svgShape"></polygon><path fill="none" stroke="#163687" stroke-linecap="round" stroke-linejoin="round" stroke-miterlimit="10" stroke-width=".547" d="M356.59 326.21c0 0 1.43 6.47 6.29 11.56 4.86 5.09 10.99 8.17 10.99 8.17M354.03 331.79c0 0 1.97 6.23 6.11 9.7 4.14 3.47 10.66 8.1 10.66 8.1" class="colorStroke163687 svgStroke"></path></g><path fill="#dd4e6a" d="M418.18,249.32c0,0,19.16,11.15,16.63,33.04c-1.54,13.35-3.29,29.06-3.29,43.85
				c0,37.59,2.5,49.98-9.34,53.09c-5.29,1.39-22.93-5.31-30.58-16.99c-3.74-5.71-4.44-8.05-4.44-8.05s10.71-7.16,10.18-15.42
				l1.95-4.77c0,0,4.34-10.52,5.72-17.29c1.38-6.78,0.64-35.36,0.64-35.36l7.52-21.6L418.18,249.32z" class="colorDD4E6A svgShape"></path><path fill="none" stroke="#163687" stroke-linecap="round" stroke-linejoin="round" stroke-miterlimit="10" stroke-width=".47" d="M412.09 277.41c-2.96 15.24-2.84 20.47-5.59 31.48-2.75 11.01-2.71 16.27-5.25 30.03M324.01 427.74c2.15-7.83-6.39-15.93-6.14-24.14M400.87 341.69c0 0 9.07 3.28 13.99 7.69" class="colorStroke163687 svgStroke"></path><g fill="#000000" class="color000 svgShape"><path fill="#163687" d="M424.89,341.36H318.37l-5.88-58.14c-0.31-3.05,2.08-5.7,5.15-5.7h107.99c3.06,0,5.46,2.65,5.15,5.7
					L424.89,341.36z" class="color163687 svgShape"></path><circle cx="371.63" cy="310.22" r="8.44" fill="#ffffff" class="colorFFF svgShape"></circle></g></g><rect width="445.08" height="6.33" x="33.69" y="426.57" fill="#163687" class="color163687 svgShape"></rect><g fill="#000000" class="color000 svgShape"><rect width="5.68" height="20.51" x="131.81" y="332.52" fill="#163687" transform="rotate(125.768 134.647 342.783)" class="color163687 svgShape"></rect><path fill="#89b2f9" d="M120.42,353.35l4.46-5.17l16.63-19.28c-6.76-5.82-16.95-5.07-22.77,1.68c-0.78,0.91-1.44,1.88-2,2.9
							C113.24,340.01,114.58,348.31,120.42,353.35z" class="color89B2F9 svgShape"></path><path fill="#4b6fdd" d="M120.42,353.35l4.46-5.17c-6.02-2.41-7.69-9.9-8.14-14.7C113.24,340.01,114.58,348.31,120.42,353.35z" class="color4B6FDD svgShape"></path><g fill="#000000" class="color000 svgShape"><rect width="5.68" height="20.51" x="194.36" y="332.52" fill="#163687" transform="rotate(54.232 197.195 342.76)" class="color163687 svgShape"></rect><path fill="#89b2f9" d="M211.43,353.35l-4.46-5.17l-16.63-19.28c6.76-5.82,16.95-5.07,22.77,1.68c0.78,0.91,1.44,1.88,2,2.9
							C218.62,340.01,217.27,348.31,211.43,353.35z" class="color89B2F9 svgShape"></path><path fill="#4b6fdd" d="M211.43,353.35l-4.46-5.17c6.02-2.41,7.69-9.9,8.14-14.7C218.62,340.01,217.27,348.31,211.43,353.35z" class="color4B6FDD svgShape"></path></g><g fill="#000000" class="color000 svgShape"><circle cx="161.86" cy="376.23" r="43.62" fill="#163687" class="color163687 svgShape"></circle><path fill="#163687" d="M129.49 429.81L129.49 429.81c2.36 1.36 5.39.55 6.75-1.81l9.02-15.62c1.36-2.36.55-5.39-1.81-6.75h0c-2.36-1.36-5.39-.55-6.75 1.81l-9.02 15.62C126.32 425.43 127.13 428.45 129.49 429.81zM195.34 429.81L195.34 429.81c-2.36 1.36-5.39.55-6.75-1.81l-9.02-15.62c-1.36-2.36-.55-5.39 1.81-6.75l0 0c2.36-1.36 5.39-.55 6.75 1.81l9.02 15.62C198.51 425.43 197.7 428.45 195.34 429.81z" class="color163687 svgShape"></path><rect width="11.07" height="12.67" x="156.33" y="323.2" fill="#163687" class="color163687 svgShape"></rect><rect width="17.93" height="5.34" x="152.9" y="321.18" fill="#163687" class="color163687 svgShape"></rect><polygon fill="#163687" points="157.71 319.36 152.9 321.18 152.9 326.52 157.71 324.7" class="color163687 svgShape"></polygon><g fill="#000000" class="color000 svgShape"><circle cx="166.67" cy="374.41" r="43.62" fill="#89b2f9" class="color89B2F9 svgShape"></circle><circle cx="166.67" cy="374.41" r="33.8" fill="#ffffff" class="colorFFF svgShape"></circle><circle cx="166.67" cy="374.41" r="16.35" fill="#eda93b" class="colorEDA93B svgShape"></circle><circle cx="166.67" cy="374.41" r="9.65" fill="#ffffff" class="colorFFF svgShape"></circle><circle cx="166.67" cy="374.41" r="6.67" fill="#ffffff" class="colorFFF svgShape"></circle><line x1="166.67" x2="166.67" y1="406.11" y2="400.71" fill="none" stroke="#163687" stroke-miterlimit="10" stroke-width="1.046" class="colorStroke163687 svgStroke"></line><line x1="150.82" x2="153.52" y1="401.86" y2="397.19" fill="none" stroke="#163687" stroke-miterlimit="10" stroke-width="1.046" class="colorStroke163687 svgStroke"></line><line x1="139.21" x2="143.89" y1="390.26" y2="387.56" fill="none" stroke="#163687" stroke-miterlimit="10" stroke-width="1.046" class="colorStroke163687 svgStroke"></line><line x1="134.97" x2="140.37" y1="374.41" y2="374.41" fill="none" stroke="#163687" stroke-miterlimit="10" stroke-width="1.046" class="colorStroke163687 svgStroke"></line><line x1="139.22" x2="143.89" y1="358.56" y2="361.26" fill="none" stroke="#163687" stroke-miterlimit="10" stroke-width="1.046" class="colorStroke163687 svgStroke"></line><line x1="150.82" x2="153.52" y1="346.95" y2="351.63" fill="none" stroke="#163687" stroke-miterlimit="10" stroke-width="1.046" class="colorStroke163687 svgStroke"></line><line x1="166.67" x2="166.67" y1="342.71" y2="348.11" fill="none" stroke="#163687" stroke-miterlimit="10" stroke-width="1.046" class="colorStroke163687 svgStroke"></line><line x1="182.52" x2="179.82" y1="346.96" y2="351.63" fill="none" stroke="#163687" stroke-miterlimit="10" stroke-width="1.046" class="colorStroke163687 svgStroke"></line><line x1="194.13" x2="189.45" y1="358.56" y2="361.26" fill="none" stroke="#163687" stroke-miterlimit="10" stroke-width="1.046" class="colorStroke163687 svgStroke"></line><line x1="198.37" x2="192.97" y1="374.41" y2="374.41" fill="none" stroke="#163687" stroke-miterlimit="10" stroke-width="1.046" class="colorStroke163687 svgStroke"></line><line x1="194.12" x2="189.45" y1="390.26" y2="387.56" fill="none" stroke="#163687" stroke-miterlimit="10" stroke-width="1.046" class="colorStroke163687 svgStroke"></line><line x1="182.52" x2="179.82" y1="401.87" y2="397.19" fill="none" stroke="#163687" stroke-miterlimit="10" stroke-width="1.046" class="colorStroke163687 svgStroke"></line><rect width="11.07" height="12.67" x="161.14" y="321.38" fill="#89b2f9" class="color89B2F9 svgShape"></rect><rect width="17.93" height="5.34" x="157.71" y="319.36" fill="#89b2f9" class="color89B2F9 svgShape"></rect><polygon fill="#163687" points="167.04 375.32 167.04 373.5 190.67 374.19 190.67 374.64" class="color163687 svgShape"></polygon><polygon fill="#163687" points="167.58 375.43 165.76 375.43 166.45 351.8 166.9 351.8" class="color163687 svgShape"></polygon><circle cx="166.67" cy="374.41" r="3.15" fill="#163687" class="color163687 svgShape"></circle></g></g></g><g fill="#000000" class="color000 svgShape"><polygon fill="#eda93b" points="276.19 191.11 236.63 193.15 236.63 146.71 274.75 147.79" class="colorEDA93B svgShape"></polygon><rect width="6.21" height="12.28" x="251.81" y="141.38" fill="#ffffff" transform="rotate(19.689 254.925 147.53)" class="colorFFF svgShape"></rect></g></g><path fill="none" stroke="#89B2F9" stroke-linecap="round" stroke-miterlimit="10" stroke-width="3.384" d="M47.49 163.24c0 0-13.7 8.28-13.06 24.53M38.57 151.46c0 0-21.66 15.93-16.56 41.73" class="colorStroke89B2F9 svgStroke"></path></svg></g></svg>